<?xml version="1.0" encoding="utf-8"?>
<!-- Generator: Adobe Illustrator 27.2.0, SVG Export Plug-In . SVG Version: 6.00 Build 0)  -->
<svg version="1.1" id="Calque_1" xmlns="http://www.w3.org/2000/svg" xmlns:xlink="http://www.w3.org/1999/xlink" x="0px" y="0px"
	 viewBox="0 0 429.3 8556.6" style="enable-background:new 0 0 429.3 8556.6;" xml:space="preserve">
<style type="text/css">
	.st0{opacity:0.2;}
	.st1{fill:#FF83BF;}
</style>
<g class="st0">
	<g>
		<path class="st1" d="M221,5109c-35,5-70-1-103-11c-11-12-21-23-31-36c-1-2,2-3,3-3c16,6,31,12,47,13c15,1,30,5,45-2c1-1,1-2,1-3
			c-1-2-2-3-4-4c-13-4-26-4-39-6c-4-1-8-2-13-3c-26-7-49-20-66-41c-8-10-17-25-6-36c2-2,5-2,7-4c2-1,4-2,6-2c4,0,7-2,11-2
			c40-4,80,0,120-3c2,0,4-3,6-2c14,5,25,17,36,28c2,2,2,6,1,6c-11,5-22,6-34,8c-11,1-22,2-33,5c-1,1-4,1-3,3c7,10,19,8,29,9
			c33,4,67-3,97,16c7,5,12,12,12,21c-1,13-12,22-23,29C266,5101,244,5108,221,5109L221,5109z"/>
		<path class="st1" d="M481,4891c2-1,5-3,8,2s0,10,0,15c0,1,1,2,1,3c-3,15-2,31-7,45c-21,11-43,17-67,21c-2,0-3,2-5,2
			c-5,0-11-1-13,2s-1,7-2,10c10,6,19,13,29,20c1,1,1,2,1,3c-22,20-44,39-72,48c-14-12-28-24-45-34c-2-1-2-3-4-4c-1-1-2,0-3-1
			c-6-6-13-11-19-17c-1,0-2,0-3-1c-6-6-13-10-19-16c-6-7-13-11-20-17c-12-12-24-24-37-36c-1-2,1-4,2-5c9-3,16-7,25-10
			c11-5,20-13,31-19c6,1,9,6,15,9c22,10,39,27,60,42c4,2,7,4,10,6c0-4-2-7-2-11c1-7,2-13,2-20c-2-14-2-26-5-40c0-1,1-3,2-4
			c7-4,13-6,21-7c1,0,1,1,2,1c4,0,7-4,11-5c1,0,2,0,3,0c3-3,7-3,11-4c1,0,2,2,3,4c5,15,9,30,10,46c0,1,1,2,2,2c19-5,35-14,53-20
			C467,4898,474,4894,481,4891L481,4891z M345.2,4947.4L345.2,4947.4z"/>
		<path class="st1" d="M530,4850c-4,10-7,21-14,29c-3,2-4,5-7,7c-5,4-11,6-17,7c-13,1-27,0-36-11c-24-30-11-69,0-101c-5-1-9,0-11,3
			c-17,22-15,50-24,74c-13-1-26-5-38-13c0-1-1-3-1-4c1-10,3-20,6-31c7-30,17-58,36-83c9-10,19-18,32-22c8-2,16-2,24,0
			c24,7,46,18,68,29c6,3,12,8,19,11c3,1,6,3,5,6c-2,8-9,14-13,21c-5,11-11,21-16,32c-2,3-6,8-10,6c-2,0-6-1-8-3
			C532,4820,533,4836,530,4850L530,4850z M499,4813c5-11-5-24-17-22c-6,1-11,5-11,12c0,3,1,8,4,10c7,3,15,6,23,2
			C498,4815,499,4814,499,4813L499,4813z"/>
		<path class="st1" d="M664,4689c-6,4-13,7-19,11c-23,12-48,19-74,14c-24-5-42-20-63-31c-4,4-7,9-11,10c-9,3-18-5-26-9
			c-4-3-7-6-11-8c4-5,8-10,12-14c-1,1-3,3-4,4c1-1,4-3,4-4c-1-2-5-3-7-5c-5-5-12-9-16-15c7-10,18-17,27-26c13-11,26-22,41-30
			c12-5,18,11,26,18c10-4,18-13,29-14c9,8,18,16,27,24c-4,10-18,11-26,16c13,11,26,23,43,28c9,3,16-2,24-6c3-1,6,1,8,2
			c11,8,21,17,30,26c-2,0-2,2-2,3c-1,1-3,1-5,3C669,4687,666,4688,664,4689L664,4689z"/>
		<path class="st1" d="M697,4549c24-2,49-2,73,6c12,5,24,10,35,18c14,11,26,22,34,37c0,1-1,3-1,3c-38-6-75-9-113-5
			c14,19,39,21,60,22c18,1,35-1,53,0c2,1,5,2,7,4c8,11,16,20,23,31c0,1-1,3-2,3c-16,2-31,3-46,2c-13-1-26,0-39-1c-14-2-29-2-43-4
			c-32-4-63-12-92-28c-10-7-19-13-27-23c-5-7-4-16-6-24c5-3,4-10,8-14c3-4,7-7,11-10c10-7,21-8,32-12S686,4551,697,4549L697,4549z
			 M713,4570c-3-1-7,1-8,4c-1,5,3,9,6,13c9,0,19-2,28-2C732,4578,725,4568,713,4570L713,4570z"/>
	</g>
</g>
</svg>
