<?xml version="1.0" encoding="utf-8"?>
<!-- Generator: Adobe Illustrator 27.2.0, SVG Export Plug-In . SVG Version: 6.00 Build 0)  -->
<svg version="1.1" id="Calque_1" xmlns="http://www.w3.org/2000/svg" xmlns:xlink="http://www.w3.org/1999/xlink" x="0px" y="0px"
	 viewBox="0 0 1920 1188.5" style="enable-background:new 0 0 1920 1188.5;" xml:space="preserve">
<style type="text/css">
	.st0{fill:#FFFCF5;}
	.st1{opacity:0.18;}
	.st2{fill:#EF86B4;}
</style>
<rect y="51.5" class="st0" width="1920" height="1080"/>
<g>
	<g class="st1">
		<path class="st2" d="M182.1,329.3c-20,0-38.9-2.4-56.5-7.2c-17.6-4.8-33-11.5-46.2-20.2c-1.5-7.2-2.9-14.2-4.3-21.1
			c-1.3-6.9-2.7-14.8-4-23.8c-1.3-9-2.9-20-4.7-33.2v-1.3c0.6-2.7,2.7-5.2,6.3-7.6c10.5,6.9,20,12,28.7,15.2
			c8.7,3.3,15.8,4.9,21.5,4.9h13.5l7.6,0.4c6.9,0,13.3-1,19.3-3.1c7.8-3,12.2-6.9,13.2-11.7c1-4.8-0.8-9.3-5.6-13.5
			c-4.8-4.2-12.1-6.9-22-8.1c-13.8-1.8-26.9-7-39.5-15.7c-12.6-8.7-22.8-19.6-30.7-32.7c-7.9-13.1-11.9-27.2-11.9-42.1
			c0-26.6,7.3-47.3,22-62.1c14.6-14.8,33.3-25.5,56-32.1c20-5.7,42.1-8.5,66.4-8.5c6.9,0,14.5,0.4,22.9,1.1c8.4,0.7,18.8,2,31.4,3.8
			c2.7,1.5,6.7,2.4,12.1,2.7l11.7,2.7c5.1,1.2,9.3,1.9,12.8,2c3.4,0.2,6.2,0.2,8.3,0.2c0.3,0,0.5,0.1,0.7,0.2
			c0.1,0.2,0.4,0.2,0.7,0.2c0.6,0.3,1.2,0.7,1.8,1.3c0.6,1.5,1.2,2.5,1.8,2.9c0.6,0.4,1,0.7,1.3,0.7h0.9l0.9,9.9
			c0,2.7,0.1,5.2,0.4,7.4c0.3,2.2,0.6,4.4,0.9,6.5c0.6,3.9,1,7.8,1.3,11.9c0.3,4,0.4,8.1,0.4,12.3c0,14.6-3,24.2-9,28.7l-39-4.9
			h-6.3c-2.1,0-6-0.1-11.7-0.4c-5.7-0.3-11.7-0.4-18.2-0.2c-6.4,0.2-12,0.9-16.6,2.2c-4.6,1.3-6.9,3.5-6.9,6.5
			c0,3.6,1.1,7.1,3.4,10.5c2.2,3.4,5.8,6.4,10.5,8.7c2.1,1.2,4,2.4,5.8,3.6c1.8,1.2,3.7,2.1,5.8,2.7c2.4,0.6,4.3,1.2,5.8,1.8
			c1.5,0.6,2.4,1.1,2.7,1.3c10.5,3.6,20.1,8,28.9,13.2c8.8,5.2,17.3,11.9,25.3,20c8.7,8.4,14.5,18.3,17.5,29.8
			c3,11.5,4.2,22.8,3.6,33.8c-2.7,22.4-10.6,41.7-23.8,57.8c-7.5,7.5-15.5,13.8-24.2,19.1c-8.7,5.2-18.1,9.6-28.2,13.2
			C229.2,326,207.5,329.3,182.1,329.3z"/>
		<path class="st2" d="M421.1,318.5c-3.3,0-6.4-2.8-9.4-8.5c-4.5-9.9-6.7-27.5-6.7-52.9c0-12.3,0.1-27,0.2-44.2
			c0.1-17.2,0.5-33.7,1.1-49.5c0.3-5.1,0.4-11.7,0.4-20c0-8.2,0-18.2,0-29.8H344c-7.8,0-12.6-8.1-14.3-24.2
			c-0.3-4.2-0.7-9.4-1.1-15.7c-0.4-6.3-0.7-13.6-0.7-22v-6.3c0-1.5,0-2.8,0-3.8c0-1,0.1-2,0.4-2.9V28c0-1.8,0.9-3.3,2.7-4.5
			c1.8-1.2,3.7-2.1,5.8-2.7c3.3-0.9,7.8-1.3,13.5-1.3h46.2c3.9,0,7.2,0.1,9.9,0.2c2.7,0.2,5.1,0.2,7.2,0.2l15.7,0.4h156.9
			c6,0,10.8,0,14.3,0c3.6,0,6.3,0.2,8.1,0.4c0.6,0,1.5,0,2.7,0c1.2,0,2.4,0.2,3.6,0.4c2.7,0.3,5,0.9,6.9,1.8
			c1.9,0.9,2.9,1.9,2.9,3.1v79.4c0,3.9-1.1,6.2-3.1,6.9c-2.1,0.7-4.5,1.1-7.2,1.1h-61.4v23.8c0,2.1,0,4.1,0,6.1
			c0,1.9-0.2,3.4-0.4,4.3c0,4.2-0.2,11-0.4,20.4c-0.3,9.4-0.7,21.3-1.3,35.6l-0.4,13.5c-0.3,5.7-0.7,12.3-1.1,20
			c-0.4,7.6-0.8,12.8-1.1,15.5v42.1c0,10.2-2.1,16.4-6.3,18.8c-2.1,0.6-3.7,1-4.9,1.3c-1.2,0.3-2.2,0.6-3.1,0.9l-10.3,0.4
			c-5.7,0.3-10.6,0.5-14.8,0.7c-4.2,0.1-7.5,0.2-9.9,0.2l-46.2,0.9c-2.7,0-6.7,0.1-11.9,0.2C435.4,318.4,428.9,318.5,421.1,318.5z"
			/>
		<path class="st2" d="M881.1,333.7c-1.8,0-3-0.2-3.6-0.4c-4.2-2.7-7.6-5.7-10.3-9c-0.6-0.6-1-1.1-1.1-1.6c-0.2-0.4-0.4-0.7-0.7-0.7
			c-0.6-0.6-1.1-0.9-1.3-0.9h-0.4l-2.2-1.8l-43.9-58.7c-0.6-2.1-1.6-4.1-2.9-6.1c-1.3-1.9-2.8-4-4.3-6.1c-1.2-0.9-2.2-1.9-3.1-2.9
			c-0.9-1-1.6-2.2-2.2-3.4c-1.2-1.8-2.4-2.7-3.6-2.7c-1.2,0-2.1,1.6-2.7,4.9c-0.6,3.9-1,9.9-1.1,17.9c-0.2,8.1-0.2,15.5-0.2,22.4
			c0,12-0.7,22.1-2.2,30.5c-0.3,3.6-1.5,5.4-3.6,5.4h-3.1l-1.3-0.9h-0.4c-6.9,0.6-16.1,1.3-27.8,2c-11.7,0.7-23.2,1.4-34.7,2
			c-11.5,0.6-20.7,0.9-27.6,0.9c-1.5,0-2.8-0.1-4-0.2c-1.2-0.2-2.2-0.4-3.1-0.7h-21.1l-15.2-5.4l-1.3-3.1v-1.8
			c-0.3-0.6-0.4-1.8-0.4-3.6c0-0.6-0.2-1.7-0.4-3.4c-0.3-1.6-0.6-3.7-0.9-6.1c-0.9-8.7-1.4-16.2-1.6-22.6c-0.2-6.4-0.1-8.6,0.2-6.5
			c-0.3-3.9-0.7-9.1-1.3-15.7c-0.6-6.6-1.2-14.5-1.8-23.8l-0.9-15.7c0-10.5-0.4-18.5-1.3-24.2l-1.3-9.4c-0.9-6-1.3-11.7-1.1-17
			c0.1-5.4,0.2-10.6,0.2-15.7c0-0.6,0.1-1,0.4-1.3v-4c0.3-1.2,0.4-3.9,0.4-8.1l0.9-7.6l0.4-4.9c0-6-0.4-14.9-1.3-26.9
			c-0.9-7.2-1.3-16.3-1.3-27.3c0-7.8,0.2-14.6,0.7-20.6c0.4-6,1.3-10.8,2.5-14.3c2.1-10.5,6.4-15.7,13-15.7
			c16.1,0,32.5,0.2,49.1,0.7c16.6,0.4,33.1,0.7,49.5,0.7c3.9,0,8.6,0.1,14.1,0.2c5.5,0.2,12,0.4,19.5,0.7l16.6,0.4l61,0.9
			c36.8,1.2,64.9,10.5,84.3,27.8c8.7,7.2,15.1,15.8,19.3,26c4.2,10.2,6.3,20.9,6.3,32.3c0,12.9-2.2,24.4-6.5,34.7
			c-4.3,10.3-10.4,19.2-18.2,26.7c-7.5,6.9-15.7,12.4-24.7,16.6c1.2,0.3,2.5,1.6,4,3.8c1.5,2.2,2.5,4.6,3.1,6.9
			c0.6,1.2,1.4,2,2.5,2.5c1,0.4,2.2,1.4,3.4,2.9l5.8,7.2l3.1,3.1c0.9,0.9,1.6,1.7,2,2.5c0.4,0.7,1,1.6,1.6,2.5l13.9,20.6
			c4.2,6,7.8,11,11,15s5.3,7.6,6.5,10.5c2.1,3.9,3.1,6.7,3.1,8.5c0,5.1-4.5,10.6-13.5,16.6c-2.1,1.2-4,2.4-5.8,3.6
			c-1.8,1.2-3.9,2.4-6.3,3.6c-4.8,2.1-8.2,4.2-10.3,6.3l-15.2,10.8c-3,2.1-6,3.7-9,4.7c-3,1-6.1,2-9.4,2.9c-0.6,0-0.9,0.1-0.9,0.4
			c0,0.3-0.2,0.4-0.7,0.2c-0.4-0.2-1,0.1-1.6,0.7c-0.9,0.9-5.5,2.5-13.9,4.9c-1.5,0.9-4,1.6-7.6,2.2c-2.1,1.5-4,2.2-5.8,2.2h-1.8
			c-0.6,1.2-1.1,1.8-1.3,1.8H881.1z M796.3,177.3h6.3c9,0,15.2-4.3,18.8-12.8c3.6-8.5,5.7-17.9,6.3-28c0.3-3.3,0.5-6.7,0.7-10.3
			c0.1-3.6,0.2-7.5,0.2-11.7V110c0-6.9-0.4-14.3-1.3-22.4c-0.9-8.1-4.8-14.2-11.7-18.4c-3.9-2.7-8.2-4-13-4c-1.5,0-2.5,1.8-3.1,5.4
			c-2.4,6.3-3.9,16.4-4.5,30.5c-0.3,2.7-0.6,5.7-0.9,9c-0.3,3.3-0.6,6.9-0.9,10.8l-0.4,13c-0.3,8.4-0.4,16.1-0.4,23.1
			c0,7,0,13.2,0,18.6c0,0.9,0.3,1.3,0.9,1.3L796.3,177.3z"/>
		<path class="st2" d="M1110.2,315.8h-70.8c-3.3,0-5.5-0.2-6.7-0.4c-1.5-0.3-3.1-0.5-4.9-0.7c-1.8-0.2-3.7-0.4-5.8-0.7l-9.4-2.2
			c-1.5,0-2.7-0.4-3.6-1.3v-0.9c0-7.8-0.4-17.9-1.3-30.5c0-4.8-0.2-8.8-0.7-12.1c-0.4-3.3-0.8-6.3-1.1-9l-0.9-18.8
			c-0.3-2.7-0.4-5.7-0.2-9c0.1-3.3,0.1-7-0.2-11.2l-0.9-13.5c-0.3-5.7-0.4-10.8-0.2-15.2c0.1-4.5,0.1-8.2-0.2-11.2
			c0-1.5-0.1-3.4-0.2-5.6c-0.2-2.2-0.2-6-0.2-11.2c0-5.2,0-12.9,0-23.1c0-28.4,0.2-51.3,0.7-68.8c0.4-17.5,1.3-32.8,2.5-46
			c0-3,3.7-5.7,11.2-8.1c3-0.3,6.5-0.5,10.5-0.7c4-0.1,7.8-0.2,11.4-0.2c12.3,0,22.8-0.1,31.6-0.2c8.8-0.1,16.1-0.5,21.7-1.1
			c17.6-0.3,33-0.5,46.2-0.7c13.1-0.1,24.4-0.2,33.6-0.2h19.7c12.6,0,23.5,0.3,32.7,0.9c9.3,0.6,17.2,1.2,23.8,1.8
			c4.5,0,7.9,5.5,10.3,16.6c0.6,1.2,1,3,1.3,5.4c0.3,2.4,0.9,6.1,1.8,11.2c0.6,6.6,1.2,11.7,1.8,15.2c0.6,3.6,1.2,7,1.8,10.3
			c0.3,0.6,0.4,2.2,0.4,4.9c-0.3,0.3-0.4,1.5-0.4,3.6c-0.3,2.7-1.9,4-4.9,4c-0.6-0.3-2.2-0.4-4.9-0.4c-6.6,0-13.7,0.4-21.3,1.1
			c-7.6,0.8-16.2,1.4-25.8,2l-23.3,1.8l-23.3,2.2c-0.9,0-2.1,1.6-3.6,4.9c-0.9,2.1-1.8,3.5-2.7,4.3c-0.9,0.7-1.5,2.5-1.8,5.2
			l-0.9,15.2c-0.3,3.9,0.1,6.4,1.3,7.6c1.2,1.2,3.4,1.8,6.7,1.8h39.9c11.4,0,24.7,0.9,39.9,2.7h4.5c5.7,0,9.1,3.3,10.3,9.9l0.9,44.4
			v1.3c0,5.4-5.1,8.4-15.2,9c-2.7,0.9-6.7,1.5-12.1,1.8c-5.4,0.3-13.6,0.4-24.7,0.4c-11.1,0-18.3,0-21.7,0c-3.4,0-5.9-0.1-7.4-0.4
			c-6.3,0-10.3,0-12.1,0s-3,0.2-3.6,0.4c-3,0.6-5,1.3-6.1,2c-1.1,0.7-1.6,2.7-1.6,5.8c0,3.1-0.2,8.9-0.4,17.3
			c-0.3,1.2-0.5,2.8-0.7,4.7c-0.2,1.9-0.2,6.2-0.2,12.8c17.9,0,32-0.1,42.1-0.4c10.2-0.3,18.1-0.6,23.8-0.9
			c8.7-0.3,16.5-0.5,23.5-0.7c7-0.1,13.4-0.2,19.1-0.2c0.9,0,2.1,1.1,3.6,3.1c1.2,2.1,2.8,7.5,4.9,16.1c2.1,8.7,4.6,20.5,7.6,35.4
			c0.6,1.5,0.9,3.7,0.9,6.7c0,6.3-2.8,9.4-8.5,9.4c-9.6,0-20.2,0.4-31.8,1.3c-2.1,0.3-5,0.4-8.7,0.4c-3.7,0-11.4,0-23.1,0
			c-10.5,0-22,0-34.7,0c-12.7,0-24.4,0.1-35,0.2C1123.6,315.7,1115.6,315.8,1110.2,315.8z"/>
		<path class="st2" d="M1399.4,315.8h-70.8c-3.3,0-5.5-0.2-6.7-0.4c-1.5-0.3-3.1-0.5-4.9-0.7c-1.8-0.2-3.7-0.4-5.8-0.7l-9.4-2.2
			c-1.5,0-2.7-0.4-3.6-1.3v-0.9c0-7.8-0.4-17.9-1.3-30.5c0-4.8-0.2-8.8-0.7-12.1c-0.4-3.3-0.8-6.3-1.1-9l-0.9-18.8
			c-0.3-2.7-0.4-5.7-0.2-9c0.1-3.3,0.1-7-0.2-11.2l-0.9-13.5c-0.3-5.7-0.4-10.8-0.2-15.2c0.1-4.5,0.1-8.2-0.2-11.2
			c0-1.5-0.1-3.4-0.2-5.6c-0.2-2.2-0.2-6-0.2-11.2c0-5.2,0-12.9,0-23.1c0-28.4,0.2-51.3,0.7-68.8c0.4-17.5,1.3-32.8,2.5-46
			c0-3,3.7-5.7,11.2-8.1c3-0.3,6.5-0.5,10.5-0.7c4-0.1,7.8-0.2,11.4-0.2c12.3,0,22.8-0.1,31.6-0.2c8.8-0.1,16.1-0.5,21.7-1.1
			c17.6-0.3,33-0.5,46.2-0.7c13.1-0.1,24.4-0.2,33.6-0.2h19.7c12.6,0,23.5,0.3,32.7,0.9c9.3,0.6,17.2,1.2,23.8,1.8
			c4.5,0,7.9,5.5,10.3,16.6c0.6,1.2,1,3,1.3,5.4c0.3,2.4,0.9,6.1,1.8,11.2c0.6,6.6,1.2,11.7,1.8,15.2c0.6,3.6,1.2,7,1.8,10.3
			c0.3,0.6,0.4,2.2,0.4,4.9c-0.3,0.3-0.4,1.5-0.4,3.6c-0.3,2.7-1.9,4-4.9,4c-0.6-0.3-2.2-0.4-4.9-0.4c-6.6,0-13.7,0.4-21.3,1.1
			c-7.6,0.8-16.2,1.4-25.8,2l-23.3,1.8l-23.3,2.2c-0.9,0-2.1,1.6-3.6,4.9c-0.9,2.1-1.8,3.5-2.7,4.3c-0.9,0.7-1.5,2.5-1.8,5.2
			l-0.9,15.2c-0.3,3.9,0.1,6.4,1.3,7.6c1.2,1.2,3.4,1.8,6.7,1.8h39.9c11.4,0,24.7,0.9,39.9,2.7h4.5c5.7,0,9.1,3.3,10.3,9.9l0.9,44.4
			v1.3c0,5.4-5.1,8.4-15.2,9c-2.7,0.9-6.7,1.5-12.1,1.8c-5.4,0.3-13.6,0.4-24.7,0.4c-11.1,0-18.3,0-21.7,0c-3.4,0-5.9-0.1-7.4-0.4
			c-6.3,0-10.3,0-12.1,0s-3,0.2-3.6,0.4c-3,0.6-5,1.3-6.1,2c-1.1,0.7-1.6,2.7-1.6,5.8c0,3.1-0.2,8.9-0.4,17.3
			c-0.3,1.2-0.5,2.8-0.7,4.7c-0.2,1.9-0.2,6.2-0.2,12.8c17.9,0,32-0.1,42.1-0.4c10.2-0.3,18.1-0.6,23.8-0.9
			c8.7-0.3,16.5-0.5,23.5-0.7c7-0.1,13.4-0.2,19.1-0.2c0.9,0,2.1,1.1,3.6,3.1c1.2,2.1,2.8,7.5,4.9,16.1c2.1,8.7,4.6,20.5,7.6,35.4
			c0.6,1.5,0.9,3.7,0.9,6.7c0,6.3-2.8,9.4-8.5,9.4c-9.6,0-20.2,0.4-31.8,1.3c-2.1,0.3-5,0.4-8.7,0.4c-3.7,0-11.4,0-23.1,0
			c-10.5,0-22,0-34.7,0c-12.7,0-24.4,0.1-35,0.2C1412.7,315.7,1404.7,315.8,1399.4,315.8z"/>
		<path class="st2" d="M1654,318.5c-3.3,0-6.4-2.8-9.4-8.5c-4.5-9.9-6.7-27.5-6.7-52.9c0-12.3,0.1-27,0.2-44.2
			c0.1-17.2,0.5-33.7,1.1-49.5c0.3-5.1,0.4-11.7,0.4-20c0-8.2,0-18.2,0-29.8h-62.8c-7.8,0-12.6-8.1-14.3-24.2
			c-0.3-4.2-0.7-9.4-1.1-15.7s-0.7-13.6-0.7-22v-6.3c0-1.5,0-2.8,0-3.8c0-1,0.1-2,0.4-2.9V28c0-1.8,0.9-3.3,2.7-4.5
			c1.8-1.2,3.7-2.1,5.8-2.7c3.3-0.9,7.8-1.3,13.5-1.3h46.2c3.9,0,7.2,0.1,9.9,0.2c2.7,0.2,5.1,0.2,7.2,0.2l15.7,0.4H1819
			c6,0,10.8,0,14.3,0s6.3,0.2,8.1,0.4c0.6,0,1.5,0,2.7,0c1.2,0,2.4,0.2,3.6,0.4c2.7,0.3,5,0.9,6.9,1.8c1.9,0.9,2.9,1.9,2.9,3.1v79.4
			c0,3.9-1.1,6.2-3.1,6.9c-2.1,0.7-4.5,1.1-7.2,1.1h-61.4v23.8c0,2.1,0,4.1,0,6.1c0,1.9-0.2,3.4-0.4,4.3c0,4.2-0.2,11-0.4,20.4
			c-0.3,9.4-0.8,21.3-1.3,35.6l-0.4,13.5c-0.3,5.7-0.7,12.3-1.1,20c-0.4,7.6-0.8,12.8-1.1,15.5v42.1c0,10.2-2.1,16.4-6.3,18.8
			c-2.1,0.6-3.7,1-4.9,1.3c-1.2,0.3-2.2,0.6-3.1,0.9l-10.3,0.4c-5.7,0.3-10.6,0.5-14.8,0.7c-4.2,0.1-7.5,0.2-9.9,0.2l-46.2,0.9
			c-2.7,0-6.7,0.1-11.9,0.2C1668.3,318.4,1661.8,318.5,1654,318.5z"/>
		<path class="st2" d="M272.6,890.4c-11.1,1.1-21.6,1.5-31.3,1.2c-9.8-0.3-19.7-0.4-29.8-0.4c-17.5,0-32-0.8-43.6-2.4
			c-11.6-1.6-22.6-4.4-32.9-8.3c-10.3-4-22.9-9.4-37.7-16.3l-34.9-16.7c-0.5-0.5-0.8-1.8-0.8-4l1.6-16.7c0.5-2.6,1.1-5.4,1.6-8.3
			c0.5-2.9,1.1-5.4,1.6-7.5c0-3.2,0-9.4,0-18.7c0-9.2,0.1-19.3,0.4-30.2c0.3-10.8,0.7-21,1.2-30.6c0.5-9.5,1.1-16.1,1.6-19.8
			c0-3.2,0.1-5.8,0.4-7.9c0.3-2.1,0.4-3.7,0.4-4.8c0-1.1,0.3-2.1,0.8-3.2c0-0.5,0.7-1.3,2-2.4c1.3-1.1,3.8-0.3,7.5,2.4
			c19,6.3,33.2,11.2,42.5,14.7c9.3,3.4,16.7,5.8,22.2,7.1c5.6,1.3,12,2,19.4,2c4.8,0,9.5-2,14.3-6s8.2-9.9,10.3-17.9
			c1.1-1.6,2.9-7.1,5.6-16.7c1.1-4.8,2.1-10,3.2-15.9c0.5-2.1,0.8-5.6,0.8-10.3s0-10.6,0-17.5c0-12.2,0.3-29.4,0.8-51.6
			c0.5-22.2,1.1-50.5,1.6-84.9V465l-0.8-86.5c0-8.5,2-14.4,6-17.9c4-3.4,8.2-5.6,12.7-6.3c4.5-0.8,7.5-1.2,9.1-1.2l63.5-0.8h149.2
			c14.8,0,24.9,2.7,30.2,7.9c1.1,2.1,2.1,4.6,3.2,7.5c1.1,2.9,1.6,6.7,1.6,11.5c0,6.9,0.4,12.8,1.2,17.9c0.8,5,1.2,8.9,1.2,11.5
			v165.1c-1.1,0-1.6,2.4-1.6,7.1v6.3c-0.5,2.7-0.5,5.6,0,8.7c0,3.7-0.3,6.3-0.8,7.9c-0.5,2.1-0.8,4.9-0.8,8.3c0,3.4,0,7.5,0,12.3
			V638l-0.8,6.3c0,20.6-0.4,38-1.2,52c-0.8,14-2.5,27.9-5.2,41.7c-7.9,47.1-29.1,84-63.5,110.7C369.9,875.5,326,889.3,272.6,890.4z"
			/>
		<path class="st2" d="M1073.3,882.5c-3.7,0-6.9-0.1-9.5-0.4c-2.7-0.3-5.3-0.7-7.9-1.2H924.1c-0.5,0-1.3-0.1-2.4-0.4
			c-1.1-0.3-2.4-0.7-4-1.2H894l-34.1-0.8c-2.1,0-3.4,0.3-4,0.8c-1.1,1.1-3.2,1.6-6.3,1.6h-2.4l-0.8-0.8c-2.1,0-3.2-0.3-3.2-0.8
			c-1.6-0.5-3.2-0.8-4.8-0.8s-2.9,0-4,0c-1.1-4.2-2.4-12-4-23.4c-1.6-11.4-5.3-27.6-11.1-48.8l-6.3-22.2h-44.4
			c-8.5,0-15.9-0.3-22.2-0.8c-6.3-0.5-13-1.6-19.8-3.2c0,2.1-0.3,4.5-0.8,7.1c-0.5,2.7-1.1,6.3-1.6,11.1
			c-3.7,19.6-7.4,36.8-11.1,51.6c-3.7,14.8-6.9,24.3-9.5,28.6c-4.2,0-9.3,0-15.1,0c-5.8,0-12.7,0.3-20.6,0.8c-7.9,0-13,0.5-15.1,1.6
			h-7.1c-0.5,0-0.8-0.5-0.8-1.6c-0.5-0.5-1.3-0.8-2.4-0.8c-4.2,0-7.1,0.3-8.7,0.8v1.6H528.1c-2.1,0.5-4.6,0.9-7.5,1.2
			c-2.9,0.3-6.5,0.4-10.7,0.4h-7.9c-4.2,0-7.1-1.3-8.7-4c-3.7-5.3-5.6-11.1-5.6-17.5c0-3.7,0.3-6.3,0.8-7.9c0-2.6,0-5.2,0-7.5
			s0.3-5.2,0.8-8.3c1.1-5.8,2.4-10,4-12.7c1.6-5.8,2.4-9.8,2.4-11.9c1.1-6.3,6-28.7,14.7-67.1c8.7-38.4,20.8-90.1,36.1-155.2
			c15.3-65.1,33.3-140.5,54-226.2c0-0.5,0.7-1.8,2-4c1.3-2.1,3-3.7,5.2-4.8h3.2l1.6,1.6c2.6,0,4.6-0.5,6-1.6
			c1.3-1.1,2.8-1.8,4.4-2.4c4.2-1.1,7.4-1.6,9.5-1.6c3.7,0,7.3,0.1,10.7,0.4c3.4,0.3,7,0.7,10.7,1.2c1.1,0,2.4-0.1,4-0.4
			c1.6-0.3,2.9,0.1,4,1.2c1.1,0.5,2.8,0.9,5.2,1.2c2.4,0.3,4.6,0.4,6.7,0.4c0-1.1,1.3-1.7,4-2c2.6-0.3,4.5-0.4,5.6-0.4
			c4.8-0.5,10.3-0.9,16.7-1.2c6.3-0.3,14.8-0.4,25.4-0.4h75.4c0,0.5,2.4,0.8,7.1,0.8c2.6,0,4.9,0,6.7,0c1.8,0,3.8,0.3,6,0.8h39.7
			c1.1,0.5,2.2,1.1,3.6,1.6c1.3,0.5,2.5,0.8,3.6,0.8c2.6,0,5.4-0.1,8.3-0.4c2.9-0.3,5.7-0.7,8.3-1.2c2.6-0.5,5.4-0.8,8.3-0.8
			c2.9,0,4.9,0,6,0c5.8-0.5,11.1-0.9,15.9-1.2c4.8-0.3,9.8-0.4,15.1-0.4c3.2,0,6.3-0.3,9.5-0.8c3.2-0.5,6.6,0.3,10.3,2.4
			c4.2,2.1,8.1,3.3,11.5,3.6c3.4,0.3,6.5,0.4,9.1,0.4c2.1,0,3.2-0.5,3.2-1.6h3.2c1.6,0.5,3.2,2,4.8,4.4s2.4,3.8,2.4,4.4
			c5.3,20.1,11.4,44.3,18.3,72.6c6.9,28.3,14.1,58.6,21.8,90.9c7.7,32.3,15.5,65.1,23.4,98.4c7.9,33.3,15.6,65.2,23,95.6
			c7.4,30.4,13.8,57.8,19,82.1c1.1,5.3,1.7,9,2,11.1c0.3,2.1,0.7,4.5,1.2,7.1c0.5,3.7,2,9.8,4.4,18.3c2.4,8.5,3.6,14.8,3.6,19
			c0,4.2-1.1,6.6-3.2,7.1c-2.1,10.6-6.6,15.9-13.5,15.9H1073.3z M736,689.6c3.2,0,4.8-0.5,4.8-1.6h4.8c1.1-0.5,2.9-1.3,5.6-2.4
			c2.6-1.1,5.8-1.6,9.5-1.6h0.8l5.6,4h37.3l-5.6-35.7l-3.2-15.1c-1.1-5.8-2.1-10.7-3.2-14.7c-1.1-4-1.6-7.8-1.6-11.5
			c0-2.6-0.8-9.6-2.4-21c-1.6-11.4-3.4-24.5-5.6-39.3l-3.2-22.2c-1.6-4.8-2.8-9.3-3.6-13.5c-0.8-4.2-1.5-8.2-2-11.9l-1.6-9.5v-4
			c-1.1-1.1-1.6-2.4-1.6-4c0-2.1-0.3-3.2-0.8-3.2v3.2c0,2.1-1.1,4.8-3.2,7.9v9.5c-1.1,4.2-1.9,8.5-2.4,12.7
			c-0.5,4.2-1.3,8.5-2.4,12.7l-7.1,37.3c-4.2,21.2-7.4,42.1-9.5,62.7C743.4,649.1,740.3,669.5,736,689.6z"/>
		<path class="st2" d="M1218.5,888.8c-2.7,0-5-0.1-7.1-0.4c-2.1-0.3-4-0.7-5.6-1.2h-35.7l-34.9-8.7l-3.2-5.6c-0.5,0-0.8-2.9-0.8-8.7
			c0-3.7,0-7.1,0-10.3c0-3.2-0.3-5.8-0.8-7.9l-0.8-36.5c-0.5-4.2-0.7-9.1-0.4-14.7c0.3-5.6,0.1-12.3-0.4-20.2l-1.6-60.3
			c0-6.9,0.1-14.8,0.4-23.8c0.3-9,0.7-19.3,1.2-31l0.8-26.2c0.5-8.5,0.9-19.6,1.2-33.3c0.3-13.8,0.4-30.2,0.4-49.2v-15.9
			c-1.1-2.1-1.6-5-1.6-8.7l-0.8-5.6c0-13.2,0.8-27,2.4-41.3c0.5-9,0.9-17.5,1.2-25.4c0.3-7.9,0.4-15.6,0.4-23l-0.8-22.2
			c-0.5-2.6-0.8-5.7-0.8-9.1c0-3.4,0-7,0-10.7c0-1.1-0.3-1.8-0.8-2.4c-1.1-1.1-1.6-2.1-1.6-3.2c0-5.3,2.1-9.8,6.3-13.5
			c4.2-3.7,9.5-6.3,15.9-7.9c4.2-1.1,8.9-2,13.9-2.8c5-0.8,11-1.2,17.9-1.2h162.7c0.5,0,1.3,0.5,2.4,1.6l3.2,2.4
			c4.8,4.8,10,11.9,15.9,21.4c1.6,3.2,3.7,6.7,6.3,10.7c2.6,4,7.4,9.9,14.3,17.9c2.1,4.2,3.8,9.9,5.2,17.1
			c1.3,7.1,4.6,14.4,9.9,21.8l18.3,24.6c2.1,3.7,4.2,8.3,6.3,13.9c2.1,5.6,4.8,12,7.9,19.4c1.1,2.1,2,4.2,2.8,6.3
			c0.8,2.1,1.7,4.2,2.8,6.3l4.8,12.7c0.5,3.2,1.8,5.8,4,7.9c0.5,1.1,0.9,1.9,1.2,2.4c0.3,0.5,0.4,1.1,0.4,1.6
			c2.1,4.2,6.5,9.9,13.1,17.1c6.6,7.1,11,10.7,13.1,10.7c2.6,0,4.9-3.6,6.7-10.7c1.8-7.1,3.6-12.8,5.2-17.1c0.5-0.5,1.1-1.8,1.6-4
			c0.5-1.1,1.1-2.2,1.6-3.6c0.5-1.3,1.3-3,2.4-5.2l11.9-26.2l31.7-66.7l13.5-28.6c1.1-2.1,1.8-4.1,2.4-6c0.5-1.8,1.1-3.6,1.6-5.2
			c1.1-2.6,1.8-4.2,2.4-4.8c1.1-2.6,2.8-6,5.2-9.9c2.4-4,5.4-8.9,9.1-14.7c2.6-4.2,5-7.4,7.1-9.5c1.1-0.5,2.1-1.3,3.2-2.4
			c1.1-1.1,1.8-1.6,2.4-1.6h241.3c1.1,0,2.4,4,4,11.9l2.4,77c0.5,11.1,0.9,25.3,1.2,42.5c0.3,17.2,0.4,37.7,0.4,61.5V596
			c0,11.6-0.4,24.7-1.2,39.3c-0.8,14.6-1.6,27.7-2.4,39.3c-0.8,11.6-1.5,19.6-2,23.8l-1.6,15.9v27c0.5,3.7,0.8,8.3,0.8,13.9
			c0,5.6,0,12,0,19.4c0,15.4,0.1,28.8,0.4,40.5c0.3,11.6,0.9,20.4,2,26.2v31.7l-2.4,5.6l-34.9,8.7h-35.7c-2.1,0.5-4.2,0.9-6.3,1.2
			c-2.1,0.3-4.5,0.4-7.1,0.4c-4.8,0-10.3-0.1-16.7-0.4c-6.3-0.3-13.8-0.7-22.2-1.2l-19.8-0.8c-3.7-0.5-7.9-1.1-12.7-1.6
			c-4.8-0.5-10.6-0.8-17.5-0.8l-30.2-2.4c-1.1,0-1.9,0.3-2.4,0.8h-6.3c-2.1,0-3.7-2.9-4.8-8.7c-3.2-9.5-4.8-27.2-4.8-53.2
			c0-8.5,0-15.9,0-22.2c0-6.3-0.3-11.9-0.8-16.7l-0.8-42.9c-0.5-4.8-0.8-10.6-0.8-17.5c0-6.9,0-14.5,0-23c0-4.2-1.9-6.3-5.6-6.3
			c-2.1,0-4.2,2.7-6.3,7.9l-8.7,20.6l-7.1,19.8c-1.1,3.2-2.1,6.3-3.2,9.5c-1.1,3.2-2.4,6.1-4,8.7l-4,9.5
			c-4.2,10.6-10.2,22.6-17.9,36.1c-7.7,13.5-17.3,24.5-29,32.9c-5.8,3.7-11.4,5.6-16.7,5.6H1490c-2.7,0-5.3-0.1-7.9-0.4
			c-2.7-0.3-5-0.7-7.1-1.2h-33.3c-10.6-16.9-23.4-34.5-38.5-52.8c-15.1-18.3-27.1-37.4-36.1-57.5l-19.8-28.6
			c-2.1-3.2-3.6-5.7-4.4-7.5c-0.8-1.8-1.5-2.8-2-2.8c-3.7,0-5.6,2.1-5.6,6.3v36.5c0,36.5-0.5,66-1.6,88.5c-1.1,22.5-2.9,39-5.6,49.6
			c-0.5,6.3-1.9,9.5-4,9.5h-5.6l-4-0.8c-9,0.5-17.1,1.1-24.2,1.6c-7.1,0.5-13.4,1.1-18.7,1.6c-6.3,0.5-13.4,1.3-21,2.4
			C1243,888.3,1232.3,888.8,1218.5,888.8z"/>
	</g>
	<g class="st1">
		<path class="st2" d="M91.2,1163.3l-6,0.3c-3.1,0-5.4-1.2-6.9-3.7c-1.5-2.5-2.5-5.3-2.8-8.4c-0.4-3.2-0.5-5.7-0.5-7.5v-7.4
			c-0.2-4-0.5-8.2-0.7-12.8c-0.2-4.6-0.4-8.6-0.4-12.1c-0.5-10.3-0.9-19-1.2-26.1c-0.4-7.1-0.8-12.8-1.2-17c0-4-0.2-8.2-0.7-12.6
			c-0.5-4.4-0.8-7.5-1.1-9.1V931.3c0-2.3,0.8-3.6,2.5-3.9h2.1l1.1,0.4c4,0,8.5-0.1,13.5-0.4c5-0.2,10.8-0.5,17.4-0.7
			c8.3-0.2,16-0.4,23.2-0.5c7.2-0.1,13.8-0.2,19.7-0.2h3.5c0.9,0.2,3,0.4,6,0.4h9.6c3.5,0,6.7,0,9.6,0c2.8,0,5.1,0.1,6.7,0.3h34.8
			c2.1,0.2,4.8,0.4,8.2,0.5c3.3,0.1,7.5,0.2,12.4,0.2c2.1,0,3.5,0.1,4.3,0.4c0.9,0.2,2,0.4,3,0.5c1.1,0.1,2.2,0.2,3.4,0.2
			c0.9,0,1.8-0.4,2.5-1.1c5,0,7.7,4.8,8.2,14.4c0.2,0.9,0.4,2,0.5,3.2c0.1,1.2,0.2,2.2,0.2,3.2c0,0.7-0.1,2.3-0.4,4.7
			c-0.2,2.5-0.4,4.7-0.4,6.8c0,1.9-0.1,4.2-0.2,7c-0.1,2.8-0.2,6.2-0.2,10.2c0,2.3-1.3,3.6-3.9,3.9c-2.6,0.2-5.2,0.4-7.8,0.4h-20.2
			l-9.9,0.4c-2.1,0.7-5.7,1.1-10.6,1.1c-5.2,0-7.9-0.1-8.2-0.4l-1.4,0.7c-0.2,0.2-0.6,0.4-1.1,0.4c0,0.7-0.1,1.2-0.4,1.4
			c-0.2,0.2-0.4,0.8-0.4,1.8c0,0.9-0.2,3.7-0.5,8.4c-0.4,4.7-0.7,9.9-1.1,15.8c-0.4,5.8-0.5,11.2-0.5,16.1l-0.4,0.7
			c0,1.2,0.5,2.2,1.4,3.2h40.5c5,0,8,1.6,9.2,4.9c0.9,2.6,1.4,9.2,1.4,20v28.4c-0.9,3.5-2.7,5.3-5.3,5.3c-0.9,0-1.8,0.1-2.7,0.2
			c-0.8,0.1-1.7,0.3-2.7,0.5l-14.6,0.7h-6.7c-3.3,0-5.7,0.2-7.1,0.7l-6.7,1.1h-4.6c-3.8,0-6.2,0.5-7.1,1.4c-0.2,0.2-0.7,0.6-1.4,1.1
			c-0.7,0.5-1.3,1.3-1.8,2.5c0,10-0.1,18.5-0.4,25.4c-0.2,6.9-0.4,12.3-0.4,16.3c-0.2,5.1-0.6,9.6-1.1,13.3
			c-0.5,3.7-1.2,6.9-2.1,9.5c-2.1,0-4.7,0.1-7.6,0.2c-3,0.1-6.4,0.3-10.5,0.5c-1.9,0-3.4,0.1-4.6,0.2c-1.2,0.1-2,0.3-2.5,0.5h-3.5
			c-1.2,0-1.9-0.1-2.1-0.4c-0.2-0.2-0.7-0.4-1.4-0.4l-1.1-0.4c0-0.2-0.4-0.4-1.1-0.4c-0.9,0-1.9,0.5-2.8,1.4l-28-3.5
			c-0.2,0.2-0.7,0.4-1.4,0.4l-3.2,1.1L91.2,1163.3z"/>
		<path class="st2" d="M361.3,1161.5h-56.1c-2.6,0-4.4-0.1-5.3-0.3c-1.2-0.2-2.5-0.4-3.9-0.5c-1.4-0.1-3-0.3-4.6-0.5l-7.5-1.8
			c-1.2,0-2.1-0.4-2.8-1.1v-0.7c0-6.1-0.4-14-1.1-23.8c0-3.7-0.2-6.9-0.5-9.5c-0.4-2.6-0.7-4.9-0.9-7l-0.7-14.7
			c-0.2-2.1-0.3-4.4-0.2-7c0.1-2.6,0.1-5.5-0.2-8.8l-0.7-10.5c-0.2-4.4-0.3-8.4-0.2-11.9c0.1-3.5,0.1-6.4-0.2-8.8
			c0-1.2-0.1-2.6-0.2-4.4c-0.1-1.8-0.2-4.7-0.2-8.8c0-4.1,0-10.1,0-18c0-22.2,0.2-40.1,0.5-53.8s1-25.6,2-35.9c0-2.3,3-4.4,8.9-6.3
			c2.4-0.2,5.1-0.4,8.3-0.5c3.2-0.1,6.2-0.2,9-0.2c9.7,0,18-0.1,25-0.2c7-0.1,12.7-0.4,17.2-0.9c14-0.2,26.1-0.4,36.6-0.5
			c10.4-0.1,19.3-0.2,26.6-0.2h15.6c9.9,0,18.6,0.2,25.9,0.7c7.3,0.5,13.6,0.9,18.8,1.4c3.5,0,6.3,4.3,8.2,13
			c0.5,0.9,0.8,2.3,1.1,4.2c0.2,1.9,0.7,4.8,1.4,8.8c0.5,5.1,0.9,9.1,1.4,11.9c0.5,2.8,0.9,5.5,1.4,8.1c0.2,0.5,0.4,1.8,0.4,3.9
			c-0.2,0.2-0.4,1.2-0.4,2.8c-0.2,2.1-1.5,3.2-3.9,3.2c-0.5-0.2-1.8-0.3-3.9-0.3c-5.2,0-10.8,0.3-16.9,0.9c-6,0.6-12.8,1.1-20.4,1.6
			l-18.5,1.4l-18.5,1.8c-0.7,0-1.7,1.3-2.8,3.9c-0.7,1.6-1.4,2.7-2.1,3.3c-0.7,0.6-1.2,1.9-1.4,4l-0.7,11.9c-0.2,3,0.1,5,1.1,6
			c0.9,0.9,2.7,1.4,5.3,1.4H433c9,0,19.5,0.7,31.6,2.1h3.5c4.5,0,7.2,2.6,8.2,7.7l0.7,34.7v1.1c0,4.2-4,6.5-12.1,7
			c-2.1,0.7-5.3,1.2-9.6,1.4c-4.3,0.2-10.8,0.4-19.5,0.4c-8.8,0-14.5,0-17.2,0c-2.7,0-4.7-0.1-5.9-0.4c-5,0-8.2,0-9.6,0
			s-2.4,0.1-2.8,0.4c-2.4,0.5-4,1-4.8,1.6c-0.8,0.6-1.2,2.1-1.2,4.6s-0.1,7-0.4,13.5c-0.2,0.9-0.4,2.2-0.5,3.7
			c-0.1,1.5-0.2,4.9-0.2,10c14.2,0,25.3-0.1,33.4-0.4c8-0.2,14.3-0.5,18.8-0.7c6.9-0.2,13.1-0.4,18.6-0.5c5.6-0.1,10.6-0.2,15.1-0.2
			c0.7,0,1.7,0.8,2.8,2.5c0.9,1.6,2.2,5.8,3.9,12.6c1.7,6.8,3.7,16,6,27.7c0.5,1.2,0.7,2.9,0.7,5.3c0,4.9-2.3,7.4-6.7,7.4
			c-7.6,0-16,0.4-25.2,1.1c-1.7,0.2-4,0.4-6.9,0.4c-3,0-9,0-18.3,0c-8.3,0-17.5,0-27.5,0c-10.1,0-19.3,0.1-27.7,0.2
			C371.9,1161.5,365.5,1161.5,361.3,1161.5z"/>
		<path class="st2" d="M587.7,1172.1c-15.9,0-30.8-1.9-44.7-5.6c-14-3.7-26.1-9-36.6-15.8c-1.2-5.6-2.3-11.1-3.4-16.5
			c-1.1-5.4-2.1-11.6-3.2-18.6c-1.1-7-2.3-15.6-3.7-25.9v-1.1c0.5-2.1,2.1-4.1,5-6c8.3,5.4,15.8,9.3,22.7,11.9
			c6.9,2.6,12.5,3.9,17,3.9h10.6l6,0.3c5.4,0,10.5-0.8,15.3-2.5c6.1-2.3,9.6-5.4,10.5-9.1c0.8-3.7-0.7-7.2-4.4-10.5
			c-3.8-3.3-9.6-5.4-17.4-6.3c-10.9-1.4-21.3-5.5-31.2-12.3c-9.9-6.8-18-15.3-24.3-25.6c-6.3-10.3-9.4-21.3-9.4-32.9
			c0-20.8,5.8-37,17.4-48.5c11.6-11.6,26.4-19.9,44.4-25.1c15.8-4.4,33.4-6.7,52.5-6.7c5.4,0,11.5,0.3,18.1,0.9
			c6.6,0.6,14.9,1.6,24.8,3c2.1,1.2,5.3,1.9,9.6,2.1l9.2,2.1c4,0.9,7.4,1.5,10.1,1.6c2.7,0.1,4.9,0.2,6.6,0.2c0.2,0,0.4,0.1,0.5,0.2
			c0.1,0.1,0.3,0.2,0.5,0.2c0.5,0.2,0.9,0.6,1.4,1.1c0.5,1.2,0.9,1.9,1.4,2.3c0.5,0.4,0.8,0.5,1.1,0.5h0.7l0.7,7.7
			c0,2.1,0.1,4,0.4,5.8c0.2,1.8,0.5,3.4,0.7,5.1c0.5,3,0.8,6.1,1.1,9.3c0.2,3.2,0.4,6.4,0.4,9.6c0,11.4-2.4,18.9-7.1,22.4l-30.9-3.9
			h-5c-1.7,0-4.7-0.1-9.2-0.4c-4.5-0.2-9.3-0.3-14.4-0.2c-5.1,0.1-9.5,0.7-13.1,1.8c-3.7,1.1-5.5,2.7-5.5,5.1c0,2.8,0.9,5.6,2.7,8.2
			c1.8,2.7,4.6,5,8.3,6.8c1.7,0.9,3.2,1.9,4.6,2.8c1.4,0.9,3,1.6,4.6,2.1c1.9,0.5,3.4,0.9,4.6,1.4c1.2,0.5,1.9,0.8,2.1,1.1
			c8.3,2.8,15.9,6.3,22.9,10.3c7,4.1,13.7,9.3,20.1,15.6c6.9,6.5,11.5,14.3,13.8,23.3c2.4,9,3.3,17.8,2.8,26.5
			c-2.1,17.5-8.4,32.6-18.8,45.2c-5.9,5.8-12.3,10.8-19.2,14.9c-6.9,4.1-14.3,7.5-22.4,10.3C625,1169.5,607.8,1172.1,587.7,1172.1z"
			/>
		<path class="st2" d="M776.8,1163.6c-2.6,0-5.1-2.2-7.5-6.7c-3.5-7.7-5.3-21.5-5.3-41.3c0-9.6,0.1-21.1,0.2-34.5
			c0.1-13.4,0.4-26.3,0.9-38.7c0.2-4,0.4-9.2,0.4-15.6c0-6.4,0-14.2,0-23.3h-49.7c-6.2,0-9.9-6.3-11.4-18.9
			c-0.2-3.3-0.5-7.4-0.9-12.3c-0.4-4.9-0.5-10.6-0.5-17.2v-4.9c0-1.2,0-2.2,0-3c0-0.8,0.1-1.6,0.4-2.3v-8.4c0-1.4,0.7-2.6,2.1-3.5
			c1.4-0.9,3-1.6,4.6-2.1c2.6-0.7,6.1-1.1,10.6-1.1h36.6c3.1,0,5.7,0.1,7.8,0.2c2.1,0.1,4,0.2,5.7,0.2l12.4,0.4h124.2
			c4.7,0,8.5,0,11.4,0c2.8,0,5,0.1,6.4,0.3c0.5,0,1.2,0,2.1,0c0.9,0,1.9,0.1,2.8,0.4c2.1,0.2,4,0.7,5.5,1.4c1.5,0.7,2.3,1.5,2.3,2.5
			v62c0,3-0.8,4.9-2.5,5.4c-1.7,0.6-3.5,0.9-5.7,0.9h-48.6v18.6c0,1.6,0,3.2,0,4.7c0,1.5-0.1,2.6-0.4,3.3c0,3.3-0.1,8.6-0.4,15.9
			c-0.2,7.4-0.6,16.6-1.1,27.9l-0.4,10.5c-0.2,4.4-0.5,9.6-0.9,15.6c-0.4,6-0.7,10-0.9,12.1v32.9c0,7.9-1.7,12.9-5,14.7
			c-1.7,0.5-3,0.8-3.9,1.1c-0.9,0.2-1.8,0.5-2.5,0.7l-8.2,0.4c-4.5,0.2-8.4,0.4-11.7,0.5c-3.3,0.1-5.9,0.2-7.8,0.2l-36.6,0.7
			c-2.1,0-5.3,0.1-9.4,0.2C788.1,1163.6,783,1163.6,776.8,1163.6z"/>
		<path class="st2" d="M976.3,1166.8l-9.2,1.4c-3.3,0-5.7-1.7-7.3-5.1c-1.5-3.4-2.5-7.1-2.8-11.2c-0.4-4.1-0.5-7.2-0.5-9.3
			c0-4.4-0.1-7-0.4-7.7c-0.2-4-0.5-9.1-0.7-15.2c-0.2-6.2-0.7-13.5-1.4-21.9l-1.4-15.4c-0.9-12.1-1.5-22.5-1.8-31
			c-0.2-8.5-0.4-15.7-0.4-21.6V932c0-2.3,1.9-3.9,5.7-4.7c3.8-0.8,8.2-1.2,13.1-1.2c1.4,0,3.1,0,5,0c1.9,0,3.8,0.1,5.7,0.4
			c1.9,0.2,3.5,0.4,5,0.5c1.4,0.1,2.6,0.2,3.5,0.2c1.9,0.2,4.5,0.4,7.8,0.5c3.3,0.1,7.1,0.2,11.4,0.2l1.4-1.1h17.7
			c1.2,0.7,2.2,1.1,3.2,1.1h1.4c0.5-0.5,2-0.7,4.6-0.7c0.2-0.2,0.5-0.4,0.7-0.4h0.7c0.9,0,1.9,0.1,2.8,0.4l2.5,0.7h21.6
			c3.3,0,5.6,0.8,6.7,2.3c1.2,1.5,1.8,2.9,1.8,4l1.1,63.4c0,0.7-0.1,1.4-0.4,2.1l-1.1,6c-0.9,4.9-1.4,9.3-1.4,13.1s0,7.2,0,10v78.5
			l-1.1,15.1c-0.2,3.5-0.5,6.7-0.7,9.5c-0.2,2.8-0.2,5.3,0,7.4c0,10.5-1.3,17.5-3.9,21c-1.4,2.1-3.8,3.2-7.1,3.2l-0.4-0.7l-1.8-0.4
			c-0.5,0-0.7,0.1-0.7,0.4h-1.8c-0.7,0.2-1.3,0.5-1.8,0.7c-0.5,0.2-0.8,0.5-1.1,0.7c-0.7,0-1.9-0.1-3.5-0.4c-1.7-0.2-3.7-0.6-6-1.1
			l-5.7-0.4c-1.2,0-1.9,0.6-2.1,1.8h-36.6l-10.6,1.8L976.3,1166.8z"/>
		<path class="st2" d="M1180.4,1165.7c-1.7,0-3.3-0.2-4.8-0.5c-1.5-0.4-3.3-0.6-5.1-0.9c-1.7-0.2-3.3-0.5-5-0.7
			c-1.7-0.2-3.2-0.3-4.6-0.3c-0.5,0-0.7,0.1-0.7,0.3h-2.1c-2.4-1.4-3.5-2.6-3.5-3.5l-25.2-73.9c-2.6-7.7-5.7-17.3-9.2-28.7
			c-3.5-11.4-7.7-23.8-12.4-37c-4.7-13.2-10.3-26.2-16.7-39.1c-0.2-0.5-0.4-1.5-0.4-3.2l-1.1-4.6c-0.5-2.1-0.8-3.6-1.1-4.6
			c-0.2-0.9-0.4-2.5-0.4-4.6c0-1.9-0.4-4.1-1.2-6.8c-0.8-2.7-0.9-5.4-0.2-8.1c0.7-2.7,3.3-4.8,7.8-6.5l8.2-3.5l28.7-6.3
			c0.2,0,0.7-0.1,1.4-0.2c0.7-0.1,1.2-0.1,1.4,0.2c0.5,0.2,0.8-0.1,0.9-0.9c0.1-0.8,0.3-1.2,0.5-1.2c0.5,0.2,0.8,0.2,1.1,0
			c0.2-0.2,0.5-0.4,0.7-0.4c0.7-0.2,1.2-0.3,1.6-0.3c0.4,0,0.9-0.1,1.6-0.4l2.1-1.1l7.1-0.4l22.4-4.2c5.2-1.6,9.3-1.5,12.2,0.5
			c3,2,5.2,4.6,6.7,7.9c1.5,3.3,2.7,6.1,3.4,8.4l6,15.8c0.7,1.6,2,5.2,3.7,10.7c1.8,5.5,3.7,11.2,5.7,17.2c2,6,3.4,10.6,4.1,13.8
			l0.4,1.4c0,1.4,0.1,2.6,0.4,3.5c1.2,0.9,2.2,2.4,3,4.4c0.8,2,1.4,3.6,1.6,4.7l2.1,7.4l4.6,10.2l7.1,21.4l2.1,5.3l3.5,6
			c0-0.5,0.6-1.8,1.8-3.9c1.2-2.1,2.4-4.3,3.5-6.7c1.2-2.3,1.8-3.7,1.8-4.2l4.3-16.5l3.5-12.6c0.5-1.2,0.8-2.4,0.9-3.7
			c0.1-1.3,0.3-2.4,0.5-3.3l1.1-5.6l1.1-5.3c0.5-2.3,1.4-4.5,2.7-6.5c1.3-2,2.4-5.2,3.4-9.6c5.4-21.3,9.5-37.1,12.1-47.7
			c2.6-10.5,6.6-15.1,12.1-13.7l15.3,0.7l27,2.8c1.2,0,2.5,0.5,4.1,1.4c1.5,0.9,2.8,1.3,3.7,1.1l11,1.1c3.3,0.2,6.6,2.1,9.9,5.6
			c3.3,3.5,4,7.4,2.1,11.6c0,1.2-0.1,2.7-0.4,4.7c-0.2,2-0.7,5.1-1.4,9.3c-0.2,0.9-0.6,1.9-1.1,2.8c-0.5,0.9-0.7,1.6-0.7,2.1
			c-0.2,0.7-0.4,1.3-0.4,1.8c0,0.5-0.1,0.8-0.4,1.1c-2.4,7.5-5.2,16.9-8.5,28.4c-3.3,11.4-6.7,23.5-10.3,36.1
			c-3.5,12.6-6.7,24.4-9.6,35.2s-5.2,19.3-7.1,25.4l-18.5,65.2c0,0.7-1.2,1.9-3.5,3.5h-1.1l-1.4-0.3c-0.9,0-1.8,0-2.7,0
			c-0.8,0-1.6,0.3-2.3,1.1c-0.9,0.9-2.4,1.4-4.3,1.4c-3.5,0-6.7-0.5-9.6-1.4c-1.9-0.2-3.6-0.4-5.1-0.5c-1.5-0.1-2.9-0.2-4.1-0.2
			c-7.6,0.5-16.9,0.9-28,1.2c-11.1,0.4-22.1,0.6-33,0.7C1196.4,1165.7,1187.5,1165.7,1180.4,1165.7z"/>
		<path class="st2" d="M1613,1160.8c-1.7,0-3.1-0.1-4.3-0.2c-1.2-0.1-2.4-0.3-3.5-0.5h-58.9c-0.2,0-0.6-0.1-1.1-0.2
			c-0.5-0.1-1.1-0.3-1.8-0.5h-10.6l-15.3-0.4c-0.9,0-1.5,0.1-1.8,0.4c-0.5,0.5-1.4,0.7-2.8,0.7h-1.1l-0.4-0.4
			c-0.9,0-1.4-0.1-1.4-0.4c-0.7-0.2-1.4-0.4-2.1-0.4c-0.7,0-1.3,0-1.8,0c-0.5-1.9-1.1-5.3-1.8-10.3c-0.7-5-2.4-12.2-5-21.6l-2.8-9.8
			h-19.9c-3.8,0-7.1-0.1-9.9-0.4c-2.8-0.2-5.8-0.7-8.9-1.4c0,0.9-0.1,2-0.4,3.2c-0.2,1.2-0.5,2.8-0.7,4.9c-1.7,8.6-3.3,16.2-5,22.8
			c-1.7,6.5-3.1,10.7-4.3,12.6c-1.9,0-4.1,0-6.7,0c-2.6,0-5.7,0.1-9.2,0.4c-3.5,0-5.8,0.2-6.7,0.7h-3.2c-0.2,0-0.4-0.2-0.4-0.7
			c-0.2-0.2-0.6-0.4-1.1-0.4c-1.9,0-3.2,0.1-3.9,0.4v0.7h-47.2c-0.9,0.2-2.1,0.4-3.4,0.5c-1.3,0.1-2.9,0.2-4.8,0.2h-3.5
			c-1.9,0-3.2-0.6-3.9-1.8c-1.7-2.3-2.5-4.9-2.5-7.7c0-1.6,0.1-2.8,0.4-3.5c0-1.2,0-2.3,0-3.3c0-1.1,0.1-2.3,0.4-3.7
			c0.5-2.6,1.1-4.4,1.8-5.6c0.7-2.6,1.1-4.3,1.1-5.3c0.5-2.8,2.7-12.7,6.6-29.6c3.9-16.9,9.3-39.8,16.1-68.5
			c6.9-28.7,14.9-62,24.1-99.9c0-0.2,0.3-0.8,0.9-1.8c0.6-0.9,1.4-1.6,2.3-2.1h1.4l0.7,0.7c1.2,0,2.1-0.2,2.7-0.7
			c0.6-0.5,1.2-0.8,2-1.1c1.9-0.5,3.3-0.7,4.3-0.7c1.7,0,3.2,0.1,4.8,0.2c1.5,0.1,3.1,0.3,4.8,0.5c0.5,0,1.1-0.1,1.8-0.2
			c0.7-0.1,1.3,0.1,1.8,0.5c0.5,0.2,1.2,0.4,2.3,0.5c1.1,0.1,2.1,0.2,3,0.2c0-0.5,0.6-0.8,1.8-0.9c1.2-0.1,2-0.2,2.5-0.2
			c2.1-0.2,4.6-0.4,7.5-0.5c2.8-0.1,6.6-0.2,11.4-0.2h33.7c0,0.2,1.1,0.3,3.2,0.3c1.2,0,2.2,0,3,0c0.8,0,1.7,0.1,2.7,0.4h17.7
			c0.5,0.2,1,0.5,1.6,0.7c0.6,0.2,1.1,0.4,1.6,0.4c1.2,0,2.4-0.1,3.7-0.2c1.3-0.1,2.5-0.3,3.7-0.5c1.2-0.2,2.4-0.4,3.7-0.4
			c1.3,0,2.2,0,2.7,0c2.6-0.2,5-0.4,7.1-0.5c2.1-0.1,4.4-0.2,6.7-0.2c1.4,0,2.8-0.1,4.3-0.4c1.4-0.2,3,0.1,4.6,1.1
			c1.9,0.9,3.6,1.5,5.1,1.6c1.5,0.1,2.9,0.2,4.1,0.2c0.9,0,1.4-0.2,1.4-0.7h1.4c0.7,0.2,1.4,0.9,2.1,1.9c0.7,1.1,1.1,1.7,1.1,1.9
			c2.4,8.9,5.1,19.6,8.2,32.1c3.1,12.5,6.3,25.9,9.8,40.1c3.4,14.3,6.9,28.7,10.5,43.5c3.5,14.7,7,28.8,10.3,42.2
			c3.3,13.4,6.2,25.5,8.5,36.3c0.5,2.3,0.8,4,0.9,4.9c0.1,0.9,0.3,2,0.5,3.2c0.2,1.6,0.9,4.3,2,8.1c1.1,3.7,1.6,6.5,1.6,8.4
			c0,1.9-0.5,2.9-1.4,3.2c-0.9,4.7-3,7-6,7H1613z M1462.1,1075.7c1.4,0,2.1-0.2,2.1-0.7h2.1c0.5-0.2,1.3-0.6,2.5-1.1
			c1.2-0.5,2.6-0.7,4.3-0.7h0.4l2.5,1.8h16.7l-2.5-15.8l-1.4-6.7c-0.5-2.6-0.9-4.7-1.4-6.5c-0.5-1.8-0.7-3.4-0.7-5.1
			c0-1.2-0.4-4.3-1.1-9.3c-0.7-5-1.5-10.8-2.5-17.3l-1.4-9.8c-0.7-2.1-1.2-4.1-1.6-6c-0.4-1.9-0.7-3.6-0.9-5.3l-0.7-4.2v-1.8
			c-0.5-0.5-0.7-1.1-0.7-1.8c0-0.9-0.1-1.4-0.4-1.4v1.4c0,0.9-0.5,2.1-1.4,3.5v4.2c-0.5,1.9-0.8,3.7-1.1,5.6
			c-0.2,1.9-0.6,3.7-1.1,5.6l-3.2,16.5c-1.9,9.3-3.3,18.6-4.3,27.7C1465.5,1057.8,1464,1066.8,1462.1,1075.7z"/>
		<path class="st2" d="M1809.9,1163.6h-53.6c-12.5,0-23.4-0.1-32.7-0.2c-9.2-0.1-16.7-0.2-22.4-0.2c-5.4,0-10.2-0.1-14.2-0.2
			c-4-0.1-7.3-0.2-9.9-0.2l-30.2-0.4c-2.4,0-4.6-1-6.6-3c-2-2-3-4.1-3-6.5v-114.6l-0.4-19.6c-0.2-10.3,0.1-20,0.9-29.1
			c0.8-9.1,1.2-20.1,1.2-32.9v-8.4c0-7.2,1.2-12.7,3.5-16.5c1.2-2.1,3.3-3.2,6.4-3.2c6.2,0,12.4,0.1,18.8,0.2
			c6.4,0.1,13.1,0.3,20.2,0.5c0.9,0.2,2.2,0.4,3.9,0.4c1.7,0,3.3,0,5,0c4,0,7.5,0,10.5,0c3,0,5.4,0.1,7.3,0.4h29.1
			c4.5,0,8.5,0.9,12.1,2.6c3.5,1.8,5.3,7.1,5.3,15.9l-0.4,2.8c0,0.5-0.1,1.2-0.2,2.1c-0.1,0.9-0.2,2.2-0.2,3.9
			c-0.9,3-1.4,5.6-1.4,7.7c0,1.4,0.1,3,0.4,4.7c0.2,1.8,0.6,3.6,1.1,5.4c0,1.4,0.1,2.6,0.2,3.5c0.1,0.9,0.2,1.6,0.2,2.1l0.4,2.1
			v91.8c0,2.1,0.7,3.3,2.1,3.7c1.4,0.4,3.3,0.5,5.7,0.5h27c3.5,0,7.8-0.1,12.8-0.2c5-0.1,10.9-0.2,17.7-0.2c2.6,0,4.8,0.8,6.6,2.3
			c1.8,1.5,2.7,3.1,2.7,4.7v70.4c0,1.6-1.1,3-3.4,4.2c-2.3,1.2-4.7,1.9-7.3,2.1C1822.1,1163.3,1817,1163.6,1809.9,1163.6z"/>
	</g>
</g>
</svg>
