<?xml version="1.0" encoding="utf-8"?>
<!-- Generator: Adobe Illustrator 27.2.0, SVG Export Plug-In . SVG Version: 6.00 Build 0)  -->
<svg version="1.1" id="Calque_1" xmlns="http://www.w3.org/2000/svg" xmlns:xlink="http://www.w3.org/1999/xlink" x="0px" y="0px"
	 viewBox="0 0 1920 1188.5" style="enable-background:new 0 0 1920 1188.5;" xml:space="preserve">
<style type="text/css">
	.st0{fill:#FFFCF5;}
	.st1{opacity:0.7;}
	.st2{opacity:0.18;}
	.st3{fill:#EF86B4;}
</style>
<rect class="st0" width="1920" height="1188.5"/>
<g class="st1">
	<g class="st2">
		<path class="st3" d="M210,1668.9c-20,0-38.9-2.4-56.5-7.2c-17.6-4.8-33-11.5-46.2-20.2c-1.5-7.2-2.9-14.2-4.3-21.1
			c-1.3-6.9-2.7-14.8-4-23.8s-2.9-20-4.7-33.2v-1.3c0.6-2.7,2.7-5.2,6.3-7.6c10.5,6.9,20,12,28.7,15.2c8.7,3.3,15.8,4.9,21.5,4.9
			h13.5l7.6,0.4c6.9,0,13.3-1,19.3-3.1c7.8-3,12.2-6.9,13.2-11.7c1-4.8-0.8-9.3-5.6-13.5c-4.8-4.2-12.1-6.9-22-8.1
			c-13.8-1.8-26.9-7-39.5-15.7c-12.6-8.7-22.8-19.6-30.7-32.7c-7.9-13.1-11.9-27.2-11.9-42.1c0-26.6,7.3-47.3,22-62.1
			c14.6-14.8,33.3-25.5,56-32.1c20-5.7,42.1-8.5,66.4-8.5c6.9,0,14.5,0.4,22.9,1.1c8.4,0.7,18.8,2,31.4,3.8
			c2.7,1.5,6.7,2.4,12.1,2.7l11.7,2.7c5.1,1.2,9.3,1.9,12.8,2c3.4,0.2,6.2,0.2,8.3,0.2c0.3,0,0.5,0.1,0.7,0.2
			c0.1,0.2,0.4,0.2,0.7,0.2c0.6,0.3,1.2,0.7,1.8,1.3c0.6,1.5,1.2,2.5,1.8,2.9c0.6,0.4,1,0.7,1.3,0.7h0.9l0.9,9.9
			c0,2.7,0.1,5.2,0.4,7.4c0.3,2.2,0.6,4.4,0.9,6.5c0.6,3.9,1,7.8,1.3,11.9c0.3,4,0.4,8.1,0.4,12.3c0,14.6-3,24.2-9,28.7l-39-4.9
			h-6.3c-2.1,0-6-0.1-11.7-0.4c-5.7-0.3-11.7-0.4-18.2-0.2c-6.4,0.2-12,0.9-16.6,2.2c-4.6,1.3-6.9,3.5-6.9,6.5
			c0,3.6,1.1,7.1,3.4,10.5c2.2,3.4,5.8,6.4,10.5,8.7c2.1,1.2,4,2.4,5.8,3.6c1.8,1.2,3.7,2.1,5.8,2.7c2.4,0.6,4.3,1.2,5.8,1.8
			s2.4,1.1,2.7,1.3c10.5,3.6,20.1,8,28.9,13.2s17.3,11.9,25.3,20c8.7,8.4,14.5,18.3,17.5,29.8s4.2,22.8,3.6,33.8
			c-2.7,22.4-10.6,41.7-23.8,57.8c-7.5,7.5-15.5,13.8-24.2,19.1c-8.7,5.2-18.1,9.6-28.2,13.2C257.1,1665.6,235.4,1668.9,210,1668.9z
			"/>
		<path class="st3" d="M449,1658.1c-3.3,0-6.4-2.8-9.4-8.5c-4.5-9.9-6.7-27.5-6.7-52.9c0-12.3,0.1-27,0.2-44.2
			c0.1-17.2,0.5-33.7,1.1-49.5c0.3-5.1,0.4-11.7,0.4-20c0-8.2,0-18.2,0-29.8h-62.7c-7.8,0-12.6-8.1-14.3-24.2
			c-0.3-4.2-0.7-9.4-1.1-15.7c-0.4-6.3-0.7-13.6-0.7-22v-6.3c0-1.5,0-2.8,0-3.8s0.1-2,0.4-2.9v-10.7c0-1.8,0.9-3.3,2.7-4.5
			c1.8-1.2,3.7-2.1,5.8-2.7c3.3-0.9,7.8-1.3,13.5-1.3h46.2c3.9,0,7.2,0.1,9.9,0.2c2.7,0.2,5.1,0.2,7.2,0.2l15.7,0.4h156.9
			c6,0,10.8,0,14.3,0c3.6,0,6.3,0.2,8.1,0.4c0.6,0,1.5,0,2.7,0s2.4,0.2,3.6,0.4c2.7,0.3,5,0.9,6.9,1.8c1.9,0.9,2.9,1.9,2.9,3.1v79.4
			c0,3.9-1.1,6.2-3.1,6.9c-2.1,0.7-4.5,1.1-7.2,1.1h-61.4v23.8c0,2.1,0,4.1,0,6.1c0,1.9-0.2,3.4-0.4,4.3c0,4.2-0.2,11-0.4,20.4
			c-0.3,9.4-0.7,21.3-1.3,35.6l-0.4,13.5c-0.3,5.7-0.7,12.3-1.1,20c-0.4,7.6-0.8,12.8-1.1,15.5v42.1c0,10.2-2.1,16.4-6.3,18.8
			c-2.1,0.6-3.7,1-4.9,1.3c-1.2,0.3-2.2,0.6-3.1,0.9l-10.3,0.4c-5.7,0.3-10.6,0.5-14.8,0.7c-4.2,0.1-7.5,0.2-9.9,0.2l-46.2,0.9
			c-2.7,0-6.7,0.1-11.9,0.2C463.3,1658,456.8,1658.1,449,1658.1z"/>
		<path class="st3" d="M909,1673.3c-1.8,0-3-0.2-3.6-0.4c-4.2-2.7-7.6-5.7-10.3-9c-0.6-0.6-1-1.1-1.1-1.6c-0.2-0.4-0.4-0.7-0.7-0.7
			c-0.6-0.6-1.1-0.9-1.3-0.9h-0.4l-2.2-1.8l-43.9-58.7c-0.6-2.1-1.6-4.1-2.9-6.1c-1.3-1.9-2.8-4-4.3-6.1c-1.2-0.9-2.2-1.9-3.1-2.9
			c-0.9-1-1.6-2.2-2.2-3.4c-1.2-1.8-2.4-2.7-3.6-2.7c-1.2,0-2.1,1.6-2.7,4.9c-0.6,3.9-1,9.9-1.1,17.9c-0.2,8.1-0.2,15.5-0.2,22.4
			c0,12-0.7,22.1-2.2,30.5c-0.3,3.6-1.5,5.4-3.6,5.4h-3.1l-1.3-0.9h-0.4c-6.9,0.6-16.1,1.3-27.8,2c-11.7,0.7-23.2,1.4-34.7,2
			s-20.7,0.9-27.6,0.9c-1.5,0-2.8-0.1-4-0.2c-1.2-0.2-2.2-0.4-3.1-0.7h-21.1l-15.2-5.4l-1.3-3.1v-1.8c-0.3-0.6-0.4-1.8-0.4-3.6
			c0-0.6-0.2-1.7-0.4-3.4c-0.3-1.6-0.6-3.7-0.9-6.1c-0.9-8.7-1.4-16.2-1.6-22.6c-0.2-6.4-0.1-8.6,0.2-6.5c-0.3-3.9-0.7-9.1-1.3-15.7
			s-1.2-14.5-1.8-23.8l-0.9-15.7c0-10.5-0.4-18.5-1.3-24.2l-1.3-9.4c-0.9-6-1.3-11.7-1.1-17c0.1-5.4,0.2-10.6,0.2-15.7
			c0-0.6,0.1-1,0.4-1.3v-4c0.3-1.2,0.4-3.9,0.4-8.1l0.9-7.6l0.4-4.9c0-6-0.4-14.9-1.3-26.9c-0.9-7.2-1.3-16.3-1.3-27.3
			c0-7.8,0.2-14.6,0.7-20.6c0.4-6,1.3-10.8,2.5-14.3c2.1-10.5,6.4-15.7,13-15.7c16.1,0,32.5,0.2,49.1,0.7
			c16.6,0.4,33.1,0.7,49.5,0.7c3.9,0,8.6,0.1,14.1,0.2c5.5,0.2,12,0.4,19.5,0.7l16.6,0.4l61,0.9c36.8,1.2,64.9,10.5,84.3,27.8
			c8.7,7.2,15.1,15.8,19.3,26s6.3,20.9,6.3,32.3c0,12.9-2.2,24.4-6.5,34.7s-10.4,19.2-18.2,26.7c-7.5,6.9-15.7,12.4-24.7,16.6
			c1.2,0.3,2.5,1.6,4,3.8c1.5,2.2,2.5,4.6,3.1,6.9c0.6,1.2,1.4,2,2.5,2.5c1,0.4,2.2,1.4,3.4,2.9l5.8,7.2l3.1,3.1
			c0.9,0.9,1.6,1.7,2,2.5c0.4,0.7,1,1.6,1.6,2.5l13.9,20.6c4.2,6,7.8,11,11,15s5.3,7.6,6.5,10.5c2.1,3.9,3.1,6.7,3.1,8.5
			c0,5.1-4.5,10.6-13.5,16.6c-2.1,1.2-4,2.4-5.8,3.6c-1.8,1.2-3.9,2.4-6.3,3.6c-4.8,2.1-8.2,4.2-10.3,6.3l-15.2,10.8
			c-3,2.1-6,3.7-9,4.7s-6.1,2-9.4,2.9c-0.6,0-0.9,0.1-0.9,0.4c0,0.3-0.2,0.4-0.7,0.2c-0.4-0.2-1,0.1-1.6,0.7
			c-0.9,0.9-5.5,2.5-13.9,4.9c-1.5,0.9-4,1.6-7.6,2.2c-2.1,1.5-4,2.2-5.8,2.2h-1.8c-0.6,1.2-1.1,1.8-1.3,1.8H909V1673.3z
			 M824.2,1516.9h6.3c9,0,15.2-4.3,18.8-12.8s5.7-17.9,6.3-28c0.3-3.3,0.5-6.7,0.7-10.3c0.1-3.6,0.2-7.5,0.2-11.7v-4.5
			c0-6.9-0.4-14.3-1.3-22.4c-0.9-8.1-4.8-14.2-11.7-18.4c-3.9-2.7-8.2-4-13-4c-1.5,0-2.5,1.8-3.1,5.4c-2.4,6.3-3.9,16.4-4.5,30.5
			c-0.3,2.7-0.6,5.7-0.9,9c-0.3,3.3-0.6,6.9-0.9,10.8l-0.4,13c-0.3,8.4-0.4,16.1-0.4,23.1s0,13.2,0,18.6c0,0.9,0.3,1.3,0.9,1.3
			L824.2,1516.9z"/>
		<path class="st3" d="M1138.1,1655.4h-70.8c-3.3,0-5.5-0.2-6.7-0.4c-1.5-0.3-3.1-0.5-4.9-0.7c-1.8-0.2-3.7-0.4-5.8-0.7l-9.4-2.2
			c-1.5,0-2.7-0.4-3.6-1.3v-0.9c0-7.8-0.4-17.9-1.3-30.5c0-4.8-0.2-8.8-0.7-12.1c-0.4-3.3-0.8-6.3-1.1-9l-0.9-18.8
			c-0.3-2.7-0.4-5.7-0.2-9c0.1-3.3,0.1-7-0.2-11.2l-0.9-13.5c-0.3-5.7-0.4-10.8-0.2-15.2c0.1-4.5,0.1-8.2-0.2-11.2
			c0-1.5-0.1-3.4-0.2-5.6c-0.2-2.2-0.2-6-0.2-11.2s0-12.9,0-23.1c0-28.4,0.2-51.3,0.7-68.8c0.4-17.5,1.3-32.8,2.5-46
			c0-3,3.7-5.7,11.2-8.1c3-0.3,6.5-0.5,10.5-0.7c4-0.1,7.8-0.2,11.4-0.2c12.3,0,22.8-0.1,31.6-0.2c8.8-0.1,16.1-0.5,21.7-1.1
			c17.6-0.3,33-0.5,46.2-0.7c13.1-0.1,24.4-0.2,33.6-0.2h19.7c12.6,0,23.5,0.3,32.7,0.9c9.3,0.6,17.2,1.2,23.8,1.8
			c4.5,0,7.9,5.5,10.3,16.6c0.6,1.2,1,3,1.3,5.4s0.9,6.1,1.8,11.2c0.6,6.6,1.2,11.7,1.8,15.2c0.6,3.6,1.2,7,1.8,10.3
			c0.3,0.6,0.4,2.2,0.4,4.9c-0.3,0.3-0.4,1.5-0.4,3.6c-0.3,2.7-1.9,4-4.9,4c-0.6-0.3-2.2-0.4-4.9-0.4c-6.6,0-13.7,0.4-21.3,1.1
			c-7.6,0.8-16.2,1.4-25.8,2l-23.3,1.8l-23.3,2.2c-0.9,0-2.1,1.6-3.6,4.9c-0.9,2.1-1.8,3.5-2.7,4.3c-0.9,0.7-1.5,2.5-1.8,5.2
			l-0.9,15.2c-0.3,3.9,0.1,6.4,1.3,7.6c1.2,1.2,3.4,1.8,6.7,1.8h39.9c11.4,0,24.7,0.9,39.9,2.7h4.5c5.7,0,9.1,3.3,10.3,9.9l0.9,44.4
			v1.3c0,5.4-5.1,8.4-15.2,9c-2.7,0.9-6.7,1.5-12.1,1.8c-5.4,0.3-13.6,0.4-24.7,0.4s-18.3,0-21.7,0c-3.4,0-5.9-0.1-7.4-0.4
			c-6.3,0-10.3,0-12.1,0s-3,0.2-3.6,0.4c-3,0.6-5,1.3-6.1,2s-1.6,2.7-1.6,5.8c0,3.1-0.2,8.9-0.4,17.3c-0.3,1.2-0.5,2.8-0.7,4.7
			c-0.2,1.9-0.2,6.2-0.2,12.8c17.9,0,32-0.1,42.1-0.4c10.2-0.3,18.1-0.6,23.8-0.9c8.7-0.3,16.5-0.5,23.5-0.7
			c7-0.1,13.4-0.2,19.1-0.2c0.9,0,2.1,1.1,3.6,3.1c1.2,2.1,2.8,7.5,4.9,16.1c2.1,8.7,4.6,20.5,7.6,35.4c0.6,1.5,0.9,3.7,0.9,6.7
			c0,6.3-2.8,9.4-8.5,9.4c-9.6,0-20.2,0.4-31.8,1.3c-2.1,0.3-5,0.4-8.7,0.4s-11.4,0-23.1,0c-10.5,0-22,0-34.7,0s-24.4,0.1-35,0.2
			C1151.5,1655.3,1143.5,1655.4,1138.1,1655.4z"/>
		<path class="st3" d="M1427.3,1655.4h-70.8c-3.3,0-5.5-0.2-6.7-0.4c-1.5-0.3-3.1-0.5-4.9-0.7c-1.8-0.2-3.7-0.4-5.8-0.7l-9.4-2.2
			c-1.5,0-2.7-0.4-3.6-1.3v-0.9c0-7.8-0.4-17.9-1.3-30.5c0-4.8-0.2-8.8-0.7-12.1c-0.4-3.3-0.8-6.3-1.1-9l-0.9-18.8
			c-0.3-2.7-0.4-5.7-0.2-9c0.1-3.3,0.1-7-0.2-11.2l-0.9-13.5c-0.3-5.7-0.4-10.8-0.2-15.2c0.1-4.5,0.1-8.2-0.2-11.2
			c0-1.5-0.1-3.4-0.2-5.6c-0.2-2.2-0.2-6-0.2-11.2s0-12.9,0-23.1c0-28.4,0.2-51.3,0.7-68.8c0.4-17.5,1.3-32.8,2.5-46
			c0-3,3.7-5.7,11.2-8.1c3-0.3,6.5-0.5,10.5-0.7c4-0.1,7.8-0.2,11.4-0.2c12.3,0,22.8-0.1,31.6-0.2c8.8-0.1,16.1-0.5,21.7-1.1
			c17.6-0.3,33-0.5,46.2-0.7c13.1-0.1,24.4-0.2,33.6-0.2h19.7c12.6,0,23.5,0.3,32.7,0.9c9.3,0.6,17.2,1.2,23.8,1.8
			c4.5,0,7.9,5.5,10.3,16.6c0.6,1.2,1,3,1.3,5.4s0.9,6.1,1.8,11.2c0.6,6.6,1.2,11.7,1.8,15.2c0.6,3.6,1.2,7,1.8,10.3
			c0.3,0.6,0.4,2.2,0.4,4.9c-0.3,0.3-0.4,1.5-0.4,3.6c-0.3,2.7-1.9,4-4.9,4c-0.6-0.3-2.2-0.4-4.9-0.4c-6.6,0-13.7,0.4-21.3,1.1
			c-7.6,0.8-16.2,1.4-25.8,2l-23.3,1.8l-23.3,2.2c-0.9,0-2.1,1.6-3.6,4.9c-0.9,2.1-1.8,3.5-2.7,4.3c-0.9,0.7-1.5,2.5-1.8,5.2
			l-0.9,15.2c-0.3,3.9,0.1,6.4,1.3,7.6c1.2,1.2,3.4,1.8,6.7,1.8h39.9c11.4,0,24.7,0.9,39.9,2.7h4.5c5.7,0,9.1,3.3,10.3,9.9l0.9,44.4
			v1.3c0,5.4-5.1,8.4-15.2,9c-2.7,0.9-6.7,1.5-12.1,1.8c-5.4,0.3-13.6,0.4-24.7,0.4s-18.3,0-21.7,0c-3.4,0-5.9-0.1-7.4-0.4
			c-6.3,0-10.3,0-12.1,0s-3,0.2-3.6,0.4c-3,0.6-5,1.3-6.1,2s-1.6,2.7-1.6,5.8c0,3.1-0.2,8.9-0.4,17.3c-0.3,1.2-0.5,2.8-0.7,4.7
			c-0.2,1.9-0.2,6.2-0.2,12.8c17.9,0,32-0.1,42.1-0.4c10.2-0.3,18.1-0.6,23.8-0.9c8.7-0.3,16.5-0.5,23.5-0.7
			c7-0.1,13.4-0.2,19.1-0.2c0.9,0,2.1,1.1,3.6,3.1c1.2,2.1,2.8,7.5,4.9,16.1c2.1,8.7,4.6,20.5,7.6,35.4c0.6,1.5,0.9,3.7,0.9,6.7
			c0,6.3-2.8,9.4-8.5,9.4c-9.6,0-20.2,0.4-31.8,1.3c-2.1,0.3-5,0.4-8.7,0.4s-11.4,0-23.1,0c-10.5,0-22,0-34.7,0s-24.4,0.1-35,0.2
			C1440.6,1655.3,1432.6,1655.4,1427.3,1655.4z"/>
		<path class="st3" d="M1681.9,1658.1c-3.3,0-6.4-2.8-9.4-8.5c-4.5-9.9-6.7-27.5-6.7-52.9c0-12.3,0.1-27,0.2-44.2
			c0.1-17.2,0.5-33.7,1.1-49.5c0.3-5.1,0.4-11.7,0.4-20c0-8.2,0-18.2,0-29.8h-62.8c-7.8,0-12.6-8.1-14.3-24.2
			c-0.3-4.2-0.7-9.4-1.1-15.7c-0.4-6.3-0.7-13.6-0.7-22v-6.3c0-1.5,0-2.8,0-3.8s0.1-2,0.4-2.9v-10.7c0-1.8,0.9-3.3,2.7-4.5
			c1.8-1.2,3.7-2.1,5.8-2.7c3.3-0.9,7.8-1.3,13.5-1.3h46.2c3.9,0,7.2,0.1,9.9,0.2c2.7,0.2,5.1,0.2,7.2,0.2l15.7,0.4h156.9
			c6,0,10.8,0,14.3,0s6.3,0.2,8.1,0.4c0.6,0,1.5,0,2.7,0s2.4,0.2,3.6,0.4c2.7,0.3,5,0.9,6.9,1.8c1.9,0.9,2.9,1.9,2.9,3.1v79.4
			c0,3.9-1.1,6.2-3.1,6.9c-2.1,0.7-4.5,1.1-7.2,1.1h-61.4v23.8c0,2.1,0,4.1,0,6.1c0,1.9-0.2,3.4-0.4,4.3c0,4.2-0.2,11-0.4,20.4
			c-0.3,9.4-0.8,21.3-1.3,35.6l-0.4,13.5c-0.3,5.7-0.7,12.3-1.1,20c-0.4,7.6-0.8,12.8-1.1,15.5v42.1c0,10.2-2.1,16.4-6.3,18.8
			c-2.1,0.6-3.7,1-4.9,1.3c-1.2,0.3-2.2,0.6-3.1,0.9l-10.3,0.4c-5.7,0.3-10.6,0.5-14.8,0.7c-4.2,0.1-7.5,0.2-9.9,0.2l-46.2,0.9
			c-2.7,0-6.7,0.1-11.9,0.2C1696.2,1658,1689.8,1658.1,1681.9,1658.1z"/>
		<path class="st3" d="M300.5,2230c-11.1,1.1-21.6,1.5-31.3,1.2c-9.8-0.3-19.7-0.4-29.8-0.4c-17.5,0-32-0.8-43.6-2.4
			c-11.6-1.6-22.6-4.4-32.9-8.3c-10.3-4-22.9-9.4-37.7-16.3l-34.9-16.7c-0.5-0.5-0.8-1.8-0.8-4l1.6-16.7c0.5-2.6,1.1-5.4,1.6-8.3
			c0.5-2.9,1.1-5.4,1.6-7.5c0-3.2,0-9.4,0-18.7c0-9.2,0.1-19.3,0.4-30.2c0.3-10.8,0.7-21,1.2-30.6c0.5-9.5,1.1-16.1,1.6-19.8
			c0-3.2,0.1-5.8,0.4-7.9c0.3-2.1,0.4-3.7,0.4-4.8s0.3-2.1,0.8-3.2c0-0.5,0.7-1.3,2-2.4c1.3-1.1,3.8-0.3,7.5,2.4
			c19,6.3,33.2,11.2,42.5,14.7c9.3,3.4,16.7,5.8,22.2,7.1c5.6,1.3,12,2,19.4,2c4.8,0,9.5-2,14.3-6s8.2-9.9,10.3-17.9
			c1.1-1.6,2.9-7.1,5.6-16.7c1.1-4.8,2.1-10,3.2-15.9c0.5-2.1,0.8-5.6,0.8-10.3c0-4.7,0-10.6,0-17.5c0-12.2,0.3-29.4,0.8-51.6
			c0.5-22.2,1.1-50.5,1.6-84.9v-33.8l-0.8-86.5c0-8.5,2-14.4,6-17.9c4-3.4,8.2-5.6,12.7-6.3c4.5-0.8,7.5-1.2,9.1-1.2l63.5-0.8H469
			c14.8,0,24.9,2.7,30.2,7.9c1.1,2.1,2.1,4.6,3.2,7.5s1.6,6.7,1.6,11.5c0,6.9,0.4,12.8,1.2,17.9c0.8,5,1.2,8.9,1.2,11.5v165.1
			c-1.1,0-1.6,2.4-1.6,7.1v6.3c-0.5,2.7-0.5,5.6,0,8.7c0,3.7-0.3,6.3-0.8,7.9c-0.5,2.1-0.8,4.9-0.8,8.3s0,7.5,0,12.3v13.7l-0.8,6.3
			c0,20.6-0.4,38-1.2,52c-0.8,14-2.5,27.9-5.2,41.7c-7.9,47.1-29.1,84-63.5,110.7C397.8,2215.1,353.9,2228.9,300.5,2230z"/>
		<path class="st3" d="M1101.2,2222.1c-3.7,0-6.9-0.1-9.5-0.4c-2.7-0.3-5.3-0.7-7.9-1.2H952c-0.5,0-1.3-0.1-2.4-0.4
			c-1.1-0.3-2.4-0.7-4-1.2h-23.7l-34.1-0.8c-2.1,0-3.4,0.3-4,0.8c-1.1,1.1-3.2,1.6-6.3,1.6h-2.4l-0.8-0.8c-2.1,0-3.2-0.3-3.2-0.8
			c-1.6-0.5-3.2-0.8-4.8-0.8s-2.9,0-4,0c-1.1-4.2-2.4-12-4-23.4c-1.6-11.4-5.3-27.6-11.1-48.8l-6.3-22.2h-44.4
			c-8.5,0-15.9-0.3-22.2-0.8s-13-1.6-19.8-3.2c0,2.1-0.3,4.5-0.8,7.1c-0.5,2.7-1.1,6.3-1.6,11.1c-3.7,19.6-7.4,36.8-11.1,51.6
			c-3.7,14.8-6.9,24.3-9.5,28.6c-4.2,0-9.3,0-15.1,0s-12.7,0.3-20.6,0.8c-7.9,0-13,0.5-15.1,1.6h-7.1c-0.5,0-0.8-0.5-0.8-1.6
			c-0.5-0.5-1.3-0.8-2.4-0.8c-4.2,0-7.1,0.3-8.7,0.8v1.6H556c-2.1,0.5-4.6,0.9-7.5,1.2s-6.5,0.4-10.7,0.4h-7.9c-4.2,0-7.1-1.3-8.7-4
			c-3.7-5.3-5.6-11.1-5.6-17.5c0-3.7,0.3-6.3,0.8-7.9c0-2.6,0-5.2,0-7.5s0.3-5.2,0.8-8.3c1.1-5.8,2.4-10,4-12.7
			c1.6-5.8,2.4-9.8,2.4-11.9c1.1-6.3,6-28.7,14.7-67.1c8.7-38.4,20.8-90.1,36.1-155.2c15.3-65.1,33.3-140.5,54-226.2
			c0-0.5,0.7-1.8,2-4c1.3-2.1,3-3.7,5.2-4.8h3.2l1.6,1.6c2.6,0,4.6-0.5,6-1.6c1.3-1.1,2.8-1.8,4.4-2.4c4.2-1.1,7.4-1.6,9.5-1.6
			c3.7,0,7.3,0.1,10.7,0.4c3.4,0.3,7,0.7,10.7,1.2c1.1,0,2.4-0.1,4-0.4c1.6-0.3,2.9,0.1,4,1.2c1.1,0.5,2.8,0.9,5.2,1.2
			s4.6,0.4,6.7,0.4c0-1.1,1.3-1.7,4-2c2.6-0.3,4.5-0.4,5.6-0.4c4.8-0.5,10.3-0.9,16.7-1.2c6.3-0.3,14.8-0.4,25.4-0.4h75.4
			c0,0.5,2.4,0.8,7.1,0.8c2.6,0,4.9,0,6.7,0s3.8,0.3,6,0.8h39.7c1.1,0.5,2.2,1.1,3.6,1.6c1.3,0.5,2.5,0.8,3.6,0.8
			c2.6,0,5.4-0.1,8.3-0.4c2.9-0.3,5.7-0.7,8.3-1.2s5.4-0.8,8.3-0.8c2.9,0,4.9,0,6,0c5.8-0.5,11.1-0.9,15.9-1.2
			c4.8-0.3,9.8-0.4,15.1-0.4c3.2,0,6.3-0.3,9.5-0.8s6.6,0.3,10.3,2.4c4.2,2.1,8.1,3.3,11.5,3.6s6.5,0.4,9.1,0.4
			c2.1,0,3.2-0.5,3.2-1.6h3.2c1.6,0.5,3.2,2,4.8,4.4c1.6,2.4,2.4,3.8,2.4,4.4c5.3,20.1,11.4,44.3,18.3,72.6
			c6.9,28.3,14.1,58.6,21.8,90.9c7.7,32.3,15.5,65.1,23.4,98.4c7.9,33.3,15.6,65.2,23,95.6c7.4,30.4,13.8,57.8,19,82.1
			c1.1,5.3,1.7,9,2,11.1c0.3,2.1,0.7,4.5,1.2,7.1c0.5,3.7,2,9.8,4.4,18.3s3.6,14.8,3.6,19s-1.1,6.6-3.2,7.1
			c-2.1,10.6-6.6,15.9-13.5,15.9h-10.1L1101.2,2222.1L1101.2,2222.1z M763.9,2029.2c3.2,0,4.8-0.5,4.8-1.6h4.8
			c1.1-0.5,2.9-1.3,5.6-2.4c2.6-1.1,5.8-1.6,9.5-1.6h0.8l5.6,4h37.3l-5.6-35.7l-3.2-15.1c-1.1-5.8-2.1-10.7-3.2-14.7
			c-1.1-4-1.6-7.8-1.6-11.5c0-2.6-0.8-9.6-2.4-21c-1.6-11.4-3.4-24.5-5.6-39.3l-3.2-22.2c-1.6-4.8-2.8-9.3-3.6-13.5
			c-0.8-4.2-1.5-8.2-2-11.9l-1.6-9.5v-4c-1.1-1.1-1.6-2.4-1.6-4c0-2.1-0.3-3.2-0.8-3.2v3.2c0,2.1-1.1,4.8-3.2,7.9v9.5
			c-1.1,4.2-1.9,8.5-2.4,12.7c-0.5,4.2-1.3,8.5-2.4,12.7l-7.1,37.3c-4.2,21.2-7.4,42.1-9.5,62.7
			C771.3,1988.7,768.2,2009.1,763.9,2029.2z"/>
		<path class="st3" d="M1246.4,2228.4c-2.7,0-5-0.1-7.1-0.4s-4-0.7-5.6-1.2h-35.7l-34.9-8.7l-3.2-5.6c-0.5,0-0.8-2.9-0.8-8.7
			c0-3.7,0-7.1,0-10.3c0-3.2-0.3-5.8-0.8-7.9l-0.8-36.5c-0.5-4.2-0.7-9.1-0.4-14.7c0.3-5.6,0.1-12.3-0.4-20.2l-1.6-60.3
			c0-6.9,0.1-14.8,0.4-23.8s0.7-19.3,1.2-31l0.8-26.2c0.5-8.5,0.9-19.6,1.2-33.3c0.3-13.8,0.4-30.2,0.4-49.2v-15.9
			c-1.1-2.1-1.6-5-1.6-8.7l-0.8-5.6c0-13.2,0.8-27,2.4-41.3c0.5-9,0.9-17.5,1.2-25.4c0.3-7.9,0.4-15.6,0.4-23l-0.8-22.2
			c-0.5-2.6-0.8-5.7-0.8-9.1s0-7,0-10.7c0-1.1-0.3-1.8-0.8-2.4c-1.1-1.1-1.6-2.1-1.6-3.2c0-5.3,2.1-9.8,6.3-13.5
			c4.2-3.7,9.5-6.3,15.9-7.9c4.2-1.1,8.9-2,13.9-2.8c5-0.8,11-1.2,17.9-1.2h162.7c0.5,0,1.3,0.5,2.4,1.6l3.2,2.4
			c4.8,4.8,10,11.9,15.9,21.4c1.6,3.2,3.7,6.7,6.3,10.7c2.6,4,7.4,9.9,14.3,17.9c2.1,4.2,3.8,9.9,5.2,17.1
			c1.3,7.1,4.6,14.4,9.9,21.8l18.3,24.6c2.1,3.7,4.2,8.3,6.3,13.9c2.1,5.6,4.8,12,7.9,19.4c1.1,2.1,2,4.2,2.8,6.3s1.7,4.2,2.8,6.3
			l4.8,12.7c0.5,3.2,1.8,5.8,4,7.9c0.5,1.1,0.9,1.9,1.2,2.4c0.3,0.5,0.4,1.1,0.4,1.6c2.1,4.2,6.5,9.9,13.1,17.1
			c6.6,7.1,11,10.7,13.1,10.7c2.6,0,4.9-3.6,6.7-10.7c1.8-7.1,3.6-12.8,5.2-17.1c0.5-0.5,1.1-1.8,1.6-4c0.5-1.1,1.1-2.2,1.6-3.6
			c0.5-1.3,1.3-3,2.4-5.2l11.9-26.2l31.7-66.7l13.5-28.6c1.1-2.1,1.8-4.1,2.4-6c0.5-1.8,1.1-3.6,1.6-5.2c1.1-2.6,1.8-4.2,2.4-4.8
			c1.1-2.6,2.8-6,5.2-9.9c2.4-4,5.4-8.9,9.1-14.7c2.6-4.2,5-7.4,7.1-9.5c1.1-0.5,2.1-1.3,3.2-2.4s1.8-1.6,2.4-1.6h241.3
			c1.1,0,2.4,4,4,11.9l2.4,77c0.5,11.1,0.9,25.3,1.2,42.5c0.3,17.2,0.4,37.7,0.4,61.5v45.6c0,11.6-0.4,24.7-1.2,39.3
			c-0.8,14.6-1.6,27.7-2.4,39.3s-1.5,19.6-2,23.8l-1.6,15.9v27c0.5,3.7,0.8,8.3,0.8,13.9c0,5.6,0,12,0,19.4
			c0,15.4,0.1,28.8,0.4,40.5c0.3,11.6,0.9,20.4,2,26.2v31.7l-2.4,5.6l-34.9,8.7h-35.7c-2.1,0.5-4.2,0.9-6.3,1.2
			c-2.1,0.3-4.5,0.4-7.1,0.4c-4.8,0-10.3-0.1-16.7-0.4c-6.3-0.3-13.8-0.7-22.2-1.2l-19.8-0.8c-3.7-0.5-7.9-1.1-12.7-1.6
			c-4.8-0.5-10.6-0.8-17.5-0.8l-30.2-2.4c-1.1,0-1.9,0.3-2.4,0.8h-6.3c-2.1,0-3.7-2.9-4.8-8.7c-3.2-9.5-4.8-27.2-4.8-53.2
			c0-8.5,0-15.9,0-22.2c0-6.3-0.3-11.9-0.8-16.7l-0.8-42.9c-0.5-4.8-0.8-10.6-0.8-17.5c0-6.9,0-14.5,0-23c0-4.2-1.9-6.3-5.6-6.3
			c-2.1,0-4.2,2.7-6.3,7.9l-8.7,20.6l-7.1,19.8c-1.1,3.2-2.1,6.3-3.2,9.5s-2.4,6.1-4,8.7l-4,9.5c-4.2,10.6-10.2,22.6-17.9,36.1
			c-7.7,13.5-17.3,24.5-29,32.9c-5.8,3.7-11.4,5.6-16.7,5.6h-12c-2.7,0-5.3-0.1-7.9-0.4c-2.7-0.3-5-0.7-7.1-1.2h-33.3
			c-10.6-16.9-23.4-34.5-38.5-52.8s-27.1-37.4-36.1-57.5l-19.8-28.6c-2.1-3.2-3.6-5.7-4.4-7.5c-0.8-1.8-1.5-2.8-2-2.8
			c-3.7,0-5.6,2.1-5.6,6.3v36.5c0,36.5-0.5,66-1.6,88.5s-2.9,39-5.6,49.6c-0.5,6.3-1.9,9.5-4,9.5h-5.6l-4-0.8
			c-9,0.5-17.1,1.1-24.2,1.6s-13.4,1.1-18.7,1.6c-6.3,0.5-13.4,1.3-21,2.4C1270.9,2227.9,1260.2,2228.4,1246.4,2228.4z"/>
	</g>
	<g class="st2">
		<path class="st3" d="M119.1,2502.9l-6,0.3c-3.1,0-5.4-1.2-6.9-3.7s-2.5-5.3-2.8-8.4c-0.4-3.2-0.5-5.7-0.5-7.5v-7.4
			c-0.2-4-0.5-8.2-0.7-12.8c-0.2-4.6-0.4-8.6-0.4-12.1c-0.5-10.3-0.9-19-1.2-26.1c-0.4-7.1-0.8-12.8-1.2-17c0-4-0.2-8.2-0.7-12.6
			c-0.5-4.4-0.8-7.5-1.1-9.1v-115.6c0-2.3,0.8-3.6,2.5-3.9h2.1l1.1,0.4c4,0,8.5-0.1,13.5-0.4c5-0.2,10.8-0.5,17.4-0.7
			c8.3-0.2,16-0.4,23.2-0.5c7.2-0.1,13.8-0.2,19.7-0.2h3.5c0.9,0.2,3,0.4,6,0.4h9.6c3.5,0,6.7,0,9.6,0c2.8,0,5.1,0.1,6.7,0.3h34.8
			c2.1,0.2,4.8,0.4,8.2,0.5c3.3,0.1,7.5,0.2,12.4,0.2c2.1,0,3.5,0.1,4.3,0.4c0.9,0.2,2,0.4,3,0.5c1.1,0.1,2.2,0.2,3.4,0.2
			c0.9,0,1.8-0.4,2.5-1.1c5,0,7.7,4.8,8.2,14.4c0.2,0.9,0.4,2,0.5,3.2c0.1,1.2,0.2,2.2,0.2,3.2c0,0.7-0.1,2.3-0.4,4.7
			c-0.2,2.5-0.4,4.7-0.4,6.8c0,1.9-0.1,4.2-0.2,7s-0.2,6.2-0.2,10.2c0,2.3-1.3,3.6-3.9,3.9c-2.6,0.2-5.2,0.4-7.8,0.4h-20.2l-9.9,0.4
			c-2.1,0.7-5.7,1.1-10.6,1.1c-5.2,0-7.9-0.1-8.2-0.4l-1.4,0.7c-0.2,0.2-0.6,0.4-1.1,0.4c0,0.7-0.1,1.2-0.4,1.4
			c-0.2,0.2-0.4,0.8-0.4,1.8c0,0.9-0.2,3.7-0.5,8.4c-0.4,4.7-0.7,9.9-1.1,15.8c-0.4,5.8-0.5,11.2-0.5,16.1l-0.4,0.7
			c0,1.2,0.5,2.2,1.4,3.2h40.5c5,0,8,1.6,9.2,4.9c0.9,2.6,1.4,9.2,1.4,20v28.4c-0.9,3.5-2.7,5.3-5.3,5.3c-0.9,0-1.8,0.1-2.7,0.2
			c-0.8,0.1-1.7,0.3-2.7,0.5l-14.6,0.7h-6.7c-3.3,0-5.7,0.2-7.1,0.7l-6.7,1.1h-4.6c-3.8,0-6.2,0.5-7.1,1.4c-0.2,0.2-0.7,0.6-1.4,1.1
			s-1.3,1.3-1.8,2.5c0,10-0.1,18.5-0.4,25.4c-0.2,6.9-0.4,12.3-0.4,16.3c-0.2,5.1-0.6,9.6-1.1,13.3s-1.2,6.9-2.1,9.5
			c-2.1,0-4.7,0.1-7.6,0.2c-3,0.1-6.4,0.3-10.5,0.5c-1.9,0-3.4,0.1-4.6,0.2c-1.2,0.1-2,0.3-2.5,0.5h-3.5c-1.2,0-1.9-0.1-2.1-0.4
			c-0.2-0.2-0.7-0.4-1.4-0.4l-1.1-0.4c0-0.2-0.4-0.4-1.1-0.4c-0.9,0-1.9,0.5-2.8,1.4l-28-3.5c-0.2,0.2-0.7,0.4-1.4,0.4l-3.2,1.1
			L119.1,2502.9z"/>
		<path class="st3" d="M389.2,2501.1h-56.1c-2.6,0-4.4-0.1-5.3-0.3c-1.2-0.2-2.5-0.4-3.9-0.5c-1.4-0.1-3-0.3-4.6-0.5l-7.5-1.8
			c-1.2,0-2.1-0.4-2.8-1.1v-0.7c0-6.1-0.4-14-1.1-23.8c0-3.7-0.2-6.9-0.5-9.5c-0.4-2.6-0.7-4.9-0.9-7l-0.7-14.7
			c-0.2-2.1-0.3-4.4-0.2-7c0.1-2.6,0.1-5.5-0.2-8.8l-0.7-10.5c-0.2-4.4-0.3-8.4-0.2-11.9c0.1-3.5,0.1-6.4-0.2-8.8
			c0-1.2-0.1-2.6-0.2-4.4s-0.2-4.7-0.2-8.8s0-10.1,0-18c0-22.2,0.2-40.1,0.5-53.8s1-25.6,2-35.9c0-2.3,3-4.4,8.9-6.3
			c2.4-0.2,5.1-0.4,8.3-0.5c3.2-0.1,6.2-0.2,9-0.2c9.7,0,18-0.1,25-0.2c7-0.1,12.7-0.4,17.2-0.9c14-0.2,26.1-0.4,36.6-0.5
			c10.4-0.1,19.3-0.2,26.6-0.2h15.6c9.9,0,18.6,0.2,25.9,0.7s13.6,0.9,18.8,1.4c3.5,0,6.3,4.3,8.2,13c0.5,0.9,0.8,2.3,1.1,4.2
			c0.2,1.9,0.7,4.8,1.4,8.8c0.5,5.1,0.9,9.1,1.4,11.9s0.9,5.5,1.4,8.1c0.2,0.5,0.4,1.8,0.4,3.9c-0.2,0.2-0.4,1.2-0.4,2.8
			c-0.2,2.1-1.5,3.2-3.9,3.2c-0.5-0.2-1.8-0.3-3.9-0.3c-5.2,0-10.8,0.3-16.9,0.9c-6,0.6-12.8,1.1-20.4,1.6l-18.5,1.4l-18.5,1.8
			c-0.7,0-1.7,1.3-2.8,3.9c-0.7,1.6-1.4,2.7-2.1,3.3c-0.7,0.6-1.2,1.9-1.4,4l-0.7,11.9c-0.2,3,0.1,5,1.1,6c0.9,0.9,2.7,1.4,5.3,1.4
			h31.8c9,0,19.5,0.7,31.6,2.1h3.5c4.5,0,7.2,2.6,8.2,7.7l0.7,34.7v1.1c0,4.2-4,6.5-12.1,7c-2.1,0.7-5.3,1.2-9.6,1.4
			c-4.3,0.2-10.8,0.4-19.5,0.4c-8.8,0-14.5,0-17.2,0s-4.7-0.1-5.9-0.4c-5,0-8.2,0-9.6,0s-2.4,0.1-2.8,0.4c-2.4,0.5-4,1-4.8,1.6
			c-0.8,0.6-1.2,2.1-1.2,4.6s-0.1,7-0.4,13.5c-0.2,0.9-0.4,2.2-0.5,3.7s-0.2,4.9-0.2,10c14.2,0,25.3-0.1,33.4-0.4
			c8-0.2,14.3-0.5,18.8-0.7c6.9-0.2,13.1-0.4,18.6-0.5c5.6-0.1,10.6-0.2,15.1-0.2c0.7,0,1.7,0.8,2.8,2.5c0.9,1.6,2.2,5.8,3.9,12.6
			s3.7,16,6,27.7c0.5,1.2,0.7,2.9,0.7,5.3c0,4.9-2.3,7.4-6.7,7.4c-7.6,0-16,0.4-25.2,1.1c-1.7,0.2-4,0.4-6.9,0.4c-3,0-9,0-18.3,0
			c-8.3,0-17.5,0-27.5,0c-10.1,0-19.3,0.1-27.7,0.2C399.8,2501.1,393.4,2501.1,389.2,2501.1z"/>
		<path class="st3" d="M615.6,2511.7c-15.9,0-30.8-1.9-44.7-5.6c-14-3.7-26.1-9-36.6-15.8c-1.2-5.6-2.3-11.1-3.4-16.5
			c-1.1-5.4-2.1-11.6-3.2-18.6c-1.1-7-2.3-15.6-3.7-25.9v-1.1c0.5-2.1,2.1-4.1,5-6c8.3,5.4,15.8,9.3,22.7,11.9
			c6.9,2.6,12.5,3.9,17,3.9h10.6l6,0.3c5.4,0,10.5-0.8,15.3-2.5c6.1-2.3,9.6-5.4,10.5-9.1c0.8-3.7-0.7-7.2-4.4-10.5
			c-3.8-3.3-9.6-5.4-17.4-6.3c-10.9-1.4-21.3-5.5-31.2-12.3s-18-15.3-24.3-25.6c-6.3-10.3-9.4-21.3-9.4-32.9
			c0-20.8,5.8-37,17.4-48.5c11.6-11.6,26.4-19.9,44.4-25.1c15.8-4.4,33.4-6.7,52.5-6.7c5.4,0,11.5,0.3,18.1,0.9s14.9,1.6,24.8,3
			c2.1,1.2,5.3,1.9,9.6,2.1l9.2,2.1c4,0.9,7.4,1.5,10.1,1.6c2.7,0.1,4.9,0.2,6.6,0.2c0.2,0,0.4,0.1,0.5,0.2s0.3,0.2,0.5,0.2
			c0.5,0.2,0.9,0.6,1.4,1.1c0.5,1.2,0.9,1.9,1.4,2.3c0.5,0.4,0.8,0.5,1.1,0.5h0.7l0.7,7.7c0,2.1,0.1,4,0.4,5.8
			c0.2,1.8,0.5,3.4,0.7,5.1c0.5,3,0.8,6.1,1.1,9.3c0.2,3.2,0.4,6.4,0.4,9.6c0,11.4-2.4,18.9-7.1,22.4L688,2329h-5
			c-1.7,0-4.7-0.1-9.2-0.4c-4.5-0.2-9.3-0.3-14.4-0.2c-5.1,0.1-9.5,0.7-13.1,1.8c-3.7,1.1-5.5,2.7-5.5,5.1c0,2.8,0.9,5.6,2.7,8.2
			c1.8,2.7,4.6,5,8.3,6.8c1.7,0.9,3.2,1.9,4.6,2.8c1.4,0.9,3,1.6,4.6,2.1c1.9,0.5,3.4,0.9,4.6,1.4c1.2,0.5,1.9,0.8,2.1,1.1
			c8.3,2.8,15.9,6.3,22.9,10.3c7,4.1,13.7,9.3,20.1,15.6c6.9,6.5,11.5,14.3,13.8,23.3c2.4,9,3.3,17.8,2.8,26.5
			c-2.1,17.5-8.4,32.6-18.8,45.2c-5.9,5.8-12.3,10.8-19.2,14.9c-6.9,4.1-14.3,7.5-22.4,10.3C652.9,2509.1,635.7,2511.7,615.6,2511.7
			z"/>
		<path class="st3" d="M804.7,2503.2c-2.6,0-5.1-2.2-7.5-6.7c-3.5-7.7-5.3-21.5-5.3-41.3c0-9.6,0.1-21.1,0.2-34.5
			c0.1-13.4,0.4-26.3,0.9-38.7c0.2-4,0.4-9.2,0.4-15.6c0-6.4,0-14.2,0-23.3h-49.7c-6.2,0-9.9-6.3-11.4-18.9
			c-0.2-3.3-0.5-7.4-0.9-12.3c-0.4-4.9-0.5-10.6-0.5-17.2v-4.9c0-1.2,0-2.2,0-3c0-0.8,0.1-1.6,0.4-2.3v-8.4c0-1.4,0.7-2.6,2.1-3.5
			c1.4-0.9,3-1.6,4.6-2.1c2.6-0.7,6.1-1.1,10.6-1.1h36.6c3.1,0,5.7,0.1,7.8,0.2c2.1,0.1,4,0.2,5.7,0.2l12.4,0.4h124.2
			c4.7,0,8.5,0,11.4,0c2.8,0,5,0.1,6.4,0.3c0.5,0,1.2,0,2.1,0c0.9,0,1.9,0.1,2.8,0.4c2.1,0.2,4,0.7,5.5,1.4s2.3,1.5,2.3,2.5v62
			c0,3-0.8,4.9-2.5,5.4c-1.7,0.6-3.5,0.9-5.7,0.9H909v18.6c0,1.6,0,3.2,0,4.7s-0.1,2.6-0.4,3.3c0,3.3-0.1,8.6-0.4,15.9
			c-0.2,7.4-0.6,16.6-1.1,27.9l-0.4,10.5c-0.2,4.4-0.5,9.6-0.9,15.6s-0.7,10-0.9,12.1v32.9c0,7.9-1.7,12.9-5,14.7
			c-1.7,0.5-3,0.8-3.9,1.1c-0.9,0.2-1.8,0.5-2.5,0.7l-8.2,0.4c-4.5,0.2-8.4,0.4-11.7,0.5c-3.3,0.1-5.9,0.2-7.8,0.2l-36.6,0.7
			c-2.1,0-5.3,0.1-9.4,0.2C816,2503.2,810.9,2503.2,804.7,2503.2z"/>
		<path class="st3" d="M1004.2,2506.4l-9.2,1.4c-3.3,0-5.7-1.7-7.3-5.1c-1.5-3.4-2.5-7.1-2.8-11.2c-0.4-4.1-0.5-7.2-0.5-9.3
			c0-4.4-0.1-7-0.4-7.7c-0.2-4-0.5-9.1-0.7-15.2c-0.2-6.2-0.7-13.5-1.4-21.9l-1.4-15.4c-0.9-12.1-1.5-22.5-1.8-31
			c-0.2-8.5-0.4-15.7-0.4-21.6v-97.8c0-2.3,1.9-3.9,5.7-4.7s8.2-1.2,13.1-1.2c1.4,0,3.1,0,5,0s3.8,0.1,5.7,0.4
			c1.9,0.2,3.5,0.4,5,0.5c1.4,0.1,2.6,0.2,3.5,0.2c1.9,0.2,4.5,0.4,7.8,0.5c3.3,0.1,7.1,0.2,11.4,0.2l1.4-1.1h17.7
			c1.2,0.7,2.2,1.1,3.2,1.1h1.4c0.5-0.5,2-0.7,4.6-0.7c0.2-0.2,0.5-0.4,0.7-0.4h0.7c0.9,0,1.9,0.1,2.8,0.4l2.5,0.7h21.6
			c3.3,0,5.6,0.8,6.7,2.3c1.2,1.5,1.8,2.9,1.8,4l1.1,63.4c0,0.7-0.1,1.4-0.4,2.1l-1.1,6c-0.9,4.9-1.4,9.3-1.4,13.1s0,7.2,0,10v78.5
			l-1.1,15.1c-0.2,3.5-0.5,6.7-0.7,9.5s-0.2,5.3,0,7.4c0,10.5-1.3,17.5-3.9,21c-1.4,2.1-3.8,3.2-7.1,3.2l-0.4-0.7l-1.8-0.4
			c-0.5,0-0.7,0.1-0.7,0.4h-1.8c-0.7,0.2-1.3,0.5-1.8,0.7s-0.8,0.5-1.1,0.7c-0.7,0-1.9-0.1-3.5-0.4c-1.7-0.2-3.7-0.6-6-1.1l-5.7-0.4
			c-1.2,0-1.9,0.6-2.1,1.8h-36.6l-10.6,1.8L1004.2,2506.4z"/>
		<path class="st3" d="M1208.3,2505.3c-1.7,0-3.3-0.2-4.8-0.5c-1.5-0.4-3.3-0.6-5.1-0.9c-1.7-0.2-3.3-0.5-5-0.7s-3.2-0.3-4.6-0.3
			c-0.5,0-0.7,0.1-0.7,0.3h-2.1c-2.4-1.4-3.5-2.6-3.5-3.5l-25.2-73.9c-2.6-7.7-5.7-17.3-9.2-28.7s-7.7-23.8-12.4-37
			c-4.7-13.2-10.3-26.2-16.7-39.1c-0.2-0.5-0.4-1.5-0.4-3.2l-1.1-4.6c-0.5-2.1-0.8-3.6-1.1-4.6c-0.2-0.9-0.4-2.5-0.4-4.6
			c0-1.9-0.4-4.1-1.2-6.8c-0.8-2.7-0.9-5.4-0.2-8.1c0.7-2.7,3.3-4.8,7.8-6.5l8.2-3.5l28.7-6.3c0.2,0,0.7-0.1,1.4-0.2
			c0.7-0.1,1.2-0.1,1.4,0.2c0.5,0.2,0.8-0.1,0.9-0.9s0.3-1.2,0.5-1.2c0.5,0.2,0.8,0.2,1.1,0c0.2-0.2,0.5-0.4,0.7-0.4
			c0.7-0.2,1.2-0.3,1.6-0.3s0.9-0.1,1.6-0.4l2.1-1.1l7.1-0.4l22.4-4.2c5.2-1.6,9.3-1.5,12.2,0.5c3,2,5.2,4.6,6.7,7.9
			s2.7,6.1,3.4,8.4l6,15.8c0.7,1.6,2,5.2,3.7,10.7c1.8,5.5,3.7,11.2,5.7,17.2s3.4,10.6,4.1,13.8l0.4,1.4c0,1.4,0.1,2.6,0.4,3.5
			c1.2,0.9,2.2,2.4,3,4.4s1.4,3.6,1.6,4.7l2.1,7.4l4.6,10.2l7.1,21.4l2.1,5.3l3.5,6c0-0.5,0.6-1.8,1.8-3.9c1.2-2.1,2.4-4.3,3.5-6.7
			c1.2-2.3,1.8-3.7,1.8-4.2l4.3-16.5l3.5-12.6c0.5-1.2,0.8-2.4,0.9-3.7c0.1-1.3,0.3-2.4,0.5-3.3l1.1-5.6l1.1-5.3
			c0.5-2.3,1.4-4.5,2.7-6.5c1.3-2,2.4-5.2,3.4-9.6c5.4-21.3,9.5-37.1,12.1-47.7c2.6-10.5,6.6-15.1,12.1-13.7l15.3,0.7l27,2.8
			c1.2,0,2.5,0.5,4.1,1.4c1.5,0.9,2.8,1.3,3.7,1.1l11,1.1c3.3,0.2,6.6,2.1,9.9,5.6s4,7.4,2.1,11.6c0,1.2-0.1,2.7-0.4,4.7
			c-0.2,2-0.7,5.1-1.4,9.3c-0.2,0.9-0.6,1.9-1.1,2.8s-0.7,1.6-0.7,2.1c-0.2,0.7-0.4,1.3-0.4,1.8s-0.1,0.8-0.4,1.1
			c-2.4,7.5-5.2,16.9-8.5,28.4c-3.3,11.4-6.7,23.5-10.3,36.1c-3.5,12.6-6.7,24.4-9.6,35.2c-2.9,10.8-5.2,19.3-7.1,25.4l-18.5,65.2
			c0,0.7-1.2,1.9-3.5,3.5h-1.1l-1.4-0.3c-0.9,0-1.8,0-2.7,0c-0.8,0-1.6,0.3-2.3,1.1c-0.9,0.9-2.4,1.4-4.3,1.4
			c-3.5,0-6.7-0.5-9.6-1.4c-1.9-0.2-3.6-0.4-5.1-0.5c-1.5-0.1-2.9-0.2-4.1-0.2c-7.6,0.5-16.9,0.9-28,1.2c-11.1,0.4-22.1,0.6-33,0.7
			C1224.3,2505.3,1215.4,2505.3,1208.3,2505.3z"/>
		<path class="st3" d="M1640.9,2500.4c-1.7,0-3.1-0.1-4.3-0.2c-1.2-0.1-2.4-0.3-3.5-0.5h-58.9c-0.2,0-0.6-0.1-1.1-0.2
			c-0.5-0.1-1.1-0.3-1.8-0.5h-10.6l-15.3-0.4c-0.9,0-1.5,0.1-1.8,0.4c-0.5,0.5-1.4,0.7-2.8,0.7h-1.1l-0.4-0.4
			c-0.9,0-1.4-0.1-1.4-0.4c-0.7-0.2-1.4-0.4-2.1-0.4s-1.3,0-1.8,0c-0.5-1.9-1.1-5.3-1.8-10.3c-0.7-5-2.4-12.2-5-21.6l-2.8-9.8h-19.9
			c-3.8,0-7.1-0.1-9.9-0.4c-2.8-0.2-5.8-0.7-8.9-1.4c0,0.9-0.1,2-0.4,3.2c-0.2,1.2-0.5,2.8-0.7,4.9c-1.7,8.6-3.3,16.2-5,22.8
			c-1.7,6.5-3.1,10.7-4.3,12.6c-1.9,0-4.1,0-6.7,0s-5.7,0.1-9.2,0.4c-3.5,0-5.8,0.2-6.7,0.7h-3.2c-0.2,0-0.4-0.2-0.4-0.7
			c-0.2-0.2-0.6-0.4-1.1-0.4c-1.9,0-3.2,0.1-3.9,0.4v0.7h-47.2c-0.9,0.2-2.1,0.4-3.4,0.5c-1.3,0.1-2.9,0.2-4.8,0.2h-3.5
			c-1.9,0-3.2-0.6-3.9-1.8c-1.7-2.3-2.5-4.9-2.5-7.7c0-1.6,0.1-2.8,0.4-3.5c0-1.2,0-2.3,0-3.3c0-1.1,0.1-2.3,0.4-3.7
			c0.5-2.6,1.1-4.4,1.8-5.6c0.7-2.6,1.1-4.3,1.1-5.3c0.5-2.8,2.7-12.7,6.6-29.6c3.9-16.9,9.3-39.8,16.1-68.5
			c6.9-28.7,14.9-62,24.1-99.9c0-0.2,0.3-0.8,0.9-1.8c0.6-0.9,1.4-1.6,2.3-2.1h1.4l0.7,0.7c1.2,0,2.1-0.2,2.7-0.7s1.2-0.8,2-1.1
			c1.9-0.5,3.3-0.7,4.3-0.7c1.7,0,3.2,0.1,4.8,0.2c1.5,0.1,3.1,0.3,4.8,0.5c0.5,0,1.1-0.1,1.8-0.2c0.7-0.1,1.3,0.1,1.8,0.5
			c0.5,0.2,1.2,0.4,2.3,0.5c1.1,0.1,2.1,0.2,3,0.2c0-0.5,0.6-0.8,1.8-0.9c1.2-0.1,2-0.2,2.5-0.2c2.1-0.2,4.6-0.4,7.5-0.5
			c2.8-0.1,6.6-0.2,11.4-0.2h33.7c0,0.2,1.1,0.3,3.2,0.3c1.2,0,2.2,0,3,0s1.7,0.1,2.7,0.4h17.7c0.5,0.2,1,0.5,1.6,0.7
			s1.1,0.4,1.6,0.4c1.2,0,2.4-0.1,3.7-0.2c1.3-0.1,2.5-0.3,3.7-0.5c1.2-0.2,2.4-0.4,3.7-0.4c1.3,0,2.2,0,2.7,0
			c2.6-0.2,5-0.4,7.1-0.5c2.1-0.1,4.4-0.2,6.7-0.2c1.4,0,2.8-0.1,4.3-0.4c1.4-0.2,3,0.1,4.6,1.1c1.9,0.9,3.6,1.5,5.1,1.6
			c1.5,0.1,2.9,0.2,4.1,0.2c0.9,0,1.4-0.2,1.4-0.7h1.4c0.7,0.2,1.4,0.9,2.1,1.9c0.7,1.1,1.1,1.7,1.1,1.9c2.4,8.9,5.1,19.6,8.2,32.1
			s6.3,25.9,9.8,40.1c3.4,14.3,6.9,28.7,10.5,43.5c3.5,14.7,7,28.8,10.3,42.2c3.3,13.4,6.2,25.5,8.5,36.3c0.5,2.3,0.8,4,0.9,4.9
			c0.1,0.9,0.3,2,0.5,3.2c0.2,1.6,0.9,4.3,2,8.1c1.1,3.7,1.6,6.5,1.6,8.4c0,1.9-0.5,2.9-1.4,3.2c-0.9,4.7-3,7-6,7h-4.5
			L1640.9,2500.4L1640.9,2500.4z M1490,2415.3c1.4,0,2.1-0.2,2.1-0.7h2.1c0.5-0.2,1.3-0.6,2.5-1.1s2.6-0.7,4.3-0.7h0.4l2.5,1.8h16.7
			l-2.5-15.8l-1.4-6.7c-0.5-2.6-0.9-4.7-1.4-6.5s-0.7-3.4-0.7-5.1c0-1.2-0.4-4.3-1.1-9.3s-1.5-10.8-2.5-17.3l-1.4-9.8
			c-0.7-2.1-1.2-4.1-1.6-6c-0.4-1.9-0.7-3.6-0.9-5.3l-0.7-4.2v-1.8c-0.5-0.5-0.7-1.1-0.7-1.8c0-0.9-0.1-1.4-0.4-1.4v1.4
			c0,0.9-0.5,2.1-1.4,3.5v4.2c-0.5,1.9-0.8,3.7-1.1,5.6c-0.2,1.9-0.6,3.7-1.1,5.6l-3.2,16.5c-1.9,9.3-3.3,18.6-4.3,27.7
			C1493.4,2397.4,1491.9,2406.4,1490,2415.3z"/>
		<path class="st3" d="M1837.8,2503.2h-53.6c-12.5,0-23.4-0.1-32.7-0.2c-9.2-0.1-16.7-0.2-22.4-0.2c-5.4,0-10.2-0.1-14.2-0.2
			c-4-0.1-7.3-0.2-9.9-0.2l-30.2-0.4c-2.4,0-4.6-1-6.6-3s-3-4.1-3-6.5v-114.6l-0.4-19.6c-0.2-10.3,0.1-20,0.9-29.1
			c0.8-9.1,1.2-20.1,1.2-32.9v-8.4c0-7.2,1.2-12.7,3.5-16.5c1.2-2.1,3.3-3.2,6.4-3.2c6.2,0,12.4,0.1,18.8,0.2
			c6.4,0.1,13.1,0.3,20.2,0.5c0.9,0.2,2.2,0.4,3.9,0.4c1.7,0,3.3,0,5,0c4,0,7.5,0,10.5,0s5.4,0.1,7.3,0.4h29.1
			c4.5,0,8.5,0.9,12.1,2.6c3.5,1.8,5.3,7.1,5.3,15.9l-0.4,2.8c0,0.5-0.1,1.2-0.2,2.1c-0.1,0.9-0.2,2.2-0.2,3.9
			c-0.9,3-1.4,5.6-1.4,7.7c0,1.4,0.1,3,0.4,4.7c0.2,1.8,0.6,3.6,1.1,5.4c0,1.4,0.1,2.6,0.2,3.5c0.1,0.9,0.2,1.6,0.2,2.1l0.4,2.1
			v91.8c0,2.1,0.7,3.3,2.1,3.7c1.4,0.4,3.3,0.5,5.7,0.5h27c3.5,0,7.8-0.1,12.8-0.2c5-0.1,10.9-0.2,17.7-0.2c2.6,0,4.8,0.8,6.6,2.3
			c1.8,1.5,2.7,3.1,2.7,4.7v70.4c0,1.6-1.1,3-3.4,4.2s-4.7,1.9-7.3,2.1C1850,2502.9,1844.9,2503.2,1837.8,2503.2z"/>
	</g>
</g>
<g class="st1">
	<g>
		<g class="st2">
			<path class="st3" d="M93,539.5c-42-16-78-41-112-71c-17-17-35-33-48-53c-13-43-20-87-25-132c0-4,5-5,8-4c2,1,3,3,4,5
				c15,27,34,51,55,72c20,13,37,31,61,37c4,1,9,1,12-2c3-5,1-12-1-17c-2-3-3-6-5-9c-3-3-5-6-8-10c-5-5-8-11-14-15
				c-28-21-47-46-64-75c-17-32-30-65-36-101c0-2-2-4-2-6c0-6-1-13-2-19c-1-33,2-67,15-98c9-20,28-37,52-32c39,8,62,42,88,68
				c7,13,19,22,29,33c3,0,4,3,7,4c4,2,3,7,5,11c1,1,2,1,2,2c5,14,7,28,11,42c9,30,20,58,25,90c0,3-1,6-2,9c-13-9-26-17-39-25
				c-17-10-32-25-52-27c-4,3-2,8-1,12c6,21,18,38,33,54c6,5,12,11,18,16c16,16,31,31,47,48c1,2,2,4,3,5c17,16,31,33,43,53
				c22,34,42,68,40,108c-1,8-2,16-8,22s-12,11-19,15c-12,5-24,7-37,8c-14,1-26-2-40-4C121,550.5,107,544.5,93,539.5L93,539.5z"/>
			<path class="st3" d="M395,573.5c-3,0-6-1-8-2c-25-18-34-43-48-68c-36-63-64-125-94-188c-21-4-43-7-63-17c-9-4-12-16-16-25
				c-19-44-33-89-42-137c0-4,3-9,8-7c22,10,44,17,67,25c7,2,14,3,21,5c14,2,27,4,41,5c16,0,33,1,49-1c13-1,25-4,38-3c4,1,7,2,10,5
				c7,10,12,21,17,32c7,14,16,27,23,41c5,8,10,16,15,25c6,8,10,16,16,24c2,4,5,8,6,12c0,3-4,4-6,5c-17,5-34,9-52,11
				c10,16,19,32,30,48c1,2,2,5,3,7c26,40,49,76,73,117c2,3,5,6,7,9c8,13,16,25,24,39c1,3,1,5,1,8c-1,3-5,4-7,6c-13,5-26,8-40,12
				c-13,3-25,5-39,8c-2,0-4,0-6,0C414,571.5,404,573.5,395,573.5L395,573.5z"/>
			<path class="st3" d="M786,408.5c-2,2-4,3-7,2c-5-1-9-4-14-3c-20-10-40-18-60-27c-9-5-17-11-27-14c-1,0-3,1-3,3c8,18,19,32,31,49
				c2,4,4,7,6,11c1,5,6,9,6,15c0,2-2,3-3,4c-1,0-2-1-2-1c-21,20-42,36-66,51c-2,1-4,1-6,2c-5,2-8,6-13,7c-5,2-11,4-16,2
				c-4-2-5-6-8-10c-1-1-2-1-3-2c-37-50-72-91-108-141c-11-15-19-28-28-43c-16-26-34-47-50-73c-6-11-14-21-19-33c-3-7-7-14-10-21
				c-1-4-3-8-5-12c-2-8-8-18-1-25c27-6,53-13,79-24c5-2,10-3,15-5c32-12,62-28,93-42c21-9,42-12,65-9c24,4,45,12,64,28
				c28,25,48,56,53,93c2,19-1,39-10,56c2,0,5,0,6,1c5,6,12,5,18,8c1,1,2,1,3,2c2,1,5,1,7,2c17,7,34,16,51,24c4,2,9,5,11,9
				c5,16-8,30-12,45c-7,25-20,45-35,67C788,405.5,788,407.5,786,408.5L786,408.5z M629,308.5c6-3,11-8,12-15c1-8-3-15-6-22
				c-8-17-18-31-29-48c-9-12-16-24-26-35c-2-1-3-3-5-5c-2-1-3-3-5-4s-3-2-5-3c-7-3-17-7-24-2c3,11,9,21,14,31c22,37,43,71,71,105
				C626,310.5,628,309.5,629,308.5L629,308.5z"/>
			<path class="st3" d="M952,262.5c-24,16-46,33-72,47c-4,2-8,5-12,5c-11-25-27-47-41-71c-1-1,0-3-1-4c-7-10-13-18-19-28
				c-1-3-3-6-4-9c-4-7-9-12-13-19c-2-3-3-7-5-10c-4-5-7-10-11-16c-3-5-5-10-8-15c-23-36-43-70-62-108c-4-9-8-17-11-27
				c-1-6,2-12,6-15c24-18,49-27,74-43c13-7,26-13,39-20c42-23,84-39,128-55c12-4,23-6,35-9c9,3,13,11,17,19l2,1c4,9,7,17,12,26
				c4,8,5,18,12,24c0,6,6,14-2,17c-40,15-76,37-113,58c-1,6-3,12-1,18c2,10,5,21,12,29c9,0,16-6,24-10c2-1,4-1,6-2c3-2,7-4,10-6
				c2-1,4-1,6-2c19-10,39-16,59-23c2,0,3,0,5,0c4,1,7,3,8,7c6,16,12,32,17,48c0,2,1,4,0,5c-2,2-3,5-6,7c-28,17-56,29-85,44
				c-4,3-11,7-10,13c3,9,7,17,9,26c1,4,2,8,5,11c34-20,68-39,105-55c2-1,4,0,5,1c11,15,18,30,27,46c2,4,2,10-1,12
				C1048,209.5,998,230.5,952,262.5L952,262.5z"/>
			<path class="st3" d="M1231,134.5c-30,9-58,20-88,30c-7,2-13,3-20,3c-1-12-7-23-9-35c-2-6-5-11-7-17c-15-50-30-97-44-148
				c-6-23-13-44-17-68c-2-15-7-29-7-44c1-7,8-11,13-13c50-18,100-28,153-37c70-11,136-17,206-8c7,0,9,9,11,15c4,16,3,32,6,49
				c0,4,0,12-5,12c-51,3-101,10-151,20c-5,5-9,11-10,18c-2,8-1,15,0,23c1,1,2,3,4,3c14,1,28-5,42-6c11,0,21-2,31-3c19-2,38-2,57-3
				c5,0,12,4,12,10c0,16-1,31-1,47c-4,5-10,6-16,8c-2,0-3,0-5,0c-35,8-68,10-104,18c-4,1-8,4-12,5c-3,9,0,17,0,26c0,1-1,3-1,4
				c2,4,0,7,1,11c47-10,93-20,141-26c14,10,13,29,20,44c1,2,2,4,3,6c2,8-4,13-11,14c-11,1-20,2-31,4c-26,6-50,9-76,15
				C1286,118.5,1259,125.5,1231,134.5L1231,134.5z"/>
			<path class="st3" d="M1560,88.5c-7,0-12-5-16-10c-7-12-8-26-7-40c2-32,6-62,12-94c3-13,6-26,7-39c-34-3-68-3-102-4
				c-7-1-12-7-14-14c-4-19-2-36,1-54c0-2,0-4,0-6c2-5,2-11,3-16s6-5,10-7c9-3,19-1,28-1c38,4,75,7,114,15c58,11,111,23,166,41
				c34,11,67,22,100,36c18,7,35,16,53,23c2,1,5,3,8,4c9,4,17,9,25,15c-6,17-17,32-22,50c-2,6-9,2-13,0c-38-13-76-26-114-38
				c-4,11-7,22-11,33c-8,24-13,47-19,72c-4,15,0,30-6,44c-6,5-15,3-22,3C1680,93.5,1621,87.5,1560,88.5L1560,88.5z"/>
			<path class="st3" d="M346,1102.5c-14,2-28,1-42,1c-26-1-52-3-78-6c-9-1-18-3-27-4c-77-13-142-47-209-84c-1-1-1-2-1-3
				c2-8,3-17,8-24c-2-35-9-69-4-104c1,0,3-1,4-1c5,2,10,5,14,7c42,21,82,40,127,54c14,4,27,7,41,6c9,0,18-2,24-10c1-1,0-2,1-3
				c8-11,11-23,11-36c-1-13-5-24-7-37c-8-38-16-73-26-110c-4-14-8-27-12-41c-11-33-20-65-32-98c-2-4-2-9-1-13c2-8,13-9,20-8
				c17,3,31,7,48,11c2,0,3,0,5,0c52,12,102,14,153,13c14-1,29-1,43-3c17-2,34-6,51-5c5,0,10-1,15,3c7,6,14,12,17,21
				c24,33,40,70,57,108c6,15,12,29,17,44c4,12,6,24,10,36c0,2,0,4,0,6c12,43,23,85,16,130c-2,11-5,21-9,31c-7,16-16,31-28,44
				C498,1084.5,421,1102.5,346,1102.5L346,1102.5z"/>
			<path class="st3" d="M1153,769.5c-38,27-72,56-110,85c-2,1-4,1-6,2c-16,13-33,22-49,35c-1,1,0,2-1,3c-5,4-12,4-17,8
				c-16-25-30-50-49-72c-23,15-46,31-72,40c2,8,3,17,4,26c2,16,2,31,3,47c0,9,0,17-1,26c-17,10-35,16-52,28c-3,3-5-2-8,0s-7,2-8,6
				c-36,16-74,29-112,41c-12,5-24,10-37,11c-6-3-10-10-11-16c0-7-2-15-1-22s4-14,5-21c1-24,5-46,7-70c2-19,3-38,4-57
				c1-34,1-68-2-102c-2-16-4-32-6-48c-1-10-3-18-5-28c-9-42-20-80-34-119c-1-4-2-10,4-12c1,0,1,1,2,1c3-1,5-4,7-8c6-6,14-8,22-11
				c2-1,4-3,6-4c3,0,5-1,8-1c2-1,4-2,6-3v-2c4-4,9-7,14-10c25-18,48-32,72-51c9-6,17-11,25-17c2-2,4-4,6-6c5-3,9-8,14-10
				c3-1,7-3,9-5c8-11,19-18,27-28c6-6,12-11,19-17c5-3,11-2,16-5c3-3,6-4,9-9c1-3,7-1,9,1c9,10,16,21,25,32c43,60,82,112,131,165
				c3,4,6,8,9,12c2,3,5,4,7,7c6,8,12,15,19,23c3,4,6,8,9,12c2,3,5,4,7,7c18,24,35,43,54,66c2,3,3,5,5,8c8,9,18,16,24,27c1,2,4,4,1,8
				c4,5,4,11,3,17C1162,764.5,1157,766.5,1153,769.5L1153,769.5z M834,787.5c2-2,5-3,7-5c3-4,7-8,11-12c2,0,4,1,6,1
				c10-6,19-13,28-19c-6-10-11-21-18-31c-5-6-8-12-13-17c-5-7-7-15-12-22c-13-17-21-34-34-50c-5-5-8-10-13-15c-2-2-2-5-4-7s-3-4-5-7
				c-2-1-4-3-5-5c3,3,3,7,3,11c1,4,4,8,6,12c15,47,28,91,38,140c1,4,2,9,3,13c0,2,0,3,0,5C833,782.5,833,784.5,834,787.5L834,787.5z
				"/>
			<path class="st3" d="M1263,701.5c-12,7-25,13-37,21c-6,4-13,4-19,7c-4,1-8,2-12,3c-2,0-4-2-6-3c-2-2-3-5-5-7c-3-3-3-7-5-10
				c-30-43-51-85-77-127c-14-32-31-62-44-94c-2-4-5-9-7-13c-5-13-11-24-15-37c-6-4-7-12-10-18c-6-16-8-32-13-48c-7-20-14-39-21-59
				c-6-3-5-10-4-15c2-7,7-14,12-19c14-12,29-22,46-29c3-2,6-4,9-6c15-8,30-14,45-22c4-2,7-2,11-4c14-7,28-13,42-18c2-1,3-2,5-3
				c7-3,14-6,22-7c2-1,5-1,7,0c13,7,22,18,34,25c5,3,9,5,13,8c1,1,0,2,1,3c2,2,3,3,4,5c1,7,6,12,11,16c10,8,21,12,30,20
				c9,9,16,19,25,28c4,5,8,10,12,15c1,1,3,1,4,2c11,9,24,18,38,19c3,0,4-4,5-7c1-9,1-18,4-27c3-8,6-15,8-23c13-35,29-68,48-101
				c1-2,1-4,1-6c7-15,18-28,30-40c2-2,5-3,8-4c11-2,21-2,32-2c88-7,173-2,262,14c4,1,7,2,11,3c29,5,55,10,82,19c4,2,5,7,5,11
				c14,72,27,136,40,207c2,17,6,32,8,48c3,25,4,50,7,75c0,6,0,11,0,17c4,31,13,60,17,92c4,29,12,57,16,86c2,13,5,25,5,38
				c0,2-2,6-3,5c-5-1-10-5-15-7c-12-4-23-9-34-15c-18-8-34-19-52-28c-3-1-5-1-8-2c-51-25-101-45-156-61c-9-2-18-4-28-5c-2,0-4-2-5-3
				s-1-3-2-4c-22-29-33-62-48-94c-8-15-14-30-21-46c-3-6-6-12-9-18c-5-11-9-21-13-32c-2-5-10-8-13-4c-5,8-5,17-5,26
				c-2,31-4,60-10,91c-4,14-11,29-25,33c-12,4-25,6-37,4c-2,0-5,1-7,2c-9,1-18,2-27,5c-28-21-59-35-90-52c-14-8-26-17-39-27
				c-14-9-27-16-41-24c-1,0-3,3-3,4c9,25,24,46,36,70c13,22,24,44,38,66c6,11,10,23,15,34c-4,3-9,3-14,5c-4,2-8,5-13,7
				c-15,9-28,19-43,29C1271,696.5,1268,699.5,1263,701.5L1263,701.5z"/>
		</g>
		<g class="st2">
			<path class="st3" d="M-7,1255.5c-10-3-27-9-22-23c9-21,17-44,18-67c7-25,12-51,15-77c0-3-1-6,1-8c1,0,3,0,4,0c24,10,49,13,74,21
				c8,2,15,2,23,5c6,2,12,2,18,3c2,1,3,2,5,2c17,3,32,6,49,9c2,0,4,0,6,0c43,8,84,10,126,15c2,0,5-1,7-1c5,1,8,5,9,10
				c0,12-1,24-5,35c-1,1-4,2-6,2c-24-1-48-4-72-5c-8-1-15-3-23-3c-6,12-8,24-13,36c0,1,1,3,2,3c25,5,47,7,72,11c4,0,8,1,9,5
				c1,15-5,28-8,43c-1,1-2,3-4,3c-20,0-39-4-60-8c-3,0-6,0-9,0c-11-2-21-6-32-3c-6,18-13,37-27,51c-15-4-29-9-44-14
				c-24-7-45-19-68-27C23,1267.5,8,1261.5-7,1255.5L-7,1255.5z"/>
			<path class="st3" d="M454,1366.5c-45-4-91-2-134-18c2-8,3-16,5-24c1-5,1-11,1-16c2-16,6-32,7-48c0-2,2-4,2-6c2-26,8-50,11-76
				c0-6,1-13,2-19c1-4,2-7,3-11c0-3,1-6,2-8c3-6,12-5,19-6c70-2,137-11,208-23c13-2,25-4,37-5c5,4,7,10,10,16c0,1,0,2,0,3
				c2,2,2,4,2,7c1,9,9,18,4,26c-35,7-69,17-106,23c-3,1-3,5-5,7c-6,5-4,13-5,20c0,2,2,4,4,4c20,0,39-5,59-7c5,0,11-1,16-1
				c4,0,7-2,11-2c7,1,16-5,22,2c3,12,3,24,5,37c0,3,1,6-1,9c-5,5-12,5-19,7c-28,9-57,8-86,11c-4,1-11,0-13,5c-1,4-1,9-2,14
				c-1,6,0,12-2,18c44-1,86-7,130-14c2,0,4,2,5,4c8,15,13,31,18,47c1,5,1,12-4,13c-19,7-39,8-59,9C552,1369.5,503,1370.5,454,1366.5
				L454,1366.5z"/>
			<path class="st3" d="M810,1346.5c-41,9-85,10-125-5c-8-24-15-47-22-72c0-4,5-6,7-9c31,13,66,10,96-4c8-3,18-9,15-20
				c-1-8-11-9-18-10c-8,0-15,2-23,3c-8,0-17-1-25-3c-16-2-30-9-43-20c-1-2-3-3-5-5c-22-24-18-61,2-85c37-44,90-64,144-80
				c3-1,5-1,8-1c9-2,16-5,25-7c3-1,6-2,9-4c2-1,4,3,7,2c7,15,16,29,19,45c0,6,1,12-2,17c-12,1-22,8-35,10c-2,1-3,2-5,3c-1,0-2,0-3,0
				c-14,8-37,8-42,25c-1,1,1,3,2,5c8,8,21,8,32,6c1,0,2,1,3,1c28-3,59,1,79,23c28,29,32,75,11,110C898,1312.5,855,1336.5,810,1346.5
				L810,1346.5z"/>
			<path class="st3" d="M1058,1246.5c-1,0-3,0-4,0c-5-1-9-4-12-8c-6-9-11-17-16-27c-18-41-36-81-53-123c-3-6-5-12-9-18c-1-2-1-5-2-7
				c0-1-2-3-2-3c-18,9-35,19-53,26c-7,3-13-5-16-11c-8-17-16-33-19-52c0-4,4-7,7-9c14-9,28-15,42-22c36-19,67-39,101-61c2-1,2-3,4-4
				c13-9,25-15,36-25c2-2,4-2,6-3l1-2c4-1,7-6,10-2c8,9,11,19,18,29c2,4,3,8,6,12c5,4,6,10,10,15c2,3,4,6,3,9c-2,7-10,10-17,14
				c-9,6-16,12-25,18c-2,1-3,1-5,2c9,13,15,28,24,42c5,10,10,19,15,28c1,1,0,3,1,4c2,3,5,6,6,9c1,4,4,8,6,12c1,1,0,3,1,4
				c1,2,3,4,4,6c10,23,23,44,34,67c3,6,6,14,3,20c-2,2-4,5-6,7C1124,1214.5,1091,1229.5,1058,1246.5L1058,1246.5z"/>
			<path class="st3" d="M1274,1139.5c-4,2-6,7-10,7c-11,0-14-12-21-19c-9-19-21-36-33-55c-33-49-66-90-94-141c-3-6-8-10-11-16
				c-5-11-12-20-17-30c-2-6,4-10,8-14c15-10,28-18,41-30c3-3,6-4,10-6c1-1,3-4,4-4c9-5,16-12,25-17c3-1,5,1,7,3c18,29,39,52,53,81
				c26,35,49,69,74,106c2,3,2,6,4,9c3,4,5,8,8,12c2,4,3,7,5,11c9,15,18,28,23,44c1,4,1,10-3,12l-1-1c-2-1-1,3-4,2c-1,8-11,4-17,8
				c-1,1-2,2,0,4c-10,6-20,10-30,16C1287,1126.5,1281,1133.5,1274,1139.5L1274,1139.5z"/>
			<path class="st3" d="M1454,1047.5c-6,3-13-1-19,4c-3,2-6-2-8-4c-3-5-7-9-11-14c-1-1-1-3-2-4c-14-16-27-31-41-47c-3-3-6-5-9-8
				c-29-31-59-59-91-88c-15-12-29-22-45-34c-9-7-15-16-23-24c-2-2-3-5-3-7c3-16,16-26,26-38c0-1,0-2,0-3c8-10,16-18,25-27
				c8-7,17,1,24,6c7,6,13,12,21,17c2,1,3,3,4,5c14,11,26,23,39,35c3,2,6,4,9,6c4,3,5,7,9,10c17,11,28,25,42,38c3,2,6,3,8,6
				c-2-5-2-10-4-15c-9-18-16-36-27-54c-1-1,0-3-1-4c-3-5-8-10-7-17c-10-25-25-47-33-73c0-2-1-6,2-7c8-2,14-5,22-7c6-1,12-2,18-4
				c2,0,5,1,7,0c12-3,27-3,34,9c1,1,0,3,1,4c3,5,7,10,9,15c5,13,9,26,15,39c26,55,48,110,73,166c12,28,21,55,31,84c0,1,0,3,0,4
				c-4-1-7,1-6,5c-6,3-13-2-19,0c-14,5-27,10-41,16C1473,1040.5,1464,1044.5,1454,1047.5L1454,1047.5z"/>
			<path class="st3" d="M1792,1054.5c-2-1-4-4-6-5c-7-3-13-7-19-10c-8-3-15-6-23-10s-17-7-26-11c-3,2-6,0-7-2c-14-28-25-55-38-82
				c-10-1-19-3-29-6c-1,0-3-2-6-2c11,25,19,52,25,79c-5,1-11-3-16,0c-3,1-5-3-8-2c0,0,0,1,0,2c-12-2-25-1-37,0c-3,0-6,0-9,1
				c-2,0-4-2-5-4c-18-29-25-60-39-90c-3-5-5-9-7-14c-1-2,0-3-1-5c-31-71-64-140-94-212c-1-2,0-4,1-5s1,1,2,1s2-1,3-3c1-1,3-2,4-2
				c6,0,13,0,19-2c2,0,5-1,7-2c7-1,13-2,19-3c9-1,18-1,27-2c5,0,9,0,14,1c6,1,12-2,19-1c1,0,3,2,4,2c12-1,24-3,36,0c5,1,10,3,15,4
				c1,0,2-1,3-1c2,1,4,3,6,5c6,7,9,15,15,22c31,48,57,92,81,142c2,4,3,9,5,13c30,61,53,121,69,188c2,6,4,12,1,18
				C1796,1057.5,1793,1055.5,1792,1054.5L1792,1054.5z M1612,861.5c3-1,5-4,8-3c6,4,13,3,19,5c-3-5-6-10-8-15c-14-24-27-46-42-70
				c-10-16-20-30-31-45c1,2,1,5,2,7c2,3,4,6,5,9C1580,787.5,1597,824.5,1612,861.5L1612,861.5z"/>
			<path class="st3" d="M1929,1182.5c-18-28-43-49-66-73c-4-3-8-6-12-9c-11-11-24-18-35-29c-4-5-6-11-8-17c-13-72-28-137-49-205
				c-5-15-9-29-15-43c-9-26-15-52-24-77c-3-8-6-15-9-23c-2-6-5-13-1-18c1-1,4,0,6,0c17,5,33,11,49,17c1,0,1,2,2,2c29,10,55,22,82,40
				c18,12,19,35,19,55c14,56,19,114,24,172c1,5,0,12,4,16c19,20,39,37,58,58c4,5,6,11,6,17c1,42-6,83-12,125c0,2-2,4-4,4
				C1937,1193.5,1934,1186.5,1929,1182.5L1929,1182.5z"/>
		</g>
	</g>
</g>
</svg>
