<?xml version="1.0" encoding="utf-8"?>
<!-- Generator: Adobe Illustrator 27.2.0, SVG Export Plug-In . SVG Version: 6.00 Build 0)  -->
<svg version="1.1" id="Calque_1" xmlns="http://www.w3.org/2000/svg" xmlns:xlink="http://www.w3.org/1999/xlink" x="0px" y="0px"
	 viewBox="0 0 375 7972" style="enable-background:new 0 0 375 7972;" xml:space="preserve">
<style type="text/css">
	.st0{fill:#FFFCF5;}
	.st1{opacity:0.2;}
	.st2{fill:#FF84C0;}
	.st3{fill:#7B9CD9;}
	.st4{fill:#808778;}
</style>
<rect x="0" class="st0" width="375" height="7972"/>
<g class="st1">
	<g>
		<path class="st2" d="M42,7862c3,6,0,11,0,17c-1,7-1,14-5,20c-13,22-36,40-61,40c-11-4-17-15-20-26c-5-29-3-57,12-82
			c21-33,58-53,96-50c0,2,1,1,2,1c-1,11-2,24-10,32c-16-1-32,4-42,17c-9,13-15,29-10,44c2,3,5,6,9,5C24,7876,34,7870,42,7862
			L42,7862z"/>
		<path class="st2" d="M78,7913c-8-2-19,0-24-8c-2-4-2-9-3-14l-1,1c0-1,1-3,1-4h-1c-1-22,5-43,16-62c12-18,29-38,52-36c3,0,6,2,9,2
			c14-1,29,6,31,21s-4,28-12,41c-15,22-28,44-51,56l-1-1c-4,3-8,6-13,3C80,7913,79,7913,78,7913L78,7913z M87,7886c1-1,2-1,3-1
			c15-20,25-40,32-64c2-5-2-7-6-7c-4-1-6,5-9,8c-12,18-16,36-22,56c0,2,0,3,1,5c0,1-1,1-1,2C85,7885,86,7886,87,7886L87,7886z"/>
		<path class="st2" d="M180,7945c-1-2-3-2-5-3c-5-3-9-6-11-12c-1-7,3-12,6-17c6-9,11-17,18-25c8-9,14-18,24-26c3-2,5-7,2-10
			c-4-3-8-1-12,2h1c-18,22-38,43-49,70c-1,1-2,1-3,1c-8-4-16-6-24-11c-3-2-3-6-1-9c4-7,7-14,10-21c2-4,4-7,6-11c13-23,26-42,41-65
			c1-1,3,0,5,0c11,4,21,9,31,16c3,3,0,8-2,12c13-5,27,0,34,12c8,15-3,29-13,39c-19,19-38,37-48,62c0,0-1,1-2,1
			C185,7949,183,7947,180,7945L180,7945z"/>
		<path class="st2" d="M234,7983c-19-5-31-28-22-46c1-2,2-5,3-7c2-2,4-4,5-7c7-11,19-16,25-27c1-1-3-3-3-5c1-1,2-3,3-5
			c7-8,14-17,21-25c1,2,5,1,4,4l-1-1c1,0,2,1,2,1c7-8,11-17,15-27c9,2,14,11,24,13c1,1,3,2,3,4c-3,11-10,20-15,29c3,3,6,2,8,5
			c-5,11-13,20-20,30c-2,2-4,3-7,2c-1-2-3-4-6-5c-8,10-17,18-23,29c-2,4-1,10,6,11c0,1,0,3,0,4c-5,8-7,16-12,24
			C241,7987,237,7984,234,7983L234,7983z"/>
		<path class="st2" d="M273,8001c-6-1-12-5-16-9c-10-13-2-31,9-41c7-5,15-9,23-10c11-1,22,2,32,6c1,0,2,0,3,0c4-5,2-11-4-13
			c-9-3-18-5-26-8c0-1,0-3,1-4c6-8,10-17,17-25c1,0,2-2,3-2c6,2,11,0,17,1c11,2,20,5,30,9c6,3,8,11,7,17c-1,20-11,37-19,55
			c-2,6-3,12-6,18c-1,1-2,1-2,2c-2,5-1,13-7,13c-13,2-25-1-37-4c-4-2-3-7-1-10l-1-1C290,8001,281,8003,273,8001L273,8001z M295,7979
			c4,2,8-1,11-3c4-4,7-9,5-15c-1-1-3-2-5-1c-7,3-10,9-12,16C294,7977,294,7978,295,7979L295,7979z"/>
		<path class="st2" d="M436,7968c1,1,2,1,2,2c0,7,0,15,0,22c-18,19-50,28-72,11c-11-16-3-36,4-52c1-1,2-2,3-3c9-18,23-32,38-45
			c11-10,26-13,40-13c0,1,1,2,1,2c-2,11-1,23-8,33c-6,1-13,0-18,4c-13,11-19,29-18,46c0,4,4,5,8,4C424,7978,430,7972,436,7968
			L436,7968z"/>
		<path class="st2" d="M499,7974c-13,8-33,20-45,5c-4-19,4-37,6-56c-2,1-5,3-7,2c-1-2,0-5,0-8c3-11,2-22,8-32c0-1,3-3,5-3
			c0,1-1,1-2,1c1,0,2-1,2-1c2-12,3-23,4-35c7-9,20-11,26-21c2-2,4,2,4,4c1,10-1,20-1,30c3-3,7-5,10-7c0,12,1,24,0,36
			c-1,6-7,10-13,12c-1,12-3,24-1,37c0,1-1,5,1,5c4-1,7-2,10-6c4,9,2,19,1,28C507,7969,502,7971,499,7974L499,7974z"/>
	</g>
</g>
<g class="st1">
	<g>
		<path class="st3" d="M54,684c-25-1-50-7-72-20c-7-11-13-22-20-33c0-1,2-2,3-2c19,12,38,20,60,19c2,0,6-1,5-3c-1-6-9-8-15-10
			c-28-6-52-21-67-45c-7-11-13-26-3-36c22-9,45-1,67,2c13,2,25,5,38,6c1,0,3,2,4,2c7,9,15,15,21,25c1,2,4,4,1,8c-7,0-14,0-22-1
			c-1,0-2,1-3,1c-8-1-16-1-24-1c-1,0-2,1-3,1c8,15,28,13,42,18c20,6,41,10,54,28c1,2,2,5,3,7c4,14-9,23-20,28c-6,2-11,4-17,5
			C75,684,65,687,54,684L54,684z"/>
		<path class="st3" d="M231,637c-16,13-37,22-58,20c-29-2-42-29-59-48c-6,2-13,3-18-2c-8-9-15-19-22-28c3-2,7-2,11-2c-1,0-2,0-3,0
			c1,0,2-1,3-1c-7-9-14-18-21-28c13-3,26-6,38-11c2-1,3-3,5-3c13,3,18,17,28,25c6-1,10-7,16-7c9,10,22,15,30,26c-3,6-11,6-16,10
			c2,1,4,2,6,4c9,9,18,19,30,22c5,2,11-2,15-6c3-3,7,0,9,2c5,6,12,11,17,17C239,631,235,634,231,637L231,637z"/>
		<path class="st3" d="M281,596c-9,7-16,16-27,20c-31-22-62-41-91-67c-1-1,1-3,2-4c13-10,23-21,34-32c8,0,15,6,22,9c-7-13-9-29-4-43
			c1-3,5-4,7-3c14,9,29,13,42,23c0,1,0,2,0,3c-7,12-21,23-11,38c15,9,30,17,43,29c1,1,2,3,1,5C293,582,287,589,281,596L281,596z"/>
		<path class="st3" d="M251,406c6-10,15-18,25-24c5-2,11-2,17-3c17,0,34,6,48,16c1,1,2,3,2,4c-4,5-9,8-13,13c-2,2-5,3-7,6
			c-6,10-15,17-19,28c9,5,20,7,30,0c3-2,4-5,7-7s3-6,5-10c3-5,5-11,9-15c1-1,4,0,5,0c3,2,6,3,9,5c7,6,15,7,19,16c-4,16-13,31-23,44
			c-6,6-11,11-17,16c-8,6-18,5-28,7c-9,1-18-2-27-3c-1,0-2-2-3-2c-16-4-31-10-41-22c-3-3-6-5-7-8c0-1,0-1,0-2
			C227,446,237,422,251,406L251,406z M271,418c-4,8,6,12,11,15c4-3,6-9,10-13C285,419,277,411,271,418L271,418z"/>
		<path class="st3" d="M366,314c5,1,8-3,13-4c9-1,17-4,26-3c15,2,28,7,40,16c10,8,19,15,24,27c-9-1-17,2-26,4c-14,2-28,5-41,12
			c11,11,29,16,44,11c10-3,18-8,28-11c11,7,19,17,26,28c0,1,0,2,0,3c-13,12-30,15-47,20c-2,0-5,0-7,0c-25,6-48-2-70-12
			c-21-9-45-21-51-47l1-1C322,333,348,322,366,314L366,314z M382,331c-7,5,0,12,4,16c6-1,11-3,17-5c-4-4-8-8-13-11
			C388,330,385,331,382,331L382,331z"/>
		<path class="st3" d="M590,423c-36-9-69-26-91-59c-1-2-1-3-2-5c-7-10-13-19-19-29c-4,0-9,1-13-1c-11-6-16-18-22-29c5,0,9-1,14-1
			c-2,0-3,0-5,0c2,0,3,0,5,0c-4-8-8-15-12-23c23-4,46-3,69,2c11,2,9,16,14,24c8,2,16,3,24,6c3,1,3,2,3,4c1,6,5,11,7,17c1,3,1,6,3,9
			c0,1-1,2-1,2c-3,1-5,0-8-2c-5-1-9-3-14-3c10,16,13,36,29,47c5,3,11,1,15,5c8,12,11,25,16,38l-1-1C598,428,594,423,590,423L590,423
			z"/>
	</g>
</g>
<g class="st1">
	<g>
		<path class="st3" d="M114,6094c-9-2-18-1-26-5c-6-2-13-2-16-7c-3-3,2-6,3-9c2-6,4-12,5-18c2-5,1-10,1-15c-3-30-12-57-20-86
			c-1-6-2-12-3-18c-5-29-5-57,2-87c0-2,0-3,0-5c2-5,5-14,12-11c14,6,29,9,44,8c0,2,2,3,2,5c0,15,7,30,9,45c10,15,18,32,33,43
			c4,3,10,8,15,5c-2-10-7-19-8-30c-1-19,1-37,8-54c2-4,3-7,5-11c4-9,10-16,17-23c40-10,82-9,122,3c0,1,0,3,0,4c-14,16-13,37-9,56
			c13,65,36,128,14,191c-6,1-11,1-16-3c-1,0-3,0-4,0c-6-4-12-5-18-6c-4-1-9-4-13-1c0-15,2-30,1-45s-5-29-11-43c-4-8-6-18-14-23l-1,1
			c10,29,16,62,0,90c-6,9-17,8-26,13c-5-15-18-24-30-34c-1-1-1-2-2-3c-5-4-11-5-17-9c-1,0-1,2-1,3c13,24,13,56-5,76
			C149,6092,132,6096,114,6094L114,6094z"/>
	</g>
</g>
<g class="st1">
	<g>
		<path class="st4" d="M-40,3456c-8,0-14-7-18-13c-13-23-19-46-30-69c-12-3-24-6-35-11c-4-2-7-3-11-5c-16-10-20-30-23-47
			c0-2,3-1,4-1c31,17,62,27,97,32c15,2,30,1,45,0c14-2,27-5,40-8c11,10,20,22,30,33c-13,9-29,10-44,13c13,16,24,32,34,50
			c2,2,4,4,5,7c1,1,2,2,3,3c2,4,7,9,1,11C26,3460-7,3460-40,3456L-40,3456z"/>
		<path class="st4" d="M180,3399c-3,2-6,4-9,7c-13,9-26,16-42,15c-13-1-26-8-31-21c1-18,14-32,28-43c11-10,21-19,30-30
			c-5-2-10-2-15,1c-15,11-27,23-43,33c-5,3-10,10-16,6c-9-6-15-15-23-21c1,0,2-1,2-1c0-1,0-2,0-3c9-5,15-11,22-18c2-2,4-2,6-4
			c16-15,30-30,45-46c12-11,27-19,43-14c18,6,36,13,53,23c8,5,15,11,21,18c1,2,0,4-1,6c-13,21-22,42-41,58c-4,3-7,0-9-3
			C197,3376,191,3389,180,3399L180,3399z M176,3363c6-3,9-12,5-18c-4-5-11-5-16-2c-5,4-8,10-7,16C163,3362,169,3369,176,3363
			L176,3363z"/>
		<path class="st4" d="M352,3281c-6,3-12,7-19,10c-2,1-4,3-6,4s-4,1-6,2c-1,0-1,2-2,2c-4,0-8,2-12,2c-1,0-1,2-2,2c-9,0-19,2-26-5
			c-8-8-10-19-9-30c-8,7-22,10-28,0c-7-11-5-26,1-37c-8,4-14,10-22,13c0,0-1,1-1,2l-1-1c-10,5-21,4-31,1c-7-3-11-10-12-17
			c-2-17,5-32,14-46c7-10,15-16,24-24c5-4,11-6,15-11c1-1,2-1,3-1c9-8,20-11,31-15l1-2c-4-7,0-15,2-22c19-8,39-7,59-8c1,0,1,1,2,2
			c-8,8-18,13-24,23c7,0,13,2,19,4c13,6,24,23,15,37c-6,8-15,13-23,19c-11,8-23,10-33,19c-1,2-3,4-2,6c4,3,9,1,13-1
			c16-9,34-14,52-16c16-2,33-2,46,9c1,1,2,0,3,1c10,9,19,20,17,34c-2,8-6,14-13,19c-11,8-22,11-33,18C360,3277,356,3279,352,3281
			L352,3281z M263,3188c4-3,7-8,7-13l-2-1c0-11-15-6-21-10c-8,2-15,5-18,13c-2,9,9,14,17,14c0,2,1,2,2,2C253,3191,258,3191,263,3188
			L263,3188z M343,3245c4-3,12-9,9-14c-2-6-11-2-16,0c-1,1-2,2-5,2c-10,3-19,8-28,15c-3,2,0,5,1,7c3,4,8,5,12,4
			C326,3258,336,3252,343,3245L343,3245z"/>
		<path class="st4" d="M442,3211c-12-4-25-6-37-8c-3-5-8-9-12-14c-3-4-9-6-10-12c18,1,37,4,55,4c1,0,3-1,3-3c-5-9-17-9-26-13
			c-4-1-9-4-14-4c1-2-2,0-2-2c-2,0-5,0-7-1s-4-2-5-3c-2-3-5,0-8-2c-4-3-9-4-13-6c-4-4-10-6-13-11c-1-3-3-6-3-10s3-6,5-8
			c17-14,40-14,61-13c30,2,61,6,87,21c5,7,7,15,11,23c-15-2-29-8-44-11c-3,0-5,0-8,0c-1,0-3,2-2,4c7,6,16,9,25,13c10,5,19,11,28,18
			c12,11,27,24,26,42c-1,5-7,7-11,8c-11,2-22,1-33-1C477,3218,460,3212,442,3211L442,3211z"/>
	</g>
</g>
<g class="st1">
	<g>
		<path class="st2" d="M7,5340c-34,5-69,0-102-11c-11-12-23-23-32-37c0-1,3-2,4-2c15,6,30,12,46,13c15,2,31,5,45-2c1-1,2-2,2-3
			c-4-6-12-6-19-7c-38-4-75-15-102-44c-8-9-14-19-12-32c2-6,7-9,12-11c45-12,90-3,136-7c2,0,4-2,6-2c11,3,19,12,28,19c2,2,3,4,6,6
			s3,5,4,8c0,1-1,2-1,2c-20,5-39,8-60,10c-3,1-8,1-10,5c8,8,20,9,30,10c34,2,74-5,102,20c7,7,9,18,3,27s-14,15-23,20
			C50,5332,29,5339,7,5340L7,5340z"/>
		<path class="st2" d="M268,5122c2-1,5-3,6,2c4,13,1,27-1,40c-1,10,1,22-9,27c-6,2-13,4-19,6c-14,5-28,10-43,11c-2,0-3,2-5,2
			c-5,0-11-1-13,2s-1,7-2,10c10,6,20,12,29,20c1,1,1,2,1,3c-11,11-23,21-37,29c-2,1-2,3-4,4c-10,6-19,13-31,15c-18-17-39-29-59-45
			c-1-1-2-3-3-4c-3-1-6-3-8-5c-24-22-50-41-71-65c-4,0-5-5-8-7c-1-2,1-4,2-5c10-4,19-8,28-12c5-3,10-6,15-9c3-1,5-3,7-5
			c5-5,11-2,15,3c10,3,18,9,27,16c17,12,32,23,48,35c0-3-1-6,0-8c1-22-2-43-4-65c7-6,16-8,25-8c5,0,8-5,14-6c3,0,6-3,10-3
			c1,0,2,1,2,1c1,3,3,5,4,8c4,11,3,23,8,34c1,3-1,6,1,9C219,5144,243,5133,268,5122L268,5122z M131.6,5178.4L131.6,5178.4z"/>
		<path class="st2" d="M316,5081c-6,17-13,36-31,41c-18,6-40,1-48-17c-2-5-5-10-6-15c0-4-1-8-2-12c-1-9,2-17,2-26c1-14,8-27,12-40
			c-13-2-19,12-22,22s-5,20-8,30c-2,8-2,15-4,23c-1,3-5,2-7,2c-12-3-23-6-33-13c0-1-1-3-1-4c2-12,3-23,7-34c11-37,22-80,60-99
			c2-1,5-2,7-3c8-2,16-2,24,0c24,8,46,19,69,28c6,7,14,9,22,14c1,1,2,3,2,4c-2,7-7,11-11,17c-7,13-14,25-20,38c-3,6-11,6-16,1l-1,1
			C319,5052,320,5067,316,5081L316,5081z M286,5044c0-4,2-8,0-12c-3-7-10-12-18-9c-4,1-9,2-10,7s-1,11,3,13
			C269,5047,279,5051,286,5044L286,5044z"/>
		<path class="st2" d="M451,4920c-5,3-11,4-16,9c-1,1-3,0-4,1c-32,19-72,24-105,2c-11-7-21-13-32-18c-3,5-8,11-15,10
			c-12-1-22-9-32-17v-2c5-4,7-9,12-12c-1,2-3,3-5,4c1-1,4-3,3-4c-5-8-16-11-21-20c9-14,24-22,36-34c8-7,17-11,25-19c4-3,8-5,13-4
			c9,4,13,12,19,19c10-4,18-11,29-14c9,8,18,17,28,25c-6,10-19,9-27,15c1,1,2,2,3,3c7,4,13,9,19,14c1,1,2,0,3,1c0,1,1,2,1,2
			c8,4,15,11,25,9c6-1,11-4,16-7c3-1,6,1,9,2c10,9,21,16,29,26C460,4915,456,4918,451,4920L451,4920z"/>
		<path class="st2" d="M484,4780c20-2,40-2,60,3c16,3,29,9,43,18c16,11,29,23,38,40c0,1-1,3-1,3c-38-6-75-9-113-5c14,18,39,21,60,22
			c18,1,36,0,54,0c12,9,20,22,29,35c0,1-1,3-1,3c-16,2-31,3-47,2c-22-2-44-1-66-4c-5-1-11,1-16,0c-38-7-74-15-106-39
			c-10-8-18-18-18-30c0-2,1-4,0-7c2-1,0-3,3-3c0-2,0-4,1-6c1-1,2-3,3-5c2-1,3-3,5-5C433,4786,459,4783,484,4780L484,4780z M499,4801
			c-3-1-7,2-7,4c-1,5,1,10,5,13c9-1,19-2,28-2C518,4809,510,4800,499,4801L499,4801z"/>
	</g>
</g>
<g class="st1">
	<g>
		<path class="st4" d="M-212,7609c-4-2-10-4-11-9c-1-10-2-19-5-28c0-24-3-49-6-73c-9-6-20-12-24-23c-6-15-2-32-5-48c0-3-2-8,1-9
			c9-3,14,8,21,13c0-13-2-27,6-39c4-6,11-8,18-9c11-1,21,0,31,4c12,6,24,11,34,19c3,3,3,7,4,11c2,14,7,25,10,38c0,2,1,5,0,7
			c0,1-2,1-3,1c-8-1-20-7-23,3c-1,4,1,8,3,12c13,5,29,5,39,17c1,1,1,3,1,5c1,3,3,4,4,7c4,12,9,24,14,36c1,3,1,7-3,7c-11-1-22-3-33-8
			c4,11,7,22,10,34c0,1,0,3,0,4c3,9,5,18,6,28s2,20,0,30c-6-1-13-1-19-3c-3-1-5-2-8-3C-172,7628-192,7619-212,7609L-212,7609z"/>
		<path class="st4" d="M71,7637c-22,7-44,11-67,10c-16-1-29-8-42-18c-1,0-3,1-4,1c-1-1-1-4-2-5c-12-8-20-19-29-31c-4-6-7-13-9-20
			c-1-5-4-10-5-15c0-4-1-7-2-11c-1-16,0-32,10-45c1-1,0-2,1-3c4-5,6-10,12-13c15-7,31-7,47-13c14-4,28-7,43-5c29,5,55,14,80,30
			c13,9,24,19,29,34c2,7,4,14,6,21c2,10,1,19-2,28c-5,12-11,27-25,32c-7,7-14,14-23,17C83,7632,77,7635,71,7637L71,7637z M60,7608
			c8-1,7-10,7-16c0-1-1-1-1-2c1-3,0-6-1-9c-2-5-2-10-5-15c-14-18-29-32-46-47c-2-1-5-3-7-3c-6,1-12-1-17,3c-1,8,3,15,6,22
			c7,15,17,27,27,41c4,5,9,9,14,14c1,1,0,2,1,3c5,6,12,7,18,10C57,7609,59,7608,60,7608L60,7608z"/>
		<path class="st4" d="M254,7524c-5,4-11,7-17,10c-4,1-7,3-11,5c-2,1-5,2-7,3c-14,6-28,2-41-6c-1,0-2,2-3,3c-1-1-1-3-2-4
			c-33-17-61-42-78-75c-14-25-13-59,8-80c16-15,33-27,52-35c51-21,102,17,125,61c11,19,16,40,16,61c1,13-2,27-11,36c-3,2-8,5-10,8
			c-3,6-8,8-14,10C259,7521,257,7523,254,7524L254,7524z M234,7485c2-1,5-3,4-4c-1-8-3-15-6-23c-1-2-3-4-4-6c-8-22-25-36-44-50
			c-3-2-4-5-7-7c-6-3-10-9-17-7c-4,2-9,3-13,5c-2,1-3,4-2,7c1,2,2,4,3,7c2,4,5,8,8,11c22,21,43,40,64,62c3,2,6,3,9,4l1,2
			C231,7487,233,7486,234,7485L234,7485z"/>
		<path class="st4" d="M392,7506c-26-10-45-30-63-52c-3-3-6-5-8-8c-9-14-19-25-26-39c-1-1-2-2-3-3c-12-22-30-44-22-70
			c7-19,26-27,45-27c21,1,42,4,61,13c7,3,14,8,20,12c-5-18-6-36-9-54c0-1,1-2,1-2c30,1,55,19,82,31c13,6,25,14,36,24
			c-1,11-1,22-1,33c-1,41,1,81,4,122c1,26-1,51-2,77c0,3-1,6-3,9c-1,0-2,1-2,1c-10-9-17-20-29-29c-9-6-16-12-25-18c-5-4-10-8-13-13
			c-3-8-4-16-5-24c1,7-1,15-7,20C413,7515,402,7508,392,7506L392,7506z M413,7448c1,0,2-1,2-1c4-19-2-37-7-55c-1-4-3-7-5-11
			c-6-10-13-26-27-22c-3,8-1,15,1,23c1,5,3,9,5,14c5,15,10,30,17,45C402,7445,407,7448,413,7448L413,7448z"/>
	</g>
</g>
<g class="st1">
	<g>
		<path class="st4" d="M30,6560c-20,7-41,16-63,12c0-19,1-38,3-57c1-3,3-7,6-7c10-3,21,1,30-3c16-8,35-10,46-27c3-5-1-10-6-10
			c-10,1-20,5-30,4c-11-1-23-5-28-16c-8-17,1-36,10-51c2-2,3-4,5-7c42-50,108-67,170-64c9,1,17,2,26,4c5,0,10-1,14,1c1,1,1,3,3,3
			c-6,15-8,36-25,43c-26-4-53-4-78,4c-2,1-3,2-4,4c-1,3,1,7,4,9c8,3,17,4,26,6c2,1,4,2,7,3c8,4,15,8,19,16c5,10,0,20-3,30
			c-2,3-3,6-5,9c-15,23-32,41-55,55c-2,1-2,3-4,4C76,6539,54,6551,30,6560L30,6560z"/>
		<path class="st4" d="M223,6545c-18-3-40-5-49-23c-16-30,8-58,23-83c6-9,11-18,17-27c-5,1-9,0-14-2c-2,0-1-4-1-6c6-14,15-27,22-41
			c6-3,13,2,20,1c-2,0-4,0-6-1c2,0,5,1,6,1c8-11,11-23,18-35c1-1,2-1,3-1c29,4,55,12,83,20c3,1,5,5,4,8c-3,12-13,20-19,30
			c9,3,18,6,26,11c0,0,0,1,0,2c-8,11-15,20-24,30c-2,3-4,7-7,9c-3,1-8,1-11-1c-6-3-11-6-18-8c-11,14-22,28-33,43h1c-5,3-6,9-6,14
			c0,8,11,6,16,10c1,1,0,4-1,5c-12,15-21,29-32,44c-1,1-4,1-6,1C231,6546,227,6547,223,6545L223,6545z"/>
		<path class="st4" d="M286,6572c-9-8-22-12-28-23c16-28,36-52,57-78c3-3,6-6,9-9c2-2,3-5,5-7c13-12,23-26,36-38c1-1,1-3,2-4
			s2-2,3-3c3-1,5,1,8,2c24,13,45,27,64,46c1,1,2,3,2,5c-1,3-2,5-3,8c-4,6-10,9-15,14c7-2,14-1,21-1c4,0,8,2,13,2c13,2,24,10,33,19
			c2,2,2,5,0,7c-12,14-25,26-41,34c-1,1-2,2-3,3c-5,2-10,5-16,4c-7-11-12-24-24-31c-9-4-18-5-27,0c-15,11-27,22-39,35
			c-8,10-19,18-25,29C306,6592,297,6576,286,6572L286,6572z"/>
		<path class="st4" d="M568,6574c3,5,8,7,12,12c1,1,0,2,1,3c4,4,7,8,9,12c3,6,4,14,3,21c-1,8-2,15-5,22c-8,18-17,39-35,49
			c-18-11-37-20-53-35c-3-2-6-3-9-6c-5-5-10-8-14-13c-5,4-10,8-13,14s-1,12,1,17c9,25,39,29,62,38c1,1,2,4,1,6c-5,11-13,20-17,31
			c-4,1-7,3-12,2c-12-2-23-6-35-11c-13-5-26-12-37-22c-14-13-26-27-32-45c-8-24-3-49,11-71c20-30,52-41,84-51c2,0,4,0,6,0
			c10-2,20-3,30-1c11,2,19,8,27,15C558,6566,563,6569,568,6574L568,6574z M538,6605c0-1-1-2-1-2c-12-1-20,8-29,14c3,7,10,9,15,15
			c7-6,13-13,18-21C542,6609,540,6607,538,6605L538,6605z"/>
		<path class="st4" d="M720,6635c4,0,9,1,13,1c7,1,13,5,20,5c3,0,3,2,5,3c6,7,9,16,10,25c1,21-3,45-17,61c-34,3-69,4-103-3
			c-4,6-7,12-8,20c10,17,30,18,47,16c11-2,21-3,32-5c4-1,13-6,13,1c0,11-4,22-7,33c-1,2-4,4-6,5c-19,7-38,10-58,10c-16,1-33,1-49-4
			c-17-6-34-10-47-23c-11-12-17-28-15-45c3-16,12-29,22-41c25-27,55-46,89-58C680,6629,700,6633,720,6635L720,6635z M699,6672
			c-4,0-7,5-11,4c-6,6-12,13-17,20c0,0,1,2,2,2c7,1,14,1,21,2c3-8,9-16,10-25C704,6673,701,6672,699,6672L699,6672z"/>
		<path class="st4" d="M866,6779c-28,10-61,24-90,9c-15-13-6-36,2-51c1-2,0-3,1-5c6-13,11-25,17-38c-5,0-11,4-16,1c0-5,2-9,3-13
			c7-15,12-32,21-46c5,0,10-2,15-3c-2,0-3,0-5,1c2,0,4,0,5-1c6-16,13-31,17-48c1-3,2-6,4-7c20-7,40-14,59-25c1-1,2-2,3-3
			c2-1,5-2,5,0c4,18-6,35-9,52c8-5,16-9,25-13c-4,20-6,40-13,60c-1,4-5,7-9,9c-7,2-14,4-20,8c-4,13-8,26-10,39c-2,8-7,18,0,25
			c6-1,11-4,16-6c3-1,5-3,8-2c2,2,1,5,1,8c-1,5-2,9-3,14c-1,7-2,14-3,21C883,6771,874,6775,866,6779L866,6779z"/>
	</g>
</g>
</svg>
