<?xml version="1.0" encoding="utf-8"?>
<!-- Generator: Adobe Illustrator 27.2.0, SVG Export Plug-In . SVG Version: 6.00 Build 0)  -->
<svg version="1.1" id="Calque_1" xmlns="http://www.w3.org/2000/svg" xmlns:xlink="http://www.w3.org/1999/xlink" x="0px" y="0px"
	 viewBox="0 0 562.1 9222.4" style="enable-background:new 0 0 562.1 9222.4;" xml:space="preserve">
<style type="text/css">
	.st0{fill:#FFF9F1;}
	.st1{opacity:0.2;}
	.st2{fill:#FF77BF;}
	.st3{fill:#7499DB;}
	.st4{fill:#7F8477;}
</style>
<rect y="0" class="st0" width="562.1" height="9222.4"/>
<g class="st1">
	<g>
		<path class="st2" d="M114.6,9122c3,4,0,8-1,12c0,8-2,17-4,25c-4,9-11,16-19,22c-11,8-21,15-34,18c-5,1-9,0-13-2c-12-7-16-22-17-35
			c-1-19,0-37,6-55c6-16,15-29,28-40c3-2,6-4,9-7c10-7,20-13,32-16s23-4,35-3c0,2,2,0,2,1c-1,11-2,24-10,32c-6,0-12,0-18,1
			c-3,0-4,3-7,4c-22,8-35,36-25,58c1,3,6,3,10,2C98.6,9135,106.6,9129,114.6,9122L114.6,9122z"/>
		<path class="st2" d="M150.6,9172c-7,0-14,0-20-3c-2-1-3-3-4-5c-3-4-1-9-4-13c0-1,1-2,1-3c-4-25,6-48,19-69c2-2,3-5,5-7
			c11-10,22-22,38-22c10,0,20,1,30,4c7,3,12,8,14,15c2,9,1,18-2,26c-3,5-4,10-7,15c-8,12-16,22-24,34c-8,10-16,18-26,25
			c-1,0-3,0-4,0C161.6,9173,156.6,9173,150.6,9172L150.6,9172z M159.6,9145c1,0,2,0,2,0c8-10,14-20,20-31c5-9,7-20,12-29
			c1-3,2-6,1-9c-1-2-5-3-6-2c-16,8-18,28-25,44c-3,6-4,13-6,20c0,2,0,5,0,7C157.6,9145,158.6,9145,159.6,9145L159.6,9145z"/>
		<path class="st2" d="M252.6,9205c-6-5-15-9-17-18c12-24,29-45,48-65c2-3,6-4,2-11c-4,0-8-1-11,3h1c-20,22-37,45-51,71
			c-9-4-20-6-27-14c-1-2,0-4,1-6c12-27,26-51,44-76c2-3,2-6,4-8c4-4,6-8,8-12c2-2,4-1,6-1c11,5,22,9,31,16c3,3,0,9-3,12
			c14-6,34,2,37,18c1,13-6,24-15,33c-14,14-28,26-39,43c-4,7-6,15-11,19C257.6,9211,255.6,9206,252.6,9205L252.6,9205z"/>
		<path class="st2" d="M306.6,9243c-3-2-6-3-9-4c-11-6-18-19-16-32c4-22,21-37,37-51c-1-3-6-3-3-8c8-9,14-18,23-26c1-2,2,3,5,3
			c0-1-1-1-2-1c1,0,2,1,2,1c3-2,4-6,5-9c1-1,2-3,3-4c1-2,1-3,2-5c1-1,2-3,3-4c1-2,1-4,2-5c1,0,2,0,3,0c7,5,12,9,19,13c1,0,2,0,3,0
			c2,2,1,5,1,7c-4,9-8,18-15,25c3,2,6,4,9,6c-6,12-14,22-23,32c-1,0-3,0-4,0c-1-2-3-4-6-5c-9,11-20,20-25,34c2,2,3,6,8,6
			c-1,10-8,17-11,26C315.6,9246,310.6,9244,306.6,9243L306.6,9243z"/>
		<path class="st2" d="M345.6,9261c-9-2-18-8-20-17c-4-25,19-44,42-43c10,0,20,3,29,6c2-4,3-8-1-11c-9-6-19-7-29-10
			c3-10,11-17,16-27c1-2,4-3,5-3c6,0,11-1,17,0c11,2,21,4,30,10c11,7,8,22,4,33c-10,23-18,47-28,70c-1,1-3,2-4,2c-13-2-26,0-38-7
			c-2-1-1-4-1-6c0-1,2-1,1-3C363.6,9261,353.6,9263,345.6,9261L345.6,9261z M367.6,9239c10,1,18-8,16-18c-4-3-9,0-12,3
			C368.6,9228,365.6,9234,367.6,9239L367.6,9239z"/>
		<path class="st2" d="M508.6,9227c4,7,1,16,2,24c-14,17-39,25-60,19c-2-1-5-2-7-3c-18-10-11-33-5-48c11-25,29-45,52-61
			c10-6,22-8,33-8c0,1,1,2,1,2c-2,11-1,23-8,33c-6,2-13,0-18,4c-12,11-19,28-19,44c0,3,2,6,6,6C494.6,9239,501.6,9232,508.6,9227
			L508.6,9227z"/>
		<path class="st2" d="M570.6,9234c-12,8-27,17-41,9c-5-4-5-11-4-16c1-15,4-29,7-44c-2,1-4,2-7,2c-1-13,4-24,5-37c1-4,5-4,8-6
			c0,1-1,1-2,1c1,0,2-1,2-1c2-12,3-23,4-35c5-6,12-9,18-13c4-3,6-6,10-9c4,11,0,23,1,35c3-2,6-5,9-8c2,9,1,18,1,27c-1,5,0,10-2,14
			c-1,2-2,5-5,5c-2,0-5,1-6,3c-3,11-2,23-2,34v-1c0,3-1,8,2,8c3,1,6-1,9-5l2,1C580.6,9211,585.6,9228,570.6,9234L570.6,9234z"/>
	</g>
</g>
<g class="st1">
	<g>
		<path class="st3" d="M127.6,2091c-25-2-49-9-72-20c-7-11-14-22-20-34c0-1,2-2,3-2c19,12,40,22,63,19c1,0,3-2,3-3s-1-2-2-3
			c-3-2-6-4-9-5c-23-4-42-14-58-29c-13-13-28-31-19-50c1-3,6-6,10-7c29-3,57,6,86,11c4,0,8-1,11,1c10,5,17,16,25,26c-1,3,4,4,1,8
			c-15,0-31-1-46-1c-2,0-4,1-4,2c0,7,9,9,16,11c1,0,2,2,3,2c21,3,41,9,60,19c6,3,11,7,15,13c1,2,2,5,3,7c1,6,1,13-5,18
			C173.6,2090,149.6,2091,127.6,2091L127.6,2091z"/>
		<path class="st3" d="M304.6,2044c-17,12-37,21-58,19c-11-1-22-5-30-13c-10-11-20-23-29-35c-16,8-24-10-32-20c-2-3-5-5-7-8
			c0-1,0-2,0-3c3,0,7-1,10-1c-1,0-2,0-3,0c1,0,2,0,3,0c-7-9-13-19-21-28l1-2c15-2,29-6,42-13c13,4,19,17,28,26c5-3,10-7,16-8
			c10,8,19,16,29,24c1,1,3,3-2,6c-4,2-9,4-13,6c3,2,6,4,9,8c2,2,4,2,6,4c7,6,14,15,24,14c4,0,9-2,12-6c1-1,4-2,6,0c7,6,14,12,20,19
			C312.6,2038,307.6,2040,304.6,2044L304.6,2044z"/>
		<path class="st3" d="M354.6,2002c-8,7-15,15-25,20c-2,1-4-1-6-2c-5-4-9-7-14-11c-26-18-50-33-73-54c-1-1,1-3,2-4
			c13-10,22-21,34-32c3-1,6,1,9,2c3,2,6,4,9,5c1,1,3,2,4,3c-3-8-6-16-7-24s-1-17,6-23c3-1,6,2,9,3c11,6,22,11,33,17c10,6-4,15-7,22
			c-1,2-2,5-3,7c-1,5-2,11,3,15c15,11,32,17,44,32c0,1,0,1,0,2C366.6,1988,360.6,1995,354.6,2002L354.6,2002z"/>
		<path class="st3" d="M324.6,1812c8-12,20-24,35-26c6,0,13-1,19,0c13,2,25,7,36,15c1,1,2,3,2,4c-15,15-29,29-39,47c13,8,31,5,39-8
			c4-8,6-17,12-24c1-1,4-1,5,0c10,8,22,9,28,21c-4,17-12,31-24,43c-6,7-11,15-19,18c-29,13-60,4-87-12c-12-8-20-20-23-35
			C306.6,1839,314.6,1824,324.6,1812L324.6,1812z M344.6,1824c-4,7,5,11,9,15c7,0,7-10,12-13C358.6,1825,350.6,1817,344.6,1824
			L344.6,1824z"/>
		<path class="st3" d="M439.6,1721c12-5,25-9,38-7c7,0,14,1,21,4c9,4,17,8,24,14s13,13,19,20c1,1,1,3,1,4c-22,2-46,7-66,16
			c4,5,9,8,14,10c9,5,19,4,29,2c10-3,19-8,28-12c11,7,19,17,26,28c0,1,0,3,0,4c-14,11-30,15-47,19c-2,0-5,0-7,0c-19,5-36,0-54-5
			c-22-7-43-18-59-36c-3-4-5-8-6-13c0-1-2-2-2-3l1-1l-1-1l1-1C395.6,1739,421.6,1728,439.6,1721L439.6,1721z M455.6,1738
			c-7,5,2,12,5,16c5-2,11-4,16-6C470.6,1744,464.6,1734,455.6,1738L455.6,1738z"/>
		<path class="st3" d="M663.6,1829c-36-7-70-28-91-59h1c-7-11-15-22-22-34c-4,0-9,1-13-1c-8-4-13-14-18-23c-1-2-2-4-4-5
			c4-2,9-2,14-2c-2,0-3,0-5,0c2,0,3,0,5,0c-4-8-8-15-12-23c21-3,43,0,64,0c2,3,6,0,8,2c7,6,7,16,11,24c8,1,15,4,23,5
			c6,10,10,20,14,31c1,2-2,3-6,2c-6-2-11-4-17-5c6,12,12,25,19,37c5,8,13,12,22,13c10,11,14,26,19,40c-1,0-2,1-2,1
			C670.6,1832,666.6,1830,663.6,1829L663.6,1829z"/>
	</g>
</g>
<g class="st1">
	<g>
		<path class="st3" d="M169.6,7397c-2-1-4-2-6-2s-5,0-7,0c-4-1-8-2-13-3c-6-2-11-5-17-7c0,0,0-2,0-3c14-21,11-44,6-67
			c-7-29-16-55-20-84c-5-32-3-62,4-94c1-5,6-9,11-6c14,6,29,9,45,8c2,8,2,17,5,25s2,18,7,26c9,16,18,32,32,44c5,4,10,6,15,6
			c2,0,1-3,1-4c-16-31-8-67,7-97c4-8,9-16,17-21c41-9,83-8,123,4c0,5-4,8-6,12c-2,7-5,13-6,20c-1,12,0,24,3,36c12,44,24,87,22,132
			c0,19-1,38-8,56c-3,0-6,1-9,0c-3,0-5-2-8-4c0,0-1,1-2,1c-11-3-20-10-31-9c-1,0-1,2-2,1c-2-2-1-4-1-6c3-15,2-29,1-44
			c-3-23-9-45-24-63c-1-1-2,0-2,1c10,31,20,70-6,96c-5,6-13,5-20,9c-6-13-16-23-28-32c-1-1-1-2-2-3c-6-6-13-7-20-12l-2,2
			c7,15,12,30,10,46c-2,11-5,22-12,31c-1,1-3,2-5,2l-1-1C203.6,7396,186.6,7398,169.6,7397L169.6,7397z"/>
	</g>
</g>
<g class="st1">
	<g>
		<path class="st2" d="M79.6,6634c-34,5-69,0-102-11c-11-12-23-23-32-37c0-1,3-2,4-2c16,6,33,13,50,14c14,0,28,3,41-3c1-1,1-2,1-3
			c-1-2-2-3-4-4c-3-1-6-2-9-2c-27-3-54-8-78-22c-20-12-41-27-41-52c-1-11,12-15,21-17c43-7,84-1,127-4c2,0,4-3,6-2c14,5,22,16,34,25
			c3,2,3,5,4,8c0,1-1,2-1,2c-20,4-40,8-60,10c-4,0-7,1-10,3c-1,1,1,3,3,5c7,4,14,5,21,6c28,2,56,0,84,7c10,3,19,8,26,17
			c5,8,6,16,0,24C144.6,6623,110.6,6631,79.6,6634L79.6,6634z"/>
		<path class="st2" d="M339.6,6416c2-1,5-3,8,2s0,10,0,15c1,2,1,5,1,7c-4,14-1,28-7,41c-1,2-3,3-5,4c-10,2-18,6-27,9
			c-13,4-26,7-40,10c-5,1-11-1-13,2c-2,2-1,6-2,9c10,7,20,13,29,21c1,1,1,2,1,3c-15,16-32,28-51,39c-6,3-12,7-19,9
			c-16-11-30-23-47-34c-2-2-4-4-6-6c-1-1-2,0-3-1c-4-4-8-7-12-11c-1-1-3-1-4-2c-3-4-7-7-11-9c-1-1-1-2-2-3c-19-16-37-31-54-49
			c-3-2-6-5-9-7c-1-2-4-3-3-7c16-9,32-14,48-25c3-3,6-6,10-6c3,0,6,2,8,6c22,8,39,25,58,39c6,4,12,8,18,11c-1-4-2-9-1-13
			c4-21-4-40-3-60c1-2,4-3,6-4c6-2,12-3,18-4c9-1,16-7,25-8c1,0,2,1,2,1c6,15,8,30,12,46c0,1-2,2,1,5c14-5,27-10,40-16c4-1,9-3,13-4
			C325.6,6423,332.6,6420,339.6,6416L339.6,6416z M204,6472.3L204,6472.3z"/>
		<path class="st2" d="M388.6,6375c-2,7-5,13-8,20c-5,10-13,18-24,22c-14,4-29,2-39-9c-28-28-15-70-2-102c-13-3-19,11-22,21
			c-5,18-9,35-12,54c-1,3-5,2-7,2c-12-3-23-6-33-13c0-1-1-3-1-4c2-12,4-23,7-34c10-39,24-83,63-101c10-4,22-4,32,0
			c25,11,53,19,75,35c5,0,8,5,13,7c1,1,1,2,1,3c-4,9-11,16-16,25s-10,18-14,27c-3,7-11,9-17,4l-1,1
			C391.6,6346,391.6,6361,388.6,6375L388.6,6375z M357.6,6338c2-6,2-13-3-18c-5-4-12-5-18-3c-4,2-7,6-7,11c1,12,17,16,27,12
			C356.6,6340,357.6,6339,357.6,6338L357.6,6338z"/>
		<path class="st2" d="M522.6,6214c-14,8-28,16-44,21c-14,4-27,6-41,5c-27-3-48-20-71-32c-5,4-8,11-15,11c-8-1-15-6-22-10
			c-4-3-7-6-11-8c4-5,8-9,12-14c-2,1-3,2-4,4c1-2,3-3,4-5c-8-6-16-12-23-19c12-14,27-26,42-38c7-5,13-10,20-15c14-11,25,5,32,15
			c10-4,18-12,29-14c9,8,18,16,27,24c-1,5-6,7-10,9c-1,0-2,0-3,0s-1,2-2,2c-4,1-8,3-11,5c1,1,2,2,3,3c2,2,5,2,7,4c10,9,21,17,33,21
			c8,3,16-2,24-6c3-1,6,1,9,3c8,5,15,12,23,18c2,2,3,5,6,6c-1,0-2,1-2,1c0,1,0,2,0,3c-1,1-4,1-5,2C527.6,6212,525.6,6213,522.6,6214
			L522.6,6214z"/>
		<path class="st2" d="M555.6,6074c20-2,40-2,60,2c30,7,54,22,73,45c1,2,3,5,5,7c2,3,6,5,3,10c-37-7-75-9-113-5c14,19,40,21,62,23
			c9,0,18-1,27-2c8-1,17,2,25,1c12,9,21,22,29,35c0,1-1,3-2,3c-47,5-92,1-139-5c-19-2-37-7-55-14c-19-7-36-16-50-32c-7-8-8-17-9-27
			c0-1,1-1,2-1c2-10,9-18,17-23C510.6,6080,533.6,6076,555.6,6074L555.6,6074z M571.6,6095c-3-1-7,2-7,4c-1,4,1,10,5,13
			c9-1,19-2,28-2c-5-6-10-11-16-15C578.6,6094,574.6,6095,571.6,6095L571.6,6095z"/>
	</g>
</g>
<g class="st1">
	<g>
		<path class="st4" d="M-140.4,8898c-5-2-10-6-11-11c-1-8,0-16-4-23c0-25-3-51-6-76c-10-6-19-14-26-23c-1-19-2-39-3-58
			c10-1,14,10,22,14c0-17-3-40,16-46c23-7,45,2,64,16c2,1,4,1,5,1c2,2,5,4,6,8c4,14,6,27,10,41c1,3,4,7,1,11c-8,1-17-5-24,0
			c-4,4-1,11,2,15c1,2,5,3,8,4c10,3,22,4,28,12c11,14,14,31,20,47c1,2,3,5,2,8c-1,1-2,2-3,2c-11-1-22-4-33-8c6,19,11,39,14,59
			c3,12,5,24,2,36c-12,1-22-4-34-6c-2-1-4-2-6-3C-108.4,8913-124.4,8906-140.4,8898L-140.4,8898z"/>
		<path class="st4" d="M142.6,8926c-35,11-76,18-108-8c-1,0-4,2-6-4c0,0-1,0-2,0c-30-25-48-61-42-100c2-16,10-33,25-39
			c14-7,30-6,44-12c14-5,28-7,43-5c26,4,48,13,71,25c12,7,24,15,31,27c10,17,17,36,12,56c-2,6-4,12-7,18c-3,5-7,10-11,15
			c-2,2-6,2-8,4c-7,7-14,14-23,17C155.6,8922,148.6,8923,142.6,8926L142.6,8926z M131.6,8897c2-1,6-2,6-3c3-6,3-13,1-19
			c-2-7-3-14-6-20c-2-3-4-5-6-8c-13-13-25-27-40-39c-7-5-17-3-25,0c2,11,5,20,11,30c2,2,4,4,6,7c9,14,17,27,29,38c1,1,2,4,3,5
			C116.6,8894,123.6,8897,131.6,8897L131.6,8897z"/>
		<path class="st4" d="M326.6,8813c-5,3-9,6-14,8c-9,4-18,9-28,12c-12,3-23-2-34-8c-1,0-2,2-3,3c-1-2-1-3-2-5l-1,1c-6-3-11-6-16-9
			c-1-1-2-2-3-3c-5-2-9-6-13-10c-1-1-3-1-4-2c-16-16-32-31-42-51c-10-22-12-48,1-70c2-2,3-5,5-7c20-19,40-37,68-42
			c51-10,94,28,115,70c9,26,22,57,6,84c-1,1,0,3-1,4c-2,2-2,4-6,5c-5,3-8,10-13,14c-3,2-7,0-9,2C331.6,8812,328.6,8811,326.6,8813
			L326.6,8813z M306.6,8774c8-4,1-12,1-18c-1-3-2-6-3-9s-4-4-5-6c-2-4-2-9-5-13c-15-22-34-37-55-49c-7-4-18,0-23,7c1,5,3,10,6,14
			c18,21,39,38,59,57c3,4,6,8,10,11C296.6,8771,301.6,8776,306.6,8774L306.6,8774z"/>
		<path class="st4" d="M464.6,8795c-21-7-36-21-51-37c-28-31-51-64-69-101c-7-16-7-35,7-48c10-9,22-13,35-13c29,1,58,8,82,25
			c-1-7-4-14-5-21c0-2,0-5,0-7c-2-9-3-17-4-26c0-1,1-2,1-2c12-2,22,4,33,9c28,11,54,23,81,41c2,2,4,5,4,7c-5,60,3,119,2,178
			c0,19,1,37-2,56c-1,2,0,5-4,6c-18-19-37-36-60-52c-11-8-11-20-12-32c-1,8-1,17-9,20C483.6,8802,474.6,8798,464.6,8795L464.6,8795z
			 M485.6,8737c1,0,2-1,2-1c4-17-1-33-6-50c-3-14-9-27-21-36c-3-2-8-6-11-2c-5,6-3,13-1,20c6,21,13,42,22,62
			C473.6,8735,480.6,8736,485.6,8737L485.6,8737z"/>
	</g>
</g>
<g class="st1">
	<g>
		<path class="st4" d="M102.6,7866c-20,7-42,16-63,11c-1-18,0-37,3-55c0-3,2-8,5-8c9-2,18,0,27-3c18-6,37-10,49-27c3-5,0-10-5-10
			c-9,0-18,3-27,4c-10,0-21-3-28-11c-5-6-7-14-6-22c4-26,19-46,39-62c34-27,74-40,116-43c14-1,28-1,43,1c9,2,19,2,28,3c1,0,3,2,4,3
			c0,1,0,2,0,3c-1,3-2,5-3,7c0,4-1,7-2,11c-1,2-2,4-3,7c-4,7-8,13-16,16c-10-2-20-3-30-2c-17,0-36-3-51,8c-4,4-1,9,3,11
			c17,5,35,6,48,19c3,3,6,8,6,12c0,30-24,52-43,72C167.6,7833,136.6,7853,102.6,7866L102.6,7866z"/>
		<path class="st4" d="M294.6,7851c-6-2-13-3-20-4c-18-3-34-18-33-36c1-36,29-62,45-93c-5-1-17,3-15-6c3-15,12-26,19-39c1-2,2-5,5-5
			c6,0,12,1,18,2c-2,0-4,0-6-1c2,0,5,1,6,1c8-11,11-23,18-35c1-1,2-1,3-1c24,4,47,9,70,16c3,1,5,2,8,2c4,1,10,4,9,10
			c-4,11-12,20-19,29c8,6,19,6,26,13c-9,15-19,28-33,39c-2,2-7,2-10,0c-5-4-11-5-17-8c-12,14-22,27-33,42c-3,5-8,11-5,17
			c2,5,10,4,15,8c1,1-1,5-2,7c-11,14-19,28-30,42c-1,1-4,1-6,1C303.6,7852,298.6,7853,294.6,7851L294.6,7851z"/>
		<path class="st4" d="M357.6,7878c-9-8-22-12-27-23c2-6,6-11,9-16c1-2,3-2,4-4c3-5,6-9,9-14c10-15,21-27,32-41c3-3,6-6,9-9
			c5-6,9-11,14-17c10-10,19-21,30-31c1-1,1-3,2-4s2-2,3-2c7-2,13,4,19,7c20,11,36,25,53,40c1,1,2,3,2,5c-2,10-11,15-18,22
			c16-3,32,0,47,5c8,3,13,10,20,15c1,1,1,2,1,3c0,3-1,5-3,7c-9,9-17,17-27,24c-10,6-19,14-31,14c-7-11-12-24-24-31c-9-4-20-6-28,0
			c-24,20-45,40-65,65c-2,2-4,2-6,1C373.6,7889,366.6,7882,357.6,7878L357.6,7878z"/>
		<path class="st4" d="M639.6,7880c10,7,16,18,24,27c4,16,2,32-5,47s-15,29-27,41c-2,2-4,3-6,3c-29-12-54-32-77-53c-7,4-10,11-14,18
			c0,16,10,29,24,36c14,5,27,11,41,15c1,5,0,8-4,12c-2,3-4,7-5,11c-2,5-5,10-8,14c-4,4-10,1-16,1c-27-5-50-18-71-36
			c-10-9-18-21-26-33c-7-14-6-29-5-44c1-10,5-19,9-28c18-33,54-48,89-58c2,0,4,0,6,0c13-3,27-4,39,2
			C619.6,7862,629.6,7870,639.6,7880L639.6,7880z M610.6,7910c-12-4-21,6-30,13v2c6,4,9,9,15,13c2-3,5-5,7-7
			C606.6,7925,616.6,7919,610.6,7910L610.6,7910z"/>
		<path class="st4" d="M792.6,7940c5,1,10,1,15,3c8,2,17,1,23,7c4,5,8,11,9,18c3,24-1,49-16,68c-34,4-69,2-103-3c-4,6-10,13-7,20
			c4,14,21,16,34,16c19,0,36-6,55-8c1,0,2,3,2,4c-3,11-3,22-8,33c0,2-3,4-5,5c-15,5-31,9-47,10c-15,0-30,1-45-1c-20-3-38-10-56-22
			c-12-8-18-21-21-36c-1-7-1-14,1-20c2-3,3-7,4-10c9-18,23-32,39-45c2-1,5-3,7-5c1-1,3-1,4-2s2-2,3-3c6-4,11-6,16-11c1,0,2,0,3,0
			c17-10,34-18,53-20C765.6,7937,779.6,7940,792.6,7940L792.6,7940z M771.6,7978c-14,0-20,15-28,24c7,4,15,2,23,4c3-9,9-16,10-25
			C776.6,7979,773.6,7978,771.6,7978L771.6,7978z"/>
		<path class="st4" d="M937.6,8085c-19,8-38,15-59,15c-13,0-30-1-37-14c-1-3-2-7-2-10c1-4,1-9,2-13c4-11,8-22,14-33c1-3,2-6,3-9
			s3-5,4-7c2-3,2-6,3-9c1-2,2-3,3-5c-5,1-10,3-15,2c-2-1-1-5-1-7c8-18,13-37,24-53c5,0,10-2,15-3c-2,0-3,0-5,1c2-1,4-1,5-2
			c8-17,12-34,18-52c1-2,4-3,7-4c22-6,41-15,60-27c1,0,2,0,3,0c3,4,1,9,0,13c-2,14-5,27-9,40c8-5,16-9,25-13c-4,20-6,40-13,60
			c-1,4-5,7-9,9c-7,1-13,4-20,7c-4,16-9,31-12,48c0,1-1,3-2,4h1c-2,4-2,12,3,12c8,1,15-7,23-8c1,0,2,2,2,3c-1,14-4,28-7,41
			C954.6,8078,945.6,8081,937.6,8085L937.6,8085z"/>
	</g>
</g>
<rect x="-784.9" y="-403.2" class="st2" width="499" height="345"/>
</svg>
