<?xml version="1.0" encoding="utf-8"?>
<!-- Generator: Adobe Illustrator 27.2.0, SVG Export Plug-In . SVG Version: 6.00 Build 0)  -->
<svg version="1.1" id="Calque_1" xmlns="http://www.w3.org/2000/svg" xmlns:xlink="http://www.w3.org/1999/xlink" x="0px" y="0px"
	 viewBox="0 0 429.3 8556.6" style="enable-background:new 0 0 429.3 8556.6;" xml:space="preserve">
<style type="text/css">
	.st0{fill:#FFFCF5;}
	.st1{opacity:0.2;}
	.st2{fill:#FF84C0;}
	.st3{fill:#7B9CD9;}
	.st4{fill:#808778;}
</style>
<rect x="0" class="st0" width="429.3" height="8556.6"/>
<g class="st1">
	<g>
		<path class="st2" d="M46,8244c3,13-3,25-5,38c-12,19-31,34-53,40c-10,2-19-4-23-13c-13-30-9-64,5-93c6-10,13-19,22-27
			c21-19,48-27,76-27c-1,2,2,0,2,2s0,4,0,6c-2,9-1,20-9,24c-7,4-15,1-22,4c-5,2-10,5-14,8c-14,12-20,29-18,47c1,4,3,9,7,8
			C26,8261,38,8253,46,8244L46,8244z"/>
		<path class="st2" d="M82,8296c-7-1-14-1-20-4c-2-1-3-3-4-5c-3-4-1-9-4-13c0-1,1-2,1-3c-3-9,1-18,1-27c0-1,2-3,2-4
			c5-27,20-50,44-64c14-8,30-4,45,0c8,3,14,10,15,19c2,20-8,36-19,52c-8,10-14,19-22,28c-7,7-13,14-22,18l-1-1c-3,2-6,5-10,4
			C85,8296,85,8296,82,8296L82,8296z M91,8268c1,0,2,0,2,0c17-20,28-42,33-68c1-3-4-6-8-4c-4,3-6,7-9,11c-4,6-6,13-9,19
			c-5,14-12,27-11,42C89,8268,90,8268,91,8268L91,8268z"/>
		<path class="st2" d="M184,8328c-4-2-7-5-11-8c-3-2-8-4-6-10c7-20,21-34,34-51c1-1,3-2,4-3c4-4,6-9,11-12c3-2,5-7,2-10
			c-2-2-6-2-8-1c-23,22-39,48-54,75c-10-4-21-6-28-15c14-37,37-68,59-102c1-3,4-1,5-1c11,4,21,9,31,16c3,2,2,6-1,9c0,1,0,2-1,3
			c14-6,31,1,35,15c3,9,0,19-6,27c-2,1-3,3-5,6c-6,7-13,13-20,19c-8,7-13,16-20,24c-5,8-9,16-13,24C188,8333,187,8329,184,8328
			L184,8328z"/>
		<path class="st2" d="M238,8366c-3-2-6-3-9-4c-11-6-17-19-16-32c3-23,23-34,36-52c1-1-3-3-3-5c1-1,2-3,3-5c4-5,9-9,13-14
			c2-4,5-8,8-11c2-1,3,3,5,4c0-1,0-2-1-2c1,1,1,1,2,2c5-9,10-19,15-28c8,3,14,9,21,13c2,0,4,1,5,2c1,12-9,21-15,31c3,1,6,4,9,6
			c-6,11-13,20-21,30c-1,2-3,3-6,2c-2-2-4-4-7-5c-8,9-16,18-23,29c-1,3-2,6,0,9c3,2,8,2,6,7c-4,7-8,14-11,22
			C247,8369,242,8367,238,8366L238,8366z"/>
		<path class="st2" d="M277,8384c-9-2-19-8-20-18c-1-12,3-23,11-31c7-6,15-10,25-12c12-2,23,5,35,6c1-3,3-5,2-8c-1-4-6-4-9-6
			c-7-3-15-4-23-7c-1,0,0-3,1-4c7-9,11-17,17-26c1,0,2-1,3-1c17,1,33,3,48,10c13,12,5,29,0,43c-6,16-14,30-19,47c-1,2-2,3-3,5
			s-1,4-1,6c-1,2-2,6-5,6c-13-1-27,0-39-7c-2-2-2-7,1-9C294,8382,286,8387,277,8384L277,8384z M299,8362c4,0,8,0,11-3
			c4-5,10-14,3-16c-3-1-7,0-9,3C301,8351,296,8357,299,8362L299,8362z"/>
		<path class="st2" d="M440,8350c1,1,2,1,2,2c0,7,0,15,0,22c-11,13-28,20-44,21c-13,1-28-4-32-17c-5-15,2-31,8-45c1-1,2-2,3-3
			c8-18,23-32,38-45c11-10,26-13,40-13c0,1,0,2,1,2v-1c-1,11-1,24-8,34c-7,2-14,1-20,6c-5,5-8,11-11,17c-2,6-4,11-5,17
			c0,5-2,11,2,13C424,8365,433,8356,440,8350L440,8350z"/>
		<path class="st2" d="M503,8357c-11,6-21,14-35,12c-7-1-10-7-11-13c0-5-1-9,0-14c3-13,5-25,7-37c-2,1-3,6-7,2c-1-2,0-5,0-8
			c3-11,2-22,8-32c0-1,4,1,4-3l-1,1c1,0,2-1,2-1c4-12,1-27,7-38c9-5,17-13,25-19c5,11,0,24,1,35c1-1,2-3,4-4s5-1,6-4c0,12,1,25,0,37
			c-1,3-3,6-5,8c-3,2-7,2-7,5c-2,14-5,27-2,41c4,1,7-4,11-5c3,9,4,21,0,30C509,8353,505,8354,503,8357L503,8357z"/>
	</g>
</g>
<g class="st1">
	<g>
		<path class="st3" d="M59,1009c-25-1-50-9-72-20c-7-11-14-22-20-34c0-1,2-1,3-1c11,5,19,12,31,15c10,2,19,4,29,4c4,0,7-3,4-7
			c-3-2-6-4-9-5c-14-3-26-6-38-14c-4-3-7-5-11-7c-12-10-23-20-28-34c-1-3-2-6-3-9c-1-6-1-12,3-17c2-2,5-2,7-3c10-4,20-3,30-2
			c3,0,5,2,8,2c19,1,38,8,57,9c3,0,6,0,8,2c9,10,19,19,24,31c0,1-1,2-1,2c-15,0-31,0-46-1c-2,0-5,1-5,2c0,7,10,9,16,11
			c20,7,40,9,59,18c13,7,27,20,22,36C111,1006,83,1010,59,1009L59,1009z"/>
		<path class="st3" d="M236,962c-19,14-43,24-67,17c-8-2-15-5-21-11c-6-7-11-14-17-21c-1-1-3-2-4-3s-1-3-2-4c-2-3-4-6-7-6
			c-3-1-7,2-11,1c-10-6-16-15-22-25c0,0-1-1-2-1c-2-2-4-4-3-6s6-2,10-2c-1,0-3,0-4,0c1,0,3,0,4,0c-7-10-14-18-21-28c0-1,2-2,3-2
			c9-1,17-4,26-6c2-1,5-2,8-3c1-1,3-2,4-3c2,0,5-1,7,1c9,7,14,17,23,23c1,1,4-2,6-3c3-1,6-4,9-3s6,4,9,7c7,5,14,10,21,16
			c1,1,3,3-2,6c-4,2-9,4-13,6c9,8,18,15,27,23v-1c3,4,9,6,14,5c4-2,7-5,10-7c4-1,9,2,12,5c5,5,10,9,14,14c-1,0-2,1-2,1
			C245,957,238,958,236,962L236,962z"/>
		<path class="st3" d="M286,920c-10,6-16,18-28,20c-6-4-11-8-17-13c-27-17-50-35-74-54c3-4,6-6,10-9c10-8,17-18,27-27c3-1,6,1,9,2
			c3,2,6,4,9,5c1,1,3,2,4,3c-5-10-8-21-7-32c1-5,1-11,6-15c9,3,17,9,26,13c6,3,13,5,18,9c2,2,3,5,0,8c-8,9-18,22-10,34
			c15,10,33,18,45,32C299,905,292,912,286,920L286,920z"/>
		<path class="st3" d="M256,730c5-9,12-15,20-20c10-7,22-7,34-6c13,2,24,9,36,15c1,1,2,3,2,4c-15,15-30,29-39,47c14,9,32,4,40-10
			c3-8,5-16,11-22c1-1,4-1,5,0c10,8,21,10,28,21c-7,25-23,46-43,62c-29,11-60,3-87-13c-7-4-11-10-16-16c-6-10-9-20-7-31
			C243,749,249,739,256,730L256,730z M276,742c-4,8,6,13,11,16c4-3,6-9,10-13C291,742,282,736,276,742L276,742z"/>
		<path class="st3" d="M371,639c12-5,24-6,37-8c16,3,33,8,46,19c7,6,13,13,19,20c1,1,1,3,1,4c-23,2-46,7-67,16c16,17,42,16,61,4
			c4-2,8-2,11-4c10,7,18,17,26,28c0,1,0,3,0,4c-9,7-19,13-30,14c-2,0-4,2-6,3c-6,2-12,1-18,2c-34,7-65-7-93-24c-7-4-14-10-20-17
			c-4-5-6-11-8-18l1-1c-2-8,0-15,5-21c2-1,3-3,5-5C350,647,360,643,371,639L371,639z M387,656c-1,0-2,0-2,0c-3,7,3,11,6,16
			c6-1,11-4,17-6C402,662,396,652,387,656L387,656z"/>
		<path class="st3" d="M595,747c-41-9-79-34-99-73c-4-7-9-13-13-20c-4,0-9,1-13-1c-8-3-13-12-17-20c-2-2-3-5-5-7c-1-1,0-2,1-2
			c4,0,9-1,13-1c-2,0-3,0-5,0c2,0,3,0,5,0c-4-8-8-15-12-23c23-3,46-2,69,2c11,1,9,16,14,24c8,1,15,4,23,5c4,5,6,12,9,18
			c1,5,3,9,5,13c1,2-2,3-6,2c-6-2-11-4-17-5c6,11,11,22,16,33c2,3,4,7,8,10c2,1,3,3,5,4c5,2,11,2,15,6c8,11,11,25,16,37
			c-1,0-2-1-2,1C602,749,598,748,595,747L595,747z"/>
	</g>
</g>
<g class="st1">
	<g>
		<path class="st3" d="M114,6226c-10-3-20-3-30-5c-8-2-14-6-21-9c0,0,0-2,0-3c9-15,13-30,12-47c-4-44-21-83-28-127c-6-37-4-71,2-108
			c1-5,3-9,5-13s6-5,10-4c17,7,35,13,53,10c2,3,2,7,3,10c1,9,1,17,5,25c3,7,2,14,4,21c3,10,10,17,16,26c2,3,2,6,4,8
			c11,13,21,30,39,30c2,0,1-3,1-4c-10-18-11-39-9-59c2-23,8-45,22-66c4-5,8-8,11-13c1-1,2,0,3-1c0-1,1-2,1-2c30-6,59-8,89-6
			c19,2,38,5,56,11c1,1,2,2,1,3c-12,18-16,37-14,57c4,32,15,61,21,94c3,20,8,38,9,57c1,31,2,63-11,92c-1,3-6,1-10,1c-2,1-4-2-6-3
			c-11-2-19-8-30-10c-5-1-10-3-15,0c0-18,2-36,1-54c-2-18-6-36-14-53c-3-8-7-16-12-24c-1-2-2-4-5-3c3,15,9,30,11,46c1,10,1,19,0,29
			c-2,14-5,28-15,39c-8,7-19,6-28,11c-2-5-4-11-8-15c-10-11-20-19-31-29c-6-5-13-7-20-11l-2,2c2,4,4,8,5,12c0,1,2,2,2,3
			c9,25,6,55-10,77c-6,2-11,2-17,3c-10,1-19,2-29,3C128,6228,121,6225,114,6226L114,6226z"/>
	</g>
</g>
<g class="st1">
	<g>
		<path class="st4" d="M-21,4088c-9-1-15-8-19-16c-11-22-18-44-28-66c-18-4-36-11-53-20c-4-8-9-15-11-24c0-1-1-2-2-3c-2-5-2-11-4-16
			c3-2,6,0,9,1c52,26,110,40,167,24c4-1,9-2,13-1c8,12,19,20,28,32l-1,2c-14,6-28,9-43,11c2,3,4,6,7,9c1,1,0,2,1,3
			c15,16,22,35,36,52c1,1,2,3,1,5c-4,5-10,5-16,6C35,4091,7,4093-21,4088L-21,4088z"/>
		<path class="st4" d="M199,4031c-14,12-32,22-51,22c-12-1-23-8-30-18c-1-12,4-23,12-32c15-15,31-27,45-43c-7-5-15,0-21,5
			c-5,5-10,10-15,13c-5,4-9,8-14,10c-3,3-7,5-10,8c-5,4-11,7-17,1c-1-1-2-3-3-4c-6-5-11-10-16-15c1-1,1-2,1-3c3-2,6-4,9-6
			c6-5,11-10,17-14c7-7,14-13,21-19c18-18,33-43,60-45c21,3,41,13,60,24c9,5,19,11,24,21c-10,20-23,37-36,56c-3,4-12,10-15,2
			c-2,2-1,5-2,8C214,4013,209,4024,199,4031L199,4031z M196,3996c4-5,9-12,5-19c-5-6-14-5-20,1c-3,2-4,6-4,9
			C178,3995,189,3999,196,3996L196,3996z"/>
		<path class="st4" d="M371,3913c-11,8-23,14-35,18c-3,1-6,3-10,2c0,0-1,1-1,2c-1,0-1-1-2-1c0,0-1,1-1,2c-3-2-7,0-11,0
			c-16-2-25-20-21-35c-7,4-15,8-22,5c-1-1-3-2-5-3c-11-10-5-28,0-40c-7,4-14,10-22,13l-1,2c-10,4-22,5-32,0c-8-4-12-13-13-21
			c0-16,7-32,17-45c19-23,45-39,72-49c-6-7,1-15,2-23c5-3,10-3,16-5c1,0,1,1,2,1c14-2,28-5,42-2c-5,6-11,10-17,15c-2,3-5,5-7,8
			c12,0,25,5,32,15c4,7,7,15,4,23c-4,9-11,13-19,19c-1,0-1,0-2,0c-3,3-6,5-9,7c-10,5-20,9-29,17c-4,4,2,6,5,6c7-1,13-6,19-9
			c12-5,23-7,36-10c22-4,44,0,60,16c1,1,0,2,1,3c8,7,11,18,9,28c-3,10-12,17-21,22l-1-1c-1,1-2,2-3,3c-8,2-13,7-20,11
			C380,3909,375,3911,371,3913L371,3913z M282,3820c5-2,6-6,8-10c0-3-4-5-3-8c-6-4-14-4-21-6c-8,3-18,7-17,17c0,5,7,9,12,10
			c3,0,5,2,7,1C273,3824,278,3823,282,3820L282,3820z M363,3878c2-2,5-4,7-7c1-2,2-3,2-5c2-8-8-5-13-3c-8,2-16,6-24,9c-4,2-8,4-11,7
			c-1,1-2,3-2,3c0,10,14,13,22,8C351,3886,356,3881,363,3878L363,3878z"/>
		<path class="st4" d="M461,3843c-11-3-23-4-35-7c-7-8-15-15-22-23c-1-1-1-4-1-3c19,0,38,4,57,3c3-6-6-9-10-11c-13-4-25-8-38-12
			c-2-1-5-3-7-3c-5-2-10-2-15-5c-6-5-12-9-17-14c-3-4-5-9-2-13c9-13,25-14,39-17c13-2,25-1,38,0c25,2,49,8,72,18c2,1,3,2,4,4
			s2,3,3,5c1,5,4,10,5,15c0,0,1,1,2,1c-2,0-5,0-7,0c-14-4-27-10-42-11c-2,0-4,1-5,2c-1,3,3,5,5,6c25,10,48,24,65,45c6,8,14,20,6,29
			c-28,11-57-4-85-8C468,3844,464,3844,461,3843L461,3843z"/>
	</g>
</g>
<g class="st1">
	<g>
		<path class="st2" d="M11,5471c-18,2-36,1-54,0c-17-2-34-5-49-13c-5-2-8-7-12-11c-6-8-13-15-19-23c-1-1,1-4,3-3c14,5,27,10,42,12
			c17,3,34,5,50-1c4-5-4-8-8-9c-14-3-26-3-40-6c-17-4-32-10-47-20c-18-11-36-26-36-48c0-12,14-16,24-18c33-5,64-1,96-2
			c8-1,16-1,24-2c3,0,6,1,9-1c2-1,5,0,7,1c8,7,16,13,24,20c3,4,8,8,7,14c-19,3-37,7-56,9c-5,1-10,1-14,4c-2,3,5,4,6,7c6,0,12,4,18,4
			c18,0,37,1,55,2c18,2,36,4,50,16c3,4,6,8,8,12c1,6,1,12-2,17C77,5460,42,5466,11,5471L11,5471z"/>
		<path class="st2" d="M271,5253c2-1,5-3,8,2s0,10,0,15c0,1,1,2,1,3c-3,14-2,28-6,42c-1,2-2,4-4,5c-8,5-16,5-24,9c-19,7-39,9-59,14
			c2,4-5,8,2,12c5,2,9,5,14,9c5,3,10,6,13,11c-20,20-44,36-70,49c-18-14-36-28-56-41c-7-4-10-11-17-15c-1,0-2,0-3-1c-4-7-11-9-16-15
			c-4-4-8-6-12-9c-17-15-32-30-48-46c-1-1,0-3,2-4c19-8,36-16,54-29c2-1,4,0,6,1c5,5,12,7,18,10c19,13,35,26,53,40c3,2,6,4,10,5
			c-1-3-2-7-1-10c2-21-2-41-4-61c5-8,16-9,25-10c9-2,16-8,25-8c1,0,2,2,3,3c5,15,9,30,10,46c0,1,1,2,2,3c4-3,9-2,13-5c5-3,10-4,15-5
			c1-1,2-3,3-3c10-1,17-7,26-9c4-1,7-4,11-6C267,5254,269,5254,271,5253L271,5253z M135.2,5309.1L135.2,5309.1z"/>
		<path class="st2" d="M319,5211c-4,19-16,41-37,44c-13,1-27-1-36-11c-23-29-13-67,0-98c0-1,0-3,0-3c-6-2-12,2-15,7
			c-11,22-13,45-19,68c-1,2-3,2-4,2c-10,0-18-7-28-9c-3-1-5-2-7-4c0-1-1-3-1-4c1-10,3-21,6-31c9-39,21-78,57-101c2-1,5-2,7-3
			c25-10,49,9,72,17c2,0,3,0,5,1c6,3,13,5,19,9c6,5,12,7,19,11c3,2,7,4,5,7c-8,16-19,30-26,46c-2,5-5,9-8,12c-4,3-9-1-13-2
			C321,5182,325,5197,319,5211L319,5211z M289,5175c2-6,2-13-3-18s-12-5-18-3c-8,3-9,14-3,20c6,5,15,5,23,3
			C288,5177,289,5176,289,5175L289,5175z"/>
		<path class="st2" d="M454,5051c-2,2-5,2-7,3c-23,13-48,25-75,23c-24-2-44-15-65-28c-2-1-5-2-7-3c-1,0-2-2-2-2c-6,3-7,12-15,11
			c-13-1-22-11-33-17c3-6,8-10,12-15c-2,1-3,3-4,5c1-2,3-3,4-5c-8-5-16-12-23-19c17-21,39-36,62-53c4-2,8-5,12-4c9,3,14,12,20,19
			c4-2,7-5,11-7c6-3,12-8,18-6c4,1,6,5,10,7c6,5,12,9,16,15c3,3-2,7-5,8c-7,2-14,5-20,9c5,3,8,7,13,9c1,1,1,2,2,3c12,7,21,19,36,17
			c6-1,10-5,16-7c5-1,8,1,12,4c8,8,18,14,25,23c-2,1,0,3-1,4C462,5047,458,5049,454,5051L454,5051z"/>
		<path class="st2" d="M487,4911c32-3,65-1,94,15c11,6,20,14,30,22c7,7,14,15,18,24c0,1-1,3-1,3c-38-6-75-10-113-5
			c13,17,34,20,54,22c20,1,39-3,59,0c3,1,5,2,7,4c8,10,16,20,23,31c0,1-1,3-2,3c-30,2-59,2-89,0c-11-1-23-2-34-2c-3,0-7-1-10-2
			c-2,0-4,0-6,0c-39-9-77-18-105-47c-7-8-7-18-9-27c5-5,5-12,10-17C434,4917,461,4913,487,4911L487,4911z M503,4931c-3,0-7,2-7,4
			c-2,5,2,13,8,13c8,0,17-1,25-1C522,4940,514,4929,503,4931L503,4931z"/>
	</g>
</g>
<g class="st1">
	<g>
		<path class="st4" d="M-209,7740c-5-2-10-6-11-12c0-7,0-15-4-22c0-25-4-51-6-76c-9-8-20-13-26-23c-2-20-2-39-3-59c2,0,4-1,5,0
			c6,4,11,10,17,15c-1-16-2-34,11-45c22-8,46-1,66,13c2,1,4,1,6,2s5,3,6,5c6,17,9,34,14,51c0,2,0,4-1,5c-8,1-18-5-25,1
			c-1,5,1,9,2,14c7,3,15,5,22,7c6,2,12,4,16,9c9,15,14,31,19,47c1,2,3,5,2,8c-1,1-2,2-3,2c-11-1-22-4-33-8c8,31,19,63,16,95
			c-3,0-5,0-8,0C-156,7762-183,7753-209,7740L-209,7740z"/>
		<path class="st4" d="M74,7768c-35,10-76,19-108-8c-1-1-4,1-5,0s0-3-1-4h-2c-7-7-14-13-20-21c-1-2-3-5-5-7c-16-25-24-53-16-81
			c0-1,2-1,2-2c5-13,14-28,29-31c1,0,2-2,3-2c17-1,33-8,50-12c15-3,30-1,44,3c33,11,70,21,88,53c8,15,12,31,10,47c-2,15-10,28-21,39
			c-2,1-4,2-6,3c-9,7-16,15-28,18C83,7764,78,7765,74,7768L74,7768z M63,7738c9,0,8-10,8-16c0-1-1-1-1-2s1-3,1-4s-2-1-2-2
			c-2-11-6-21-14-29c-12-11-22-22-35-33c-7-6-16-6-24-5c-1,0-3,2-3,3c-1,7,3,12,5,18c7,17,19,29,29,45c4,5,8,8,12,12c1,2,2,4,3,5
			C47,7735,54,7741,63,7738L63,7738z"/>
		<path class="st4" d="M258,7655c-23,12-50,31-76,12c-1,0-2,2-3,2c-1-1-2-3-3-4l-1,1c-34-19-62-45-78-79c-12-25-10-57,10-77
			c5-4,9-8,14-12c17-13,34-25,55-28c22-3,43,4,62,17c6,4,12,8,18,13c10,10,19,20,25,32c16,31,31,69,8,102c-1,1-3,1-4,1
			c-6,5-8,13-15,14C265,7650,262,7653,258,7655L258,7655z M238,7616c7-4,2-12,1-18c-1-3-2-6-3-9c-2-4-5-8-7-13c-1-1-2-4-3-6
			c-13-21-32-34-52-49c-4-2-8-3-12-2c-5,2-11,3-14,9c2,10,8,17,15,24c17,17,33,33,52,49c2,2,3,5,5,7c5,4,10,7,16,9
			C237,7617,237,7616,238,7616L238,7616z"/>
		<path class="st4" d="M396,7636c-15-3-27-13-38-23c-4-5-9-8-13-13c-11-13-21-24-31-38c-13-19-25-36-35-56c-3-7-5-14-7-21
			c-2-10,0-20,6-29c9-11,22-17,35-17c30-1,62,4,86,24c-1-3-1-6-1-9c-3-16-7-31-6-46c0-3,4-1,6-1c7,0,13,3,20,5c6,2,13,5,19,8
			c25,12,49,22,71,39c1,1,2,3,2,5c-3,26-3,51-1,77c1,32,3,65,3,97c0,20,0,39-2,59c0,3-2,9-6,5c-17-18-34-34-56-48c-5-4-8-9-11-14
			c-3-7-2-14-4-21c2,10-3,22-14,23C411,7642,403,7640,396,7636L396,7636z M417,7579c5-5,4-12,3-18c-3-13-2-26-9-38c0-1,0-2,0-3
			c-6-13-13-29-29-32c-7,8-4,20-1,29c7,17,12,34,19,51C403,7575,410,7578,417,7579L417,7579z"/>
	</g>
</g>
<g class="st1">
	<g>
		<path class="st4" d="M33,6787c-19,9-41,15-62,12c-1-19,0-38,3-57c0-3,3-5,5-8c15,2,30,0,43-8c2-1,4,0,6-1c8-4,16-7,23-14
			c3-3,6-7,5-12c-1-2-4-4-6-4c-17,2-36,9-51-3c-7-6-11-16-10-25c4-30,23-52,48-69c30-21,62-31,97-36c14-1,29-2,43-1c13,2,25,3,38,5
			c2,0,2,3,4,3c-1,6-3,11-5,17c-3,11-9,27-24,26c-24-3-47-3-70,3c-4,2-8,3-8,8c0,2,1,4,3,5c11,6,24,5,35,10s23,15,21,29
			c-5,26-22,45-40,62C102,6755,69,6774,33,6787L33,6787z"/>
		<path class="st4" d="M226,6772c-2-1-5-2-7-2c-9-1-18-2-26-6c-1-1-3-2-5-3c-5-3-8-7-11-12c-1-2-2-3-2-5c-2-5-4-10-3-15
			c2-10,4-20,9-29c11-21,25-40,37-60c-5-2-11,1-15-2c-3-4,1-9,2-13c5-12,13-21,18-33c1-1,2-3,4-3c6,1,12,2,18,2c-2,0-4,0-6-1
			c2,0,5,1,6,1c8-11,11-24,18-35c23,1,46,8,69,15c5,1,10,2,14,3c3,2,7,3,7,7c-1,13-13,21-19,32c9,3,18,7,26,12c-9,14-19,27-30,39
			c-3,3-9,3-13,1c-5-5-11-6-17-9c-12,17-27,31-37,50c-1,3-4,7-1,11c4,3,10,3,15,6c1,0,0,3-1,5c-8,10-14,20-22,30c-2,4-5,6-6,10
			c-1,2-2,3-4,4c-1,0-3,1-4,1C236,6774,231,6774,226,6772L226,6772z"/>
		<path class="st4" d="M289,6799c-10-7-21-12-27-23c26-45,61-83,97-121c5-6,11-11,15-18c15,4,27,15,41,23c2,1,2,3,4,4
			c11,6,19,14,28,23c1,1,1,3,1,4c-3,9-11,15-18,21c16-3,32,0,47,6c8,2,14,9,20,14c1,2,1,5,0,7c-15,19-34,34-57,42c-7-3-9-11-13-18
			c-8-13-25-23-39-14c-24,14-41,34-60,55c-3,5-7,10-13,12C306,6810,298,6804,289,6799L289,6799z"/>
		<path class="st4" d="M571,6801c4,3,7,7,11,10c4,5,6,11,11,15c2,2,2,4,3,6c2,12,1,24-3,36c-7,18-16,35-30,49c-2,1-5,3-6,2
			c-29-12-54-32-77-53c-6,5-12,10-13,18c-1,6-1,12,2,17c2,2,3,5,5,7c15,17,38,18,57,29c0,0,1,3,1,4c-8,10-11,21-18,31c-2,1-4,3-6,2
			c-19-1-36-7-53-16c-10-6-20-12-28-20c-11-12-22-23-27-38c-9-23-6-49,7-71c2-2,3-4,5-7c20-24,46-39,77-45c2-1,3-2,5-3c2,0,4,1,6,0
			c12-3,24-3,36,1c7,3,13,6,18,11C559,6792,566,6795,571,6801L571,6801z M542,6832c-12-5-21,6-30,12c0,1,0,2,0,3c5,4,10,8,15,12
			c7-6,13-13,17-21C545,6836,545,6834,542,6832L542,6832z"/>
		<path class="st4" d="M724,6862c11,1,21,3,31,7c2,0,3,0,5,0c0,0,0,1,0,2c2,2,4,3,5,5s2,3,3,5c7,15,5,31,0,46c-3,10-4,23-13,30
			c-34,5-70,3-104-3c-3,6-8,13-6,20c1,3,2,8,6,10c10,6,21,9,33,7c17-3,33-5,50-8c1,0,2,2,2,3c-2,11-5,22-7,33c-1,2-4,4-6,5
			c-17,6-35,9-53,11c-12,1-23,0-35-2c-20-1-39-8-57-19c-19-11-27-33-24-55c2-9,6-16,11-24c2-2,3-4,5-7c6-8,13-15,21-22c1-1,3-1,4-2
			c11-11,24-18,37-26c1,0,2,0,3,0c13-11,29-15,45-17C695,6859,709,6860,724,6862L724,6862z M703,6899c-13,2-20,15-28,25
			c8,1,15,3,23,3c4-8,8-15,10-24C708,6901,706,6899,703,6899L703,6899z"/>
		<path class="st4" d="M869,7006c-26,10-56,23-84,12c-1-1-3-2-5-3c-3-3-7-6-8-10c-2-9-1-17,2-25c9-20,17-40,26-59c-5,0-12,5-16,1
			c-1-1,0-4,0-6c7-18,14-36,24-53c5,0,10-3,15-3c-2,1-3,1-5,1c2,0,4,0,5-1c8-17,11-35,19-52c1-3,6-5,10-6c16-5,31-12,46-19
			c2-1,4-3,6-5c3-2,8-3,8,1c0,17-5,34-11,50c9-4,17-8,25-13l1,1c-4,20-7,39-12,59c-7,10-21,11-31,17c-2,6-3,13-4,19c-1,5-3,10-5,15
			c-1,6-2,11-4,17h1c-2,4-2,14,5,13c8-2,14-6,21-8c1,0,2,2,2,3c-1,9-3,18-4,28c-1,4-1,9-3,13C887,7001,877,7002,869,7006L869,7006z"
			/>
	</g>
</g>
</svg>
