<?xml version="1.0" encoding="UTF-8"?>
<svg id="Calque_2" data-name="Calque 2" xmlns="http://www.w3.org/2000/svg" viewBox="0 0 546.01 229.57">
  <defs>
    <style>
      .cls-1 {
        fill: #ff82be;
      }

      .cls-2 {
        opacity: .2;
      }
    </style>
  </defs>
  <g id="Main_Background">
    <g class="cls-2">
      <g>
        <path class="cls-1" d="m88.57,81c1,1,1,2,1,3-2,12-4,23-6,35-13,19-31,33-53,39-9,2-17-3-22-11C-2.43,128-.43,107,1.57,86c2-16,8-30,18-44C34.57,23,52.57,10,76.57,4c1,0,3-2,4-2,10-1,20-2,30-2,0,2,2,2,2,2-1,11-2,23-10,31-7-1-14,2-21,2-1,4-6,1-8,4-4,4-9,6-13,11-10,13-16,31-9,46,13,6,27-7,37-15h0Z"/>
        <path class="cls-1" d="m121.57,132c-7,0-14,0-20-3-2-1-3-3-4-5-3-4-1-9-4-13,0-1,1-2,1-3-4-28,8-54,24-76,8-9,16-16,27-20,13-4,28-1,41,2,27,14,12,48-2,67-9,10-16,21-24,31-6,7-12,13-20,17h-3c-5,4-10,4-16,3h0Zm9-27h2c5-6,7-12,12-18,9-13,13-28,20-42,1-3,2-6,1-9-1-2-6-4-8-3l-5,5c-3,5-6,8-7,14,0,1-2,1-2,2-4,10-9,20-12,30v5c-2,5-4,10-3,16h2Z"/>
        <path class="cls-1" d="m223.57,165c-7-3-13-9-17-15,3-16,15-28,24-42,4-5,9-10,13-15,3-4,7-7,11-11,2-2,4-5,4-7,0-4-6-5-9-4-2,1-3,2-4,3h1l-9,9c-17,19-30,40-42,62-6-1-10-5-16-6-1,0-1-2-2-2-4-1-7-4-10-7,6-15,13-29,22-43,1-2,2-4,4-7,11-18,22-33,32-51,1-2,4-1,6-1,11,5,24,8,31,18,2,3,0,8-3,10,13-5,27,1,35,12,6,24-15,40-30,55-13,14-25,29-33,47-4,0-5-4-8-5h0Z"/>
        <path class="cls-1" d="m276.57,202c-5-3-11-4-15-8-9-9-13-22-9-34,1-2,2-4,3-7,8-15,21-26,33-38-2-1-5-1-4-5,7-11,16-20,24-30,0,3,3,2,4,4l-1-1c1,0,2,1,2,1,6-9,10-18,15-27,6,1,10,6,15,8l1,2c2,1,3,1,5,3h3c1,0,2,1,2,2-2,11-9,21-15,30,3,2,6,4,9,5v2c-8,11-14,22-23,31h-4c-2-1-2-5-6-5-9,11-21,21-25,35,2,2,4,5,8,5v4c-4,8-7,16-12,24-3,3-7,0-10-1h0Z"/>
        <path class="cls-1" d="m315.57,220c-6-1-12-5-15-9-12-15-1-37,14-45,7-3,15-7,23-7,10,1,19,4,29,7-1-4,6-8-1-11-9-5-19-8-29-10,4-11,12-20,18-30,6-2,13,0,19,1,11,0,21,2,31,7,7,5,8,15,7,23-3,15-10,28-16,42-4,11-7,22-12,32-1,2-1,4-1,6-1,2-3,3-5,3-13,0-27-1-39-7-3-1,1-5,1-8-7,3-15,10-24,6h0Zm22-22c4,0,8,0,11-3,3-4,8-9,5-15-2-2-5-2-8,0-5,4-10,11-8,18h0Z"/>
        <path class="cls-1" d="m477.57,184c1,1,1,2,2,3h-1c2,7,2,14,0,21,0,4-5,8-9,10-3,1-6,3-9,5-19,10-47,10-58-10-5-31,15-58,35-80,14-15,32-27,54-26,0,1,0,2,1,2v-1c-1,12-2,24-8,34-11,1-22,5-27,16-4,10-9,21-9,32,0,2,2,5,3,6,10,4,18-7,26-12h0Z"/>
        <path class="cls-1" d="m535.57,192c-12,8-31,20-44,7-6-19,3-38,5-57-2,1-4,2-7,2,0-14,3-27,8-40,0-1,4,1,4-3l-1,1c1,0,2-1,2-1,4-12,1-27,7-38,9-6,18-11,25-19,5,11,0,24,1,35,3-3,7-5,10-8,0,12,1,25,0,37-1,6-7,10-13,12,1,14-5,29,0,42,3-2,7-4,10-6,1,0,2,2,2,3,0,9,2,18-2,27-1,2-4,5-7,6h0Z"/>
      </g>
    </g>
  </g>
</svg>