<?xml version="1.0" encoding="UTF-8"?>
<svg id="Calque_2" data-name="Calque 2" xmlns="http://www.w3.org/2000/svg" viewBox="0 0 358.57 163.14">
  <defs>
    <style>
      .cls-1 {
        stroke-width: 1.65px;
      }

      .cls-1, .cls-2 {
        fill: #fff;
        stroke: #000;
        stroke-miterlimit: 10;
      }

      .cls-2 {
        stroke-width: 1.72px;
      }
    </style>
  </defs>
  <g id="Main_Background">
    <g>
      <path class="cls-2" d="m44.23,93.08l-38.99-.27c-1.55,0-2.55-1-3.01-3.01-.46-1.64-.68-3.47-.68-5.47,0-3.1-.02-6.34-.07-9.71-.05-3.37-.12-7.2-.2-11.49-.09-4.47-.18-9.05-.27-13.75-.09-4.7-.14-9.55-.14-14.57V4.69c0-.82.39-1.62,1.16-2.39.77-.77,1.57-1.16,2.39-1.16l15.87.14c1,.09,2.19.14,3.56.14h16.97c2.64,0,4.93-.05,6.84-.14l5.06-.14c2.83-.09,5.36-.16,7.59-.21,2.23-.04,4.17-.07,5.81-.07,6.75,0,12.86,1.35,18.33,4.04,5.47,2.69,9.8,6.5,13,11.43,4.47,6.93,6.7,15.46,6.7,25.59,0,9.58-1.09,17.58-3.28,24.01s-5.57,11.65-10.13,15.67c-4.65,4.01-10.72,6.96-18.2,8.83-7.48,1.87-16.92,2.76-28.32,2.67Zm1.23-39.27l-.96,23.4c.46.09,1.18.14,2.19.14.55,0,1.16-.02,1.85-.07.68-.04,1.48-.11,2.39-.2.27-.09.52-.16.75-.21.23-.04.48-.11.75-.21.09-.09.25-.14.48-.14s.39-.04.48-.14c1.46-1.28,2.78-3.56,3.97-6.84,1.18-3.28,2.42-8.07,3.69-14.37.36-2.28.62-4.56.75-6.84.14-2.28.2-4.56.2-6.84v-2.6c0-2.64-.23-5.38-.68-8.21-.46-2.83-1.05-5.38-1.78-7.66-.73-2.28-1.5-3.88-2.33-4.79-1.46-1.28-2.74-1.92-3.83-1.92-1.19,0-2.24.09-3.15.27-.91.18-1.55.32-1.92.41-.09.09-.64.32-1.64.68l-.14,16.42c0,.73-.07,1.64-.21,2.74-.14,1.09-.25,2.37-.34,3.83l-.14,3.28c-.09,4.47-.23,7.75-.41,9.85Z"/>
      <path class="cls-2" d="m205.14,93.22c-.64,0-1.19-.02-1.64-.07-.46-.05-.91-.12-1.37-.21h-22.71c-.09,0-.23-.02-.41-.07-.18-.04-.41-.11-.68-.21h-4.1l-5.88-.14c-.37,0-.59.05-.68.14-.18.18-.55.27-1.09.27h-.41l-.14-.14c-.37,0-.55-.04-.55-.14-.27-.09-.55-.14-.82-.14h-.68c-.18-.73-.41-2.07-.68-4.04-.27-1.96-.91-4.77-1.92-8.41l-1.09-3.83h-7.66c-1.46,0-2.74-.04-3.83-.14-1.09-.09-2.24-.27-3.42-.55,0,.37-.05.78-.14,1.23-.09.46-.18,1.09-.27,1.92-.64,3.38-1.28,6.34-1.92,8.89-.64,2.55-1.19,4.2-1.64,4.93h-2.6c-1,0-2.19.05-3.56.14-1.37,0-2.24.09-2.6.27h-1.23c-.09,0-.14-.09-.14-.27-.09-.09-.23-.14-.41-.14-.73,0-1.23.05-1.51.14v.27h-18.2c-.37.09-.8.16-1.3.21-.5.04-1.12.07-1.85.07h-1.37c-.73,0-1.23-.23-1.5-.68-.64-.91-.96-1.92-.96-3.01,0-.64.04-1.09.14-1.37v-1.3c0-.41.05-.89.14-1.44.18-1,.41-1.73.68-2.19.27-1,.41-1.69.41-2.05.18-1.09,1.03-4.95,2.53-11.56,1.5-6.61,3.58-15.53,6.23-26.75,2.64-11.22,5.75-24.22,9.3-38.99,0-.09.11-.32.34-.68.23-.36.52-.64.89-.82h.55l.27.27c.45,0,.8-.09,1.03-.27.23-.18.48-.32.75-.41.73-.18,1.28-.27,1.64-.27.64,0,1.25.02,1.85.07.59.05,1.21.12,1.85.21.18,0,.41-.02.68-.07.27-.04.5.02.68.21.18.09.48.16.89.21.41.05.8.07,1.16.07,0-.18.23-.29.68-.34.46-.04.77-.07.96-.07.82-.09,1.78-.16,2.87-.21,1.09-.04,2.55-.07,4.38-.07h13c0,.09.41.14,1.23.14h1.16c.32,0,.66.05,1.03.14h6.84c.18.09.39.18.62.27.23.09.43.14.62.14.46,0,.93-.02,1.44-.07.5-.04.98-.11,1.44-.21.46-.09.93-.14,1.44-.14h1.03c1-.09,1.92-.16,2.74-.21.82-.04,1.69-.07,2.6-.07.55,0,1.09-.04,1.64-.14.55-.09,1.14.05,1.78.41.73.37,1.39.57,1.98.62.59.05,1.12.07,1.57.07.36,0,.55-.09.55-.27h.55c.27.09.55.34.82.75s.41.66.41.75c.91,3.47,1.96,7.64,3.15,12.52,1.18,4.88,2.44,10.1,3.76,15.67,1.32,5.57,2.67,11.22,4.04,16.97,1.37,5.75,2.69,11.24,3.97,16.49,1.28,5.25,2.37,9.97,3.28,14.16.18.91.29,1.55.34,1.92.04.37.11.78.21,1.23.09.64.34,1.69.75,3.15.41,1.46.62,2.56.62,3.28s-.18,1.14-.55,1.23c-.37,1.83-1.14,2.74-2.33,2.74h-1.64Zm-58.15-33.25c.55,0,.82-.09.82-.27h.82c.18-.09.5-.23.96-.41.46-.18,1-.27,1.64-.27h.14l.96.68h6.43l-.96-6.16-.55-2.6c-.18-1-.37-1.85-.55-2.53-.18-.68-.27-1.34-.27-1.98,0-.46-.14-1.66-.41-3.63-.27-1.96-.59-4.22-.96-6.77l-.55-3.83c-.27-.82-.48-1.59-.62-2.33-.14-.73-.25-1.41-.34-2.05l-.27-1.64v-.68c-.18-.18-.27-.41-.27-.68,0-.36-.05-.55-.14-.55v.55c0,.37-.18.82-.55,1.37v1.64c-.18.73-.32,1.46-.41,2.19-.09.73-.23,1.46-.41,2.19l-1.23,6.43c-.73,3.65-1.28,7.25-1.64,10.81-.37,3.56-.91,7.07-1.64,10.54Z"/>
      <path class="cls-2" d="m257.81,93.08l-38.99-.27c-1.55,0-2.55-1-3.01-3.01-.46-1.64-.68-3.47-.68-5.47,0-3.1-.02-6.34-.07-9.71-.05-3.37-.12-7.2-.21-11.49-.09-4.47-.18-9.05-.27-13.75-.09-4.7-.14-9.55-.14-14.57V4.69c0-.82.39-1.62,1.16-2.39s1.57-1.16,2.39-1.16l15.87.14c1,.09,2.19.14,3.56.14h16.97c2.64,0,4.93-.05,6.84-.14l5.06-.14c2.83-.09,5.36-.16,7.59-.21,2.23-.04,4.17-.07,5.82-.07,6.75,0,12.86,1.35,18.33,4.04,5.47,2.69,9.8,6.5,13,11.43,4.47,6.93,6.7,15.46,6.7,25.59,0,9.58-1.09,17.58-3.28,24.01s-5.57,11.65-10.13,15.67c-4.65,4.01-10.72,6.96-18.2,8.83-7.48,1.87-16.92,2.76-28.32,2.67Zm1.23-39.27l-.96,23.4c.46.09,1.18.14,2.19.14.55,0,1.16-.02,1.85-.07.68-.04,1.48-.11,2.39-.2.27-.09.52-.16.75-.21.23-.04.48-.11.75-.21.09-.09.25-.14.48-.14s.39-.04.48-.14c1.46-1.28,2.78-3.56,3.97-6.84,1.18-3.28,2.42-8.07,3.69-14.37.36-2.28.62-4.56.75-6.84.14-2.28.21-4.56.21-6.84v-2.6c0-2.64-.23-5.38-.68-8.21-.46-2.83-1.05-5.38-1.78-7.66-.73-2.28-1.51-3.88-2.33-4.79-1.46-1.28-2.74-1.92-3.83-1.92-1.19,0-2.24.09-3.15.27-.91.18-1.55.32-1.92.41-.09.09-.64.32-1.64.68l-.14,16.42c0,.73-.07,1.64-.21,2.74s-.25,2.37-.34,3.83l-.14,3.28c-.09,4.47-.23,7.75-.41,9.85Z"/>
    </g>
    <g>
      <path class="cls-1" d="m203.31,162.31c-9.98,0-18.84-1.1-26.59-3.28-7.75-2.19-13.59-6.21-17.53-12.08-2.45-3.68-4.29-7.97-5.51-12.87-1.23-4.9-1.84-10.55-1.84-16.94,0-16.46,3.94-28.76,11.82-36.9,4.11-4.2,9.72-7.29,16.81-9.26,7.09-1.97,15.14-2.96,24.16-2.96,4.73,0,9.65.61,14.77,1.84,5.12,1.23,9.94,3.09,14.45,5.58,4.51,2.5,8.21,5.67,11.1,9.52,2.71,3.5,4.7,7.57,5.97,12.21,1.27,4.64,1.9,9.41,1.9,14.31,0,6.74-.46,12.78-1.38,18.12-.92,5.34-2.39,9.89-4.4,13.66-3.77,6.92-9.35,11.82-16.74,14.71-7.4,2.89-16.39,4.33-26.99,4.33Zm.52-17.07c.87,0,1.64-.48,2.3-1.44.66-.96,1.6-2.01,2.82-3.15,1.14-1.14,2.01-2.91,2.63-5.32.61-2.41,1.05-5.14,1.31-8.21.26-3.06.39-6,.39-8.8v-7.35c0-1.84-.09-4.14-.26-6.89-.18-2.76-.57-5.49-1.18-8.21-.61-2.71-1.56-4.99-2.82-6.83-1.27-1.84-3-2.76-5.19-2.76-1.58,0-2.87.42-3.87,1.25-1.01.83-1.82,1.99-2.43,3.48-1.05,2.19-1.73,4.4-2.04,6.63-.31,2.23-.46,4.22-.46,5.97-.18,1.58-.29,3.26-.33,5.06-.04,1.8-.07,4.27-.07,7.42,0,2.19.02,4.14.07,5.84.04,1.71.15,3.31.33,4.79,0,1.58.24,3.55.72,5.91.48,2.36,1.07,4.68,1.77,6.96,1.22,3.77,3.33,5.65,6.3,5.65Z"/>
      <path class="cls-1" d="m308.24,162.31c-9.98,0-18.84-1.1-26.59-3.28-7.75-2.19-13.59-6.21-17.53-12.08-2.45-3.68-4.29-7.97-5.51-12.87-1.23-4.9-1.84-10.55-1.84-16.94,0-16.46,3.94-28.76,11.82-36.9,4.11-4.2,9.72-7.29,16.81-9.26,7.09-1.97,15.14-2.96,24.16-2.96,4.73,0,9.65.61,14.77,1.84,5.12,1.23,9.94,3.09,14.45,5.58,4.51,2.5,8.21,5.67,11.1,9.52,2.71,3.5,4.7,7.57,5.97,12.21,1.27,4.64,1.9,9.41,1.9,14.31,0,6.74-.46,12.78-1.38,18.12-.92,5.34-2.39,9.89-4.4,13.66-3.77,6.92-9.35,11.82-16.74,14.71-7.4,2.89-16.39,4.33-26.99,4.33Zm.52-17.07c.87,0,1.64-.48,2.3-1.44.66-.96,1.6-2.01,2.82-3.15,1.14-1.14,2.01-2.91,2.63-5.32.61-2.41,1.05-5.14,1.31-8.21.26-3.06.39-6,.39-8.8v-7.35c0-1.84-.09-4.14-.26-6.89-.18-2.76-.57-5.49-1.18-8.21-.61-2.71-1.56-4.99-2.82-6.83-1.27-1.84-3-2.76-5.19-2.76-1.58,0-2.87.42-3.87,1.25-1.01.83-1.82,1.99-2.43,3.48-1.05,2.19-1.73,4.4-2.04,6.63-.31,2.23-.46,4.22-.46,5.97-.18,1.58-.29,3.26-.33,5.06-.05,1.8-.07,4.27-.07,7.42,0,2.19.02,4.14.07,5.84.04,1.71.15,3.31.33,4.79,0,1.58.24,3.55.72,5.91.48,2.36,1.07,4.68,1.77,6.96,1.22,3.77,3.33,5.65,6.3,5.65Z"/>
    </g>
  </g>
</svg>