<?xml version="1.0" encoding="UTF-8"?>
<svg id="Calque_2" data-name="Calque 2" xmlns="http://www.w3.org/2000/svg" viewBox="0 0 1016.59 215.66">
  <defs>
    <style>
      .cls-1 {
        fill: #fff;
        stroke: #000;
        stroke-miterlimit: 10;
        stroke-width: 1.99px;
      }
    </style>
  </defs>
  <g id="Main_Background">
    <g>
      <path class="cls-1" d="m446.99,110.55l-45.05-.32c-1.79,0-2.95-1.16-3.48-3.48-.53-1.9-.79-4-.79-6.32,0-3.58-.03-7.32-.08-11.22-.05-3.9-.13-8.32-.24-13.28-.11-5.16-.21-10.46-.32-15.89-.11-5.43-.16-11.04-.16-16.83V8.43c0-.95.45-1.87,1.34-2.77.89-.89,1.82-1.34,2.77-1.34l18.34.16c1.16.11,2.53.16,4.11.16h19.6c3.06,0,5.69-.05,7.9-.16l5.85-.16c3.27-.1,6.19-.18,8.77-.24,2.58-.05,4.82-.08,6.72-.08,7.8,0,14.86,1.56,21.18,4.66,6.32,3.11,11.33,7.51,15.02,13.2,5.16,8.01,7.75,17.86,7.75,29.56,0,11.07-1.26,20.31-3.79,27.74s-6.43,13.46-11.7,18.1c-5.37,4.64-12.38,8.04-21.02,10.2-8.64,2.16-19.55,3.19-32.72,3.08Zm1.42-45.37l-1.11,27.03c.53.11,1.37.16,2.53.16.63,0,1.34-.02,2.13-.08.79-.05,1.71-.13,2.77-.24.32-.1.6-.18.87-.24.26-.05.55-.13.87-.24.1-.1.29-.16.55-.16s.45-.05.55-.16c1.68-1.47,3.21-4.11,4.58-7.9,1.37-3.79,2.79-9.33,4.27-16.6.42-2.63.71-5.27.87-7.9.16-2.63.24-5.27.24-7.9v-3c0-3.06-.26-6.22-.79-9.48-.53-3.27-1.21-6.22-2.06-8.85-.84-2.63-1.74-4.48-2.69-5.53-1.69-1.47-3.16-2.21-4.43-2.21-1.37,0-2.58.11-3.64.32-1.05.21-1.79.37-2.21.47-.11.11-.74.37-1.9.79l-.16,18.97c0,.84-.08,1.9-.24,3.16-.16,1.26-.29,2.74-.4,4.43l-.16,3.79c-.11,5.17-.26,8.96-.47,11.38Z"/>
      <path class="cls-1" d="m632.89,110.7c-.74,0-1.37-.03-1.9-.08-.53-.05-1.05-.13-1.58-.24h-26.24c-.11,0-.26-.02-.47-.08-.21-.05-.47-.13-.79-.24h-4.74l-6.8-.16c-.42,0-.69.05-.79.16-.21.21-.63.32-1.26.32h-.47l-.16-.16c-.42,0-.63-.05-.63-.16-.32-.1-.63-.16-.95-.16h-.79c-.21-.84-.47-2.4-.79-4.66-.32-2.26-1.05-5.51-2.21-9.72l-1.26-4.43h-8.85c-1.69,0-3.16-.05-4.43-.16-1.26-.1-2.58-.32-3.95-.63,0,.42-.05.9-.16,1.42-.11.53-.21,1.26-.32,2.21-.74,3.9-1.48,7.33-2.21,10.28-.74,2.95-1.37,4.85-1.9,5.69h-3c-1.16,0-2.53.05-4.11.16-1.58,0-2.58.11-3,.32h-1.42c-.11,0-.16-.1-.16-.32-.11-.1-.26-.16-.47-.16-.84,0-1.42.05-1.74.16v.32h-21.02c-.42.1-.92.18-1.5.24-.58.05-1.29.08-2.13.08h-1.58c-.84,0-1.42-.26-1.74-.79-.74-1.05-1.11-2.21-1.11-3.48,0-.74.05-1.26.16-1.58v-1.5c0-.47.05-1.03.16-1.66.21-1.16.47-2,.79-2.53.32-1.16.47-1.95.47-2.37.21-1.26,1.19-5.72,2.92-13.36,1.74-7.64,4.13-17.94,7.19-30.91,3.06-12.96,6.64-27.98,10.75-45.05,0-.1.13-.37.4-.79.26-.42.61-.74,1.03-.95h.63l.32.32c.53,0,.92-.1,1.19-.32.26-.21.55-.37.87-.47.84-.21,1.47-.32,1.9-.32.74,0,1.45.03,2.13.08.68.05,1.4.13,2.13.24.21,0,.47-.02.79-.08.32-.05.58.03.79.24.21.11.55.19,1.03.24.47.05.92.08,1.34.08,0-.21.26-.34.79-.4.53-.05.89-.08,1.11-.08.95-.1,2.06-.18,3.32-.24,1.26-.05,2.95-.08,5.06-.08h15.02c0,.11.47.16,1.42.16h1.34c.37,0,.76.05,1.19.16h7.9c.21.11.45.21.71.32.26.11.5.16.71.16.53,0,1.08-.03,1.66-.08.58-.05,1.13-.13,1.66-.24.53-.1,1.08-.16,1.66-.16h1.19c1.16-.1,2.21-.18,3.16-.24.95-.05,1.95-.08,3-.08.63,0,1.26-.05,1.9-.16.63-.1,1.32.05,2.05.47.84.42,1.61.66,2.29.71.68.05,1.29.08,1.82.08.42,0,.63-.1.63-.32h.63c.32.11.63.39.95.87s.47.77.47.87c1.05,4.01,2.27,8.83,3.64,14.46,1.37,5.64,2.82,11.67,4.35,18.1,1.53,6.43,3.08,12.96,4.66,19.6,1.58,6.64,3.11,12.99,4.58,19.05,1.47,6.06,2.74,11.52,3.79,16.36.21,1.05.34,1.79.39,2.21.05.42.13.9.24,1.42.1.74.4,1.95.87,3.64.47,1.69.71,2.95.71,3.79s-.21,1.32-.63,1.42c-.42,2.11-1.32,3.16-2.69,3.16h-1.9Zm-67.18-38.41c.63,0,.95-.1.95-.32h.95c.21-.1.58-.26,1.11-.47.53-.21,1.16-.32,1.9-.32h.16l1.11.79h7.43l-1.11-7.11-.63-3c-.21-1.16-.42-2.13-.63-2.92-.21-.79-.32-1.55-.32-2.29,0-.53-.16-1.92-.47-4.19-.32-2.26-.69-4.87-1.11-7.82l-.63-4.43c-.32-.95-.55-1.84-.71-2.69-.16-.84-.29-1.63-.39-2.37l-.32-1.9v-.79c-.21-.21-.32-.47-.32-.79,0-.42-.05-.63-.16-.63v.63c0,.42-.21.95-.63,1.58v1.9c-.21.84-.37,1.69-.47,2.53-.11.84-.26,1.69-.47,2.53l-1.42,7.43c-.84,4.22-1.48,8.38-1.9,12.49-.42,4.11-1.05,8.17-1.9,12.17Z"/>
      <path class="cls-1" d="m693.75,110.55l-45.05-.32c-1.79,0-2.95-1.16-3.48-3.48-.53-1.9-.79-4-.79-6.32,0-3.58-.03-7.32-.08-11.22-.05-3.9-.13-8.32-.24-13.28-.11-5.16-.21-10.46-.32-15.89-.11-5.43-.16-11.04-.16-16.83V8.43c0-.95.45-1.87,1.34-2.77s1.82-1.34,2.77-1.34l18.34.16c1.16.11,2.53.16,4.11.16h19.6c3.06,0,5.69-.05,7.9-.16l5.85-.16c3.27-.1,6.19-.18,8.77-.24,2.58-.05,4.82-.08,6.72-.08,7.8,0,14.86,1.56,21.18,4.66,6.32,3.11,11.33,7.51,15.02,13.2,5.16,8.01,7.75,17.86,7.75,29.56,0,11.07-1.26,20.31-3.79,27.74s-6.43,13.46-11.7,18.1c-5.38,4.64-12.38,8.04-21.02,10.2-8.64,2.16-19.55,3.19-32.72,3.08Zm1.42-45.37l-1.11,27.03c.53.11,1.37.16,2.53.16.63,0,1.34-.02,2.13-.08.79-.05,1.71-.13,2.77-.24.32-.1.61-.18.87-.24.26-.05.55-.13.87-.24.1-.1.29-.16.55-.16s.45-.05.55-.16c1.68-1.47,3.21-4.11,4.58-7.9,1.37-3.79,2.79-9.33,4.27-16.6.42-2.63.71-5.27.87-7.9.16-2.63.24-5.27.24-7.9v-3c0-3.06-.26-6.22-.79-9.48-.53-3.27-1.21-6.22-2.05-8.85-.84-2.63-1.74-4.48-2.69-5.53-1.69-1.47-3.16-2.21-4.43-2.21-1.37,0-2.58.11-3.64.32-1.05.21-1.79.37-2.21.47-.11.11-.74.37-1.9.79l-.16,18.97c0,.84-.08,1.9-.24,3.16s-.29,2.74-.4,4.43l-.16,3.79c-.11,5.17-.26,8.96-.47,11.38Z"/>
      <path class="cls-1" d="m829.7,114.5c-12.01,0-22.68-1.32-32.01-3.95-9.33-2.63-16.36-7.48-21.1-14.54-2.95-4.43-5.16-9.59-6.64-15.49-1.48-5.9-2.21-12.7-2.21-20.39,0-19.81,4.74-34.62,14.23-44.42,4.95-5.06,11.7-8.77,20.23-11.14s18.23-3.56,29.09-3.56c5.69,0,11.62.74,17.78,2.21,6.17,1.48,11.96,3.71,17.39,6.72,5.43,3,9.88,6.83,13.36,11.46,3.27,4.22,5.66,9.12,7.19,14.7,1.53,5.59,2.29,11.33,2.29,17.23,0,8.12-.55,15.39-1.66,21.81-1.11,6.43-2.87,11.91-5.3,16.44-4.53,8.33-11.25,14.23-20.16,17.71-8.91,3.48-19.74,5.22-32.49,5.22Zm.63-20.55c1.05,0,1.98-.58,2.77-1.74.79-1.16,1.92-2.42,3.4-3.79,1.37-1.37,2.42-3.5,3.16-6.4.74-2.9,1.26-6.19,1.58-9.88.32-3.69.47-7.22.47-10.59v-8.85c0-2.21-.11-4.98-.32-8.3-.21-3.32-.69-6.61-1.42-9.88-.74-3.27-1.87-6.01-3.4-8.22-1.53-2.21-3.61-3.32-6.24-3.32-1.9,0-3.45.5-4.66,1.5-1.21,1-2.19,2.4-2.92,4.19-1.26,2.64-2.08,5.3-2.45,7.98-.37,2.69-.55,5.09-.55,7.19-.21,1.9-.34,3.93-.4,6.09-.05,2.16-.08,5.14-.08,8.93,0,2.64.03,4.98.08,7.04.05,2.05.18,3.98.4,5.77,0,1.9.29,4.27.87,7.11.58,2.85,1.29,5.64,2.13,8.38,1.47,4.53,4,6.8,7.59,6.8Z"/>
      <path class="cls-1" d="m956,114.5c-12.01,0-22.68-1.32-32.01-3.95-9.33-2.63-16.36-7.48-21.1-14.54-2.95-4.43-5.16-9.59-6.64-15.49-1.48-5.9-2.21-12.7-2.21-20.39,0-19.81,4.74-34.62,14.23-44.42,4.95-5.06,11.7-8.77,20.23-11.14s18.23-3.56,29.09-3.56c5.69,0,11.62.74,17.78,2.21,6.17,1.48,11.96,3.71,17.39,6.72,5.43,3,9.88,6.83,13.36,11.46,3.27,4.22,5.66,9.12,7.19,14.7,1.53,5.59,2.29,11.33,2.29,17.23,0,8.12-.55,15.39-1.66,21.81-1.11,6.43-2.87,11.91-5.3,16.44-4.53,8.33-11.25,14.23-20.16,17.71-8.91,3.48-19.74,5.22-32.49,5.22Zm.63-20.55c1.05,0,1.98-.58,2.77-1.74.79-1.16,1.92-2.42,3.4-3.79,1.37-1.37,2.42-3.5,3.16-6.4.74-2.9,1.26-6.19,1.58-9.88.32-3.69.47-7.22.47-10.59v-8.85c0-2.21-.11-4.98-.32-8.3-.21-3.32-.69-6.61-1.42-9.88-.74-3.27-1.87-6.01-3.4-8.22-1.53-2.21-3.61-3.32-6.24-3.32-1.9,0-3.45.5-4.66,1.5-1.21,1-2.19,2.4-2.92,4.19-1.26,2.64-2.08,5.3-2.45,7.98-.37,2.69-.55,5.09-.55,7.19-.21,1.9-.34,3.93-.4,6.09-.05,2.16-.08,5.14-.08,8.93,0,2.64.03,4.98.08,7.04.05,2.05.18,3.98.4,5.77,0,1.9.29,4.27.87,7.11.58,2.85,1.29,5.64,2.13,8.38,1.47,4.53,4,6.8,7.59,6.8Z"/>
    </g>
    <g>
      <path class="cls-1" d="m51.11,210.71l-45.05-.32c-1.79,0-2.95-1.16-3.48-3.48-.53-1.9-.79-4-.79-6.32,0-3.58-.03-7.32-.08-11.22-.05-3.9-.13-8.32-.24-13.28-.11-5.16-.21-10.46-.32-15.89-.11-5.43-.16-11.04-.16-16.83v-34.78c0-.95.45-1.87,1.34-2.77.89-.89,1.82-1.34,2.77-1.34l18.34.16c1.16.11,2.53.16,4.11.16h19.6c3.06,0,5.69-.05,7.9-.16l5.85-.16c3.27-.1,6.19-.18,8.77-.24,2.58-.05,4.82-.08,6.72-.08,7.8,0,14.86,1.56,21.18,4.66,6.32,3.11,11.33,7.51,15.02,13.2,5.16,8.01,7.75,17.86,7.75,29.56,0,11.07-1.26,20.31-3.79,27.74s-6.43,13.46-11.7,18.1c-5.37,4.64-12.38,8.04-21.02,10.2-8.64,2.16-19.55,3.19-32.72,3.08Zm1.42-45.37l-1.11,27.03c.53.11,1.37.16,2.53.16.63,0,1.34-.02,2.13-.08.79-.05,1.71-.13,2.77-.24.32-.1.6-.18.87-.24.26-.05.55-.13.87-.24.1-.1.29-.16.55-.16s.45-.05.55-.16c1.68-1.47,3.21-4.11,4.58-7.9,1.37-3.79,2.79-9.33,4.27-16.6.42-2.63.71-5.27.87-7.9.16-2.63.24-5.27.24-7.9v-3c0-3.06-.26-6.22-.79-9.48-.53-3.27-1.21-6.22-2.06-8.85-.84-2.63-1.74-4.48-2.69-5.53-1.69-1.47-3.16-2.21-4.43-2.21-1.37,0-2.58.11-3.64.32-1.05.21-1.79.37-2.21.47-.11.11-.74.37-1.9.79l-.16,18.97c0,.84-.08,1.9-.24,3.16-.16,1.26-.29,2.74-.4,4.43l-.16,3.79c-.11,5.17-.26,8.96-.47,11.38Z"/>
      <path class="cls-1" d="m237.01,210.87c-.74,0-1.37-.03-1.9-.08-.53-.05-1.05-.13-1.58-.24h-26.24c-.11,0-.26-.02-.47-.08-.21-.05-.47-.13-.79-.24h-4.74l-6.8-.16c-.42,0-.69.05-.79.16-.21.21-.63.32-1.26.32h-.47l-.16-.16c-.42,0-.63-.05-.63-.16-.32-.1-.63-.16-.95-.16h-.79c-.21-.84-.47-2.4-.79-4.66-.32-2.26-1.05-5.51-2.21-9.72l-1.26-4.43h-8.85c-1.69,0-3.16-.05-4.43-.16-1.26-.1-2.58-.32-3.95-.63,0,.42-.05.9-.16,1.42-.11.53-.21,1.26-.32,2.21-.74,3.9-1.48,7.33-2.21,10.28-.74,2.95-1.37,4.85-1.9,5.69h-3c-1.16,0-2.53.05-4.11.16-1.58,0-2.58.11-3,.32h-1.42c-.11,0-.16-.1-.16-.32-.11-.1-.26-.16-.47-.16-.84,0-1.42.05-1.74.16v.32h-21.02c-.42.1-.92.18-1.5.24-.58.05-1.29.08-2.13.08h-1.58c-.84,0-1.42-.26-1.74-.79-.74-1.05-1.11-2.21-1.11-3.48,0-.74.05-1.26.16-1.58v-1.5c0-.47.05-1.03.16-1.66.21-1.16.47-2,.79-2.53.32-1.16.47-1.95.47-2.37.21-1.26,1.19-5.72,2.92-13.36,1.74-7.64,4.13-17.94,7.19-30.91,3.06-12.96,6.64-27.98,10.75-45.05,0-.1.13-.37.4-.79.26-.42.61-.74,1.03-.95h.63l.32.32c.53,0,.92-.1,1.19-.32.26-.21.55-.37.87-.47.84-.21,1.47-.32,1.9-.32.74,0,1.45.03,2.13.08.68.05,1.4.13,2.13.24.21,0,.47-.02.79-.08.32-.05.58.03.79.24.21.11.55.19,1.03.24.47.05.92.08,1.34.08,0-.21.26-.34.79-.4.53-.05.89-.08,1.11-.08.95-.1,2.06-.18,3.32-.24,1.26-.05,2.95-.08,5.06-.08h15.02c0,.11.47.16,1.42.16h1.34c.37,0,.76.05,1.19.16h7.9c.21.11.45.21.71.32.26.11.5.16.71.16.53,0,1.08-.03,1.66-.08.58-.05,1.13-.13,1.66-.24.53-.1,1.08-.16,1.66-.16h1.19c1.16-.1,2.21-.18,3.16-.24.95-.05,1.95-.08,3-.08.63,0,1.26-.05,1.9-.16.63-.1,1.32.05,2.05.47.84.42,1.61.66,2.29.71.68.05,1.29.08,1.82.08.42,0,.63-.1.63-.32h.63c.32.11.63.39.95.87s.47.77.47.87c1.05,4.01,2.27,8.83,3.64,14.46,1.37,5.64,2.82,11.67,4.35,18.1,1.53,6.43,3.08,12.96,4.66,19.6,1.58,6.64,3.11,12.99,4.58,19.05,1.47,6.06,2.74,11.52,3.79,16.36.21,1.05.34,1.79.39,2.21.05.42.13.9.24,1.42.1.74.4,1.95.87,3.64.47,1.69.71,2.95.71,3.79s-.21,1.32-.63,1.42c-.42,2.11-1.32,3.16-2.69,3.16h-1.9Zm-67.18-38.41c.63,0,.95-.1.95-.32h.95c.21-.1.58-.26,1.11-.47.53-.21,1.16-.32,1.9-.32h.16l1.11.79h7.43l-1.11-7.11-.63-3c-.21-1.16-.42-2.13-.63-2.92-.21-.79-.32-1.55-.32-2.29,0-.53-.16-1.92-.47-4.19-.32-2.26-.69-4.87-1.11-7.82l-.63-4.43c-.32-.95-.55-1.84-.71-2.69-.16-.84-.29-1.63-.39-2.37l-.32-1.9v-.79c-.21-.21-.32-.47-.32-.79,0-.42-.05-.63-.16-.63v.63c0,.42-.21.95-.63,1.58v1.9c-.21.84-.37,1.69-.47,2.53-.11.84-.26,1.69-.47,2.53l-1.42,7.43c-.84,4.22-1.48,8.38-1.9,12.49-.42,4.11-1.05,8.17-1.9,12.17Z"/>
      <path class="cls-1" d="m297.87,210.71l-45.05-.32c-1.79,0-2.95-1.16-3.48-3.48-.53-1.9-.79-4-.79-6.32,0-3.58-.03-7.32-.08-11.22-.05-3.9-.13-8.32-.24-13.28-.11-5.16-.21-10.46-.32-15.89-.11-5.43-.16-11.04-.16-16.83v-34.78c0-.95.45-1.87,1.34-2.77s1.82-1.34,2.77-1.34l18.34.16c1.16.11,2.53.16,4.11.16h19.6c3.06,0,5.69-.05,7.9-.16l5.85-.16c3.27-.1,6.19-.18,8.77-.24,2.58-.05,4.82-.08,6.72-.08,7.8,0,14.86,1.56,21.18,4.66,6.32,3.11,11.33,7.51,15.02,13.2,5.16,8.01,7.75,17.86,7.75,29.56,0,11.07-1.26,20.31-3.79,27.74s-6.43,13.46-11.7,18.1c-5.38,4.64-12.38,8.04-21.02,10.2-8.64,2.16-19.55,3.19-32.72,3.08Zm1.42-45.37l-1.11,27.03c.53.11,1.37.16,2.53.16.63,0,1.34-.02,2.13-.08.79-.05,1.71-.13,2.77-.24.32-.1.61-.18.87-.24.26-.05.55-.13.87-.24.1-.1.29-.16.55-.16s.45-.05.55-.16c1.68-1.47,3.21-4.11,4.58-7.9,1.37-3.79,2.79-9.33,4.27-16.6.42-2.63.71-5.27.87-7.9.16-2.63.24-5.27.24-7.9v-3c0-3.06-.26-6.22-.79-9.48-.53-3.27-1.21-6.22-2.05-8.85-.84-2.63-1.74-4.48-2.69-5.53-1.69-1.47-3.16-2.21-4.43-2.21-1.37,0-2.58.11-3.64.32-1.05.21-1.79.37-2.21.47-.11.11-.74.37-1.9.79l-.16,18.97c0,.84-.08,1.9-.24,3.16s-.29,2.74-.4,4.43l-.16,3.79c-.11,5.17-.26,8.96-.47,11.38Z"/>
      <path class="cls-1" d="m433.82,214.66c-12.01,0-22.68-1.32-32.01-3.95-9.33-2.63-16.36-7.48-21.1-14.54-2.95-4.43-5.16-9.59-6.64-15.49-1.48-5.9-2.21-12.7-2.21-20.39,0-19.81,4.74-34.62,14.23-44.42,4.95-5.06,11.7-8.77,20.23-11.14s18.23-3.56,29.09-3.56c5.69,0,11.62.74,17.78,2.21,6.17,1.48,11.96,3.71,17.39,6.72,5.43,3,9.88,6.83,13.36,11.46,3.27,4.22,5.66,9.12,7.19,14.7,1.53,5.59,2.29,11.33,2.29,17.23,0,8.12-.55,15.39-1.66,21.81-1.11,6.43-2.87,11.91-5.3,16.44-4.53,8.33-11.25,14.23-20.16,17.71-8.91,3.48-19.74,5.22-32.49,5.22Zm.63-20.55c1.05,0,1.98-.58,2.77-1.74.79-1.16,1.92-2.42,3.4-3.79,1.37-1.37,2.42-3.5,3.16-6.4.74-2.9,1.26-6.19,1.58-9.88.32-3.69.47-7.22.47-10.59v-8.85c0-2.21-.11-4.98-.32-8.3-.21-3.32-.69-6.61-1.42-9.88-.74-3.27-1.87-6.01-3.4-8.22-1.53-2.21-3.61-3.32-6.24-3.32-1.9,0-3.45.5-4.66,1.5-1.21,1-2.19,2.4-2.92,4.19-1.26,2.64-2.08,5.3-2.45,7.98-.37,2.69-.55,5.09-.55,7.19-.21,1.9-.34,3.93-.4,6.09-.05,2.16-.08,5.14-.08,8.93,0,2.64.03,4.98.08,7.04.05,2.05.18,3.98.4,5.77,0,1.9.29,4.27.87,7.11.58,2.85,1.29,5.64,2.13,8.38,1.47,4.53,4,6.8,7.59,6.8Z"/>
      <path class="cls-1" d="m560.12,214.66c-12.01,0-22.69-1.32-32.01-3.95-9.33-2.63-16.36-7.48-21.1-14.54-2.95-4.43-5.16-9.59-6.64-15.49-1.48-5.9-2.21-12.7-2.21-20.39,0-19.81,4.74-34.62,14.23-44.42,4.95-5.06,11.7-8.77,20.23-11.14s18.23-3.56,29.09-3.56c5.69,0,11.62.74,17.78,2.21,6.17,1.48,11.96,3.71,17.39,6.72,5.43,3,9.88,6.83,13.36,11.46,3.27,4.22,5.66,9.12,7.19,14.7,1.53,5.59,2.29,11.33,2.29,17.23,0,8.12-.55,15.39-1.66,21.81-1.11,6.43-2.87,11.91-5.3,16.44-4.53,8.33-11.25,14.23-20.16,17.71-8.91,3.48-19.74,5.22-32.49,5.22Zm.63-20.55c1.05,0,1.98-.58,2.77-1.74.79-1.16,1.92-2.42,3.4-3.79,1.37-1.37,2.42-3.5,3.16-6.4.74-2.9,1.26-6.19,1.58-9.88.32-3.69.47-7.22.47-10.59v-8.85c0-2.21-.11-4.98-.32-8.3-.21-3.32-.69-6.61-1.42-9.88-.74-3.27-1.87-6.01-3.4-8.22-1.53-2.21-3.61-3.32-6.24-3.32-1.9,0-3.45.5-4.66,1.5-1.21,1-2.19,2.4-2.92,4.19-1.26,2.64-2.08,5.3-2.45,7.98-.37,2.69-.55,5.09-.55,7.19-.21,1.9-.34,3.93-.4,6.09-.05,2.16-.08,5.14-.08,8.93,0,2.64.03,4.98.08,7.04.05,2.05.18,3.98.4,5.77,0,1.9.29,4.27.87,7.11.58,2.85,1.29,5.64,2.13,8.38,1.47,4.53,4,6.8,7.59,6.8Z"/>
    </g>
  </g>
</svg>