<?xml version="1.0" encoding="UTF-8"?>
<svg id="Calque_2" data-name="Calque 2" xmlns="http://www.w3.org/2000/svg" viewBox="0 0 348.53 226.27">
  <defs>
    <style>
      .cls-1 {
        fill: #ff84c0;
      }
    </style>
  </defs>
  <g id="Calque_1-2" data-name="Calque 1">
    <g>
      <g>
        <path class="cls-1" d="m23.42,62.73c-3.89,0-7.54-.46-10.96-1.39-3.42-.93-6.41-2.23-8.96-3.92-.29-1.39-.57-2.75-.83-4.09-.26-1.33-.52-2.87-.78-4.61-.26-1.74-.57-3.89-.91-6.44v-.26c.12-.52.52-1.01,1.22-1.48,2.03,1.33,3.89,2.32,5.57,2.96,1.68.64,3.07.96,4.18.96h2.61l1.48.09c1.33,0,2.58-.2,3.74-.61,1.51-.58,2.36-1.33,2.57-2.26.2-.93-.16-1.8-1.09-2.61-.93-.81-2.35-1.33-4.26-1.57-2.67-.35-5.22-1.36-7.66-3.04-2.44-1.68-4.42-3.8-5.96-6.35-1.54-2.55-2.31-5.28-2.31-8.18,0-5.16,1.42-9.18,4.26-12.05,2.84-2.87,6.47-4.94,10.88-6.22,3.89-1.1,8.18-1.65,12.88-1.65,1.33,0,2.81.07,4.44.22,1.62.15,3.65.39,6.09.74.52.29,1.3.46,2.35.52l2.26.52c.99.23,1.81.36,2.48.39.67.03,1.2.04,1.61.04.06,0,.1.01.13.04.03.03.07.04.13.04.12.06.23.15.35.26.12.29.23.48.35.57.12.09.2.13.26.13h.17l.17,1.91c0,.52.03,1,.09,1.44.06.43.12.86.17,1.26.12.75.2,1.52.26,2.31.06.78.09,1.58.09,2.39,0,2.84-.58,4.7-1.74,5.57l-7.57-.96h-1.22c-.41,0-1.16-.03-2.26-.09-1.1-.06-2.28-.07-3.52-.04-1.25.03-2.32.17-3.22.44-.9.26-1.35.68-1.35,1.26,0,.7.22,1.38.65,2.04.44.67,1.12,1.23,2.04,1.7.41.23.78.46,1.13.7.35.23.72.41,1.13.52.46.12.84.23,1.13.35.29.12.46.2.52.26,2.03.7,3.9,1.55,5.61,2.57,1.71,1.02,3.35,2.31,4.92,3.87,1.68,1.62,2.81,3.55,3.39,5.79.58,2.23.81,4.42.7,6.57-.52,4.35-2.06,8.09-4.61,11.22-1.45,1.45-3.02,2.68-4.7,3.7-1.68,1.02-3.51,1.87-5.48,2.57-3.48,1.28-7.69,1.91-12.61,1.91Z"/>
        <path class="cls-1" d="m69.79,60.64c-.64,0-1.25-.55-1.83-1.65-.87-1.91-1.31-5.34-1.31-10.27,0-2.38.01-5.23.04-8.57.03-3.33.1-6.54.22-9.61.06-.99.09-2.28.09-3.87v-5.79h-12.18c-1.51,0-2.44-1.57-2.78-4.7-.06-.81-.13-1.83-.22-3.04-.09-1.22-.13-2.64-.13-4.26v-1.96c0-.2.03-.39.09-.57v-2.09c0-.35.17-.64.52-.87.35-.23.72-.41,1.13-.52.64-.17,1.51-.26,2.61-.26h8.96c.75,0,1.39.01,1.91.04.52.03.99.04,1.39.04l3.05.09h33.23c.7,0,1.22.03,1.57.09h.52c.23,0,.46.03.7.09.52.06.97.17,1.35.35.38.17.57.38.57.61v15.4c0,.75-.2,1.2-.61,1.35-.41.15-.87.22-1.39.22h-11.92v5.79c0,.38-.03.65-.09.83,0,.81-.03,2.13-.09,3.96-.06,1.83-.15,4.13-.26,6.92l-.09,2.61c-.06,1.1-.13,2.39-.22,3.87-.09,1.48-.16,2.48-.22,3v8.18c0,1.97-.41,3.19-1.22,3.65-.41.12-.73.2-.96.26-.23.06-.44.12-.61.17l-2,.09c-1.1.06-2.06.1-2.87.13-.81.03-1.45.04-1.91.04l-8.96.17c-.52,0-1.29.01-2.31.04-1.02.03-2.28.04-3.78.04Z"/>
        <path class="cls-1" d="m159.05,63.6c-.35,0-.58-.03-.7-.09-.81-.52-1.48-1.1-2-1.74-.12-.12-.19-.22-.22-.3-.03-.09-.07-.13-.13-.13-.12-.12-.2-.17-.26-.17h-.09l-.44-.35-8.53-11.4c-.12-.41-.3-.8-.57-1.17-.26-.38-.54-.77-.83-1.17-.23-.17-.44-.36-.61-.57-.17-.2-.32-.42-.44-.65-.23-.35-.46-.52-.7-.52s-.41.32-.52.96c-.12.75-.19,1.91-.22,3.48-.03,1.57-.04,3.02-.04,4.35,0,2.32-.15,4.29-.44,5.92-.06.7-.29,1.04-.7,1.04h-.61l-.26-.17h-.09c-1.33.12-3.13.25-5.39.39-2.26.14-4.51.27-6.74.39-2.23.12-4.02.17-5.35.17-.29,0-.55-.01-.78-.04-.23-.03-.44-.07-.61-.13h-4.09l-2.96-1.04-.26-.61v-.35c-.06-.12-.09-.35-.09-.7,0-.12-.03-.33-.09-.65-.06-.32-.12-.71-.17-1.17-.17-1.68-.28-3.15-.3-4.39-.03-1.25-.01-1.67.04-1.26-.06-.75-.15-1.77-.26-3.04-.12-1.27-.23-2.81-.35-4.61l-.17-3.04c0-2.03-.09-3.6-.26-4.7l-.26-1.83c-.17-1.16-.25-2.26-.22-3.31.03-1.04.04-2.06.04-3.04,0-.12.03-.2.09-.26v-.78c.06-.23.09-.75.09-1.57l.17-1.48.09-.96c0-1.16-.09-2.9-.26-5.22-.17-1.39-.26-3.16-.26-5.31,0-1.51.04-2.84.13-4,.09-1.16.25-2.09.48-2.78.4-2.03,1.25-3.04,2.52-3.04,3.13,0,6.31.04,9.53.13,3.22.09,6.42.13,9.61.13.75,0,1.67.01,2.74.04,1.07.03,2.33.07,3.78.13l3.22.09,11.83.17c7.13.23,12.58,2.03,16.36,5.39,1.68,1.39,2.93,3.08,3.74,5.05.81,1.97,1.22,4.06,1.22,6.26,0,2.5-.42,4.74-1.26,6.74-.84,2-2.02,3.73-3.52,5.18-1.45,1.33-3.04,2.41-4.78,3.22.23.06.49.3.78.74.29.43.49.88.61,1.35.12.23.27.39.48.48.2.09.42.28.65.57l1.13,1.39.61.61c.17.17.3.33.39.48.09.15.19.3.3.48l2.7,4c.81,1.16,1.52,2.13,2.13,2.91.61.78,1.03,1.47,1.26,2.04.41.75.61,1.3.61,1.65,0,.99-.87,2.06-2.61,3.22-.41.23-.78.46-1.13.7-.35.23-.75.46-1.22.7-.93.41-1.6.81-2,1.22l-2.96,2.09c-.58.4-1.16.71-1.74.91-.58.2-1.19.39-1.83.57-.12,0-.17.03-.17.09s-.04.07-.13.04c-.09-.03-.19.01-.3.13-.17.17-1.07.49-2.7.96-.29.17-.78.32-1.48.44-.41.29-.78.43-1.13.43h-.35c-.12.23-.2.35-.26.35h-.52Zm-16.44-30.36h1.22c1.74,0,2.96-.83,3.65-2.48.7-1.65,1.1-3.46,1.22-5.44.06-.64.1-1.3.13-2,.03-.7.04-1.45.04-2.26v-.87c0-1.33-.09-2.78-.26-4.35-.17-1.57-.93-2.75-2.26-3.57-.75-.52-1.6-.78-2.52-.78-.29,0-.49.35-.61,1.04-.46,1.22-.75,3.19-.87,5.92-.06.52-.12,1.1-.17,1.74-.06.64-.12,1.33-.17,2.09l-.09,2.52c-.06,1.62-.09,3.12-.09,4.48v3.61c0,.17.06.26.17.26l.61.09Z"/>
        <path class="cls-1" d="m203.5,60.12h-13.75c-.64,0-1.07-.03-1.31-.09-.29-.06-.61-.1-.96-.13s-.73-.07-1.13-.13l-1.83-.44c-.29,0-.52-.09-.7-.26v-.17c0-1.51-.09-3.48-.26-5.92,0-.93-.04-1.71-.13-2.35-.09-.64-.16-1.22-.22-1.74l-.17-3.65c-.06-.52-.07-1.1-.04-1.74.03-.64.01-1.36-.04-2.17l-.17-2.61c-.06-1.1-.07-2.09-.04-2.96.03-.87.01-1.59-.04-2.17,0-.29-.01-.65-.04-1.09-.03-.44-.04-1.16-.04-2.18v-4.48c0-5.51.04-9.96.13-13.35.09-3.39.25-6.36.48-8.92,0-.58.72-1.1,2.17-1.57.58-.06,1.26-.1,2.04-.13s1.52-.04,2.22-.04c2.38,0,4.42-.01,6.13-.04,1.71-.03,3.12-.1,4.22-.22,3.42-.06,6.41-.1,8.96-.13,2.55-.03,4.73-.04,6.53-.04h3.83c2.44,0,4.55.06,6.35.17,1.8.12,3.33.23,4.61.35.87,0,1.54,1.07,2,3.22.12.23.2.58.26,1.04.06.46.17,1.19.35,2.17.12,1.28.23,2.26.35,2.96.12.7.23,1.36.35,2,.06.12.09.43.09.96-.06.06-.09.29-.09.7-.06.52-.38.78-.96.78-.12-.06-.43-.09-.96-.09-1.28,0-2.65.07-4.13.22-1.48.15-3.15.28-5,.39l-4.52.35-4.52.44c-.17,0-.41.32-.7.96-.17.41-.35.68-.52.83-.17.15-.29.48-.35,1l-.17,2.96c-.06.75.03,1.25.26,1.48.23.23.67.35,1.3.35h7.74c2.2,0,4.79.17,7.74.52h.87c1.1,0,1.77.64,2,1.91l.17,8.61v.26c0,1.04-.99,1.62-2.96,1.74-.52.17-1.31.29-2.35.35-1.04.06-2.64.09-4.79.09h-4.22c-.67,0-1.15-.03-1.44-.09h-2.35c-.35,0-.58.03-.7.09-.58.12-.97.25-1.17.39-.2.15-.3.52-.3,1.13s-.03,1.73-.09,3.35c-.06.23-.1.54-.13.91-.03.38-.04,1.21-.04,2.48,3.48,0,6.21-.03,8.18-.09,1.97-.06,3.51-.12,4.61-.17,1.68-.06,3.2-.1,4.57-.13,1.36-.03,2.6-.04,3.7-.04.17,0,.41.2.7.61.23.41.55,1.45.96,3.13.4,1.68.9,3.97,1.48,6.87.12.29.17.73.17,1.31,0,1.22-.55,1.83-1.65,1.83-1.86,0-3.92.09-6.18.26-.41.06-.97.09-1.7.09h-11.22c-2.47,0-4.73.01-6.79.04-2.06.03-3.61.04-4.65.04Z"/>
        <path class="cls-1" d="m259.62,60.12h-13.75c-.64,0-1.07-.03-1.31-.09-.29-.06-.61-.1-.96-.13-.35-.03-.73-.07-1.13-.13l-1.83-.44c-.29,0-.52-.09-.7-.26v-.17c0-1.51-.09-3.48-.26-5.92,0-.93-.04-1.71-.13-2.35-.09-.64-.16-1.22-.22-1.74l-.17-3.65c-.06-.52-.07-1.1-.04-1.74.03-.64.01-1.36-.04-2.17l-.17-2.61c-.06-1.1-.07-2.09-.04-2.96.03-.87.01-1.59-.04-2.17,0-.29-.01-.65-.04-1.09-.03-.44-.04-1.16-.04-2.18v-4.48c0-5.51.04-9.96.13-13.35.09-3.39.25-6.36.48-8.92,0-.58.72-1.1,2.17-1.57.58-.06,1.26-.1,2.04-.13s1.52-.04,2.22-.04c2.38,0,4.42-.01,6.13-.04s3.12-.1,4.22-.22c3.42-.06,6.41-.1,8.96-.13,2.55-.03,4.73-.04,6.52-.04h3.83c2.44,0,4.55.06,6.35.17,1.8.12,3.33.23,4.61.35.87,0,1.54,1.07,2,3.22.12.23.2.58.26,1.04.06.46.17,1.19.35,2.17.12,1.28.23,2.26.35,2.96.12.7.23,1.36.35,2,.06.12.09.43.09.96-.06.06-.09.29-.09.7-.06.52-.38.78-.96.78-.12-.06-.43-.09-.96-.09-1.28,0-2.65.07-4.13.22-1.48.15-3.15.28-5,.39l-4.52.35-4.52.44c-.17,0-.41.32-.7.96-.17.41-.35.68-.52.83-.17.15-.29.48-.35,1l-.17,2.96c-.06.75.03,1.25.26,1.48.23.23.67.35,1.3.35h7.74c2.2,0,4.79.17,7.74.52h.87c1.1,0,1.77.64,2,1.91l.17,8.61v.26c0,1.04-.99,1.62-2.96,1.74-.52.17-1.3.29-2.35.35-1.04.06-2.64.09-4.79.09h-4.22c-.67,0-1.15-.03-1.44-.09h-2.35c-.35,0-.58.03-.7.09-.58.12-.97.25-1.17.39-.2.15-.3.52-.3,1.13s-.03,1.73-.09,3.35c-.06.23-.1.54-.13.91-.03.38-.04,1.21-.04,2.48,3.48,0,6.21-.03,8.18-.09,1.97-.06,3.51-.12,4.61-.17,1.68-.06,3.21-.1,4.57-.13,1.36-.03,2.59-.04,3.7-.04.17,0,.41.2.7.61.23.41.55,1.45.96,3.13.41,1.68.9,3.97,1.48,6.87.12.29.17.73.17,1.31,0,1.22-.55,1.83-1.65,1.83-1.86,0-3.91.09-6.18.26-.41.06-.97.09-1.7.09h-11.22c-2.47,0-4.73.01-6.79.04-2.06.03-3.61.04-4.65.04Z"/>
        <path class="cls-1" d="m309.04,60.64c-.64,0-1.25-.55-1.83-1.65-.87-1.91-1.3-5.34-1.3-10.27,0-2.38.01-5.23.04-8.57.03-3.33.1-6.54.22-9.61.06-.99.09-2.28.09-3.87v-5.79h-12.18c-1.51,0-2.44-1.57-2.78-4.7-.06-.81-.13-1.83-.22-3.04-.09-1.22-.13-2.64-.13-4.26v-1.96c0-.2.03-.39.09-.57v-2.09c0-.35.17-.64.52-.87.35-.23.72-.41,1.13-.52.64-.17,1.51-.26,2.61-.26h8.96c.75,0,1.39.01,1.91.04.52.03.98.04,1.39.04l3.05.09h33.23c.7,0,1.22.03,1.57.09h.52c.23,0,.46.03.7.09.52.06.97.17,1.35.35.38.17.57.38.57.61v15.4c0,.75-.2,1.2-.61,1.35-.41.15-.87.22-1.39.22h-11.92v5.79c0,.38-.03.65-.09.83,0,.81-.03,2.13-.09,3.96-.06,1.83-.15,4.13-.26,6.92l-.09,2.61c-.06,1.1-.13,2.39-.22,3.87-.09,1.48-.16,2.48-.22,3v8.18c0,1.97-.41,3.19-1.22,3.65-.41.12-.73.2-.96.26-.23.06-.44.12-.61.17l-2,.09c-1.1.06-2.06.1-2.87.13-.81.03-1.45.04-1.91.04l-8.96.17c-.52,0-1.29.01-2.31.04-1.02.03-2.28.04-3.78.04Z"/>
        <path class="cls-1" d="m40.96,171.62c-2.16.21-4.18.28-6.08.23-1.9-.05-3.83-.08-5.77-.08-3.39,0-6.21-.15-8.47-.46-2.26-.31-4.39-.85-6.39-1.62-2-.77-4.44-1.82-7.31-3.16l-6.78-3.23c-.1-.1-.15-.36-.15-.77l.31-3.23c.1-.51.2-1.05.31-1.62.1-.56.2-1.05.31-1.46v-3.62c0-1.79.02-3.75.08-5.85.05-2.1.13-4.08.23-5.93.1-1.85.2-3.13.31-3.85,0-.62.02-1.13.08-1.54.05-.41.08-.72.08-.92s.05-.41.15-.62c0-.1.13-.26.38-.46.26-.2.74-.05,1.46.46,3.7,1.23,6.44,2.18,8.24,2.85,1.79.67,3.23,1.13,4.31,1.39,1.08.26,2.33.38,3.77.38.92,0,1.85-.38,2.77-1.15.92-.77,1.59-1.92,2-3.46.2-.31.56-1.39,1.08-3.23.2-.92.41-1.95.62-3.08.1-.41.15-1.08.15-2v-3.39c0-2.36.05-5.7.15-10.01.1-4.31.2-9.8.31-16.48v-6.62l-.15-16.79c0-1.64.38-2.8,1.15-3.46.77-.67,1.59-1.08,2.46-1.23.87-.15,1.46-.23,1.77-.23l12.32-.15h28.95c2.87,0,4.82.52,5.85,1.54.2.41.41.9.62,1.46.2.57.31,1.31.31,2.23,0,1.33.08,2.49.23,3.46.15.98.23,1.72.23,2.23v32.03c-.21,0-.31.46-.31,1.39v1.23c-.1.52-.1,1.08,0,1.69,0,.72-.05,1.23-.15,1.54-.1.41-.15.95-.15,1.62v5l-.15,1.23c0,4-.08,7.37-.23,10.09-.15,2.72-.49,5.42-1,8.08-1.54,9.14-5.65,16.3-12.32,21.48-6.67,5.19-15.2,7.88-25.56,8.08Z"/>
        <path class="cls-1" d="m196.35,170.08c-.72,0-1.34-.03-1.85-.08-.52-.05-1.03-.13-1.54-.23h-25.56c-.1,0-.26-.02-.46-.08-.21-.05-.46-.13-.77-.23h-4.62l-6.62-.15c-.41,0-.67.05-.77.15-.21.21-.62.31-1.23.31h-.46l-.15-.15c-.41,0-.62-.05-.62-.15-.31-.1-.62-.15-.92-.15h-.77c-.21-.82-.46-2.33-.77-4.54-.31-2.21-1.03-5.36-2.16-9.47l-1.23-4.31h-8.62c-1.64,0-3.08-.05-4.31-.15-1.23-.1-2.52-.31-3.85-.62,0,.41-.05.87-.15,1.39-.1.51-.21,1.23-.31,2.16-.72,3.8-1.44,7.14-2.16,10.01-.72,2.88-1.34,4.72-1.85,5.54h-2.93c-1.13,0-2.46.05-4,.15-1.54,0-2.52.1-2.93.31h-1.39c-.1,0-.15-.1-.15-.31-.1-.1-.26-.15-.46-.15-.82,0-1.39.05-1.69.15v.31h-20.48c-.41.1-.9.18-1.46.23-.57.05-1.26.08-2.08.08h-1.54c-.82,0-1.39-.26-1.69-.77-.72-1.03-1.08-2.16-1.08-3.39,0-.72.05-1.23.15-1.54v-1.46c0-.46.05-1,.15-1.62.2-1.13.46-1.95.77-2.46.31-1.13.46-1.9.46-2.31.2-1.23,1.15-5.57,2.85-13.01,1.69-7.44,4.03-17.48,7.01-30.11,2.98-12.63,6.47-27.26,10.47-43.89,0-.1.13-.36.38-.77.25-.41.59-.72,1-.92h.62l.31.31c.51,0,.9-.1,1.15-.31.25-.2.54-.36.85-.46.82-.21,1.44-.31,1.85-.31.72,0,1.41.03,2.08.08.67.05,1.36.13,2.08.23.2,0,.46-.02.77-.08.31-.05.56.03.77.23.2.1.54.18,1,.23.46.05.9.08,1.31.08,0-.2.25-.33.77-.38.51-.05.87-.08,1.08-.08.92-.1,2-.18,3.23-.23,1.23-.05,2.87-.08,4.93-.08h14.63c0,.1.46.15,1.39.15h1.31c.36,0,.74.05,1.15.15h7.7c.2.1.44.21.69.31.25.1.49.15.69.15.51,0,1.05-.02,1.62-.08.56-.05,1.1-.13,1.62-.23.51-.1,1.05-.15,1.62-.15h1.16c1.13-.1,2.16-.18,3.08-.23.92-.05,1.9-.08,2.93-.08.62,0,1.23-.05,1.85-.15.62-.1,1.28.05,2,.46.82.41,1.56.64,2.23.69.67.05,1.26.08,1.77.08.41,0,.62-.1.62-.31h.62c.31.1.62.38.92.85.31.46.46.75.46.85,1.02,3.9,2.21,8.6,3.54,14.09,1.33,5.49,2.75,11.37,4.23,17.63,1.49,6.26,3,12.63,4.54,19.1,1.54,6.47,3.03,12.66,4.47,18.56,1.44,5.9,2.67,11.22,3.7,15.94.21,1.03.33,1.75.38,2.16.05.41.13.87.23,1.39.1.72.39,1.9.85,3.54.46,1.64.69,2.88.69,3.7s-.21,1.29-.62,1.39c-.41,2.05-1.29,3.08-2.62,3.08h-1.85Zm-65.45-37.42c.62,0,.92-.1.92-.31h.92c.2-.1.56-.26,1.08-.46.51-.21,1.13-.31,1.85-.31h.15l1.08.77h7.24l-1.08-6.93-.62-2.93c-.21-1.13-.41-2.08-.62-2.85-.21-.77-.31-1.51-.31-2.23,0-.51-.15-1.87-.46-4.08-.31-2.21-.67-4.75-1.08-7.62l-.62-4.31c-.31-.92-.54-1.79-.69-2.62-.15-.82-.28-1.59-.39-2.31l-.31-1.85v-.77c-.21-.21-.31-.46-.31-.77,0-.41-.05-.62-.15-.62v.62c0,.41-.21.92-.62,1.54v1.85c-.21.82-.36,1.64-.46,2.46-.1.82-.26,1.64-.46,2.46l-1.39,7.24c-.82,4.11-1.44,8.16-1.85,12.17-.41,4-1.03,7.96-1.85,11.86Z"/>
        <path class="cls-1" d="m224.53,171.31c-.51,0-.98-.03-1.39-.08-.41-.05-.77-.13-1.08-.23h-6.93l-6.78-1.69-.62-1.08c-.1,0-.15-.56-.15-1.69v-2c0-.62-.05-1.13-.15-1.54l-.15-7.08c-.1-.82-.13-1.77-.08-2.85.05-1.08.02-2.39-.08-3.93l-.31-11.7c0-1.33.02-2.87.08-4.62.05-1.75.13-3.75.23-6.01l.15-5.08c.1-1.64.18-3.8.23-6.47.05-2.67.08-5.85.08-9.55v-3.08c-.21-.41-.31-.97-.31-1.69l-.15-1.08c0-2.57.15-5.24.46-8.01.1-1.75.18-3.39.23-4.93.05-1.54.08-3.03.08-4.47l-.15-4.31c-.1-.51-.15-1.1-.15-1.77v-2.08c0-.2-.05-.36-.15-.46-.21-.2-.31-.41-.31-.62,0-1.02.41-1.9,1.23-2.62.82-.72,1.85-1.23,3.08-1.54.82-.21,1.72-.39,2.7-.54.97-.15,2.13-.23,3.46-.23h31.57c.1,0,.25.1.46.31l.62.46c.92.92,1.95,2.31,3.08,4.16.31.62.72,1.31,1.23,2.08.51.77,1.44,1.92,2.77,3.46.41.82.74,1.93,1,3.31.26,1.39.9,2.8,1.93,4.24l3.54,4.77c.41.72.82,1.62,1.23,2.7.41,1.08.92,2.34,1.54,3.77.2.41.38.82.54,1.23.15.41.33.82.54,1.23l.92,2.46c.1.62.36,1.13.77,1.54.1.21.18.36.23.46.05.1.08.21.08.31.41.82,1.26,1.92,2.54,3.31,1.28,1.39,2.13,2.08,2.54,2.08.51,0,.95-.69,1.31-2.08.36-1.39.69-2.49,1-3.31.1-.1.2-.36.31-.77.1-.21.21-.44.31-.69.1-.25.25-.59.46-1l2.31-5.08,6.16-12.94,2.62-5.54c.21-.41.36-.79.46-1.15.1-.36.21-.69.31-1,.2-.51.36-.82.46-.92.21-.51.54-1.15,1-1.92.46-.77,1.05-1.72,1.77-2.85.51-.82.97-1.44,1.39-1.85.21-.1.41-.26.62-.46s.36-.31.46-.31h46.82c.2,0,.46.77.77,2.31l.46,14.94c.1,2.16.18,4.9.23,8.24.05,3.34.08,7.31.08,11.93v8.78c0,2.26-.08,4.8-.23,7.62-.15,2.83-.31,5.37-.46,7.62-.15,2.26-.28,3.8-.39,4.62l-.31,3.08v5.24c.1.72.15,1.62.15,2.7v3.77c0,2.98.02,5.6.08,7.85.05,2.26.18,3.95.38,5.08v6.16l-.46,1.08-6.78,1.69h-6.93c-.41.1-.82.18-1.23.23-.41.05-.87.08-1.39.08-.92,0-2-.03-3.23-.08-1.23-.05-2.67-.13-4.31-.23l-3.85-.15c-.72-.1-1.54-.21-2.46-.31-.92-.1-2.05-.15-3.39-.15l-5.85-.46c-.21,0-.36.05-.46.15h-1.23c-.41,0-.72-.56-.92-1.69-.62-1.85-.92-5.29-.92-10.32v-4.31c0-1.23-.05-2.31-.15-3.23l-.15-8.32c-.1-.92-.15-2.05-.15-3.39v-4.47c0-.82-.36-1.23-1.08-1.23-.41,0-.82.51-1.23,1.54l-1.69,4-1.38,3.85c-.21.62-.41,1.23-.62,1.85-.21.62-.46,1.18-.77,1.69l-.77,1.85c-.82,2.05-1.98,4.39-3.46,7.01-1.49,2.62-3.37,4.75-5.62,6.39-1.13.72-2.21,1.08-3.23,1.08h-2.31c-.51,0-1.03-.02-1.54-.08-.52-.05-.98-.13-1.39-.23h-6.47c-2.06-3.28-4.54-6.7-7.47-10.24-2.93-3.54-5.26-7.26-7.01-11.17l-3.85-5.54c-.41-.62-.69-1.1-.85-1.46-.15-.36-.28-.54-.38-.54-.72,0-1.08.41-1.08,1.23v7.08c0,7.08-.1,12.81-.31,17.17-.21,4.36-.56,7.57-1.08,9.62-.1,1.23-.36,1.85-.77,1.85h-1.08l-.77-.15c-1.75.1-3.31.21-4.7.31-1.39.1-2.59.2-3.62.31-1.23.1-2.59.25-4.08.46-1.49.21-3.57.31-6.24.31Z"/>
      </g>
      <g>
        <path class="cls-1" d="m5.77,224.57l-1.17.07c-.6,0-1.04-.24-1.34-.71-.3-.48-.48-1.02-.55-1.63-.07-.61-.1-1.1-.1-1.46v-1.43c-.05-.77-.09-1.6-.14-2.48-.05-.88-.07-1.67-.07-2.35-.09-2-.17-3.68-.24-5.07-.07-1.38-.15-2.48-.24-3.3,0-.77-.05-1.59-.14-2.45-.09-.86-.16-1.45-.21-1.77v-22.44c0-.45.16-.7.48-.75h.41l.21.07c.78,0,1.65-.02,2.62-.07.96-.04,2.09-.09,3.37-.14,1.61-.04,3.11-.08,4.51-.1,1.4-.02,2.67-.03,3.82-.03h.69c.18.04.57.07,1.17.07h3.72c.55,0,.99.02,1.31.07h6.75c.41.05.94.08,1.58.1.64.02,1.45.03,2.41.03.41,0,.69.02.83.07.18.05.38.08.59.1.21.02.42.03.65.03.18,0,.34-.07.48-.2.96,0,1.49.93,1.58,2.79.04.18.08.39.1.61.02.23.03.43.03.61,0,.14-.02.44-.07.92-.05.48-.07.92-.07,1.33,0,.36-.01.82-.03,1.36-.02.54-.03,1.2-.03,1.97,0,.45-.25.7-.76.75-.51.05-1.01.07-1.52.07h-3.93l-1.93.07c-.41.14-1.1.2-2.07.2s-1.54-.02-1.58-.07l-.28.14s-.12.07-.21.07c0,.14-.02.23-.07.27-.05.05-.07.16-.07.34s-.03.73-.1,1.63c-.07.91-.14,1.93-.21,3.06-.07,1.13-.1,2.18-.1,3.13l-.07.14c0,.23.09.43.28.61h7.85c.96,0,1.56.32,1.79.95.18.5.28,1.79.28,3.88v5.51c-.18.68-.53,1.02-1.03,1.02-.18,0-.36.01-.52.03-.16.02-.33.06-.52.1l-2.82.14h-1.31c-.64,0-1.1.05-1.38.14l-1.31.2h-.9c-.73,0-1.19.09-1.38.27-.05.04-.14.11-.28.2-.14.09-.25.25-.34.48,0,1.95-.02,3.59-.07,4.93-.05,1.34-.07,2.39-.07,3.16-.05,1-.12,1.86-.21,2.58-.09.73-.23,1.34-.41,1.84-.41,0-.91.01-1.48.03-.57.02-1.25.06-2.03.1-.37,0-.67,0-.9.03-.23.02-.39.06-.48.1h-.69c-.23,0-.37-.02-.41-.07-.05-.05-.14-.07-.28-.07l-.21-.07s-.07-.07-.21-.07c-.18,0-.37.09-.55.27l-5.44-.68s-.14.07-.28.07l-.62.2-4.13.48Z"/>
        <path class="cls-1" d="m58.18,224.23h-10.88c-.51,0-.85-.02-1.03-.07-.23-.05-.48-.08-.76-.1-.28-.02-.57-.06-.9-.1l-1.45-.34c-.23,0-.41-.07-.55-.2v-.14c0-1.18-.07-2.72-.21-4.62,0-.72-.03-1.34-.1-1.84-.07-.5-.13-.95-.17-1.36l-.14-2.86c-.05-.41-.06-.86-.03-1.36.02-.5.01-1.07-.03-1.7l-.14-2.04c-.05-.86-.06-1.63-.03-2.31.02-.68.01-1.25-.03-1.7,0-.23-.01-.51-.03-.85-.02-.34-.03-.91-.03-1.7v-3.5c0-4.31.03-7.79.1-10.44.07-2.65.19-4.97.38-6.97,0-.45.57-.86,1.72-1.22.46-.04,1-.08,1.62-.1.62-.02,1.21-.03,1.76-.03,1.88,0,3.5-.01,4.86-.03,1.35-.02,2.47-.08,3.34-.17,2.71-.04,5.07-.08,7.09-.1,2.02-.02,3.74-.03,5.17-.03h3.03c1.93,0,3.6.04,5.03.14,1.42.09,2.64.18,3.65.27.69,0,1.22.84,1.58,2.52.09.18.16.45.21.82.04.36.14.93.28,1.7.09,1,.18,1.77.28,2.31.09.54.18,1.07.28,1.56.05.09.07.34.07.75-.05.05-.07.23-.07.54-.05.41-.3.61-.76.61-.09-.04-.34-.07-.76-.07-1.01,0-2.1.06-3.27.17-1.17.11-2.49.22-3.96.31l-3.58.27-3.58.34c-.14,0-.32.25-.55.75-.14.32-.28.53-.41.65-.14.11-.23.37-.28.78l-.14,2.31c-.05.59.02.98.21,1.16.18.18.53.27,1.03.27h6.13c1.74,0,3.79.14,6.13.41h.69c.87,0,1.4.5,1.58,1.5l.14,6.73v.2c0,.82-.78,1.27-2.34,1.36-.41.14-1.03.23-1.86.27-.83.05-2.09.07-3.79.07h-3.34c-.53,0-.91-.02-1.14-.07h-1.86c-.28,0-.46.02-.55.07-.46.09-.77.19-.93.31-.16.11-.24.41-.24.88s-.02,1.35-.07,2.62c-.05.18-.08.42-.1.71-.02.29-.03.94-.03,1.94,2.75,0,4.91-.02,6.47-.07,1.56-.04,2.78-.09,3.65-.14,1.33-.04,2.54-.08,3.62-.1,1.08-.02,2.05-.03,2.93-.03.14,0,.32.16.55.48.18.32.44,1.13.76,2.45.32,1.32.71,3.11,1.17,5.37.09.23.14.57.14,1.02,0,.95-.44,1.43-1.31,1.43-1.47,0-3.1.07-4.89.2-.32.04-.77.07-1.34.07h-8.88c-1.95,0-3.74.01-5.37.03-1.63.02-2.86.03-3.68.03Z"/>
        <path class="cls-1" d="m102.12,226.27c-3.08,0-5.97-.36-8.68-1.09-2.71-.73-5.07-1.74-7.09-3.06-.23-1.09-.45-2.15-.65-3.2-.21-1.04-.41-2.24-.62-3.6-.21-1.36-.45-3.04-.72-5.03v-.2c.09-.41.41-.79.96-1.16,1.61,1.04,3.08,1.81,4.41,2.31,1.33.5,2.43.75,3.31.75h2.07l1.17.07c1.06,0,2.04-.16,2.96-.48,1.19-.45,1.87-1.04,2.03-1.77.16-.72-.13-1.4-.86-2.04-.73-.63-1.86-1.04-3.37-1.22-2.11-.27-4.13-1.06-6.06-2.38-1.93-1.31-3.5-2.97-4.72-4.96-1.22-1.99-1.82-4.12-1.82-6.39,0-4.03,1.12-7.17,3.37-9.42,2.25-2.24,5.12-3.86,8.61-4.86,3.08-.86,6.47-1.29,10.19-1.29,1.06,0,2.23.06,3.51.17,1.28.11,2.89.31,4.82.58.41.23,1.03.36,1.86.41l1.79.41c.78.18,1.43.28,1.96.31.53.02.95.03,1.27.03.05,0,.08.01.1.03.02.02.06.03.1.03.09.05.18.11.28.2.09.23.18.37.28.44.09.07.16.1.21.1h.14l.14,1.5c0,.41.02.78.07,1.12.05.34.09.67.14.99.09.59.16,1.19.21,1.8.05.61.07,1.24.07,1.87,0,2.22-.46,3.67-1.38,4.35l-5.99-.75h-.96c-.32,0-.92-.02-1.79-.07-.87-.04-1.8-.06-2.79-.03-.99.02-1.84.14-2.55.34-.71.2-1.07.53-1.07.99,0,.54.17,1.08.52,1.6.34.52.88.96,1.62,1.33.32.18.62.36.9.54.28.18.57.32.9.41.37.09.67.18.9.27.23.09.37.16.41.2,1.61.54,3.09,1.21,4.44,2.01,1.35.79,2.65,1.8,3.89,3.03,1.33,1.27,2.23,2.78,2.69,4.52.46,1.75.64,3.46.55,5.13-.41,3.4-1.63,6.32-3.65,8.77-1.15,1.13-2.39,2.1-3.72,2.89-1.33.79-2.78,1.46-4.34,2.01-2.75,1-6.08,1.5-9.99,1.5Z"/>
        <path class="cls-1" d="m138.82,224.64c-.51,0-.99-.43-1.45-1.29-.69-1.5-1.03-4.17-1.03-8.02,0-1.86.01-4.09.03-6.7.02-2.61.08-5.11.17-7.51.05-.77.07-1.78.07-3.03v-4.52h-9.64c-1.19,0-1.93-1.22-2.2-3.67-.05-.63-.1-1.43-.17-2.38s-.1-2.06-.1-3.33v-1.53c0-.16.02-.31.07-.44v-1.63c0-.27.14-.5.41-.68.28-.18.57-.32.9-.41.5-.14,1.19-.2,2.07-.2h7.09c.6,0,1.1.01,1.52.03.41.02.78.03,1.1.03l2.41.07h26.31c.55,0,.96.02,1.24.07h.41c.18,0,.37.02.55.07.41.05.77.14,1.07.27.3.14.45.29.45.48v12.04c0,.59-.16.94-.48,1.05-.32.11-.69.17-1.1.17h-9.44v4.52c0,.29-.02.51-.07.65,0,.64-.02,1.67-.07,3.09-.05,1.43-.12,3.23-.21,5.41l-.07,2.04c-.05.86-.1,1.87-.17,3.03s-.13,1.94-.17,2.35v6.39c0,1.54-.32,2.49-.96,2.86-.32.09-.57.16-.76.2-.18.04-.34.09-.48.14l-1.58.07c-.87.04-1.63.08-2.27.1-.64.02-1.15.03-1.52.03l-7.09.14c-.41,0-1.02.01-1.82.03-.8.02-1.8.03-3,.03Z"/>
        <path class="cls-1" d="m177.53,225.25l-1.79.27c-.64,0-1.11-.33-1.41-.99-.3-.66-.48-1.38-.55-2.18-.07-.79-.1-1.39-.1-1.8,0-.86-.02-1.36-.07-1.5-.05-.77-.09-1.76-.14-2.96-.05-1.2-.14-2.62-.28-4.25l-.28-2.99c-.18-2.36-.3-4.36-.34-6.02-.05-1.65-.07-3.05-.07-4.18v-18.97c0-.45.37-.76,1.1-.92.73-.16,1.58-.24,2.55-.24h.96c.37,0,.73.02,1.1.07.37.05.69.08.96.1.28.02.5.03.69.03.37.05.87.08,1.52.1.64.02,1.38.03,2.2.03l.28-.2h3.44c.23.14.44.2.62.2h.28c.09-.09.39-.14.89-.14.04-.04.09-.07.14-.07h.14c.18,0,.37.02.55.07l.48.14h4.2c.64,0,1.08.15,1.31.44.23.3.34.56.34.78l.21,12.31c0,.14-.02.27-.07.41l-.21,1.16c-.18.95-.28,1.8-.28,2.55v17.17l-.21,2.92c-.05.68-.09,1.29-.14,1.84-.05.54-.05,1.02,0,1.43,0,2.04-.25,3.4-.76,4.08-.28.41-.74.61-1.38.61l-.07-.14-.34-.07c-.09,0-.14.02-.14.07h-.34c-.14.04-.25.09-.34.14s-.16.09-.21.14c-.14,0-.37-.02-.69-.07-.32-.05-.71-.11-1.17-.2l-1.1-.07c-.23,0-.37.11-.41.34h-7.09l-2.07.34-1.93.2Z"/>
        <path class="cls-1" d="m217.12,225.05c-.32,0-.63-.03-.93-.1-.3-.07-.63-.12-1-.17-.32-.04-.64-.09-.96-.14-.32-.05-.62-.07-.9-.07-.09,0-.14.02-.14.07h-.41c-.46-.27-.69-.5-.69-.68l-4.89-14.35c-.51-1.5-1.1-3.35-1.79-5.58-.69-2.22-1.49-4.61-2.41-7.17-.92-2.56-2-5.09-3.24-7.58-.05-.09-.07-.29-.07-.61l-.21-.88c-.09-.41-.16-.7-.21-.88-.05-.18-.07-.48-.07-.88,0-.36-.08-.8-.24-1.33-.16-.52-.17-1.04-.03-1.56.14-.52.64-.94,1.52-1.26l1.58-.68,5.58-1.22s.14-.01.28-.03c.14-.02.23-.01.28.03.09.05.15-.01.17-.17.02-.16.06-.24.1-.24.09.05.16.05.21,0,.05-.04.09-.07.14-.07.14-.04.24-.07.31-.07s.17-.02.31-.07l.41-.2,1.38-.07,4.34-.82c1.01-.32,1.8-.28,2.38.1.57.39,1.01.9,1.31,1.53.3.64.52,1.18.65,1.63l1.17,3.06c.14.32.38,1.01.72,2.07.35,1.07.71,2.18,1.1,3.33.39,1.16.65,2.05.79,2.69l.07.27c0,.27.02.5.07.68.23.18.42.46.58.85.16.39.26.69.31.92l.41,1.43.89,1.97,1.38,4.15.41,1.02.69,1.16c0-.09.12-.34.35-.75.23-.41.46-.84.69-1.29s.35-.72.35-.82l.83-3.2.69-2.45c.09-.23.15-.46.17-.71s.06-.46.1-.65l.21-1.09.21-1.02c.09-.45.26-.87.52-1.26.25-.38.47-1.01.65-1.87,1.06-4.12,1.84-7.21,2.34-9.25.5-2.04,1.29-2.92,2.34-2.65l2.96.14,5.23.54c.23,0,.49.09.79.27.3.18.54.25.72.2l2.13.2c.64.05,1.28.41,1.93,1.09.64.68.78,1.43.41,2.24,0,.23-.02.53-.07.92-.04.39-.14.99-.28,1.8-.05.18-.12.36-.21.54-.09.18-.14.32-.14.41-.05.14-.07.25-.07.34s-.03.16-.07.2c-.46,1.45-1.01,3.29-1.65,5.51-.64,2.22-1.31,4.56-2,7-.69,2.45-1.31,4.73-1.86,6.83-.55,2.11-1.01,3.75-1.38,4.93l-3.58,12.65c0,.14-.23.36-.69.68h-.21l-.28-.07h-.52c-.16,0-.31.07-.45.2-.18.18-.46.27-.83.27-.69,0-1.31-.09-1.86-.27-.37-.04-.7-.08-1-.1-.3-.02-.56-.03-.79-.03-1.47.09-3.28.17-5.44.24-2.16.07-4.29.11-6.4.14-2.11.02-3.86.03-5.23.03Z"/>
        <path class="cls-1" d="m301.07,224.09c-.32,0-.6-.01-.83-.03-.23-.02-.46-.06-.69-.1h-11.43s-.11-.01-.21-.03c-.09-.02-.21-.06-.35-.1h-2.06l-2.96-.07c-.18,0-.3.02-.34.07-.09.09-.28.14-.55.14h-.21l-.07-.07c-.18,0-.28-.02-.28-.07-.14-.04-.28-.07-.41-.07h-.34c-.09-.36-.21-1.03-.34-2.01-.14-.97-.46-2.37-.96-4.18l-.55-1.9h-3.86c-.74,0-1.38-.02-1.93-.07-.55-.04-1.12-.14-1.72-.27,0,.18-.02.39-.07.61-.05.23-.09.54-.14.95-.32,1.68-.64,3.15-.96,4.42-.32,1.27-.6,2.09-.83,2.45h-1.31c-.51,0-1.1.02-1.79.07-.69,0-1.13.05-1.31.14h-.62s-.07-.04-.07-.14c-.05-.04-.12-.07-.21-.07-.37,0-.62.02-.76.07v.14h-9.16c-.18.04-.4.08-.65.1-.25.02-.56.03-.93.03h-.69c-.37,0-.62-.11-.76-.34-.32-.45-.48-.95-.48-1.5,0-.32.02-.54.07-.68v-.65c0-.2.02-.44.07-.71.09-.5.21-.86.34-1.09.14-.5.21-.84.21-1.02.09-.54.52-2.46,1.27-5.75.76-3.29,1.8-7.72,3.13-13.29,1.33-5.58,2.89-12.04,4.68-19.38,0-.04.06-.16.17-.34.11-.18.26-.32.45-.41h.28l.14.14c.23,0,.4-.04.52-.14.11-.09.24-.16.38-.2.37-.09.64-.14.83-.14.32,0,.63.01.93.03.3.02.61.06.93.1.09,0,.21,0,.34-.03.14-.02.25.01.34.1.09.05.24.08.45.1.21.02.4.03.58.03,0-.09.12-.15.35-.17.23-.02.39-.03.48-.03.41-.04.9-.08,1.45-.1.55-.02,1.29-.03,2.2-.03h6.54s.21.07.62.07h.59c.16,0,.33.02.52.07h3.44c.09.05.2.09.31.14.12.05.22.07.31.07.23,0,.47-.01.72-.03s.49-.06.72-.1c.23-.04.47-.07.72-.07h.52c.5-.04.96-.08,1.38-.1.41-.02.85-.03,1.31-.03.28,0,.55-.02.83-.07s.57.02.9.2c.37.18.7.28,1,.31.3.02.56.03.79.03.18,0,.28-.04.28-.14h.28c.14.05.28.17.41.37.14.2.21.33.21.37.46,1.72.99,3.8,1.58,6.22.6,2.43,1.23,5.02,1.89,7.79.67,2.77,1.34,5.58,2.03,8.43.69,2.86,1.35,5.59,2,8.19s1.19,4.95,1.65,7.04c.09.45.15.77.17.95.02.18.06.39.1.61.04.32.17.84.38,1.56.21.73.31,1.27.31,1.63s-.09.57-.28.61c-.18.91-.57,1.36-1.17,1.36h-.83Zm-29.27-16.52c.28,0,.41-.04.41-.14h.41c.09-.04.25-.11.48-.2.23-.09.5-.14.83-.14h.07l.48.34h3.24l-.48-3.06-.28-1.29c-.09-.5-.18-.92-.28-1.26-.09-.34-.14-.67-.14-.99,0-.23-.07-.83-.21-1.8-.14-.97-.3-2.1-.48-3.37l-.28-1.9c-.14-.41-.24-.79-.31-1.16-.07-.36-.13-.7-.17-1.02l-.14-.82v-.34c-.09-.09-.14-.2-.14-.34,0-.18-.02-.27-.07-.27v.27c0,.18-.09.41-.28.68v.82c-.09.36-.16.73-.21,1.09-.04.36-.12.73-.21,1.09l-.62,3.2c-.37,1.81-.64,3.6-.83,5.37-.18,1.77-.46,3.51-.83,5.24Z"/>
        <path class="cls-1" d="m339.29,224.64h-10.4c-2.43,0-4.54-.01-6.34-.03-1.79-.02-3.24-.03-4.34-.03s-1.97-.01-2.76-.03c-.78-.02-1.42-.03-1.93-.03l-5.85-.07c-.46,0-.88-.19-1.27-.58-.39-.38-.59-.8-.59-1.26v-22.24l-.07-3.81c-.05-1.99,0-3.88.17-5.64.16-1.77.24-3.9.24-6.39v-1.63c0-1.4.23-2.47.69-3.2.23-.41.64-.61,1.24-.61,1.19,0,2.41.01,3.65.03,1.24.02,2.55.06,3.93.1.18.05.44.07.76.07h3c.57,0,1.04.02,1.41.07h5.65c.87,0,1.65.17,2.34.51.69.34,1.03,1.37,1.03,3.09l-.07.54c0,.09-.01.23-.03.41-.02.18-.04.43-.04.75-.18.59-.28,1.09-.28,1.5,0,.27.02.58.07.92.04.34.12.69.21,1.05,0,.27.01.5.04.68.02.18.03.32.03.41l.07.41v17.82c0,.41.14.65.41.71.28.07.64.1,1.1.1h5.23c.69,0,1.52-.01,2.48-.03.96-.02,2.11-.03,3.44-.03.51,0,.93.15,1.28.44.34.29.52.6.52.92v13.67c0,.32-.22.59-.65.82-.44.23-.91.36-1.41.41-.6.14-1.58.2-2.96.2Z"/>
      </g>
    </g>
  </g>
</svg>