<?xml version="1.0" encoding="UTF-8"?>
<svg id="Calque_2" data-name="Calque 2" xmlns="http://www.w3.org/2000/svg" viewBox="0 0 116.07 75.35">
  <defs>
    <style>
      .cls-1 {
        fill: #fff9f5;
      }
    </style>
  </defs>
  <g id="Main_Background">
    <g>
      <g>
        <path class="cls-1" d="m7.8,20.89c-1.29,0-2.51-.15-3.65-.46-1.14-.31-2.13-.74-2.98-1.3-.1-.46-.19-.92-.27-1.36s-.17-.96-.26-1.54c-.09-.58-.19-1.29-.3-2.14v-.09c.04-.17.17-.34.41-.49.68.44,1.29.77,1.85.99.56.21,1.02.32,1.39.32h.87l.49.03c.44,0,.86-.07,1.25-.2.5-.19.79-.44.85-.75.07-.31-.05-.6-.36-.87-.31-.27-.78-.44-1.42-.52-.89-.12-1.74-.45-2.55-1.01s-1.47-1.27-1.98-2.12c-.51-.85-.77-1.76-.77-2.72,0-1.72.47-3.06,1.42-4.01.95-.96,2.15-1.65,3.62-2.07,1.29-.37,2.72-.55,4.29-.55.44,0,.94.02,1.48.07.54.05,1.22.13,2.03.25.17.1.43.15.78.17l.75.17c.33.08.6.12.83.13.22,0,.4.01.54.01.02,0,.03,0,.04.01s.02.01.04.01c.04.02.08.05.12.09.04.1.08.16.12.19.04.03.07.04.09.04h.06l.06.64c0,.17,0,.33.03.48.02.14.04.29.06.42.04.25.07.51.09.77.02.26.03.53.03.8,0,.95-.19,1.56-.58,1.85l-2.52-.32h-.41c-.14,0-.39,0-.75-.03-.37-.02-.76-.02-1.17-.01-.42,0-.77.06-1.07.14-.3.09-.45.23-.45.42,0,.23.07.46.22.68.14.22.37.41.68.57.13.08.26.15.38.23.12.08.24.14.38.17.15.04.28.08.38.12.1.04.15.07.17.09.68.23,1.3.52,1.87.86.57.34,1.12.77,1.64,1.29.56.54.94,1.18,1.13,1.93.19.74.27,1.47.23,2.19-.17,1.45-.69,2.69-1.54,3.74-.48.48-1,.89-1.56,1.23s-1.17.62-1.83.85c-1.16.42-2.56.64-4.2.64Z"/>
        <path class="cls-1" d="m23.24,20.19c-.21,0-.42-.18-.61-.55-.29-.64-.43-1.78-.43-3.42,0-.79,0-1.74.01-2.85,0-1.11.03-2.18.07-3.2.02-.33.03-.76.03-1.29v-1.93h-4.06c-.5,0-.81-.52-.93-1.56-.02-.27-.04-.61-.07-1.01-.03-.41-.04-.88-.04-1.42v-.65c0-.07,0-.13.03-.19v-.7c0-.12.06-.21.17-.29.12-.08.24-.13.38-.17.21-.06.5-.09.87-.09h2.98c.25,0,.46,0,.64.01s.33.01.46.01l1.01.03h11.07c.23,0,.41,0,.52.03h.17c.08,0,.15.01.23.03.17.02.32.06.45.12.13.06.19.13.19.2v5.13c0,.25-.07.4-.2.45-.14.05-.29.07-.46.07h-3.97v1.93c0,.13-.01.22-.03.28,0,.27-.01.71-.03,1.32-.02.61-.05,1.38-.09,2.3l-.03.87c-.02.37-.04.8-.07,1.29-.03.49-.05.83-.07,1v2.72c0,.66-.14,1.06-.41,1.22-.14.04-.24.07-.32.09-.08.02-.14.04-.2.06l-.67.03c-.37.02-.69.03-.96.04-.27,0-.48.01-.64.01l-2.98.06c-.17,0-.43,0-.77.01-.34,0-.76.01-1.26.01Z"/>
        <path class="cls-1" d="m52.97,21.18c-.12,0-.19-.01-.23-.03-.27-.17-.49-.37-.67-.58-.04-.04-.06-.07-.07-.1,0-.03-.02-.04-.04-.04-.04-.04-.07-.06-.09-.06h-.03l-.14-.12-2.84-3.8c-.04-.13-.1-.26-.19-.39s-.18-.26-.28-.39c-.08-.06-.14-.12-.2-.19-.06-.07-.11-.14-.15-.22-.08-.12-.15-.17-.23-.17s-.14.11-.17.32c-.04.25-.06.64-.07,1.16-.01.52-.01,1-.01,1.45,0,.77-.05,1.43-.15,1.97-.02.23-.1.35-.23.35h-.2l-.09-.06h-.03c-.44.04-1.04.08-1.8.13-.75.05-1.5.09-2.25.13-.74.04-1.34.06-1.78.06-.1,0-.18,0-.26-.01-.08,0-.14-.02-.2-.04h-1.36l-.99-.35-.09-.2v-.12s-.03-.12-.03-.23c0-.04-.01-.11-.03-.22-.02-.11-.04-.24-.06-.39-.06-.56-.09-1.05-.1-1.46,0-.42,0-.55.01-.42-.02-.25-.05-.59-.09-1.01-.04-.42-.08-.94-.12-1.54l-.06-1.01c0-.68-.03-1.2-.09-1.56l-.09-.61c-.06-.39-.08-.75-.07-1.1,0-.35.01-.68.01-1.01,0-.04,0-.07.03-.09v-.26c.02-.08.03-.25.03-.52l.06-.49.03-.32c0-.39-.03-.97-.09-1.74-.06-.46-.09-1.05-.09-1.77,0-.5.01-.95.04-1.33.03-.39.08-.7.16-.93.13-.68.42-1.01.84-1.01,1.04,0,2.1.01,3.17.04,1.07.03,2.14.04,3.2.04.25,0,.55,0,.91.01.36.01.78.02,1.26.04l1.07.03,3.94.06c2.38.08,4.19.68,5.45,1.8.56.46.98,1.02,1.25,1.68.27.66.41,1.35.41,2.09,0,.83-.14,1.58-.42,2.25-.28.67-.67,1.24-1.17,1.72-.48.44-1.01.8-1.59,1.07.08.02.16.1.26.25.1.14.16.29.2.45.04.08.09.13.16.16.07.03.14.09.22.19l.38.46.2.2c.06.06.1.11.13.16.03.05.06.1.1.16l.9,1.33c.27.39.51.71.71.97.2.26.34.49.42.68.13.25.2.43.2.55,0,.33-.29.69-.87,1.07-.13.08-.26.15-.38.23-.12.08-.25.15-.41.23-.31.13-.53.27-.67.41l-.99.7c-.19.13-.39.24-.58.3-.19.07-.4.13-.61.19-.04,0-.06,0-.06.03,0,.02-.01.02-.04.01-.03,0-.06,0-.1.04-.06.06-.36.16-.9.32-.1.06-.26.11-.49.15-.13.1-.26.14-.38.14h-.12c-.04.08-.07.12-.09.12h-.17Zm-5.48-10.11h.41c.58,0,.99-.28,1.22-.83.23-.55.37-1.15.41-1.81.02-.21.03-.43.04-.67,0-.23.01-.48.01-.75v-.29c0-.44-.03-.93-.09-1.45-.06-.52-.31-.92-.75-1.19-.25-.17-.53-.26-.84-.26-.1,0-.16.12-.2.35-.15.41-.25,1.06-.29,1.97-.02.17-.04.37-.06.58-.02.21-.04.44-.06.7l-.03.84c-.02.54-.03,1.04-.03,1.49v1.2c0,.06.02.09.06.09l.2.03Z"/>
        <path class="cls-1" d="m67.77,20.02h-4.58c-.21,0-.36-.01-.43-.03-.1-.02-.2-.03-.32-.04-.12-.01-.24-.02-.38-.04l-.61-.14c-.1,0-.17-.03-.23-.09v-.06c0-.5-.03-1.16-.09-1.97,0-.31-.01-.57-.04-.78-.03-.21-.05-.41-.07-.58l-.06-1.22c-.02-.17-.02-.37-.01-.58,0-.21,0-.45-.01-.72l-.06-.87c-.02-.37-.02-.7-.01-.99,0-.29,0-.53-.01-.72,0-.1,0-.22-.01-.36,0-.15-.01-.39-.01-.72v-1.49c0-1.83.01-3.32.04-4.45.03-1.13.08-2.12.16-2.97,0-.19.24-.37.72-.52.19-.02.42-.03.68-.04.26,0,.51-.01.74-.01.79,0,1.47,0,2.04-.01.57,0,1.04-.03,1.4-.07,1.14-.02,2.13-.03,2.98-.04.85,0,1.57-.01,2.17-.01h1.27c.81,0,1.52.02,2.11.06.6.04,1.11.08,1.54.12.29,0,.51.36.67,1.07.04.08.07.19.09.35.02.15.06.4.12.72.04.43.08.75.12.99.04.23.08.45.12.67.02.04.03.14.03.32-.02.02-.03.1-.03.23-.02.17-.13.26-.32.26-.04-.02-.14-.03-.32-.03-.43,0-.88.02-1.38.07-.49.05-1.05.09-1.67.13l-1.51.12-1.51.15c-.06,0-.14.11-.23.32-.06.14-.12.23-.17.28-.06.05-.1.16-.12.33l-.06.99c-.02.25,0,.42.09.49.08.08.22.12.43.12h2.58c.73,0,1.59.06,2.58.17h.29c.37,0,.59.21.67.64l.06,2.87v.09c0,.35-.33.54-.99.58-.17.06-.43.1-.78.12-.35.02-.88.03-1.59.03h-1.41c-.22,0-.38,0-.48-.03h-.78c-.12,0-.19.01-.23.03-.19.04-.32.08-.39.13-.07.05-.1.17-.1.38s0,.58-.03,1.12c-.02.08-.03.18-.04.3s-.01.4-.01.83c1.16,0,2.07,0,2.72-.03.66-.02,1.17-.04,1.54-.06.56-.02,1.07-.03,1.52-.04s.86-.01,1.23-.01c.06,0,.13.07.23.2.08.14.18.48.32,1.04.13.56.3,1.32.49,2.29.04.1.06.24.06.43,0,.41-.18.61-.55.61-.62,0-1.3.03-2.06.09-.14.02-.32.03-.57.03h-3.74c-.82,0-1.57,0-2.26.01-.69,0-1.2.01-1.55.01Z"/>
        <path class="cls-1" d="m86.46,20.02h-4.58c-.21,0-.36-.01-.43-.03-.1-.02-.2-.03-.32-.04-.12-.01-.24-.02-.38-.04l-.61-.14c-.1,0-.17-.03-.23-.09v-.06c0-.5-.03-1.16-.09-1.97,0-.31-.01-.57-.04-.78-.03-.21-.05-.41-.07-.58l-.06-1.22c-.02-.17-.02-.37-.01-.58,0-.21,0-.45-.01-.72l-.06-.87c-.02-.37-.02-.7-.01-.99,0-.29,0-.53-.01-.72,0-.1,0-.22-.01-.36,0-.15-.01-.39-.01-.72v-1.49c0-1.83.01-3.32.04-4.45.03-1.13.08-2.12.16-2.97,0-.19.24-.37.72-.52.19-.02.42-.03.68-.04.26,0,.51-.01.74-.01.79,0,1.47,0,2.04-.01.57,0,1.04-.03,1.4-.07,1.14-.02,2.13-.03,2.98-.04.85,0,1.57-.01,2.17-.01h1.27c.81,0,1.52.02,2.11.06.6.04,1.11.08,1.54.12.29,0,.51.36.67,1.07.04.08.07.19.09.35.02.15.06.4.12.72.04.43.08.75.12.99.04.23.08.45.12.67.02.04.03.14.03.32-.02.02-.03.1-.03.23-.02.17-.13.26-.32.26-.04-.02-.14-.03-.32-.03-.43,0-.88.02-1.38.07-.49.05-1.05.09-1.67.13l-1.51.12-1.51.15c-.06,0-.14.11-.23.32-.06.14-.12.23-.17.28-.06.05-.1.16-.12.33l-.06.99c-.02.25,0,.42.09.49.08.08.22.12.43.12h2.58c.73,0,1.59.06,2.58.17h.29c.37,0,.59.21.67.64l.06,2.87v.09c0,.35-.33.54-.99.58-.17.06-.43.1-.78.12-.35.02-.88.03-1.59.03h-1.41c-.22,0-.38,0-.48-.03h-.78c-.12,0-.19.01-.23.03-.19.04-.32.08-.39.13-.07.05-.1.17-.1.38s0,.58-.03,1.12c-.02.08-.03.18-.04.3s-.01.4-.01.83c1.16,0,2.07,0,2.72-.03.66-.02,1.17-.04,1.54-.06.56-.02,1.07-.03,1.52-.04s.86-.01,1.23-.01c.06,0,.13.07.23.2.08.14.18.48.32,1.04.13.56.3,1.32.49,2.29.04.1.06.24.06.43,0,.41-.18.61-.55.61-.62,0-1.3.03-2.06.09-.14.02-.32.03-.57.03h-3.74c-.82,0-1.57,0-2.26.01-.69,0-1.2.01-1.55.01Z"/>
        <path class="cls-1" d="m102.92,20.19c-.21,0-.42-.18-.61-.55-.29-.64-.43-1.78-.43-3.42,0-.79,0-1.74.01-2.85s.03-2.18.07-3.2c.02-.33.03-.76.03-1.29v-1.93h-4.06c-.5,0-.81-.52-.93-1.56-.02-.27-.04-.61-.07-1.01-.03-.41-.04-.88-.04-1.42v-.65c0-.07,0-.13.03-.19v-.7c0-.12.06-.21.17-.29.12-.08.24-.13.38-.17.21-.06.5-.09.87-.09h2.98c.25,0,.46,0,.64.01s.33.01.46.01l1.01.03h11.07c.23,0,.41,0,.52.03h.17c.08,0,.15.01.23.03.17.02.32.06.45.12.13.06.19.13.19.2v5.13c0,.25-.07.4-.2.45-.14.05-.29.07-.46.07h-3.97v1.93c0,.13,0,.22-.03.28,0,.27,0,.71-.03,1.32-.02.61-.05,1.38-.09,2.3l-.03.87c-.02.37-.04.8-.07,1.29-.03.49-.05.83-.07,1v2.72c0,.66-.14,1.06-.41,1.22-.14.04-.24.07-.32.09-.08.02-.15.04-.2.06l-.67.03c-.37.02-.69.03-.96.04-.27,0-.48.01-.64.01l-2.98.06c-.17,0-.43,0-.77.01-.34,0-.76.01-1.26.01Z"/>
        <path class="cls-1" d="m13.64,57.15c-.72.07-1.39.09-2.03.08-.63-.02-1.27-.03-1.92-.03-1.13,0-2.07-.05-2.82-.15-.75-.1-1.46-.28-2.13-.54-.67-.26-1.48-.61-2.44-1.05L.05,54.38s-.05-.12-.05-.26l.1-1.08c.03-.17.07-.35.1-.54.03-.19.07-.35.1-.49v-1.21c0-.6,0-1.25.03-1.95.02-.7.04-1.36.08-1.97.03-.61.07-1.04.1-1.28,0-.21,0-.38.03-.51.02-.14.03-.24.03-.31s.02-.14.05-.2c0-.03.04-.09.13-.15.09-.07.25-.02.49.15,1.23.41,2.15.73,2.74.95.6.22,1.08.38,1.44.46.36.09.78.13,1.26.13.31,0,.62-.13.92-.38.31-.26.53-.64.67-1.15.07-.1.19-.46.36-1.08.07-.31.14-.65.21-1.03.03-.14.05-.36.05-.67v-1.13c0-.79.02-1.9.05-3.33.03-1.44.07-3.27.1-5.49v-2.21l-.05-5.59c0-.55.13-.93.38-1.15.26-.22.53-.36.82-.41.29-.05.49-.08.59-.08l4.1-.05h9.64c.96,0,1.61.17,1.95.51.07.14.14.3.21.49.07.19.1.44.1.74,0,.44.03.83.08,1.15.05.33.08.57.08.74v10.67c-.07,0-.1.15-.1.46v.41c-.03.17-.03.36,0,.56,0,.24-.02.41-.05.51-.03.14-.05.32-.05.54v1.67l-.05.41c0,1.33-.03,2.45-.08,3.36-.05.91-.16,1.8-.33,2.69-.51,3.04-1.88,5.43-4.1,7.15-2.22,1.73-5.06,2.62-8.51,2.69Z"/>
        <path class="cls-1" d="m65.39,56.64c-.24,0-.44,0-.61-.03-.17-.02-.34-.04-.51-.08h-8.51s-.09,0-.15-.03c-.07-.02-.15-.04-.26-.08h-1.54l-2.21-.05c-.14,0-.22.02-.26.05-.07.07-.21.1-.41.1h-.15l-.05-.05c-.14,0-.21-.02-.21-.05-.1-.03-.21-.05-.31-.05h-.26c-.07-.27-.15-.78-.26-1.51-.1-.73-.34-1.79-.72-3.15l-.41-1.44h-2.87c-.55,0-1.03-.02-1.44-.05-.41-.03-.84-.1-1.28-.2,0,.14-.02.29-.05.46-.04.17-.07.41-.1.72-.24,1.27-.48,2.38-.72,3.33-.24.96-.44,1.57-.62,1.85h-.97c-.38,0-.82.02-1.33.05-.51,0-.84.03-.97.1h-.46s-.05-.03-.05-.1c-.03-.03-.09-.05-.15-.05-.27,0-.46.02-.56.05v.1h-6.82c-.14.03-.3.06-.49.08-.19.02-.42.03-.69.03h-.51c-.27,0-.46-.09-.56-.26-.24-.34-.36-.72-.36-1.13,0-.24.02-.41.05-.51v-.49c0-.15.02-.33.05-.54.07-.38.15-.65.26-.82.1-.38.15-.63.15-.77.07-.41.38-1.85.95-4.33.56-2.48,1.34-5.82,2.33-10.03.99-4.21,2.15-9.08,3.49-14.62,0-.03.04-.12.13-.26.08-.14.2-.24.33-.31h.21l.1.1c.17,0,.3-.03.38-.1.09-.07.18-.12.28-.15.27-.07.48-.1.62-.1.24,0,.47,0,.69.03.22.02.45.04.69.08.07,0,.15,0,.26-.03.1-.02.19,0,.26.08.07.03.18.06.33.08.15.02.3.03.44.03,0-.07.09-.11.26-.13.17-.02.29-.03.36-.03.31-.03.67-.06,1.08-.08.41-.02.96-.03,1.64-.03h4.87s.15.05.46.05h.44c.12,0,.25.02.38.05h2.56c.07.03.15.07.23.1.09.03.16.05.23.05.17,0,.35,0,.54-.03.19-.02.37-.04.54-.08.17-.03.35-.05.54-.05h.39c.38-.03.72-.06,1.03-.08.31-.02.63-.03.97-.03.21,0,.41-.02.62-.05.21-.03.43.02.67.15.27.14.52.21.74.23.22.02.42.03.59.03.14,0,.2-.03.2-.1h.21c.1.03.21.13.31.28.1.15.15.25.15.28.34,1.3.74,2.86,1.18,4.69.44,1.83.92,3.79,1.41,5.87.49,2.09,1,4.21,1.51,6.36.51,2.15,1.01,4.21,1.49,6.18.48,1.97.89,3.74,1.23,5.31.07.34.11.58.13.72.02.14.04.29.08.46.03.24.13.63.28,1.18.15.55.23.96.23,1.23s-.07.43-.21.46c-.14.68-.43,1.03-.87,1.03h-.62Zm-21.8-12.46c.21,0,.31-.03.31-.1h.31c.07-.03.19-.09.36-.15.17-.07.38-.1.61-.1h.05l.36.26h2.41l-.36-2.31-.21-.97c-.07-.38-.14-.69-.21-.95s-.1-.5-.1-.74c0-.17-.05-.62-.15-1.36-.1-.73-.22-1.58-.36-2.54l-.21-1.44c-.1-.31-.18-.6-.23-.87-.05-.27-.09-.53-.13-.77l-.1-.61v-.26c-.07-.07-.1-.15-.1-.26,0-.14-.02-.21-.05-.21v.21c0,.14-.07.31-.21.51v.61c-.07.27-.12.55-.15.82-.03.27-.09.55-.15.82l-.46,2.41c-.27,1.37-.48,2.72-.61,4.05-.14,1.33-.34,2.65-.62,3.95Z"/>
        <path class="cls-1" d="m74.78,57.05c-.17,0-.33,0-.46-.03-.14-.02-.26-.04-.36-.08h-2.31l-2.26-.56-.21-.36s-.05-.19-.05-.56v-.67c0-.21-.02-.38-.05-.51l-.05-2.36c-.03-.27-.04-.59-.03-.95.02-.36,0-.79-.03-1.31l-.1-3.9c0-.44,0-.96.03-1.54.02-.58.04-1.25.08-2l.05-1.69c.03-.55.06-1.26.08-2.15.02-.89.03-1.95.03-3.18v-1.03c-.07-.14-.1-.32-.1-.56l-.05-.36c0-.85.05-1.74.15-2.67.03-.58.06-1.13.08-1.64.02-.51.03-1.01.03-1.49l-.05-1.44c-.03-.17-.05-.37-.05-.59v-.69c0-.07-.02-.12-.05-.15-.07-.07-.1-.14-.1-.21,0-.34.14-.63.41-.87.27-.24.62-.41,1.03-.51.27-.07.57-.13.9-.18.32-.05.71-.08,1.15-.08h10.51s.09.03.15.1l.21.15c.31.31.65.77,1.03,1.38.1.21.24.44.41.69.17.26.48.64.92,1.15.14.27.25.64.33,1.1.09.46.3.93.64,1.41l1.18,1.59c.14.24.27.54.41.9.14.36.31.78.51,1.26.07.14.13.27.18.41.05.14.11.27.18.41l.31.82c.03.2.12.38.26.51.03.07.06.12.08.15.02.03.03.07.03.1.14.27.42.64.85,1.1.43.46.71.69.85.69.17,0,.32-.23.44-.69.12-.46.23-.83.33-1.1.03-.03.07-.12.1-.26.03-.07.07-.15.1-.23.03-.09.09-.2.15-.33l.77-1.69,2.05-4.31.87-1.85c.07-.14.12-.26.15-.38.03-.12.07-.23.1-.33.07-.17.12-.27.15-.31.07-.17.18-.38.33-.64.15-.26.35-.57.59-.95.17-.27.32-.48.46-.62.07-.03.14-.09.2-.15s.12-.1.15-.1h15.59c.07,0,.15.26.26.77l.15,4.97c.03.72.06,1.63.08,2.74.02,1.11.03,2.44.03,3.97v2.92c0,.75-.03,1.6-.08,2.54-.05.94-.1,1.79-.15,2.54-.05.75-.09,1.27-.13,1.54l-.1,1.03v1.74c.03.24.05.54.05.9v1.26c0,.99,0,1.86.03,2.62.02.75.06,1.32.13,1.69v2.05l-.15.36-2.26.56h-2.31c-.14.03-.27.06-.41.08-.14.02-.29.03-.46.03-.31,0-.67,0-1.08-.03-.41-.02-.89-.04-1.44-.08l-1.28-.05c-.24-.03-.51-.07-.82-.1-.31-.03-.68-.05-1.13-.05l-1.95-.15c-.07,0-.12.02-.15.05h-.41c-.14,0-.24-.19-.31-.56-.21-.61-.31-1.76-.31-3.44v-1.44c0-.41-.02-.77-.05-1.08l-.05-2.77c-.03-.31-.05-.68-.05-1.13v-1.49c0-.27-.12-.41-.36-.41-.14,0-.27.17-.41.51l-.56,1.33-.46,1.28c-.07.2-.14.41-.2.62-.07.2-.15.39-.26.56l-.26.62c-.27.68-.66,1.46-1.15,2.33-.5.87-1.12,1.58-1.87,2.13-.38.24-.74.36-1.08.36h-.77c-.17,0-.34,0-.51-.03-.17-.02-.33-.04-.46-.08h-2.15c-.68-1.09-1.51-2.23-2.49-3.41-.97-1.18-1.75-2.42-2.33-3.72l-1.28-1.85c-.14-.21-.23-.37-.28-.49-.05-.12-.09-.18-.13-.18-.24,0-.36.14-.36.41v2.36c0,2.36-.03,4.27-.1,5.72-.07,1.45-.19,2.52-.36,3.21-.03.41-.12.62-.26.62h-.36l-.26-.05c-.58.03-1.1.07-1.56.1-.46.03-.86.07-1.21.1-.41.03-.86.09-1.36.15-.5.07-1.19.1-2.08.1Z"/>
      </g>
      <g>
        <path class="cls-1" d="m1.92,74.79l-.39.02c-.2,0-.35-.08-.45-.24-.1-.16-.16-.34-.18-.54-.02-.2-.03-.37-.03-.49v-.48c-.02-.26-.03-.53-.05-.83-.02-.29-.02-.55-.02-.78-.03-.66-.06-1.23-.08-1.69-.02-.46-.05-.83-.08-1.1,0-.26-.02-.53-.05-.82-.03-.29-.05-.48-.07-.59v-7.47c0-.15.05-.23.16-.25h.14l.07.02c.26,0,.55,0,.87-.02.32-.01.7-.03,1.12-.04.54-.02,1.04-.03,1.5-.03.47,0,.89-.01,1.27-.01h.23c.06.02.19.02.39.02h1.24c.18,0,.33,0,.44.02h2.25c.14.02.31.03.53.03.21,0,.48.01.8.01.14,0,.23,0,.28.02.06.02.13.03.19.03.07,0,.14.01.22.01.06,0,.11-.02.16-.07.32,0,.5.31.53.93.01.06.03.13.03.2,0,.08.01.14.01.2,0,.05,0,.15-.02.31s-.02.31-.02.44c0,.12,0,.27-.01.45,0,.18-.01.4-.01.66,0,.15-.08.23-.25.25-.17.02-.34.02-.5.02h-1.31l-.64.02c-.14.05-.37.07-.69.07s-.51,0-.53-.02l-.09.04s-.04.02-.07.02c0,.04,0,.08-.02.09-.02.02-.02.05-.02.11s-.01.24-.03.54c-.02.3-.05.64-.07,1.02-.02.38-.03.72-.03,1.04l-.02.04c0,.08.03.14.09.2h2.61c.32,0,.52.11.6.32.06.17.09.6.09,1.29v1.83c-.06.23-.18.34-.34.34-.06,0-.12,0-.17.01-.05,0-.11.02-.17.03l-.94.04h-.44c-.21,0-.37.02-.46.05l-.44.07h-.3c-.24,0-.4.03-.46.09-.02.02-.05.04-.09.07-.05.03-.08.08-.11.16,0,.65,0,1.2-.02,1.64-.02.45-.02.8-.02,1.05-.02.33-.04.62-.07.86-.03.24-.08.45-.14.61-.14,0-.3,0-.49.01-.19,0-.42.02-.68.03-.12,0-.22,0-.3.01-.08,0-.13.02-.16.03h-.23c-.08,0-.12,0-.14-.02-.02-.02-.05-.02-.09-.02l-.07-.02s-.02-.02-.07-.02c-.06,0-.12.03-.18.09l-1.81-.23s-.05.02-.09.02l-.21.07-1.38.16Z"/>
        <path class="cls-1" d="m19.38,74.68h-3.62c-.17,0-.28,0-.34-.02-.08-.02-.16-.03-.25-.03-.09,0-.19-.02-.3-.03l-.48-.11c-.08,0-.14-.02-.18-.07v-.05c0-.39-.02-.91-.07-1.54,0-.24-.01-.44-.03-.61-.02-.17-.04-.32-.06-.45l-.05-.95c-.02-.14-.02-.29-.01-.45,0-.17,0-.35-.01-.57l-.05-.68c-.02-.29-.02-.54-.01-.77,0-.23,0-.42-.01-.57,0-.08,0-.17-.01-.28,0-.11-.01-.3-.01-.57v-1.17c0-1.43.01-2.59.03-3.48.02-.88.06-1.66.13-2.32,0-.15.19-.29.57-.41.15-.01.33-.03.54-.03.21,0,.4-.01.58-.01.63,0,1.17,0,1.62-.01.45,0,.82-.03,1.11-.06.9-.01,1.69-.03,2.36-.03.67,0,1.25-.01,1.72-.01h1.01c.64,0,1.2.02,1.67.04.47.03.88.06,1.22.09.23,0,.41.28.53.84.03.06.05.15.07.27.02.12.05.31.09.57.03.33.06.59.09.77.03.18.06.35.09.52.02.03.02.11.02.25-.02.02-.02.08-.02.18-.02.14-.1.2-.25.2-.03-.01-.11-.02-.25-.02-.34,0-.7.02-1.09.06-.39.04-.83.07-1.32.1l-1.19.09-1.19.11s-.11.08-.18.25c-.05.11-.09.18-.14.22-.05.04-.08.12-.09.26l-.05.77c-.02.2,0,.33.07.39.06.06.18.09.34.09h2.04c.58,0,1.26.04,2.04.14h.23c.29,0,.47.17.53.5l.05,2.24v.07c0,.27-.26.42-.78.45-.14.05-.34.08-.62.09s-.7.02-1.26.02h-1.11c-.18,0-.3,0-.38-.02h-.62c-.09,0-.15,0-.18.02-.15.03-.26.06-.31.1-.05.04-.08.14-.08.29s0,.45-.02.87c-.02.06-.03.14-.03.24,0,.1-.01.31-.01.65.92,0,1.64,0,2.16-.02.52-.02.92-.03,1.22-.05.44-.01.84-.03,1.2-.03.36,0,.68-.01.97-.01.05,0,.11.05.18.16.06.11.15.38.25.81.11.44.24,1.03.39,1.79.03.08.05.19.05.34,0,.32-.15.48-.44.48-.49,0-1.03.02-1.63.07-.11.01-.26.02-.45.02h-2.96c-.65,0-1.25,0-1.79.01-.54,0-.95.01-1.23.01Z"/>
        <path class="cls-1" d="m34.01,75.35c-1.02,0-1.99-.12-2.89-.36-.9-.24-1.69-.58-2.36-1.02-.08-.36-.15-.72-.22-1.06-.07-.35-.14-.75-.21-1.2-.07-.45-.15-1.01-.24-1.68v-.07c.03-.14.14-.26.32-.39.54.35,1.02.6,1.47.77.44.17.81.25,1.1.25h.69l.39.02c.35,0,.68-.05.99-.16.4-.15.62-.35.68-.59.05-.24-.04-.47-.29-.68-.24-.21-.62-.35-1.12-.41-.7-.09-1.38-.35-2.02-.79-.64-.44-1.17-.99-1.57-1.65-.41-.66-.61-1.37-.61-2.13,0-1.34.37-2.39,1.12-3.14.75-.75,1.7-1.29,2.87-1.62,1.02-.29,2.16-.43,3.39-.43.35,0,.74.02,1.17.06.43.04.96.1,1.61.19.14.08.34.12.62.14l.6.14c.26.06.48.09.65.1.18,0,.32.01.42.01.02,0,.03,0,.03.01,0,0,.02.01.03.01.03.02.06.04.09.07.03.08.06.12.09.15s.05.03.07.03h.05l.05.5c0,.14,0,.26.02.37.01.11.03.22.05.33.03.2.05.4.07.6.02.2.02.41.02.62,0,.74-.15,1.22-.46,1.45l-2-.25h-.32c-.11,0-.31,0-.6-.02-.29-.01-.6-.02-.93-.01-.33,0-.61.04-.85.11s-.36.18-.36.33c0,.18.06.36.17.53.11.17.29.32.54.44.11.06.21.12.3.18s.19.11.3.14c.12.03.22.06.3.09.08.03.12.05.14.07.54.18,1.03.4,1.48.67.45.26.88.6,1.3,1.01.44.42.74.92.89,1.51.15.58.21,1.15.18,1.71-.14,1.13-.54,2.11-1.22,2.92-.38.38-.8.7-1.24.96-.44.26-.93.49-1.44.67-.92.33-2.03.5-3.33.5Z"/>
        <path class="cls-1" d="m46.23,74.81c-.17,0-.33-.14-.48-.43-.23-.5-.34-1.39-.34-2.67,0-.62,0-1.36.01-2.23,0-.87.03-1.7.06-2.5.02-.26.02-.59.02-1.01v-1.51h-3.21c-.4,0-.64-.41-.73-1.22-.02-.21-.03-.48-.06-.79-.02-.32-.03-.69-.03-1.11v-.51c0-.05,0-.1.02-.15v-.54c0-.09.05-.17.14-.23s.19-.11.3-.14c.17-.04.4-.07.69-.07h2.36c.2,0,.37,0,.5.01.14,0,.26.01.37.01l.8.02h8.76c.18,0,.32,0,.41.02h.14c.06,0,.12,0,.18.02.14.02.26.05.36.09.1.05.15.1.15.16v4.01c0,.2-.05.31-.16.35s-.23.06-.37.06h-3.14v1.51c0,.1,0,.17-.02.22,0,.21,0,.55-.02,1.03s-.04,1.08-.07,1.8l-.02.68c-.02.29-.03.62-.06,1.01-.02.38-.04.65-.06.78v2.13c0,.51-.11.83-.32.95-.11.03-.19.05-.25.07-.06.01-.11.03-.16.04l-.53.02c-.29.02-.54.03-.76.03-.21,0-.38.01-.5.01l-2.36.04c-.14,0-.34,0-.61.01-.27,0-.6.01-1,.01Z"/>
        <path class="cls-1" d="m59.12,75.01l-.6.09c-.21,0-.37-.11-.47-.33s-.16-.46-.18-.72c-.02-.26-.03-.46-.03-.6,0-.29,0-.45-.02-.5-.02-.26-.03-.59-.05-.99-.02-.4-.05-.87-.09-1.42l-.09-1c-.06-.79-.1-1.45-.11-2s-.02-1.02-.02-1.39v-6.32c0-.15.12-.25.37-.31.24-.05.53-.08.85-.08h.32c.12,0,.24,0,.37.02.12.02.23.03.32.03.09,0,.17.01.23.01.12.02.29.03.5.03.21,0,.46.01.73.01l.09-.07h1.15c.08.04.14.07.21.07h.09s.13-.05.3-.05c.02-.01.03-.02.05-.02h.05c.06,0,.12,0,.18.02l.16.05h1.4c.21,0,.36.05.44.15.08.1.11.18.11.26l.07,4.1s0,.09-.02.14l-.07.39c-.06.32-.09.6-.09.85v5.72l-.07.97c-.02.23-.03.43-.05.61-.02.18-.02.34,0,.48,0,.68-.08,1.13-.25,1.36-.09.14-.24.2-.46.2l-.02-.04-.11-.02s-.05,0-.05.02h-.11s-.08.03-.11.04-.05.03-.07.05c-.05,0-.12,0-.23-.02-.11-.02-.24-.04-.39-.07l-.37-.02c-.08,0-.12.04-.14.11h-2.36l-.69.11-.64.07Z"/>
        <path class="cls-1" d="m72.31,74.95c-.11,0-.21-.01-.31-.03-.1-.02-.21-.04-.33-.06-.11-.02-.21-.03-.32-.04-.11-.02-.21-.02-.3-.02-.03,0-.05,0-.05.02h-.14c-.15-.09-.23-.17-.23-.23l-1.63-4.78c-.17-.5-.37-1.12-.6-1.86-.23-.74-.5-1.54-.8-2.39-.31-.85-.66-1.69-1.08-2.53-.02-.03-.02-.1-.02-.2l-.07-.29c-.03-.14-.05-.23-.07-.29-.02-.06-.02-.16-.02-.29,0-.12-.03-.27-.08-.44-.05-.17-.06-.35-.01-.52.05-.17.21-.31.5-.42l.53-.23,1.86-.41s.05,0,.09-.01c.05,0,.08,0,.09.01.03.02.05,0,.06-.06s.02-.08.03-.08c.03.02.05.02.07,0,.02-.01.03-.02.05-.02.05-.01.08-.02.1-.02s.06,0,.1-.02l.14-.07.46-.02,1.45-.27c.34-.11.6-.09.79.03.19.13.34.3.44.51s.17.39.22.54l.39,1.02c.05.11.13.34.24.69.11.35.24.72.37,1.11.13.38.22.68.26.89l.02.09c0,.09,0,.17.02.23.08.06.14.15.2.28.05.13.09.23.1.31l.14.48.3.66.46,1.38.14.34.23.38s.04-.11.11-.25c.08-.14.15-.28.23-.43.08-.15.11-.24.11-.27l.28-1.06.23-.82c.03-.08.05-.15.06-.24,0-.08.02-.15.03-.22l.07-.36.07-.34c.03-.15.09-.29.17-.42.08-.13.16-.34.22-.62.35-1.37.61-2.4.78-3.08.17-.68.43-.97.78-.88l.99.04,1.74.18c.08,0,.16.03.26.09.1.06.18.08.24.07l.71.07c.21.02.43.14.64.36.21.23.26.48.14.75,0,.08,0,.18-.02.31-.02.13-.05.33-.09.6-.02.06-.04.12-.07.18-.03.06-.05.11-.05.14-.02.05-.02.08-.02.11s0,.05-.02.07c-.15.48-.34,1.09-.55,1.83-.21.74-.44,1.52-.67,2.33-.23.81-.44,1.57-.62,2.28-.18.7-.34,1.25-.46,1.64l-1.19,4.21s-.08.12-.23.23h-.07l-.09-.02h-.17c-.05,0-.1.02-.15.07-.06.06-.15.09-.28.09-.23,0-.44-.03-.62-.09-.12-.02-.23-.03-.33-.03-.1,0-.19-.01-.26-.01-.49.03-1.09.06-1.81.08s-1.43.04-2.13.05c-.7,0-1.28.01-1.74.01Z"/>
        <path class="cls-1" d="m100.27,74.63c-.11,0-.2,0-.28-.01-.08,0-.15-.02-.23-.03h-3.81s-.04,0-.07-.01c-.03,0-.07-.02-.11-.03h-.69l-.99-.02c-.06,0-.1,0-.11.02-.03.03-.09.05-.18.05h-.07l-.02-.02c-.06,0-.09,0-.09-.02-.05-.01-.09-.02-.14-.02h-.11c-.03-.12-.07-.34-.11-.67-.05-.32-.15-.79-.32-1.39l-.18-.63h-1.28c-.24,0-.46,0-.64-.02-.18-.01-.37-.04-.57-.09,0,.06,0,.13-.02.2s-.03.18-.05.32c-.11.56-.21,1.05-.32,1.47-.11.42-.2.69-.28.81h-.44c-.17,0-.37,0-.6.02-.23,0-.37.02-.44.05h-.21s-.02-.01-.02-.05c-.02-.01-.04-.02-.07-.02-.12,0-.21,0-.25.02v.05h-3.05c-.06.01-.13.03-.22.03-.08,0-.19.01-.31.01h-.23c-.12,0-.21-.04-.25-.11-.11-.15-.16-.32-.16-.5,0-.11,0-.18.02-.23v-.22c0-.07,0-.15.02-.24.03-.17.07-.29.11-.36.05-.17.07-.28.07-.34.03-.18.17-.82.42-1.91.25-1.09.6-2.57,1.04-4.43.44-1.86.96-4.01,1.56-6.45,0-.02.02-.05.06-.11s.09-.11.15-.14h.09l.05.04c.08,0,.13-.01.17-.04s.08-.05.13-.07c.12-.03.21-.04.28-.04.11,0,.21,0,.31.01.1,0,.2.02.31.03.03,0,.07,0,.11-.01.05,0,.08,0,.11.03.03.02.08.03.15.03.07,0,.13.01.2.01,0-.03.04-.05.11-.06.08,0,.13-.01.16-.01.14-.01.3-.03.48-.03.18,0,.43-.01.73-.01h2.18s.07.02.21.02h.2c.05,0,.11,0,.17.02h1.15s.07.03.1.05.07.02.1.02c.08,0,.16,0,.24-.01.08,0,.16-.02.24-.03.08-.01.16-.02.24-.02h.17c.17-.01.32-.03.46-.03.14,0,.28-.01.44-.01.09,0,.18,0,.28-.02.09-.01.19,0,.3.07.12.06.23.09.33.1.1,0,.19.01.26.01.06,0,.09-.01.09-.04h.09s.09.06.14.12.07.11.07.12c.15.57.33,1.26.53,2.07s.41,1.67.63,2.59.45,1.86.68,2.81c.23.95.45,1.86.66,2.73.21.87.4,1.65.55,2.34.03.15.05.26.06.32s.02.13.03.2c.02.11.06.28.13.52.07.24.1.42.1.54s-.03.19-.09.2c-.06.3-.19.45-.39.45h-.28Zm-9.75-5.5c.09,0,.14-.02.14-.05h.14s.08-.04.16-.07c.08-.03.17-.05.28-.05h.02l.16.11h1.08l-.16-1.02-.09-.43c-.03-.17-.06-.31-.09-.42s-.05-.22-.05-.33c0-.08-.02-.28-.07-.6-.05-.32-.1-.7-.16-1.12l-.09-.63c-.05-.14-.08-.26-.1-.39-.02-.12-.04-.23-.06-.34l-.05-.27v-.11s-.05-.07-.05-.11c0-.06,0-.09-.02-.09v.09c0,.06-.03.14-.09.23v.27c-.03.12-.05.24-.07.36s-.04.24-.07.36l-.21,1.06c-.12.6-.21,1.2-.27,1.79-.06.59-.15,1.17-.28,1.74Z"/>
        <path class="cls-1" d="m112.99,74.81h-3.46c-.81,0-1.51,0-2.11-.01-.6,0-1.08-.01-1.45-.01s-.66,0-.92-.01c-.26,0-.47-.01-.64-.01l-1.95-.02c-.15,0-.29-.06-.42-.19-.13-.13-.2-.27-.2-.42v-7.41l-.02-1.27c-.02-.66,0-1.29.06-1.88.05-.59.08-1.3.08-2.13v-.54c0-.47.08-.82.23-1.06.08-.14.21-.2.41-.2.4,0,.8,0,1.22.01.41,0,.85.02,1.31.03.06.02.15.02.25.02h1c.19,0,.35,0,.47.02h1.88c.29,0,.55.06.78.17.23.11.34.46.34,1.03l-.02.18s0,.08-.01.14c0,.06-.01.14-.01.25-.06.2-.09.36-.09.5,0,.09,0,.19.02.31.02.11.04.23.07.35,0,.09,0,.17.01.23,0,.06.01.11.01.14l.02.14v5.93c0,.14.05.22.14.24.09.02.21.03.37.03h1.74c.23,0,.5,0,.83-.01.32,0,.7-.01,1.15-.01.17,0,.31.05.42.15.11.1.17.2.17.31v4.55c0,.11-.07.2-.22.27-.15.08-.3.12-.47.14-.2.04-.53.07-.99.07Z"/>
      </g>
    </g>
  </g>
</svg>