<?xml version="1.0" encoding="utf-8"?>
<!-- Generator: Adobe Illustrator 27.2.0, SVG Export Plug-In . SVG Version: 6.00 Build 0)  -->
<svg version="1.1" id="Calque_2_00000123412385532292107820000000024708351831566486_"
	 xmlns="http://www.w3.org/2000/svg" xmlns:xlink="http://www.w3.org/1999/xlink" x="0px" y="0px" viewBox="0 0 348.5 226.3"
	 style="enable-background:new 0 0 348.5 226.3;" xml:space="preserve">
<style type="text/css">
	.st0{fill:#FF84C0;}
</style>
<g id="Calque_1-2">
	<g>
		<g>
			<path class="st0" d="M23.4,62.7c-3.9,0-7.5-0.5-11-1.4s-6.4-2.2-9-3.9c-0.3-1.4-0.6-2.8-0.8-4.1c-0.3-1.3-0.5-2.9-0.8-4.6
				S1.3,44.8,1,42.3V42c0.1-0.5,0.5-1,1.2-1.5c2,1.3,3.9,2.3,5.6,3s3.1,1,4.2,1h2.6l1.5,0.1c1.3,0,2.6-0.2,3.7-0.6
				c1.5-0.6,2.4-1.3,2.6-2.3c0.2-0.9-0.2-1.8-1.1-2.6s-2.4-1.3-4.3-1.6c-2.7-0.3-5.2-1.4-7.7-3s-4.4-3.8-6-6.4s-2.3-5.3-2.3-8.2
				c0-5.2,1.4-9.2,4.3-12.1s6.5-4.9,10.9-6.2C20.1,0.6,24.4,0,29.1,0c1.3,0,2.8,0.1,4.4,0.2c1.6,0.2,3.7,0.4,6.1,0.7
				c0.5,0.3,1.3,0.5,2.3,0.5L44.2,2c1,0.2,1.8,0.4,2.5,0.4c0.7,0,1.2,0,1.6,0c0.1,0,0.1,0,0.1,0c0,0,0.1,0,0.1,0
				c0.1,0.1,0.2,0.2,0.3,0.3c0.1,0.3,0.2,0.5,0.3,0.6s0.2,0.1,0.3,0.1h0.2l0.2,1.9c0,0.5,0,1,0.1,1.4c0.1,0.4,0.1,0.9,0.2,1.3
				c0.1,0.8,0.2,1.5,0.3,2.3c0.1,0.8,0.1,1.6,0.1,2.4c0,2.8-0.6,4.7-1.7,5.6l-7.6-1H40c-0.4,0-1.2,0-2.3-0.1s-2.3-0.1-3.5,0
				c-1.2,0-2.3,0.2-3.2,0.4c-0.9,0.3-1.4,0.7-1.4,1.3c0,0.7,0.2,1.4,0.6,2c0.4,0.7,1.1,1.2,2,1.7c0.4,0.2,0.8,0.5,1.1,0.7
				c0.3,0.2,0.7,0.4,1.1,0.5c0.5,0.1,0.8,0.2,1.1,0.4s0.5,0.2,0.5,0.3c2,0.7,3.9,1.5,5.6,2.6s3.3,2.3,4.9,3.9
				c1.7,1.6,2.8,3.5,3.4,5.8c0.6,2.2,0.8,4.4,0.7,6.6c-0.5,4.3-2.1,8.1-4.6,11.2c-1.5,1.5-3,2.7-4.7,3.7S38,60.1,36,60.8
				C32.6,62.1,28.3,62.7,23.4,62.7L23.4,62.7z"/>
			<path class="st0" d="M69.8,60.6c-0.6,0-1.2-0.5-1.8-1.7c-0.9-1.9-1.3-5.3-1.3-10.3c0-2.4,0-5.2,0-8.6c0-3.3,0.1-6.5,0.2-9.6
				c0.1-1,0.1-2.3,0.1-3.9v-5.8H54.8c-1.5,0-2.4-1.6-2.8-4.7c-0.1-0.8-0.1-1.8-0.2-3c-0.1-1.2-0.1-2.6-0.1-4.3v-2
				c0-0.2,0-0.4,0.1-0.6V4.3c0-0.3,0.2-0.6,0.5-0.9C52.6,3.2,53,3,53.4,2.9c0.6-0.2,1.5-0.3,2.6-0.3h9c0.8,0,1.4,0,1.9,0
				c0.5,0,1,0,1.4,0l3.1,0.1h33.2c0.7,0,1.2,0,1.6,0.1h0.5c0.2,0,0.5,0,0.7,0.1c0.5,0.1,1,0.2,1.3,0.3c0.4,0.2,0.6,0.4,0.6,0.6v15.4
				c0,0.8-0.2,1.2-0.6,1.4s-0.9,0.2-1.4,0.2H95.4v5.8c0,0.4,0,0.6-0.1,0.8c0,0.8,0,2.1-0.1,4s-0.2,4.1-0.3,6.9L94.8,41
				c-0.1,1.1-0.1,2.4-0.2,3.9c-0.1,1.5-0.2,2.5-0.2,3V56c0,2-0.4,3.2-1.2,3.7c-0.4,0.1-0.7,0.2-1,0.3c-0.2,0.1-0.4,0.1-0.6,0.2
				l-2,0.1c-1.1,0.1-2.1,0.1-2.9,0.1c-0.8,0-1.4,0-1.9,0l-9,0.2c-0.5,0-1.3,0-2.3,0C72.5,60.6,71.3,60.6,69.8,60.6L69.8,60.6z"/>
			<path class="st0" d="M159.1,63.6c-0.4,0-0.6,0-0.7-0.1c-0.8-0.5-1.5-1.1-2-1.7c-0.1-0.1-0.2-0.2-0.2-0.3c0-0.1-0.1-0.1-0.1-0.1
				c-0.1-0.1-0.2-0.2-0.3-0.2h-0.1l-0.4-0.3l-8.5-11.4c-0.1-0.4-0.3-0.8-0.6-1.2c-0.3-0.4-0.5-0.8-0.8-1.2c-0.2-0.2-0.4-0.4-0.6-0.6
				c-0.2-0.2-0.3-0.4-0.4-0.7c-0.2-0.3-0.5-0.5-0.7-0.5s-0.4,0.3-0.5,1c-0.1,0.8-0.2,1.9-0.2,3.5s0,3,0,4.3c0,2.3-0.1,4.3-0.4,5.9
				c-0.1,0.7-0.3,1-0.7,1H141l-0.3-0.2h-0.1c-1.3,0.1-3.1,0.2-5.4,0.4s-4.5,0.3-6.7,0.4c-2.2,0.1-4,0.2-5.3,0.2c-0.3,0-0.6,0-0.8,0
				c-0.2,0-0.4-0.1-0.6-0.1h-4.1l-3-1l-0.3-0.6v-0.3c-0.1-0.1-0.1-0.3-0.1-0.7c0-0.1,0-0.3-0.1-0.7s-0.1-0.7-0.2-1.2
				c-0.2-1.7-0.3-3.2-0.3-4.4c0-1.2,0-1.7,0-1.3c-0.1-0.8-0.2-1.8-0.3-3c-0.1-1.3-0.2-2.8-0.3-4.6l-0.2-3c0-2-0.1-3.6-0.3-4.7
				l-0.3-1.8c-0.2-1.2-0.2-2.3-0.2-3.3c0-1,0-2.1,0-3c0-0.1,0-0.2,0.1-0.3v-0.8c0.1-0.2,0.1-0.8,0.1-1.6l0.2-1.5l0.1-1
				c0-1.2-0.1-2.9-0.3-5.2c-0.2-1.4-0.3-3.2-0.3-5.3c0-1.5,0-2.8,0.1-4s0.2-2.1,0.5-2.8c0.4-2,1.2-3,2.5-3c3.1,0,6.3,0,9.5,0.1
				c3.2,0.1,6.4,0.1,9.6,0.1c0.8,0,1.7,0,2.7,0s2.3,0.1,3.8,0.1l3.2,0.1l11.8,0.2c7.1,0.2,12.6,2,16.4,5.4c1.7,1.4,2.9,3.1,3.7,5.1
				c0.8,2,1.2,4.1,1.2,6.3c0,2.5-0.4,4.7-1.3,6.7s-2,3.7-3.5,5.2c-1.4,1.3-3,2.4-4.8,3.2c0.2,0.1,0.5,0.3,0.8,0.7
				c0.3,0.4,0.5,0.9,0.6,1.3c0.1,0.2,0.3,0.4,0.5,0.5c0.2,0.1,0.4,0.3,0.6,0.6l1.1,1.4l0.6,0.6c0.2,0.2,0.3,0.3,0.4,0.5
				c0.1,0.2,0.2,0.3,0.3,0.5l2.7,4c0.8,1.2,1.5,2.1,2.1,2.9s1,1.5,1.3,2c0.4,0.8,0.6,1.3,0.6,1.7c0,1-0.9,2.1-2.6,3.2
				c-0.4,0.2-0.8,0.5-1.1,0.7c-0.4,0.2-0.8,0.5-1.2,0.7c-0.9,0.4-1.6,0.8-2,1.2l-3,2.1c-0.6,0.4-1.2,0.7-1.7,0.9s-1.2,0.4-1.8,0.6
				c-0.1,0-0.2,0-0.2,0.1s0,0.1-0.1,0c-0.1,0-0.2,0-0.3,0.1c-0.2,0.2-1.1,0.5-2.7,1c-0.3,0.2-0.8,0.3-1.5,0.4
				c-0.4,0.3-0.8,0.4-1.1,0.4h-0.4c-0.1,0.2-0.2,0.3-0.3,0.3L159.1,63.6L159.1,63.6z M142.6,33.2h1.2c1.7,0,3-0.8,3.6-2.5
				c0.7-1.6,1.1-3.5,1.2-5.4c0.1-0.6,0.1-1.3,0.1-2s0-1.5,0-2.3v-0.9c0-1.3-0.1-2.8-0.3-4.4s-0.9-2.8-2.3-3.6
				c-0.8-0.5-1.6-0.8-2.5-0.8c-0.3,0-0.5,0.4-0.6,1c-0.5,1.2-0.8,3.2-0.9,5.9c-0.1,0.5-0.1,1.1-0.2,1.7c-0.1,0.6-0.1,1.3-0.2,2.1
				l-0.1,2.5c-0.1,1.6-0.1,3.1-0.1,4.5v3.6c0,0.2,0.1,0.3,0.2,0.3L142.6,33.2L142.6,33.2z"/>
			<path class="st0" d="M203.5,60.1h-13.8c-0.6,0-1.1,0-1.3-0.1c-0.3-0.1-0.6-0.1-1-0.1s-0.7-0.1-1.1-0.1l-1.8-0.4
				c-0.3,0-0.5-0.1-0.7-0.3v-0.2c0-1.5-0.1-3.5-0.3-5.9c0-0.9,0-1.7-0.1-2.3c-0.1-0.6-0.2-1.2-0.2-1.7l-0.2-3.7
				c-0.1-0.5-0.1-1.1,0-1.7c0-0.6,0-1.4,0-2.2l-0.2-2.6c-0.1-1.1-0.1-2.1,0-3c0-0.9,0-1.6,0-2.2c0-0.3,0-0.7,0-1.1s0-1.2,0-2.2v-4.5
				c0-5.5,0-10,0.1-13.4c0.1-3.4,0.2-6.4,0.5-8.9c0-0.6,0.7-1.1,2.2-1.6c0.6-0.1,1.3-0.1,2-0.1s1.5,0,2.2,0c2.4,0,4.4,0,6.1,0
				s3.1-0.1,4.2-0.2c3.4-0.1,6.4-0.1,9-0.1s4.7,0,6.5,0h3.8c2.4,0,4.6,0.1,6.4,0.2c1.8,0.1,3.3,0.2,4.6,0.4c0.9,0,1.5,1.1,2,3.2
				c0.1,0.2,0.2,0.6,0.3,1s0.2,1.2,0.4,2.2c0.1,1.3,0.2,2.3,0.4,3c0.1,0.7,0.2,1.4,0.4,2c0.1,0.1,0.1,0.4,0.1,1
				c-0.1,0.1-0.1,0.3-0.1,0.7c-0.1,0.5-0.4,0.8-1,0.8c-0.1-0.1-0.4-0.1-1-0.1c-1.3,0-2.6,0.1-4.1,0.2c-1.5,0.1-3.1,0.3-5,0.4
				l-4.5,0.4l-4.5,0.4c-0.2,0-0.4,0.3-0.7,1c-0.2,0.4-0.4,0.7-0.5,0.8s-0.3,0.5-0.4,1l-0.2,3c-0.1,0.8,0,1.2,0.3,1.5
				s0.7,0.4,1.3,0.4h7.7c2.2,0,4.8,0.2,7.7,0.5h0.9c1.1,0,1.8,0.6,2,1.9l0.2,8.6v0.3c0,1-1,1.6-3,1.7c-0.5,0.2-1.3,0.3-2.4,0.3
				c-1,0.1-2.6,0.1-4.8,0.1h-4.2c-0.7,0-1.1,0-1.4-0.1h-2.4c-0.4,0-0.6,0-0.7,0.1c-0.6,0.1-1,0.2-1.2,0.4c-0.2,0.2-0.3,0.5-0.3,1.1
				s0,1.7-0.1,3.3c-0.1,0.2-0.1,0.5-0.1,0.9c0,0.4,0,1.2,0,2.5c3.5,0,6.2,0,8.2-0.1s3.5-0.1,4.6-0.2c1.7-0.1,3.2-0.1,4.6-0.1
				c1.4,0,2.6,0,3.7,0c0.2,0,0.4,0.2,0.7,0.6c0.2,0.4,0.6,1.5,1,3.1c0.4,1.7,0.9,4,1.5,6.9c0.1,0.3,0.2,0.7,0.2,1.3
				c0,1.2-0.6,1.8-1.6,1.8c-1.9,0-3.9,0.1-6.2,0.3c-0.4,0.1-1,0.1-1.7,0.1h-11.2c-2.5,0-4.7,0-6.8,0
				C206.1,60.1,204.5,60.1,203.5,60.1L203.5,60.1z"/>
			<path class="st0" d="M259.6,60.1h-13.8c-0.6,0-1.1,0-1.3-0.1c-0.3-0.1-0.6-0.1-1-0.1c-0.4,0-0.7-0.1-1.1-0.1l-1.8-0.4
				c-0.3,0-0.5-0.1-0.7-0.3v-0.2c0-1.5-0.1-3.5-0.3-5.9c0-0.9,0-1.7-0.1-2.3c-0.1-0.6-0.2-1.2-0.2-1.7l-0.2-3.7
				c-0.1-0.5-0.1-1.1,0-1.7c0-0.6,0-1.4,0-2.2l-0.2-2.6c-0.1-1.1-0.1-2.1,0-3c0-0.9,0-1.6,0-2.2c0-0.3,0-0.7,0-1.1s0-1.2,0-2.2v-4.5
				c0-5.5,0-10,0.1-13.4c0.1-3.4,0.2-6.4,0.5-8.9c0-0.6,0.7-1.1,2.2-1.6c0.6-0.1,1.3-0.1,2-0.1s1.5,0,2.2,0c2.4,0,4.4,0,6.1,0
				s3.1-0.1,4.2-0.2c3.4-0.1,6.4-0.1,9-0.1s4.7,0,6.5,0h3.8c2.4,0,4.5,0.1,6.4,0.2c1.8,0.1,3.3,0.2,4.6,0.4c0.9,0,1.5,1.1,2,3.2
				c0.1,0.2,0.2,0.6,0.3,1s0.2,1.2,0.4,2.2c0.1,1.3,0.2,2.3,0.4,3s0.2,1.4,0.4,2c0.1,0.1,0.1,0.4,0.1,1c-0.1,0.1-0.1,0.3-0.1,0.7
				c-0.1,0.5-0.4,0.8-1,0.8c-0.1-0.1-0.4-0.1-1-0.1c-1.3,0-2.6,0.1-4.1,0.2c-1.5,0.1-3.1,0.3-5,0.4l-4.5,0.4l-4.5,0.4
				c-0.2,0-0.4,0.3-0.7,1c-0.2,0.4-0.4,0.7-0.5,0.8c-0.2,0.1-0.3,0.5-0.4,1l-0.2,3c-0.1,0.8,0,1.2,0.3,1.5s0.7,0.4,1.3,0.4h7.7
				c2.2,0,4.8,0.2,7.7,0.5h0.9c1.1,0,1.8,0.6,2,1.9l0.2,8.6v0.3c0,1-1,1.6-3,1.7c-0.5,0.2-1.3,0.3-2.4,0.3c-1,0.1-2.6,0.1-4.8,0.1
				h-4.2c-0.7,0-1.1,0-1.4-0.1h-2.4c-0.4,0-0.6,0-0.7,0.1c-0.6,0.1-1,0.2-1.2,0.4c-0.2,0.2-0.3,0.5-0.3,1.1s0,1.7-0.1,3.3
				c-0.1,0.2-0.1,0.5-0.1,0.9c0,0.4,0,1.2,0,2.5c3.5,0,6.2,0,8.2-0.1s3.5-0.1,4.6-0.2c1.7-0.1,3.2-0.1,4.6-0.1c1.4,0,2.6,0,3.7,0
				c0.2,0,0.4,0.2,0.7,0.6c0.2,0.4,0.5,1.5,1,3.1s0.9,4,1.5,6.9c0.1,0.3,0.2,0.7,0.2,1.3c0,1.2-0.5,1.8-1.6,1.8
				c-1.9,0-3.9,0.1-6.2,0.3c-0.4,0.1-1,0.1-1.7,0.1H271c-2.5,0-4.7,0-6.8,0C262.2,60.1,260.6,60.1,259.6,60.1L259.6,60.1z"/>
			<path class="st0" d="M309,60.6c-0.6,0-1.2-0.5-1.8-1.7c-0.9-1.9-1.3-5.3-1.3-10.3c0-2.4,0-5.2,0-8.6c0-3.3,0.1-6.5,0.2-9.6
				c0.1-1,0.1-2.3,0.1-3.9v-5.8h-12.2c-1.5,0-2.4-1.6-2.8-4.7c-0.1-0.8-0.1-1.8-0.2-3c-0.1-1.2-0.1-2.6-0.1-4.3v-2
				c0-0.2,0-0.4,0.1-0.6V4.3c0-0.3,0.2-0.6,0.5-0.9c0.4-0.2,0.7-0.4,1.1-0.5c0.6-0.2,1.5-0.3,2.6-0.3h9c0.8,0,1.4,0,1.9,0s1,0,1.4,0
				l3,0.1h33.2c0.7,0,1.2,0,1.6,0.1h0.5c0.2,0,0.5,0,0.7,0.1c0.5,0.1,1,0.2,1.4,0.3c0.4,0.2,0.6,0.4,0.6,0.6v15.4
				c0,0.8-0.2,1.2-0.6,1.4c-0.4,0.1-0.9,0.2-1.4,0.2h-11.9v5.8c0,0.4,0,0.6-0.1,0.8c0,0.8,0,2.1-0.1,4s-0.1,4.1-0.3,6.9l-0.1,2.6
				c-0.1,1.1-0.1,2.4-0.2,3.9s-0.2,2.5-0.2,3V56c0,2-0.4,3.2-1.2,3.7c-0.4,0.1-0.7,0.2-1,0.3c-0.2,0.1-0.4,0.1-0.6,0.2l-2,0.1
				c-1.1,0.1-2.1,0.1-2.9,0.1c-0.8,0-1.5,0-1.9,0l-9,0.2c-0.5,0-1.3,0-2.3,0C311.8,60.6,310.5,60.6,309,60.6L309,60.6z"/>
			<path class="st0" d="M41,171.6c-2.2,0.2-4.2,0.3-6.1,0.2s-3.8-0.1-5.8-0.1c-3.4,0-6.2-0.1-8.5-0.5c-2.3-0.3-4.4-0.9-6.4-1.6
				c-2-0.8-4.4-1.8-7.3-3.2l-6.8-3.2c-0.1-0.1-0.2-0.4-0.2-0.8l0.3-3.2c0.1-0.5,0.2-1.1,0.3-1.6c0.1-0.6,0.2-1.1,0.3-1.5v-3.6
				c0-1.8,0-3.8,0.1-5.9c0-2.1,0.1-4.1,0.2-5.9c0.1-1.9,0.2-3.1,0.3-3.9c0-0.6,0-1.1,0.1-1.5c0-0.4,0.1-0.7,0.1-0.9s0-0.4,0.1-0.6
				c0-0.1,0.1-0.3,0.4-0.5c0.3-0.2,0.7-0.1,1.5,0.5c3.7,1.2,6.4,2.2,8.2,2.9c1.8,0.7,3.2,1.1,4.3,1.4s2.3,0.4,3.8,0.4
				c0.9,0,1.9-0.4,2.8-1.1c0.9-0.8,1.6-1.9,2-3.5c0.2-0.3,0.6-1.4,1.1-3.2c0.2-0.9,0.4-1.9,0.6-3.1c0.1-0.4,0.1-1.1,0.1-2v-3.4
				c0-2.4,0-5.7,0.1-10c0.1-4.3,0.2-9.8,0.3-16.5v-6.6L27,72.3c0-1.6,0.4-2.8,1.1-3.5c0.8-0.7,1.6-1.1,2.5-1.2
				c0.9-0.2,1.5-0.2,1.8-0.2l12.3-0.2h29c2.9,0,4.8,0.5,5.8,1.5c0.2,0.4,0.4,0.9,0.6,1.5c0.2,0.6,0.3,1.3,0.3,2.2
				c0,1.3,0.1,2.5,0.2,3.5c0.2,1,0.2,1.7,0.2,2.2v32c-0.2,0-0.3,0.5-0.3,1.4v1.2c-0.1,0.5-0.1,1.1,0,1.7c0,0.7-0.1,1.2-0.2,1.5
				c-0.1,0.4-0.2,0.9-0.2,1.6v5l-0.2,1.2c0,4-0.1,7.4-0.2,10.1s-0.5,5.4-1,8.1c-1.5,9.1-5.7,16.3-12.3,21.5
				C59.9,168.7,51.3,171.4,41,171.6L41,171.6z"/>
			<path class="st0" d="M196.4,170.1c-0.7,0-1.3,0-1.9-0.1c-0.5-0.1-1-0.1-1.5-0.2h-25.6c-0.1,0-0.3,0-0.5-0.1
				c-0.2-0.1-0.5-0.1-0.8-0.2h-4.6l-6.6-0.1c-0.4,0-0.7,0.1-0.8,0.1c-0.2,0.2-0.6,0.3-1.2,0.3h-0.5l-0.1-0.1c-0.4,0-0.6-0.1-0.6-0.1
				c-0.3-0.1-0.6-0.1-0.9-0.1H150c-0.2-0.8-0.5-2.3-0.8-4.5c-0.3-2.2-1-5.4-2.2-9.5l-1.2-4.3h-8.6c-1.6,0-3.1-0.1-4.3-0.1
				c-1.2-0.1-2.5-0.3-3.9-0.6c0,0.4-0.1,0.9-0.1,1.4c-0.1,0.5-0.2,1.2-0.3,2.2c-0.7,3.8-1.4,7.1-2.2,10c-0.7,2.9-1.3,4.7-1.8,5.5
				h-2.9c-1.1,0-2.5,0.1-4,0.1c-1.5,0-2.5,0.1-2.9,0.3h-1.4c-0.1,0-0.2-0.1-0.2-0.3c-0.1-0.1-0.3-0.1-0.5-0.1
				c-0.8,0-1.4,0.1-1.7,0.1v0.3H90.6c-0.4,0.1-0.9,0.2-1.5,0.2c-0.6,0.1-1.3,0.1-2.1,0.1h-1.5c-0.8,0-1.4-0.3-1.7-0.8
				c-0.7-1-1.1-2.2-1.1-3.4c0-0.7,0.1-1.2,0.2-1.5v-1.5c0-0.5,0.1-1,0.2-1.6c0.2-1.1,0.5-1.9,0.8-2.5c0.3-1.1,0.5-1.9,0.5-2.3
				c0.2-1.2,1.2-5.6,2.8-13c1.7-7.4,4-17.5,7-30.1s6.5-27.3,10.5-43.9c0-0.1,0.1-0.4,0.4-0.8c0.2-0.4,0.6-0.7,1-0.9h0.6l0.3,0.3
				c0.5,0,0.9-0.1,1.2-0.3c0.2-0.2,0.5-0.4,0.8-0.5c0.8-0.2,1.4-0.3,1.8-0.3c0.7,0,1.4,0,2.1,0.1s1.4,0.1,2.1,0.2
				c0.2,0,0.5,0,0.8-0.1c0.3-0.1,0.6,0,0.8,0.2c0.2,0.1,0.5,0.2,1,0.2s0.9,0.1,1.3,0.1c0-0.2,0.2-0.3,0.8-0.4
				c0.5-0.1,0.9-0.1,1.1-0.1c0.9-0.1,2-0.2,3.2-0.2s2.9-0.1,4.9-0.1h14.6c0,0.1,0.5,0.2,1.4,0.2h1.3c0.4,0,0.7,0.1,1.1,0.2h7.7
				c0.2,0.1,0.4,0.2,0.7,0.3s0.5,0.2,0.7,0.2c0.5,0,1.1,0,1.6-0.1c0.6-0.1,1.1-0.1,1.6-0.2c0.5-0.1,1.1-0.2,1.6-0.2h1.2
				c1.1-0.1,2.2-0.2,3.1-0.2s1.9-0.1,2.9-0.1c0.6,0,1.2-0.1,1.9-0.2c0.6-0.1,1.3,0.1,2,0.5c0.8,0.4,1.6,0.6,2.2,0.7s1.3,0.1,1.8,0.1
				c0.4,0,0.6-0.1,0.6-0.3h0.6c0.3,0.1,0.6,0.4,0.9,0.8c0.3,0.5,0.5,0.8,0.5,0.8c1,3.9,2.2,8.6,3.5,14.1c1.3,5.5,2.8,11.4,4.2,17.6
				c1.5,6.3,3,12.6,4.5,19.1s3,12.7,4.5,18.6s2.7,11.2,3.7,15.9c0.2,1,0.3,1.8,0.4,2.2s0.1,0.9,0.2,1.4c0.1,0.7,0.4,1.9,0.9,3.5
				s0.7,2.9,0.7,3.7s-0.2,1.3-0.6,1.4c-0.4,2.1-1.3,3.1-2.6,3.1L196.4,170.1L196.4,170.1z M130.9,132.7c0.6,0,0.9-0.1,0.9-0.3h0.9
				c0.2-0.1,0.6-0.3,1.1-0.5c0.5-0.2,1.1-0.3,1.9-0.3h0.1l1.1,0.8h7.2l-1.1-6.9l-0.6-2.9c-0.2-1.1-0.4-2.1-0.6-2.8
				c-0.2-0.8-0.3-1.5-0.3-2.2c0-0.5-0.1-1.9-0.5-4.1c-0.3-2.2-0.7-4.8-1.1-7.6l-0.6-4.3c-0.3-0.9-0.5-1.8-0.7-2.6
				c-0.1-0.8-0.3-1.6-0.4-2.3l-0.3-1.8v-0.8c-0.2-0.2-0.3-0.5-0.3-0.8c0-0.4-0.1-0.6-0.1-0.6v0.6c0,0.4-0.2,0.9-0.6,1.5v1.8
				c-0.2,0.8-0.4,1.6-0.5,2.5s-0.3,1.6-0.5,2.5l-1.4,7.2c-0.8,4.1-1.4,8.2-1.9,12.2C132.3,124.8,131.7,128.8,130.9,132.7
				L130.9,132.7z"/>
			<path class="st0" d="M224.5,171.3c-0.5,0-1,0-1.4-0.1s-0.8-0.1-1.1-0.2h-6.9l-6.8-1.7l-0.6-1.1c-0.1,0-0.1-0.6-0.1-1.7v-2
				c0-0.6-0.1-1.1-0.1-1.5l-0.1-7.1c-0.1-0.8-0.1-1.8-0.1-2.9s0-2.4-0.1-3.9l-0.3-11.7c0-1.3,0-2.9,0.1-4.6c0.1-1.8,0.1-3.8,0.2-6
				l0.1-5.1c0.1-1.6,0.2-3.8,0.2-6.5s0.1-5.8,0.1-9.6v-3.1c-0.2-0.4-0.3-1-0.3-1.7l-0.1-1.1c0-2.6,0.1-5.2,0.5-8
				c0.1-1.8,0.2-3.4,0.2-4.9s0.1-3,0.1-4.5l-0.1-4.3c-0.1-0.5-0.1-1.1-0.1-1.8v-2.1c0-0.2-0.1-0.4-0.1-0.5c-0.2-0.2-0.3-0.4-0.3-0.6
				c0-1,0.4-1.9,1.2-2.6c0.8-0.7,1.9-1.2,3.1-1.5c0.8-0.2,1.7-0.4,2.7-0.5c1-0.2,2.1-0.2,3.5-0.2h31.6c0.1,0,0.2,0.1,0.5,0.3
				l0.6,0.5c0.9,0.9,1.9,2.3,3.1,4.2c0.3,0.6,0.7,1.3,1.2,2.1c0.5,0.8,1.4,1.9,2.8,3.5c0.4,0.8,0.7,1.9,1,3.3
				c0.3,1.4,0.9,2.8,1.9,4.2l3.5,4.8c0.4,0.7,0.8,1.6,1.2,2.7c0.4,1.1,0.9,2.3,1.5,3.8c0.2,0.4,0.4,0.8,0.5,1.2
				c0.1,0.4,0.3,0.8,0.5,1.2l0.9,2.5c0.1,0.6,0.4,1.1,0.8,1.5c0.1,0.2,0.2,0.4,0.2,0.5c0,0.1,0.1,0.2,0.1,0.3
				c0.4,0.8,1.3,1.9,2.5,3.3s2.1,2.1,2.5,2.1c0.5,0,1-0.7,1.3-2.1s0.7-2.5,1-3.3c0.1-0.1,0.2-0.4,0.3-0.8c0.1-0.2,0.2-0.4,0.3-0.7
				s0.2-0.6,0.5-1l2.3-5.1l6.2-12.9l2.6-5.5c0.2-0.4,0.4-0.8,0.5-1.2s0.2-0.7,0.3-1c0.2-0.5,0.4-0.8,0.5-0.9c0.2-0.5,0.5-1.2,1-1.9
				s1-1.7,1.8-2.8c0.5-0.8,1-1.4,1.4-1.8c0.2-0.1,0.4-0.3,0.6-0.5s0.4-0.3,0.5-0.3h46.8c0.2,0,0.5,0.8,0.8,2.3l0.5,14.9
				c0.1,2.2,0.2,4.9,0.2,8.2c0,3.3,0.1,7.3,0.1,11.9v8.8c0,2.3-0.1,4.8-0.2,7.6c-0.1,2.8-0.3,5.4-0.5,7.6c-0.1,2.3-0.3,3.8-0.4,4.6
				l-0.3,3.1v5.2c0.1,0.7,0.1,1.6,0.1,2.7v3.8c0,3,0,5.6,0.1,7.9c0,2.3,0.2,3.9,0.4,5.1v6.2l-0.5,1.1L336,171h-6.9
				c-0.4,0.1-0.8,0.2-1.2,0.2s-0.9,0.1-1.4,0.1c-0.9,0-2,0-3.2-0.1s-2.7-0.1-4.3-0.2l-3.9-0.1c-0.7-0.1-1.5-0.2-2.5-0.3
				c-0.9-0.1-2-0.1-3.4-0.1l-5.9-0.5c-0.2,0-0.4,0.1-0.5,0.1h-1.2c-0.4,0-0.7-0.6-0.9-1.7c-0.6-1.9-0.9-5.3-0.9-10.3v-4.3
				c0-1.2,0-2.3-0.1-3.2l-0.1-8.3c-0.1-0.9-0.1-2.1-0.1-3.4v-4.5c0-0.8-0.4-1.2-1.1-1.2c-0.4,0-0.8,0.5-1.2,1.5l-1.7,4l-1.4,3.9
				c-0.2,0.6-0.4,1.2-0.6,1.9c-0.2,0.6-0.5,1.2-0.8,1.7l-0.8,1.9c-0.8,2.1-2,4.4-3.5,7c-1.5,2.6-3.4,4.8-5.6,6.4
				c-1.1,0.7-2.2,1.1-3.2,1.1h-2.3c-0.5,0-1,0-1.5-0.1c-0.5-0.1-1-0.1-1.4-0.2h-6.5c-2.1-3.3-4.5-6.7-7.5-10.2
				c-2.9-3.5-5.3-7.3-7-11.2l-3.9-5.5c-0.4-0.6-0.7-1.1-0.9-1.5c-0.1-0.4-0.3-0.5-0.4-0.5c-0.7,0-1.1,0.4-1.1,1.2v7.1
				c0,7.1-0.1,12.8-0.3,17.2c-0.2,4.4-0.6,7.6-1.1,9.6c-0.1,1.2-0.4,1.9-0.8,1.9H244l-0.8-0.1c-1.8,0.1-3.3,0.2-4.7,0.3
				c-1.4,0.1-2.6,0.2-3.6,0.3c-1.2,0.1-2.6,0.2-4.1,0.5S227.2,171.3,224.5,171.3L224.5,171.3z"/>
		</g>
		<g>
			<path class="st0" d="M5.8,224.6l-1.2,0.1c-0.6,0-1-0.2-1.3-0.7c-0.3-0.5-0.5-1-0.5-1.6s-0.1-1.1-0.1-1.5v-1.4
				c0-0.8-0.1-1.6-0.1-2.5c0-0.9-0.1-1.7-0.1-2.4c-0.1-2-0.2-3.7-0.2-5.1c-0.1-1.4-0.2-2.5-0.2-3.3c0-0.8,0-1.6-0.1-2.4
				s-0.2-1.4-0.2-1.8v-22.4c0-0.4,0.2-0.7,0.5-0.8h0.4l0.2,0.1c0.8,0,1.6,0,2.6-0.1c1,0,2.1-0.1,3.4-0.1c1.6,0,3.1-0.1,4.5-0.1
				s2.7,0,3.8,0h0.7c0.2,0,0.6,0.1,1.2,0.1h3.7c0.5,0,1,0,1.3,0.1h6.8c0.4,0.1,0.9,0.1,1.6,0.1s1.5,0,2.4,0c0.4,0,0.7,0,0.8,0.1
				c0.2,0.1,0.4,0.1,0.6,0.1s0.4,0,0.7,0c0.2,0,0.3-0.1,0.5-0.2c1,0,1.5,0.9,1.6,2.8c0,0.2,0.1,0.4,0.1,0.6c0,0.2,0,0.4,0,0.6
				c0,0.1,0,0.4-0.1,0.9s-0.1,0.9-0.1,1.3c0,0.4,0,0.8,0,1.4s0,1.2,0,2c0,0.4-0.2,0.7-0.8,0.8s-1,0.1-1.5,0.1h-3.9l-1.9,0.1
				c-0.4,0.1-1.1,0.2-2.1,0.2s-1.5,0-1.6-0.1l-0.3,0.1c0,0-0.1,0.1-0.2,0.1c0,0.1,0,0.2-0.1,0.3c0,0.1-0.1,0.2-0.1,0.3
				s0,0.7-0.1,1.6c-0.1,0.9-0.1,1.9-0.2,3.1s-0.1,2.2-0.1,3.1l-0.1,0.1c0,0.2,0.1,0.4,0.3,0.6h7.9c1,0,1.6,0.3,1.8,0.9
				c0.2,0.5,0.3,1.8,0.3,3.9v5.5c-0.2,0.7-0.5,1-1,1c-0.2,0-0.4,0-0.5,0s-0.3,0.1-0.5,0.1l-2.8,0.1h-1.3c-0.6,0-1.1,0.1-1.4,0.1
				l-1.3,0.2h-0.9c-0.7,0-1.2,0.1-1.4,0.3c0,0-0.1,0.1-0.3,0.2c-0.1,0.1-0.2,0.2-0.3,0.5c0,1.9,0,3.6-0.1,4.9s-0.1,2.4-0.1,3.2
				c0,1-0.1,1.9-0.2,2.6c-0.1,0.7-0.2,1.3-0.4,1.8c-0.4,0-0.9,0-1.5,0s-1.2,0.1-2,0.1c-0.4,0-0.7,0-0.9,0c-0.2,0-0.4,0.1-0.5,0.1
				h-0.7c-0.2,0-0.4,0-0.4-0.1c0-0.1-0.1-0.1-0.3-0.1l-0.2-0.1c0,0-0.1-0.1-0.2-0.1c-0.2,0-0.4,0.1-0.5,0.3l-5.4-0.7
				c0,0-0.1,0.1-0.3,0.1l-0.6,0.2L5.8,224.6L5.8,224.6z"/>
			<path class="st0" d="M58.2,224.2H47.3c-0.5,0-0.8,0-1-0.1c-0.2-0.1-0.5-0.1-0.8-0.1s-0.6-0.1-0.9-0.1l-1.5-0.3
				c-0.2,0-0.4-0.1-0.5-0.2v-0.1c0-1.2-0.1-2.7-0.2-4.6c0-0.7,0-1.3-0.1-1.8s-0.1-0.9-0.2-1.4l-0.1-2.9c0-0.4-0.1-0.9,0-1.4
				c0-0.5,0-1.1,0-1.7l-0.1-2c0-0.9-0.1-1.6,0-2.3c0-0.7,0-1.2,0-1.7c0-0.2,0-0.5,0-0.9c0-0.3,0-0.9,0-1.7v-3.5
				c0-4.3,0-7.8,0.1-10.4c0.1-2.6,0.2-5,0.4-7c0-0.4,0.6-0.9,1.7-1.2c0.5,0,1-0.1,1.6-0.1s1.2,0,1.8,0c1.9,0,3.5,0,4.9,0
				c1.3,0,2.5-0.1,3.3-0.2c2.7,0,5.1-0.1,7.1-0.1s3.7,0,5.2,0h3c1.9,0,3.6,0,5,0.1c1.4,0.1,2.6,0.2,3.7,0.3c0.7,0,1.2,0.8,1.6,2.5
				c0.1,0.2,0.2,0.4,0.2,0.8c0,0.4,0.1,0.9,0.3,1.7c0.1,1,0.2,1.8,0.3,2.3c0.1,0.5,0.2,1.1,0.3,1.6c0.1,0.1,0.1,0.3,0.1,0.8
				c-0.1,0.1-0.1,0.2-0.1,0.5c-0.1,0.4-0.3,0.6-0.8,0.6c-0.1,0-0.3-0.1-0.8-0.1c-1,0-2.1,0.1-3.3,0.2s-2.5,0.2-4,0.3l-3.6,0.3
				l-3.6,0.3c-0.1,0-0.3,0.2-0.6,0.8c-0.1,0.3-0.3,0.5-0.4,0.6c-0.1,0.1-0.2,0.4-0.3,0.8l-0.1,2.3c-0.1,0.6,0,1,0.2,1.2
				c0.2,0.2,0.5,0.3,1,0.3h6.1c1.7,0,3.8,0.1,6.1,0.4h0.7c0.9,0,1.4,0.5,1.6,1.5l0.1,6.7v0.2c0,0.8-0.8,1.3-2.3,1.4
				c-0.4,0.1-1,0.2-1.9,0.3c-0.8,0.1-2.1,0.1-3.8,0.1h-3.3c-0.5,0-0.9,0-1.1-0.1h-1.9c-0.3,0-0.5,0-0.6,0.1
				c-0.5,0.1-0.8,0.2-0.9,0.3c-0.2,0.1-0.2,0.4-0.2,0.9s0,1.4-0.1,2.6c-0.1,0.2-0.1,0.4-0.1,0.7c0,0.3,0,0.9,0,1.9
				c2.8,0,4.9,0,6.5-0.1c1.6,0,2.8-0.1,3.7-0.1c1.3,0,2.5-0.1,3.6-0.1s2.1,0,2.9,0c0.1,0,0.3,0.2,0.6,0.5c0.2,0.3,0.4,1.1,0.8,2.4
				c0.3,1.3,0.7,3.1,1.2,5.4c0.1,0.2,0.1,0.6,0.1,1c0,0.9-0.4,1.4-1.3,1.4c-1.5,0-3.1,0.1-4.9,0.2c-0.3,0-0.8,0.1-1.3,0.1h-8.9
				c-1.9,0-3.7,0-5.4,0C60.3,224.2,59.1,224.2,58.2,224.2L58.2,224.2z"/>
			<path class="st0" d="M102.1,226.3c-3.1,0-6-0.4-8.7-1.1s-5.1-1.7-7.1-3.1c-0.2-1.1-0.4-2.1-0.7-3.2c-0.2-1-0.4-2.2-0.6-3.6
				s-0.4-3-0.7-5v-0.2c0.1-0.4,0.4-0.8,1-1.2c1.6,1,3.1,1.8,4.4,2.3c1.3,0.5,2.4,0.8,3.3,0.8h2.1l1.2,0.1c1.1,0,2-0.2,3-0.5
				c1.2-0.4,1.9-1,2-1.8c0.2-0.7-0.1-1.4-0.9-2c-0.7-0.6-1.9-1-3.4-1.2c-2.1-0.3-4.1-1.1-6.1-2.4c-1.9-1.3-3.5-3-4.7-5
				s-1.8-4.1-1.8-6.4c0-4,1.1-7.2,3.4-9.4c2.2-2.2,5.1-3.9,8.6-4.9c3.1-0.9,6.5-1.3,10.2-1.3c1.1,0,2.2,0.1,3.5,0.2s2.9,0.3,4.8,0.6
				c0.4,0.2,1,0.4,1.9,0.4l1.8,0.4c0.8,0.2,1.4,0.3,2,0.3c0.5,0,0.9,0,1.3,0c0.1,0,0.1,0,0.1,0s0.1,0,0.1,0c0.1,0.1,0.2,0.1,0.3,0.2
				c0.1,0.2,0.2,0.4,0.3,0.4c0.1,0.1,0.2,0.1,0.2,0.1h0.1l0.1,1.5c0,0.4,0,0.8,0.1,1.1s0.1,0.7,0.1,1c0.1,0.6,0.2,1.2,0.2,1.8
				c0.1,0.6,0.1,1.2,0.1,1.9c0,2.2-0.5,3.7-1.4,4.4l-6-0.8h-1c-0.3,0-0.9,0-1.8-0.1c-0.9,0-1.8-0.1-2.8,0c-1,0-1.8,0.1-2.6,0.3
				c-0.7,0.2-1.1,0.5-1.1,1c0,0.5,0.2,1.1,0.5,1.6c0.3,0.5,0.9,1,1.6,1.3c0.3,0.2,0.6,0.4,0.9,0.5s0.6,0.3,0.9,0.4
				c0.4,0.1,0.7,0.2,0.9,0.3c0.2,0.1,0.4,0.2,0.4,0.2c1.6,0.5,3.1,1.2,4.4,2c1.3,0.8,2.7,1.8,3.9,3c1.3,1.3,2.2,2.8,2.7,4.5
				c0.5,1.8,0.6,3.5,0.6,5.1c-0.4,3.4-1.6,6.3-3.7,8.8c-1.2,1.1-2.4,2.1-3.7,2.9s-2.8,1.5-4.3,2
				C109.4,225.8,106.1,226.3,102.1,226.3L102.1,226.3z"/>
			<path class="st0" d="M138.8,224.6c-0.5,0-1-0.4-1.4-1.3c-0.7-1.5-1-4.2-1-8c0-1.9,0-4.1,0-6.7s0.1-5.1,0.2-7.5
				c0.1-0.8,0.1-1.8,0.1-3v-4.5H127c-1.2,0-1.9-1.2-2.2-3.7c-0.1-0.6-0.1-1.4-0.2-2.4s-0.1-2.1-0.1-3.3v-1.5c0-0.2,0-0.3,0.1-0.4
				v-1.6c0-0.3,0.1-0.5,0.4-0.7c0.3-0.2,0.6-0.3,0.9-0.4c0.5-0.1,1.2-0.2,2.1-0.2h7.1c0.6,0,1.1,0,1.5,0c0.4,0,0.8,0,1.1,0l2.4,0.1
				h26.3c0.6,0,1,0,1.2,0.1h0.4c0.2,0,0.4,0,0.6,0.1c0.4,0.1,0.8,0.1,1.1,0.3c0.3,0.1,0.4,0.3,0.4,0.5v12c0,0.6-0.2,0.9-0.5,1.1
				c-0.3,0.1-0.7,0.2-1.1,0.2h-9.4v4.5c0,0.3,0,0.5-0.1,0.6c0,0.6,0,1.7-0.1,3.1c-0.1,1.4-0.1,3.2-0.2,5.4l-0.1,2
				c-0.1,0.9-0.1,1.9-0.2,3s-0.1,1.9-0.2,2.4v6.4c0,1.5-0.3,2.5-1,2.9c-0.3,0.1-0.6,0.2-0.8,0.2c-0.2,0-0.3,0.1-0.5,0.1l-1.6,0.1
				c-0.9,0-1.6,0.1-2.3,0.1s-1.1,0-1.5,0l-7.1,0.1c-0.4,0-1,0-1.8,0S140,224.7,138.8,224.6L138.8,224.6z"/>
			<path class="st0" d="M177.5,225.2l-1.8,0.3c-0.6,0-1.1-0.3-1.4-1s-0.5-1.4-0.6-2.2c-0.1-0.8-0.1-1.4-0.1-1.8c0-0.9,0-1.4-0.1-1.5
				c-0.1-0.8-0.1-1.8-0.1-3c-0.1-1.2-0.1-2.6-0.3-4.2l-0.3-3c-0.2-2.4-0.3-4.4-0.3-6c-0.1-1.6-0.1-3.1-0.1-4.2v-19
				c0-0.4,0.4-0.8,1.1-0.9c0.7-0.2,1.6-0.2,2.6-0.2h1c0.4,0,0.7,0,1.1,0.1c0.4,0.1,0.7,0.1,1,0.1c0.3,0,0.5,0,0.7,0
				c0.4,0.1,0.9,0.1,1.5,0.1c0.6,0,1.4,0,2.2,0l0.3-0.2h3.4c0.2,0.1,0.4,0.2,0.6,0.2h0.3c0.1-0.1,0.4-0.1,0.9-0.1
				c0,0,0.1-0.1,0.1-0.1h0.1c0.2,0,0.4,0,0.6,0.1l0.5,0.1h4.2c0.6,0,1.1,0.1,1.3,0.4c0.2,0.3,0.3,0.6,0.3,0.8l0.2,12.3
				c0,0.1,0,0.3-0.1,0.4l-0.2,1.2c-0.2,0.9-0.3,1.8-0.3,2.6v17.2l-0.2,2.9c-0.1,0.7-0.1,1.3-0.1,1.8c-0.1,0.5-0.1,1,0,1.4
				c0,2-0.2,3.4-0.8,4.1c-0.3,0.4-0.7,0.6-1.4,0.6l-0.1-0.1l-0.3-0.1c-0.1,0-0.1,0-0.1,0.1h-0.3c-0.1,0-0.2,0.1-0.3,0.1
				s-0.2,0.1-0.2,0.1c-0.1,0-0.4,0-0.7-0.1s-0.7-0.1-1.2-0.2l-1.1-0.1c-0.2,0-0.4,0.1-0.4,0.3h-7.1l-2.1,0.3L177.5,225.2
				L177.5,225.2z"/>
			<path class="st0" d="M217.1,225.1c-0.3,0-0.6,0-0.9-0.1c-0.3-0.1-0.6-0.1-1-0.2c-0.3,0-0.6-0.1-1-0.1s-0.6-0.1-0.9-0.1
				c-0.1,0-0.1,0-0.1,0.1h-0.4c-0.5-0.3-0.7-0.5-0.7-0.7l-4.9-14.4c-0.5-1.5-1.1-3.4-1.8-5.6c-0.7-2.2-1.5-4.6-2.4-7.2
				s-2-5.1-3.2-7.6c-0.1-0.1-0.1-0.3-0.1-0.6l-0.2-0.9c-0.1-0.4-0.2-0.7-0.2-0.9c-0.1-0.2-0.1-0.5-0.1-0.9c0-0.4-0.1-0.8-0.2-1.3
				c-0.2-0.5-0.2-1,0-1.6s0.6-0.9,1.5-1.3l1.6-0.7l5.6-1.2c0,0,0.1,0,0.3,0s0.2,0,0.3,0c0.1,0.1,0.1,0,0.2-0.2s0.1-0.2,0.1-0.2
				c0.1,0.1,0.2,0.1,0.2,0c0.1,0,0.1-0.1,0.1-0.1c0.1,0,0.2-0.1,0.3-0.1s0.2,0,0.3-0.1l0.4-0.2l1.4-0.1l4.3-0.8
				c1-0.3,1.8-0.3,2.4,0.1c0.6,0.4,1,0.9,1.3,1.5c0.3,0.6,0.5,1.2,0.6,1.6l1.2,3.1c0.1,0.3,0.4,1,0.7,2.1c0.4,1.1,0.7,2.2,1.1,3.3
				c0.4,1.2,0.6,2.1,0.8,2.7l0.1,0.3c0,0.3,0,0.5,0.1,0.7c0.2,0.2,0.4,0.5,0.6,0.9s0.3,0.7,0.3,0.9l0.4,1.4l0.9,2l1.4,4.1l0.4,1
				l0.7,1.2c0-0.1,0.1-0.3,0.4-0.8c0.2-0.4,0.5-0.8,0.7-1.3s0.4-0.7,0.4-0.8l0.8-3.2l0.7-2.4c0.1-0.2,0.1-0.5,0.2-0.7
				s0.1-0.5,0.1-0.6l0.2-1.1l0.2-1c0.1-0.4,0.3-0.9,0.5-1.3c0.2-0.4,0.5-1,0.6-1.9c1.1-4.1,1.8-7.2,2.3-9.2s1.3-2.9,2.3-2.6l3,0.1
				l5.2,0.5c0.2,0,0.5,0.1,0.8,0.3c0.3,0.2,0.5,0.2,0.7,0.2l2.1,0.2c0.6,0.1,1.3,0.4,1.9,1.1c0.6,0.7,0.8,1.4,0.4,2.2
				c0,0.2,0,0.5-0.1,0.9c0,0.4-0.1,1-0.3,1.8c-0.1,0.2-0.1,0.4-0.2,0.5c-0.1,0.2-0.1,0.3-0.1,0.4c-0.1,0.1-0.1,0.2-0.1,0.3
				s0,0.2-0.1,0.2c-0.5,1.4-1,3.3-1.6,5.5s-1.3,4.6-2,7c-0.7,2.4-1.3,4.7-1.9,6.8c-0.6,2.1-1,3.8-1.4,4.9l-3.6,12.6
				c0,0.1-0.2,0.4-0.7,0.7h-0.2l-0.3-0.1h-0.5c-0.2,0-0.3,0.1-0.4,0.2c-0.2,0.2-0.5,0.3-0.8,0.3c-0.7,0-1.3-0.1-1.9-0.3
				c-0.4,0-0.7-0.1-1-0.1s-0.6,0-0.8,0c-1.5,0.1-3.3,0.2-5.4,0.2s-4.3,0.1-6.4,0.1C220.2,225,218.4,225,217.1,225.1L217.1,225.1z"/>
			<path class="st0" d="M301.1,224.1c-0.3,0-0.6,0-0.8,0c-0.2,0-0.5-0.1-0.7-0.1h-11.4c0,0-0.1,0-0.2,0c-0.1,0-0.2-0.1-0.4-0.1h-2.1
				l-3-0.1c-0.2,0-0.3,0-0.3,0.1c-0.1,0.1-0.3,0.1-0.5,0.1h-0.2l-0.1-0.1c-0.2,0-0.3,0-0.3-0.1c-0.1,0-0.3-0.1-0.4-0.1h-0.3
				c-0.1-0.4-0.2-1-0.3-2c-0.1-1-0.5-2.4-1-4.2l-0.5-1.9h-3.9c-0.7,0-1.4,0-1.9-0.1c-0.5,0-1.1-0.1-1.7-0.3c0,0.2,0,0.4-0.1,0.6
				c0,0.2-0.1,0.5-0.1,0.9c-0.3,1.7-0.6,3.1-1,4.4c-0.3,1.3-0.6,2.1-0.8,2.4h-1.3c-0.5,0-1.1,0-1.8,0.1c-0.7,0-1.1,0.1-1.3,0.1H264
				c0,0-0.1,0-0.1-0.1c0,0-0.1-0.1-0.2-0.1c-0.4,0-0.6,0-0.8,0.1v0.1h-9.2c-0.2,0-0.4,0.1-0.6,0.1s-0.6,0-0.9,0h-0.7
				c-0.4,0-0.6-0.1-0.8-0.3c-0.3-0.4-0.5-0.9-0.5-1.5c0-0.3,0-0.5,0.1-0.7v-0.6c0-0.2,0-0.4,0.1-0.7c0.1-0.5,0.2-0.9,0.3-1.1
				c0.1-0.5,0.2-0.8,0.2-1c0.1-0.5,0.5-2.5,1.3-5.8c0.8-3.3,1.8-7.7,3.1-13.3c1.3-5.6,2.9-12,4.7-19.4c0,0,0.1-0.2,0.2-0.3
				c0.1-0.2,0.3-0.3,0.5-0.4h0.3l0.1,0.1c0.2,0,0.4,0,0.5-0.1c0.1-0.1,0.2-0.2,0.4-0.2c0.4-0.1,0.6-0.1,0.8-0.1c0.3,0,0.6,0,0.9,0
				s0.6,0.1,0.9,0.1c0.1,0,0.2,0,0.3,0c0.1,0,0.2,0,0.3,0.1c0.1,0.1,0.2,0.1,0.5,0.1c0.2,0,0.4,0,0.6,0c0-0.1,0.1-0.1,0.4-0.2
				s0.4,0,0.5,0c0.4,0,0.9-0.1,1.5-0.1c0.5,0,1.3,0,2.2,0h6.5c0,0,0.2,0.1,0.6,0.1h0.6c0.2,0,0.3,0,0.5,0.1h3.4
				c0.1,0.1,0.2,0.1,0.3,0.1c0.1,0.1,0.2,0.1,0.3,0.1c0.2,0,0.5,0,0.7,0s0.5-0.1,0.7-0.1c0.2,0,0.5-0.1,0.7-0.1h0.5
				c0.5,0,1-0.1,1.4-0.1c0.4,0,0.9,0,1.3,0c0.3,0,0.5,0,0.8-0.1s0.6,0,0.9,0.2c0.4,0.2,0.7,0.3,1,0.3c0.3,0,0.6,0,0.8,0
				c0.2,0,0.3,0,0.3-0.1h0.3c0.1,0.1,0.3,0.2,0.4,0.4c0.1,0.2,0.2,0.3,0.2,0.4c0.5,1.7,1,3.8,1.6,6.2c0.6,2.4,1.2,5,1.9,7.8
				c0.7,2.8,1.3,5.6,2,8.4c0.7,2.9,1.4,5.6,2,8.2s1.2,4.9,1.6,7c0.1,0.4,0.1,0.8,0.2,0.9c0,0.2,0.1,0.4,0.1,0.6
				c0,0.3,0.2,0.8,0.4,1.6c0.2,0.7,0.3,1.3,0.3,1.6s-0.1,0.6-0.3,0.6c-0.2,0.9-0.6,1.4-1.2,1.4L301.1,224.1L301.1,224.1z
				 M271.8,207.6c0.3,0,0.4,0,0.4-0.1h0.4c0.1,0,0.2-0.1,0.5-0.2s0.5-0.1,0.8-0.1h0.1l0.5,0.3h3.2l-0.5-3.1l-0.3-1.3
				c-0.1-0.5-0.2-0.9-0.3-1.3c-0.1-0.3-0.1-0.7-0.1-1c0-0.2-0.1-0.8-0.2-1.8c-0.1-1-0.3-2.1-0.5-3.4l-0.3-1.9
				c-0.1-0.4-0.2-0.8-0.3-1.2c-0.1-0.4-0.1-0.7-0.2-1l-0.1-0.8v-0.3c-0.1-0.1-0.1-0.2-0.1-0.3c0-0.2,0-0.3-0.1-0.3v0.3
				c0,0.2-0.1,0.4-0.3,0.7v0.8c-0.1,0.4-0.2,0.7-0.2,1.1c0,0.4-0.1,0.7-0.2,1.1l-0.6,3.2c-0.4,1.8-0.6,3.6-0.8,5.4
				C272.4,204.1,272.1,205.8,271.8,207.6L271.8,207.6z"/>
			<path class="st0" d="M339.3,224.6h-10.4c-2.4,0-4.5,0-6.3,0c-1.8,0-3.2,0-4.3,0s-2,0-2.8,0c-0.8,0-1.4,0-1.9,0l-5.9-0.1
				c-0.5,0-0.9-0.2-1.3-0.6c-0.4-0.4-0.6-0.8-0.6-1.3v-22.2l-0.1-3.8c0-2,0-3.9,0.2-5.6c0.2-1.8,0.2-3.9,0.2-6.4v-1.6
				c0-1.4,0.2-2.5,0.7-3.2c0.2-0.4,0.6-0.6,1.2-0.6c1.2,0,2.4,0,3.6,0s2.5,0.1,3.9,0.1c0.2,0.1,0.4,0.1,0.8,0.1h3c0.6,0,1,0,1.4,0.1
				h5.6c0.9,0,1.6,0.2,2.3,0.5s1,1.4,1,3.1l-0.1,0.5c0,0.1,0,0.2,0,0.4c0,0.2,0,0.4,0,0.8c-0.2,0.6-0.3,1.1-0.3,1.5
				c0,0.3,0,0.6,0.1,0.9c0,0.3,0.1,0.7,0.2,1.1c0,0.3,0,0.5,0,0.7c0,0.2,0,0.3,0,0.4l0.1,0.4v17.8c0,0.4,0.1,0.6,0.4,0.7
				c0.3,0.1,0.6,0.1,1.1,0.1h5.2c0.7,0,1.5,0,2.5,0c1,0,2.1,0,3.4,0c0.5,0,0.9,0.1,1.3,0.4c0.3,0.3,0.5,0.6,0.5,0.9v13.7
				c0,0.3-0.2,0.6-0.6,0.8c-0.4,0.2-0.9,0.4-1.4,0.4C341.7,224.6,340.7,224.7,339.3,224.6L339.3,224.6z"/>
		</g>
	</g>
</g>
</svg>
