<?xml version="1.0" encoding="UTF-8"?>
<svg id="Calque_2" data-name="Calque 2" xmlns="http://www.w3.org/2000/svg" viewBox="0 0 283.28 285.38">
  <defs>
    <style>
      .cls-1 {
        fill: #7b9ad7;
      }

      .cls-2 {
        opacity: .2;
      }
    </style>
  </defs>
  <g id="Main_Background">
    <g class="cls-2">
      <path class="cls-1" d="m60.04,285.12c-8-3-17-3-26-5-6-2-11-5-17-7v-3c7-13,11-27,10-41-1-10-3-20-5-30-7-28-15-52-20-80C-1.96,87.12.04,57.12,7.04,25.12c1-5,6-9,11-7,14,7,30,11,45,8,2,9,2,18,5,26s3,17,6,25c6,12,14,23,22,34,7,8,15,18,27,16v-3c-7-10-8-22-8-33-1-29,7-59,26-81,13-9,28-8,43-9,29-3,57,0,85,9,2,0,1,1,1,2-14,19-15,41-9,63,11,44,22,85,22,129,1,21-1,41-8,61-6,2-12,1-17-3,0,0-1,1-2,1-6-2-12-5-18-7-5-2-9-2-14-2l-1,1c-1-2-1-4-1-6,2-15,3-30,0-45-3-22-8-44-23-62-1-1-2,0-2,1,8,24,14,48,7,73-2,10-5,22-16,25-6,2-12,4-17,7-6-13-16-23-28-32-1-1-1-2-2-3-6-6-13-7-20-12l-2,1c4,10,9,20,10,31,0,9,0,18-2,26-3,7-6,15-10,21-19,4-38,6-57,5h0Z"/>
    </g>
  </g>
</svg>